<?xml version="1.0" encoding="utf-8"?>
<!-- Generator: Adobe Illustrator 25.1.0, SVG Export Plug-In . SVG Version: 6.00 Build 0)  -->
<svg version="1.1" id="Calque_1" xmlns="http://www.w3.org/2000/svg" xmlns:xlink="http://www.w3.org/1999/xlink" x="0px" y="0px"
	 viewBox="0 0 1920 1080" style="enable-background:new 0 0 1920 1080;" xml:space="preserve">
<style type="text/css">
	.st0{fill:#FADCE6;}
	.st1{fill:#FFD485;}
	.st2{fill:#FDEF87;}
	.st3{display:none;fill:#FFFFFF;}
</style>
<rect x="124" class="st0" width="27" height="1080"/>
<rect x="34" class="st1" width="27" height="1080"/>
<rect x="81" class="st2" width="27" height="1080"/>
<g>
	<g id="Background_2_">
		<path class="st3" d="M1379.5,1199.5c2.8-1.6,5.5-3.4,8.1-5.2c4.5-5.2,8.4-10.7,12.1-16.3c13.8-26.4,23.6-53.8,33.7-81.1
			c5.3-14.2,10.6-28.4,16.8-42.3c8-18.1,18.9-35.3,29.4-52.6c23-41.4,41-84.2,56.1-127.5c28.6-82.1,46.8-165.9,73.6-248.3
			c25.7-78.9,59.3-156.5,76.2-236.7c2.1-13.7,3.4-27.4,5.7-41c2.7-16.4,6.1-32.6,9.3-48.9c2.1-12.7,3.6-25.5,3.2-38.2
			c-5.5-6.6-9.8-13.7-12.7-21.3c-0.9-5.1-1.9-10.3-2.9-15.4c-1.2-1.4-2.3-2.9-3.3-4.3c-13.7-20-19.7-40-20.1-62.5
			c-0.2-14.4,2.3-28.4,1.5-42.7c-5.4-19.4-13.8-38.2-21.3-57.2c-4.5-11.4-8.7-23-11.4-34.7c-4.3-18.2-8.3-36.9-7.4-55.5
			c0.4-8.1,2.1-15.8,5-23.1H706.4v1280.7h649.7C1360.8,1215.6,1368.6,1206.9,1379.5,1199.5z"/>
		<path id="Path_1_2_" class="st2" d="M1192.7,172.2c-2.4,0.2-6.9,0.7-10.1,1.1l-5.7,0.6c1.5,22.1,2.8,36.1,3.9,45.3
			c1.1,9.2,2.8,21.7,3.8,27.6c1,6,3.3,17.7,5.1,26l3.3,15.2h24.8c2.8-10.9,4.8-19.7,6.3-26.6c1.4-6.9,3.7-20,5.1-29.3
			c1.4-9.2,3.1-22.7,3.8-29.8c0.7-7.2,1.3-16.4,1.3-20.6c0.1-7.4,0-7.6-3.4-8.3c-1.9-0.4-10.3-1-18.6-1.3
			C1203.9,171.9,1195.1,171.9,1192.7,172.2z"/>
		<path id="Path_3_2_" class="st2" d="M1073.7,220.5c-5.3,4.9-13.1,13.3-17.2,18.5c-4.1,5.2-7.5,10.1-7.5,10.8
			c0,0.8,6.1,5.1,13.5,9.6c7.4,4.5,20.9,12.4,29.9,17.5c9,5,24.9,13.3,35.3,18.4s22.4,10.8,26.8,12.6s8.1,3.3,8.3,3.1
			c0.2-0.1,1.7-2,3.3-4.1c1.6-2.1,5-5.6,7.5-7.8l4.5-4c-5.1-5.5-10.7-11.3-15.7-16.4c-5-5.1-16.6-16-25.7-24.3
			c-9.1-8.3-24.4-21.2-34-28.7c-9.6-7.5-17.9-13.8-18.4-14C1083.9,211.7,1079.1,215.6,1073.7,220.5z M1321.8,216.7
			c-2.8,2.2-13.1,10.3-23,18.1c-9.9,7.8-25.6,21.3-34.8,29.9s-20,19-23.9,23l-7.1,7.3c7.8,7.6,10.9,11.2,12,13s2.6,3.2,3.5,3.2
			c0.9,0,8.7-3.2,17.3-7.2c8.7-3.9,21.7-10.1,29-13.7c7.3-3.6,24.6-13,38.4-21c13.9-8,26.3-15.2,27.7-16.1c1.8-1.2,2.2-2.2,1.5-3.6
			c-0.6-1.1-3.4-4.9-6.2-8.4s-7.7-9.2-10.8-12.5c-3.1-3.3-8.3-8.3-11.4-11.1s-6.1-5.1-6.4-5.1
			C1327.2,212.8,1324.6,214.5,1321.8,216.7z"/>
		<path id="Path_5_2_" class="st2" d="M1120.3,326.7c-9.7,0.5-26.4,1.7-37.2,2.6c-10.7,1-27.9,3-38.1,4.4s-18.9,2.6-19.2,2.6
			s-0.6,1.6-0.6,3.5c0,1.9,0.9,8.1,2,13.8c1.1,5.7,3.7,14.9,5.8,20.6c2.1,5.7,3.9,10.4,4,10.6c0.1,0.2,11.1-2.4,24.4-5.7
			c13.3-3.3,33.5-8.9,44.7-12.4c11.3-3.5,27-8.9,35-11.8c8-3,16.5-6.2,18.9-7.2l4.4-1.9c-3.3-7.8-4.4-12.4-4.6-15.2l-0.4-5.1
			C1142.7,325.7,1129.9,326.2,1120.3,326.7z M1251.4,328.2c-0.4,0.9-0.7,2.9-0.7,4.3c0,1.5-1.1,5.1-2.5,8.1l-2.5,5.4
			c20,8.1,33.8,13.2,43.5,16.6c9.7,3.3,25,8.2,34,10.9c9,2.7,23.8,6.6,32.8,8.9c9,2.2,16.7,3.6,17.2,3.1c0.4-0.5,2-4.1,3.4-8
			c1.5-3.9,3.8-11.2,5.1-16.3c1.4-5.1,2.9-12.2,3.5-15.9c0.9-6.1,0.8-6.7-1.5-7.3c-1.4-0.4-9-1.6-17-2.8c-8-1.2-23.3-3.1-34-4.3
			c-10.7-1.2-27.2-2.7-36.5-3.3c-9.4-0.6-23.1-1.1-30.4-1.1C1254.8,326.6,1252,326.9,1251.4,328.2z M1170.7,361.6
			c-2.3,2.5-8.1,9.2-13,14.8c-4.8,5.7-14.2,17.4-20.8,26c-6.6,8.6-17.2,23.5-23.5,33.1c-6.3,9.5-11.3,18-11.2,18.9
			c0.2,0.8,5.4,4.1,11.7,7.3c6.2,3.2,17.2,7.8,24.3,10.1c7.1,2.4,13.3,4.3,13.9,4.4s1.9-1.8,3-4.1c1.2-2.3,5.3-10.9,9.3-19.3
			c4-8.4,10-22.3,13.4-30.9c3.4-8.6,9.1-24.3,12.5-34.7c3.4-10.4,6.2-19.6,6.2-20.3s-1.8-1.6-4.1-1.9c-2.3-0.3-7.1-2.2-10.8-4.3
			l-6.7-3.8L1170.7,361.6z M1228,361.4c-3.1,1.8-7.6,3.5-9.9,4c-4.1,0.8-4.2,0.9-3.4,5.1c0.4,2.4,3.4,12.4,6.6,22.2
			c3.2,9.8,8.9,25.7,12.7,35.2c3.8,9.5,10.2,24.2,14.1,32.5c4,8.5,8,15.3,9,15.5c1,0.2,8.3-1.9,16.3-4.6c8-2.7,18.9-7.3,24.3-10.1
			s9.8-5.6,9.8-6.2s-5.8-9.9-12.8-20.6c-7-10.7-18.1-26.6-24.7-35.2c-6.6-8.6-16.9-21.5-22.8-28.5c-6-7-11.4-12.7-12.2-12.6
			C1234.2,358.1,1231.1,359.6,1228,361.4z"/>
		<path id="Path_6_2_" class="st0" d="M1478.1,396.7c-1.5,0.3-2.4,1.3-2.2,2.3c0.2,1,1.2,8.2,2.2,15.9c1.1,7.8,3.3,19.7,4.9,26.6
			c1.7,6.9,3.9,15.3,5,18.7l2,6.2h11.3c2.8-8.8,4.8-15.8,6.2-21.1s3.3-14.9,4.4-21.1c1-6.3,2.2-14.8,2.7-19c0.8-7.3,0.7-7.6-2.1-8.4
			c-1.6-0.4-9.4-0.8-17.4-0.7C1487.1,396.2,1479.4,396.5,1478.1,396.7z M1407.6,444c-1.6,3.1-3.8,8.4-4.9,11.7
			c-1.1,3.3-2.3,7.8-2.7,10c-0.7,4-0.6,4.1,4,5.1c2.6,0.6,10.7,2,17.9,3.2c7.3,1.2,17.8,2.7,23.3,3.3c5.5,0.6,15.8,1.4,22.7,1.8
			l12.6,0.7c3-8.4,2.9-9.1,0.9-10.5c-1.2-0.9-9.6-5.4-18.6-10c-9-4.6-23.6-11.3-32.4-14.7c-8.8-3.4-16.9-6.3-18-6.3
			C1411.4,438.3,1409.3,440.7,1407.6,444z M1560.6,444.6c-8.7,3.4-23.1,10-32.1,14.7c-9,4.6-17.4,9.1-18.6,10c-1.9,1.4-2,2.1-0.6,6
			l1.6,4.5c18.6-1.1,28.8-1.9,34.7-2.5s16.7-2.1,23.9-3.3c7.3-1.2,15.4-2.7,17.9-3.2c4.6-1,4.7-1.1,4-5.1c-0.4-2.2-1.6-6.8-2.7-10
			s-3.3-8.5-4.9-11.7c-2-3.8-3.8-5.7-5.2-5.7C1577.3,438.3,1569.3,441.1,1560.6,444.6z M1472.8,492.8c-5.4,3.7-16.4,12.4-24.3,19.3
			c-8,6.8-16.8,14.9-19.5,17.8l-5,5.3c11.9,9.4,19,13.8,23.4,15.8l8.1,3.7c3.9-4.4,8.4-10.9,12.6-17.3c4.2-6.4,10.5-17.6,14-24.7
			c3.6-7.2,7.2-14.8,8.2-17c1.7-3.8,1.6-4-2-6.7c-2.1-1.5-4.2-2.8-4.6-2.8C1483,486,1478.2,489,1472.8,492.8z M1503.3,488.9
			l-3.8,2.8c3.7,8.6,7.9,17,11.6,24.2c3.7,7.2,10.6,18.8,15.2,25.8c4.7,7,9.1,12.7,9.8,12.7c0.7,0,4.6-1.6,8.7-3.5
			c4.1-1.9,10.9-6.2,15.1-9.6l7.7-6.1c-9.7-9.9-18.2-17.6-25.2-23.6c-6.9-6-17.3-14.1-23-18.2c-5.7-4-10.8-7.3-11.3-7.3
			C1507.5,486,1505.3,487.3,1503.3,488.9z"/>
		<path id="Path_7_2_" class="st1" d="M1200.3,519.2c-2.4,0.3-5.7,0.7-7.3,1l-2.9,0.6c1.1,30.6,2.3,48,3.3,58.4
			c1,10.4,3,26.8,4.4,36.3c1.4,9.5,4,25.2,5.8,34.7c1.8,9.5,3.6,17.7,4.1,18.1s4.5,0.3,9-0.2c4.9-0.6,11.5-0.6,16.4,0
			c4.5,0.5,8.3,0.9,8.4,0.8c0.1-0.1,1.9-9,4.1-19.7c2.1-10.7,5-27.3,6.4-36.9c1.4-9.5,3.4-25.9,4.4-36.3c1-10.4,2.3-27,2.8-36.9
			c0.8-17,0.7-17.9-1.6-18.8c-1.3-0.5-13.8-1.1-27.6-1.3C1216,518.9,1202.7,518.9,1200.3,519.2z M1100.1,547
			c-4.8,2.5-12.5,6.8-17,9.4s-13.2,8.4-19.2,12.7c-9.1,6.5-10.8,8.2-9.9,9.8c0.6,1,7.3,8.5,14.7,16.5c7.4,8,20.4,21.5,28.9,29.8
			c8.4,8.3,23.2,22.3,32.9,31c9.6,8.7,22.2,19.5,27.9,24.1l10.4,8.3c12.2-8.6,18.4-12.3,21.7-13.7c5.3-2.3,5.9-2.8,4.9-5
			c-0.6-1.3-5.5-10-10.9-19.3s-14.3-23.9-19.9-32.5c-5.6-8.7-14.1-21.3-18.8-28.2s-14.8-20.4-22.2-30.1s-13.7-17.6-14.1-17.6
			C1109.2,542.4,1104.9,544.5,1100.1,547z M1327.8,557.8c-6.2,7.9-16.6,21.9-23.2,31.2s-16.5,23.9-22.1,32.5
			c-5.6,8.7-14.4,23.2-19.7,32.3s-9.6,17.3-9.6,18.2s0.6,1.6,1.3,1.6c0.7,0,4.2,1.6,7.9,3.6c3.6,2,9.2,5.7,12.3,8.2l5.7,4.6
			c42-36.7,61.6-54.6,70.6-63.5c9-8.9,22.7-23,30.5-31.5c7.8-8.4,14.2-15.8,14.2-16.4c0-0.6-4.4-4.4-9.8-8.5
			c-5.4-4.1-17.5-11.8-26.8-17.1c-9.4-5.3-17.7-9.7-18.5-9.7C1339.7,543.5,1334,549.9,1327.8,557.8z M1001.2,639.7
			c-0.9,1.6-3.8,7.9-6.5,13.8c-2.7,6-6.6,16.5-8.7,23.3c-2.1,6.9-3.8,13.6-3.7,14.9c0,2.2,1.9,2.9,23,7.8c12.7,3,30.1,6.9,38.7,8.6
			c8.7,1.8,24.3,4.7,34.7,6.5c10.4,1.8,29.7,4.8,42.8,6.6c13.2,1.8,25.5,3.3,27.4,3.3c3,0,3.5-0.4,3.5-3.2c0-1.8,1.2-6.3,2.6-10
			c1.4-3.7,3.7-8.4,5-10.3l2.4-3.5c-14.2-6.7-29.6-13.5-43.5-19.4c-13.9-5.9-35.4-14.5-47.9-19.1s-32.2-11.5-43.8-15.3
			c-11.6-3.8-21.9-6.9-22.8-6.9C1003.5,636.7,1002.1,638.1,1001.2,639.7z M1420.7,644.7c-11.4,3.7-29,9.8-39.1,13.4
			c-10.1,3.6-27.6,10.3-39.1,14.9c-11.4,4.6-28.4,11.9-37.7,16.1c-9.3,4.3-17.1,8.1-17.3,8.5c-0.3,0.4,1,3.6,2.8,7
			c1.8,3.4,4.1,9.4,5.1,13.3s1.9,7.1,2.1,7.2c0.2,0.1,9.7-1,21.1-2.4c11.4-1.4,30.2-4.1,41.6-5.9c11.4-1.8,30.7-5.3,42.8-7.7
			c12.1-2.4,30.3-6.4,40.3-8.8c10.1-2.4,19.5-4.5,21.1-4.8c2.4-0.3,2.7-0.9,2.1-3.4c-0.4-1.6-2.1-7.9-3.8-13.8
			c-1.7-6-4.6-14.5-6.4-19c-1.8-4.5-4.9-11.2-6.8-14.9c-2.5-4.6-4.3-6.8-5.8-6.7C1442.5,637.9,1432.2,641,1420.7,644.7z
			 M1124.7,738.2c-10.7,1.4-30,4.3-42.8,6.5c-12.8,2.1-33.8,6.1-46.6,8.7c-12.8,2.7-29.5,6.3-37.2,8.2c-7.6,1.8-14.4,3.8-15.1,4.3
			c-0.8,0.7-0.7,3.5,0.4,8.3c0.9,4,3.7,12.9,6.1,19.8s6.5,16.3,9,20.9c2.5,4.6,4.8,8.4,4.9,8.4c0.2,0,9.8-3,21.4-6.7
			c11.6-3.6,33-11,47.6-16.3c14.6-5.3,39.5-15.3,55.4-22.2c15.9-6.8,30.1-13.2,31.5-14c2.5-1.5,2.5-1.6-1.1-8.3
			c-2-3.7-4.3-9.7-5.1-13.3c-1.4-6.1-1.7-6.5-5.2-6.7C1145.8,735.7,1135.4,736.7,1124.7,738.2z M1296.8,736.7
			c-0.3,0.8-1.2,4.1-1.9,7.4c-0.8,3.3-3,8.9-5,12.5l-3.6,6.5c8,4,22.6,10.4,37.5,16.8c14.9,6.5,34.8,14.6,44.1,18.2
			s26.4,9.6,37.8,13.5c11.4,3.9,24.9,8.3,29.9,9.9l9.1,2.8c6.6-12.2,10.2-19.9,12.3-24.9c2.1-5.1,5.1-13.8,6.6-19.5
			c1.6-5.7,2.6-11,2.2-11.9c-0.4-1-8.3-3.5-21.9-6.7c-11.7-2.8-26.9-6.3-33.9-7.8c-6.9-1.5-23.7-4.6-37.2-7
			c-13.5-2.4-34.2-5.6-46-7.1c-11.8-1.5-23.2-3.1-25.5-3.4C1298.7,735.5,1297.2,735.8,1296.8,736.7z M1143.2,792.1
			c-13.3,11.5-32.6,29.2-42.9,39.3c-10.3,10.1-24.2,24.3-30.9,31.4c-6.7,7.2-13.3,14.4-14.6,16l-2.5,3c4.9,4.4,12,9.5,18.9,14.3
			c6.9,4.7,18.2,11.6,25,15.3c7.2,3.9,12.8,6.2,13.2,5.6c0.5-0.6,7.4-9.6,15.4-20.1c8-10.4,20-26.8,26.6-36.3
			c6.6-9.5,16.5-24.7,22.1-33.6c5.6-9,12.8-20.9,16-26.6c3.2-5.7,5.8-10.9,5.8-11.7c0-0.8-3.3-2.9-7.3-4.8s-9.8-5.5-12.9-8.1
			c-3.1-2.6-6.1-4.7-6.7-4.7C1167.8,771.2,1156.5,780.6,1143.2,792.1z M1272.6,776.4c-3.5,2.8-9.5,6.5-13.2,8.3
			c-3.8,1.7-7,3.3-7.2,3.5s5.4,10.3,12.4,22.3c7,12.1,16.4,27.6,20.9,34.4s11.9,17.8,16.4,24.4s14.4,20.1,21.9,30.1
			c7.5,10,14.4,18.1,15.2,18.1c0.9,0,6.1-2.4,11.7-5.3c5.5-2.9,14.9-8.4,20.8-12.2c5.9-3.8,13.7-9.3,17.4-12.3l6.7-5.4
			c-16-17.6-26.4-28.6-33.4-35.8c-7-7.2-17.8-17.9-24-23.9c-6.2-6-21.8-20-34.7-31.2c-12.8-11.2-23.6-20.3-24-20.3
			C1279.3,771.2,1276.1,773.6,1272.6,776.4z M1204.7,802.1c-1.2,5.4-3.4,17.6-5.1,27.1s-4.2,26.9-5.6,38.5
			c-1.4,11.6-3.3,32.5-4.1,46.3c-0.9,13.8-1.3,25.4-1,25.7c0.3,0.3,8,1.1,17,1.7c9,0.6,20.9,0.9,26.5,0.5s13.8-0.9,18.3-1.2l8.2-0.6
			c-1.5-31.3-2.8-49-3.8-59.4c-1-10.4-3-26.8-4.4-36.3c-1.4-9.5-4-25.2-5.8-34.7l-3.3-17.3h-34.8L1204.7,802.1z"/>
	</g>
</g>
</svg>
