<?xml version="1.0" encoding="UTF-8" standalone="no"?>
<svg
   xmlns:dc="http://purl.org/dc/elements/1.1/"
   xmlns:cc="http://creativecommons.org/ns#"
   xmlns:rdf="http://www.w3.org/1999/02/22-rdf-syntax-ns#"
   xmlns:svg="http://www.w3.org/2000/svg"
   xmlns="http://www.w3.org/2000/svg"
   xmlns:xlink="http://www.w3.org/1999/xlink"
   xmlns:sodipodi="http://sodipodi.sourceforge.net/DTD/sodipodi-0.dtd"
   xmlns:inkscape="http://www.inkscape.org/namespaces/inkscape"
   viewBox="0 0 2778 870"
   width="500"
   height="157"
   version="1.1"
   id="svg44"
   sodipodi:docname="logo2.svg"
   inkscape:export-filename="C:\xampp\htdocs\webapp\public\assets\img\logo2.png"
   inkscape:export-xdpi="96"
   inkscape:export-ydpi="96">
  <metadata
     id="metadata50">
    <rdf:RDF>
      <cc:Work
         rdf:about="">
        <dc:format>image/svg+xml</dc:format>
        <dc:type
           rdf:resource="http://purl.org/dc/dcmitype/StillImage" />
      </cc:Work>
    </rdf:RDF>
  </metadata>
  <defs
     id="defs48">
    <rect
       x="2988.7796"
       y="332.06254"
       width="860.78873"
       height="1595.3621"
       id="rect1453" />
    <rect
       x="3001.4012"
       y="561.77449"
       width="870.88596"
       height="1438.8551"
       id="rect1447" />
    <rect
       x="3008.9741"
       y="594.59048"
       width="906.22626"
       height="1406.0391"
       id="rect1441" />
    <rect
       x="3112.4707"
       y="142.73951"
       width="800.20536"
       height="1514.5843"
       id="rect1269" />
    <rect
       x="757.29214"
       y="-354.549"
       width="492.23989"
       height="555.34757"
       id="rect1261" />
    <rect
       x="3089.7519"
       y="392.64591"
       width="926.42072"
       height="1231.8619"
       id="rect972" />
    <rect
       x="3233.6374"
       y="496.1425"
       width="1322.7369"
       height="1365.6502"
       id="rect966" />
    <rect
       x="1229.3376"
       y="1470.5251"
       width="2435.9564"
       height="1279.8237"
       id="rect117" />
    <rect
       x="27.767378"
       y="-203.09057"
       width="1974.0082"
       height="1358.0772"
       id="rect111" />
    <clipPath
       clipPathUnits="userSpaceOnUse"
       id="clipPath986">
      <use
         x="0"
         y="0"
         xlink:href="#g982"
         id="use988" />
    </clipPath>
    <clipPath
       clipPathUnits="userSpaceOnUse"
       id="clipPath1167">
      <use
         x="0"
         y="0"
         xlink:href="#g1163"
         id="use1169" />
    </clipPath>
    <clipPath
       clipPathUnits="userSpaceOnUse"
       id="clipPath1351">
      <use
         x="0"
         y="0"
         xlink:href="#g1347"
         id="use1353" />
    </clipPath>
  </defs>
  <sodipodi:namedview
     pagecolor="#ffffff"
     bordercolor="#666666"
     borderopacity="1"
     objecttolerance="10"
     gridtolerance="10"
     guidetolerance="10"
     inkscape:pageopacity="0"
     inkscape:pageshadow="2"
     inkscape:window-width="2400"
     inkscape:window-height="1271"
     id="namedview46"
     showgrid="false"
     inkscape:snap-text-baseline="true"
     inkscape:zoom="2.201"
     inkscape:cx="326.42178"
     inkscape:cy="155.43339"
     inkscape:window-x="-9"
     inkscape:window-y="-9"
     inkscape:window-maximized="1"
     inkscape:current-layer="g1349" />
  <style
     id="style31"> tspan { white-space:pre } .shp0 { fill: #ffffff } .shp1 { fill: #f7e300 } .shp2 { fill: #536c18 } .shp3 { fill: #f4b5ca } .shp4 { fill: #f49f5c } .shp5 { fill: #757577 } </style>
  <path
     id="Path 0"
     class="shp0"
     d="M -190,435.5 V 1026 H 3117 V -155 H -190 Z" />
  <text
     xml:space="preserve"
     id="text1259"
     style="fill:#000000;fill-opacity:1;line-height:1.25;stroke:none;font-family:Gabriola;font-style:normal;font-weight:normal;font-size:1066.75px;white-space:pre;shape-inside:url(#rect1261);-inkscape-font-specification:'Gabriola, Normal';font-stretch:normal;font-variant:normal;font-variant-ligatures:normal;font-variant-caps:normal;font-variant-numeric:normal;font-variant-east-asian:normal;"><tspan
       sodipodi:role="line"
       id="tspan1265"></tspan></text>
  <g
     id="g1504">
    <path
       id="Path 1"
       class="shp1"
       d="m 196,54.6 c -1.93,0.22 -5.52,0.67 -8,1 l -4.5,0.58 c 1.21,20.4 2.25,33.29 3.09,41.82 0.84,8.52 2.19,20 2.98,25.5 0.8,5.5 2.63,16.3 4.08,24 l 2.63,14 h 19.67 c 2.26,-10.07 3.83,-18.18 4.96,-24.5 1.12,-6.32 2.94,-18.48 4.04,-27 1.1,-8.52 2.46,-20.9 3.01,-27.5 0.56,-6.6 1.03,-15.15 1.05,-19 0.04,-6.83 -0.03,-7.02 -2.74,-7.69 -1.52,-0.38 -8.17,-0.9 -14.77,-1.16 -6.6,-0.26 -13.57,-0.28 -15.5,-0.05 z" />
    <path
       id="Path 2"
       class="shp2"
       d="M 716.27,58.75 C 715.9,59.71 675.97,189.43 627.53,347 l -88.07,286.5 c 102.57,0.38 128.24,0.1 128.54,-0.46 0.27,-0.51 7.7,-29.53 16.5,-64.49 l 16,-63.56 L 880,505 c 3.04,12.01 10.35,41.05 18.21,72.28 L 912.5,634.06 1043,634 C 1042.09,629.74 1003.15,502.05 955.88,347.5 908.6,192.95 869.27,64.36 868.46,61.75 L 867,57 C 721.45,57 716.91,57.1 716.27,58.75 Z M 1106,345.5 V 634 h 124 V 437 c 68.59,0 93.45,-0.46 99.5,-1.03 6.05,-0.57 15.5,-1.7 21,-2.52 5.5,-0.82 15.17,-2.64 21.5,-4.06 6.33,-1.41 17.58,-4.59 25,-7.06 7.42,-2.47 18.45,-6.85 24.5,-9.73 6.05,-2.89 14.83,-7.63 19.5,-10.54 4.67,-2.91 11.2,-7.38 14.5,-9.92 3.3,-2.55 9.32,-7.78 13.39,-11.64 4.06,-3.85 9.94,-10.15 13.07,-14 3.13,-3.85 7.49,-9.7 9.69,-13 2.2,-3.3 5.83,-9.37 8.07,-13.5 2.23,-4.12 5.66,-11.55 7.61,-16.5 1.95,-4.95 4.73,-13.05 6.16,-18 1.44,-4.95 3.46,-13.95 4.51,-20 1.04,-6.05 2.4,-18.2 3.01,-27 0.79,-11.49 0.81,-20.23 0.04,-31 -0.58,-8.25 -1.69,-18.6 -2.47,-23 -0.77,-4.4 -2.32,-11.6 -3.44,-16 -1.11,-4.4 -3.23,-11.37 -4.7,-15.5 -1.47,-4.12 -5.19,-12.45 -8.29,-18.5 -3.09,-6.05 -8.05,-14.37 -11.02,-18.5 -2.97,-4.12 -7.93,-10.37 -11.02,-13.87 -3.08,-3.51 -9.21,-9.41 -13.61,-13.13 -4.4,-3.71 -11.83,-9.32 -16.5,-12.45 -4.67,-3.14 -14.35,-8.58 -21.5,-12.1 -7.15,-3.52 -19.75,-8.61 -28,-11.32 -8.25,-2.71 -20.17,-6.07 -26.5,-7.47 -6.33,-1.41 -17.8,-3.46 -25.5,-4.56 C 1340.8,60 1328.42,58.62 1321,58.04 1312.82,57.41 1267.79,57 1206.75,57 H 1106 Z M 1703.59,58.75 c -0.28,0.96 -39.92,130 -88.08,286.75 -48.16,156.75 -87.78,285.79 -88.04,286.75 -0.44,1.65 3.07,1.75 63.78,1.74 h 64.25 c 23.91,-94.93 31.22,-123.95 31.67,-125.74 L 1688,505 h 179.5 l 32.12,128.5 c 117.87,0.45 131.3,0.24 131.01,-0.75 -0.2,-0.69 -39.92,-130.51 -88.25,-288.5 L 1854.5,57 c -145.95,0 -150.42,0.1 -150.91,1.75 z m 422.15,257.5 c -0.28,244.97 -0.4,259.83 -2.11,269.75 -1,5.77 -2.92,14.33 -4.26,19 -1.35,4.67 -3.92,11.65 -5.72,15.5 -1.8,3.85 -4.78,9.25 -6.64,12 -1.86,2.75 -5.43,7.42 -7.94,10.38 -2.51,2.96 -7.94,8.08 -12.07,11.38 -4.12,3.3 -11.78,8.51 -17,11.57 -5.22,3.06 -14.45,7.73 -20.5,10.38 -6.55,2.86 -10.88,5.31 -10.69,6.05 0.16,0.68 7.3,20.14 15.85,43.24 8.55,23.1 15.94,42.45 16.43,43 0.56,0.65 5.71,-0.71 14.64,-3.88 7.57,-2.68 20.07,-7.54 27.77,-10.8 7.7,-3.25 19.18,-8.63 25.5,-11.95 6.32,-3.32 16.45,-9.29 22.5,-13.27 6.05,-3.98 15.05,-10.61 20,-14.73 4.95,-4.12 12.73,-11.52 17.29,-16.43 4.56,-4.92 11.18,-12.99 14.71,-17.94 3.54,-4.95 8.89,-13.73 11.9,-19.5 3.01,-5.77 7.12,-14.77 9.14,-20 2.01,-5.23 5.15,-15.35 6.98,-22.5 1.82,-7.15 4.03,-17.95 4.91,-24 0.88,-6.05 2.03,-17.75 2.56,-26 0.58,-8.94 0.98,-115.02 0.99,-262.75 L 2250,57 H 2126.05 Z M 2366,348.5 V 634 h 51 V 355 h 272 v 279 h 51 V 63 h -51 V 312 H 2417 V 63 h -51 z" />
    <path
       id="Path 3"
       class="shp1"
       d="m 101.57,99.21 c -4.24,4.56 -10.38,12.23 -13.64,17.04 -3.26,4.81 -5.92,9.31 -5.92,10 0.01,0.69 4.85,4.69 10.75,8.9 5.91,4.2 16.59,11.46 23.74,16.11 7.15,4.66 19.75,12.3 28,16.98 8.25,4.68 17.81,9.91 21.25,11.63 3.44,1.72 6.4,3.02 6.57,2.88 0.18,-0.14 1.38,-1.82 2.66,-3.75 1.28,-1.93 3.95,-5.17 5.93,-7.2 l 3.59,-3.71 c -4.03,-5.11 -8.47,-10.41 -12.46,-15.09 -3.99,-4.68 -13.17,-14.77 -20.4,-22.42 -7.23,-7.66 -19.36,-19.59 -26.96,-26.5 -7.61,-6.92 -14.18,-12.71 -14.61,-12.87 -0.43,-0.16 -4.26,3.44 -8.5,8 z M 298.5,95.66 c -2.2,1.99 -10.42,9.52 -18.28,16.73 -7.85,7.21 -20.29,19.63 -27.64,27.61 -7.35,7.98 -15.89,17.54 -18.97,21.25 L 228,168 c 6.2,6.98 8.68,10.35 9.5,12 0.82,1.65 2.06,2.99 2.75,2.98 0.69,-0.01 6.88,-2.99 13.75,-6.62 6.88,-3.63 17.23,-9.3 23,-12.6 5.77,-3.3 19.5,-12.01 30.5,-19.36 11,-7.35 20.9,-14.03 22,-14.85 1.44,-1.08 1.76,-2 1.16,-3.27 -0.47,-0.98 -2.68,-4.48 -4.91,-7.78 -2.23,-3.3 -6.09,-8.48 -8.58,-11.5 -2.48,-3.02 -6.57,-7.64 -9.09,-10.26 -2.52,-2.62 -4.81,-4.75 -5.08,-4.73 -0.27,0.03 -2.3,1.67 -4.5,3.65 z" />
    <path
       id="Path 4"
       class="shp0"
       d="M 1230,246.75 V 347.5 c 57.74,-1.06 77.88,-1.89 82,-2.52 4.13,-0.64 11.78,-2.25 17,-3.58 5.22,-1.34 13.55,-4.41 18.5,-6.84 4.95,-2.43 11.68,-6.58 14.95,-9.24 3.28,-2.65 8.14,-7.52 10.82,-10.82 2.67,-3.3 6.86,-10.05 9.31,-15 2.45,-4.95 5.54,-13.27 6.86,-18.5 1.32,-5.23 2.89,-14.23 3.49,-20 0.6,-5.77 1.08,-13.87 1.07,-18 0,-4.12 -0.5,-11.55 -1.11,-16.5 -0.61,-4.95 -1.96,-12.37 -3.01,-16.5 -1.04,-4.12 -3.63,-11.1 -5.75,-15.5 -2.11,-4.4 -6.05,-10.9 -8.74,-14.45 -2.69,-3.55 -8.26,-9.11 -12.39,-12.36 -4.12,-3.26 -11.1,-7.65 -15.5,-9.76 -4.4,-2.11 -12.05,-4.97 -17,-6.35 -4.95,-1.39 -13.72,-3.21 -19.5,-4.04 -7.81,-1.13 -19.53,-1.52 -45.75,-1.53 L 1230,146 Z m -472.92,33.98 c -17.83,71.37 -32.57,130.56 -32.75,131.52 -0.31,1.65 3.35,1.75 65.67,1.75 43.33,0 66,-0.34 66,-1 0,-0.55 -14.64,-58.94 -32.54,-129.75 -17.89,-70.81 -32.85,-129.55 -33.25,-130.52 -0.44,-1.09 -13.12,47.89 -33.13,128 z M 1776.18,154.5 c -0.6,2.2 -15.4,61.47 -32.88,131.72 l -31.8,127.72 c 128.86,0.06 132.48,-0.04 132.05,-1.69 -0.25,-0.96 -15.12,-59.8 -33.05,-130.75 -17.93,-70.95 -32.74,-129.45 -32.91,-130 -0.18,-0.55 -0.81,0.8 -1.41,3 z" />
    <path
       id="Path 5"
       class="shp1"
       d="m 138.5,197.09 c -7.7,0.44 -20.98,1.53 -29.5,2.44 -8.52,0.91 -22.14,2.73 -30.25,4.06 -8.11,1.33 -14.97,2.41 -15.25,2.41 -0.28,0 -0.5,1.46 -0.51,3.25 0,1.79 0.72,7.52 1.61,12.75 0.88,5.23 2.96,13.77 4.61,19 1.66,5.23 3.08,9.62 3.15,9.76 0.08,0.15 8.8,-2.21 19.39,-5.25 10.59,-3.03 26.56,-8.18 35.5,-11.45 8.94,-3.26 21.43,-8.16 27.75,-10.87 6.32,-2.72 13.07,-5.72 15,-6.68 l 3.5,-1.73 c -2.59,-7.19 -3.49,-11.42 -3.67,-14.03 L 169.5,196 c -13.18,0.23 -23.3,0.65 -31,1.09 z m 104.08,1.41 c -0.32,0.82 -0.58,2.63 -0.58,4 0,1.38 -0.9,4.75 -2,7.5 l -2,5 c 15.89,7.51 26.8,12.21 34.5,15.27 7.7,3.07 19.85,7.58 27,10.02 7.15,2.45 18.85,6.12 26,8.16 7.15,2.05 13.28,3.34 13.63,2.88 0.34,-0.45 1.57,-3.76 2.72,-7.33 1.16,-3.57 2.99,-10.32 4.08,-15 1.08,-4.68 2.33,-11.25 2.77,-14.62 0.73,-5.62 0.64,-6.17 -1.2,-6.72 -1.1,-0.32 -7.17,-1.5 -13.5,-2.61 -6.33,-1.1 -18.48,-2.9 -27,-4 -8.52,-1.09 -21.57,-2.45 -29,-3.02 -7.43,-0.57 -18.3,-1.03 -24.17,-1.03 -8.55,0 -10.78,0.3 -11.25,1.5 z m -64.01,30.82 c -1.81,2.3 -6.45,8.45 -10.3,13.68 -3.85,5.23 -11.29,16.02 -16.53,24 -5.24,7.98 -13.63,21.7 -18.65,30.5 -5.02,8.8 -9.01,16.62 -8.86,17.38 0.15,0.77 4.32,3.81 9.27,6.77 4.95,2.96 13.61,7.17 19.25,9.36 5.64,2.2 10.59,4 11,4.02 0.41,0.02 1.49,-1.67 2.4,-3.75 0.91,-2.08 4.22,-10.08 7.35,-17.78 3.14,-7.7 7.93,-20.52 10.66,-28.5 2.73,-7.98 7.19,-22.37 9.9,-32 2.72,-9.62 4.94,-18.06 4.94,-18.75 0,-0.69 -1.46,-1.46 -3.25,-1.71 -1.79,-0.25 -5.64,-2.02 -8.56,-3.92 l -5.32,-3.47 z M 224,229.09 c -2.48,1.62 -6.01,3.27 -7.86,3.67 -3.28,0.72 -3.34,0.83 -2.72,4.74 0.36,2.2 2.71,11.43 5.23,20.5 2.52,9.07 7.06,23.7 10.08,32.5 3.03,8.8 8.07,22.3 11.19,30 3.17,7.81 6.32,14.14 7.13,14.32 0.8,0.18 6.63,-1.73 12.95,-4.25 6.32,-2.52 15,-6.71 19.27,-9.32 4.27,-2.61 7.76,-5.2 7.76,-5.75 0,-0.55 -4.56,-9.1 -10.13,-19 -5.57,-9.9 -14.4,-24.52 -19.62,-32.5 -5.23,-7.98 -13.39,-19.8 -18.14,-26.28 -4.75,-6.47 -9.09,-11.73 -9.64,-11.67 -0.55,0.06 -3.02,1.43 -5.5,3.04 z" />
    <path
       id="Path 6"
       class="shp3"
       d="m 422.51,261.69 c -1.16,0.27 -1.89,1.16 -1.75,2.13 0.13,0.93 0.92,7.53 1.76,14.68 0.84,7.15 2.59,18.18 3.9,24.5 1.31,6.32 3.1,14.09 3.98,17.25 L 432,326 h 9 c 2.25,-8.14 3.79,-14.55 4.88,-19.5 1.09,-4.95 2.65,-13.73 3.47,-19.5 0.81,-5.77 1.77,-13.65 2.13,-17.5 0.62,-6.7 0.55,-7.03 -1.67,-7.74 -1.27,-0.4 -7.48,-0.69 -13.81,-0.63 -6.33,0.06 -12.4,0.31 -13.49,0.56 z m -55.94,43.56 c -1.29,2.89 -3.04,7.73 -3.88,10.75 -0.84,3.02 -1.79,7.19 -2.11,9.25 -0.57,3.65 -0.48,3.77 3.17,4.7 2.06,0.52 8.48,1.86 14.25,2.97 5.77,1.11 14.1,2.46 18.5,3 4.4,0.55 12.5,1.29 18,1.64 l 10,0.65 c 2.36,-7.74 2.3,-8.38 0.75,-9.66 -0.96,-0.8 -7.6,-4.96 -14.75,-9.23 -7.15,-4.28 -18.74,-10.38 -25.75,-13.55 -7.01,-3.17 -13.44,-5.77 -14.29,-5.77 -0.9,0 -2.53,2.2 -3.89,5.25 z M 488,305.8 c -6.87,3.16 -18.35,9.24 -25.5,13.52 -7.15,4.27 -13.79,8.43 -14.75,9.23 -1.55,1.28 -1.61,1.92 -0.5,5.56 l 1.25,4.11 c 14.73,-1.01 22.83,-1.74 27.5,-2.28 4.67,-0.54 13.23,-1.9 19,-3.01 5.77,-1.12 12.19,-2.46 14.25,-2.98 3.65,-0.93 3.74,-1.05 3.17,-4.7 -0.32,-2.06 -1.27,-6.23 -2.11,-9.25 -0.84,-3.02 -2.61,-7.86 -3.92,-10.75 -1.58,-3.46 -2.99,-5.24 -4.14,-5.22 -0.96,0.02 -7.37,2.62 -14.25,5.77 z m -69.68,44.45 c -4.3,3.44 -13,11.42 -19.33,17.75 -6.33,6.32 -13.3,13.7 -15.5,16.39 l -3.99,4.89 c 9.44,8.7 15.07,12.75 18.59,14.62 l 6.41,3.39 c 3.1,-4.03 6.7,-10.06 10,-16 3.29,-5.93 8.3,-16.19 11.11,-22.79 2.82,-6.6 5.75,-13.64 6.51,-15.63 1.34,-3.54 1.3,-3.71 -1.62,-6.22 -1.65,-1.42 -3.31,-2.6 -3.68,-2.62 -0.38,-0.02 -4.2,2.78 -8.5,6.22 z m 24.18,-3.6 -3,2.58 c 2.97,7.96 6.24,15.67 9.17,22.27 2.94,6.6 8.38,17.29 12.09,23.75 3.71,6.46 7.19,11.73 7.74,11.72 0.55,-0.02 3.66,-1.48 6.91,-3.25 3.25,-1.77 8.65,-5.75 12,-8.83 l 6.09,-5.62 c -7.69,-9.12 -14.44,-16.27 -19.97,-21.77 -5.52,-5.5 -13.75,-13.04 -18.29,-16.75 -4.53,-3.71 -8.58,-6.74 -8.99,-6.72 -0.41,0.02 -2.1,1.2 -3.75,2.62 z" />
    <path
       id="Path 7"
       class="shp4"
       d="m 202,374.61 c -1.93,0.24 -4.53,0.67 -5.79,0.97 l -2.29,0.54 c 0.87,28.19 1.79,44.26 2.61,53.88 0.82,9.63 2.4,24.7 3.5,33.5 1.1,8.8 3.16,23.2 4.57,32 1.42,8.8 2.88,16.32 3.24,16.71 0.36,0.39 3.59,0.29 7.16,-0.21 3.9,-0.55 9.1,-0.56 13,-0.01 3.57,0.49 6.57,0.81 6.65,0.7 0.09,-0.1 1.54,-8.29 3.22,-18.19 1.69,-9.9 3.98,-25.2 5.09,-34 1.1,-8.8 2.68,-23.87 3.5,-33.5 0.82,-9.62 1.81,-24.92 2.19,-34 0.66,-15.67 0.59,-16.54 -1.23,-17.35 -1.06,-0.47 -10.92,-0.99 -21.92,-1.16 -11,-0.17 -21.57,-0.11 -23.5,0.12 z m -79.5,25.7 c -3.85,2.34 -9.93,6.26 -13.5,8.7 -3.57,2.44 -10.44,7.71 -15.25,11.71 -7.21,6 -8.59,7.59 -7.83,9.03 0.51,0.96 5.76,7.83 11.67,15.25 5.91,7.42 16.22,19.8 22.92,27.5 6.69,7.7 18.42,20.55 26.08,28.56 7.65,8.01 17.62,18.02 22.16,22.25 L 177,531 c 9.69,-7.96 14.64,-11.33 17.25,-12.63 4.23,-2.11 4.65,-2.62 3.88,-4.62 -0.49,-1.24 -4.37,-9.23 -8.64,-17.75 -4.27,-8.52 -11.38,-22.02 -15.8,-30 -4.42,-7.98 -11.15,-19.67 -14.96,-26 -3.81,-6.33 -11.72,-18.81 -17.58,-27.74 -5.86,-8.93 -10.88,-16.23 -11.15,-16.22 -0.27,0 -3.65,1.92 -7.5,4.27 z m 180.73,9.94 c -4.9,7.29 -13.19,20.23 -18.42,28.75 -5.23,8.52 -13.11,22.02 -17.52,30 -4.41,7.98 -11.45,21.36 -15.65,29.75 -4.2,8.39 -7.64,15.92 -7.64,16.75 0,0.83 0.45,1.5 1,1.5 0.55,0 3.36,1.49 6.25,3.32 2.89,1.82 7.27,5.23 9.75,7.57 l 4.5,4.26 c 33.37,-33.83 48.89,-50.35 56.03,-58.53 7.13,-8.19 18.04,-21.24 24.23,-29 6.19,-7.77 11.27,-14.57 11.28,-15.12 0,-0.55 -3.49,-4.07 -7.76,-7.82 -4.28,-3.75 -13.86,-10.84 -21.28,-15.76 -7.43,-4.93 -14.03,-8.94 -14.68,-8.94 -0.65,0.01 -5.19,5.98 -10.09,13.27 z m -259.21,75.5 c -0.68,1.51 -3.01,7.25 -5.17,12.75 -2.16,5.5 -5.27,15.17 -6.9,21.5 -1.64,6.33 -2.98,12.51 -2.97,13.75 0.02,2.07 1.51,2.66 18.27,7.24 10.04,2.75 23.88,6.33 30.75,7.96 6.88,1.62 19.25,4.32 27.5,5.98 8.25,1.67 23.55,4.39 34,6.05 10.45,1.65 20.24,3.01 21.75,3.01 2.39,0.01 2.75,-0.38 2.75,-2.99 0,-1.65 0.94,-5.81 2.09,-9.25 1.14,-3.44 2.94,-7.71 4,-9.5 L 172,539 c -11.24,-6.21 -23.5,-12.47 -34.5,-17.92 -11,-5.44 -28.1,-13.38 -38,-17.64 C 89.6,499.18 73.96,492.84 64.75,489.35 55.54,485.86 47.38,483 46.63,483 c -0.76,0 -1.93,1.24 -2.61,2.75 z M 377,490.39 c -9.08,3.45 -23.02,9.01 -31,12.34 -7.98,3.33 -21.92,9.54 -31,13.78 -9.07,4.25 -22.53,10.94 -29.89,14.86 -7.37,3.92 -13.56,7.47 -13.75,7.88 -0.2,0.41 0.82,3.34 2.26,6.5 1.45,3.16 3.25,8.67 4.01,12.25 0.76,3.58 1.49,6.56 1.63,6.64 0.13,0.08 7.67,-0.92 16.74,-2.24 9.07,-1.31 23.93,-3.76 33,-5.45 9.08,-1.68 24.38,-4.89 34,-7.12 9.63,-2.23 24.02,-5.87 32,-8.08 7.98,-2.22 15.51,-4.19 16.75,-4.39 1.88,-0.3 2.15,-0.81 1.65,-3.11 -0.33,-1.51 -1.7,-7.25 -3.05,-12.75 -1.36,-5.5 -3.63,-13.37 -5.06,-17.5 -1.42,-4.12 -3.87,-10.31 -5.44,-13.75 -1.95,-4.28 -3.4,-6.23 -4.6,-6.19 -0.96,0.03 -9.17,2.88 -18.25,6.33 z m -235,86.16 c -8.52,1.31 -23.82,4 -34,5.97 -10.18,1.97 -26.82,5.6 -37,8.06 -10.18,2.45 -23.45,5.85 -29.5,7.54 -6.05,1.7 -11.45,3.5 -12,4 -0.66,0.61 -0.55,3.18 0.33,7.65 0.73,3.7 2.91,11.9 4.84,18.23 1.93,6.33 5.15,15 7.17,19.29 2.01,4.28 3.77,7.77 3.91,7.75 0.14,-0.02 7.79,-2.79 17,-6.15 9.21,-3.36 26.2,-10.15 37.75,-15.08 11.55,-4.92 31.35,-14.13 44,-20.44 12.65,-6.32 23.9,-12.13 25,-12.91 1.98,-1.41 1.97,-1.49 -0.89,-7.69 -1.59,-3.45 -3.42,-8.97 -4.08,-12.27 -1.12,-5.62 -1.38,-6.01 -4.11,-6.17 -1.61,-0.1 -9.9,0.9 -18.42,2.22 z m 136.64,-1.35 c -0.24,0.72 -0.93,3.78 -1.54,6.8 -0.62,3.02 -2.4,8.2 -3.97,11.5 l -2.86,6 c 6.38,3.65 17.91,9.58 29.73,15.52 11.82,5.95 27.58,13.5 35,16.78 7.42,3.28 20.92,8.89 30,12.48 9.08,3.58 19.76,7.69 23.75,9.12 L 396,656 c 5.27,-11.24 8.13,-18.33 9.76,-23 1.63,-4.67 4.01,-12.77 5.27,-18 1.27,-5.23 2.07,-10.17 1.78,-11 -0.34,-0.97 -6.55,-3.18 -17.42,-6.21 -9.29,-2.6 -21.39,-5.84 -26.89,-7.2 -5.5,-1.37 -18.77,-4.27 -29.5,-6.46 -10.73,-2.19 -27.15,-5.14 -36.5,-6.56 -9.35,-1.41 -18.45,-2.82 -20.22,-3.12 -2.16,-0.36 -3.36,-0.12 -3.64,0.75 z m -121.95,51.07 c -10.55,10.6 -25.89,26.92 -34.08,36.25 -8.19,9.34 -19.24,22.38 -24.55,28.98 -5.31,6.6 -10.54,13.25 -11.61,14.78 l -1.95,2.78 c 3.88,4.06 9.5,8.8 15,13.17 5.5,4.36 14.43,10.71 19.85,14.1 5.75,3.6 10.12,5.75 10.51,5.17 0.37,-0.55 5.88,-8.87 12.24,-18.5 6.37,-9.62 15.86,-24.7 21.08,-33.5 5.23,-8.8 13.13,-22.75 17.57,-31 4.44,-8.25 10.14,-19.27 12.67,-24.5 2.54,-5.23 4.6,-10.06 4.6,-10.75 -0.01,-0.69 -2.61,-2.68 -5.77,-4.42 -3.16,-1.74 -7.77,-5.1 -10.25,-7.46 -2.48,-2.37 -4.86,-4.32 -5.31,-4.34 -0.44,-0.01 -9.44,8.64 -20,19.24 z m 102.75,-14.48 c -2.78,2.59 -7.51,6.02 -10.5,7.61 -2.99,1.6 -5.55,3.06 -5.69,3.25 -0.14,0.19 4.31,9.46 9.87,20.6 5.57,11.14 13.05,25.42 16.62,31.75 3.57,6.33 9.44,16.45 13.04,22.5 3.6,6.05 11.42,18.54 17.38,27.75 5.96,9.21 11.4,16.73 12.09,16.71 0.69,-0.01 4.85,-2.23 9.25,-4.92 4.4,-2.68 11.82,-7.73 16.48,-11.21 4.67,-3.48 10.87,-8.58 13.79,-11.33 l 5.31,-5 c -12.73,-16.27 -20.96,-26.4 -26.49,-33 -5.54,-6.6 -14.11,-16.5 -19.05,-22 -4.95,-5.5 -17.33,-18.45 -27.52,-28.78 -10.18,-10.32 -18.75,-18.74 -19.02,-18.71 -0.27,0.04 -2.78,2.19 -5.56,4.78 z m -53.93,23.71 c -0.91,4.95 -2.73,16.2 -4.05,25 -1.32,8.8 -3.31,24.77 -4.42,35.5 -1.11,10.73 -2.59,29.93 -3.28,42.67 -0.69,12.75 -1.03,23.42 -0.76,23.73 0.27,0.3 6.35,1.02 13.5,1.6 7.15,0.57 16.6,0.79 21,0.49 4.4,-0.3 10.93,-0.81 14.5,-1.12 l 6.5,-0.58 c -1.19,-28.9 -2.21,-45.16 -3.03,-54.79 -0.82,-9.62 -2.4,-24.7 -3.5,-33.5 -1.1,-8.8 -3.16,-23.2 -4.58,-32 l -2.58,-16 h -27.65 z" />
    <path
       id="Path 8"
       class="shp5"
       d="m 717.8,677.84 c -9.74,5.86 -17.96,11 -18.25,11.41 -0.3,0.41 0.87,3.34 2.61,6.5 1.74,3.16 3.21,5.88 3.25,6.03 0.05,0.16 8.86,-3.17 19.59,-7.39 10.73,-4.23 19.86,-7.95 20.3,-8.29 0.44,-0.33 -1.19,-4.76 -3.62,-9.85 -2.43,-5.09 -4.82,-9.21 -5.3,-9.16 -0.48,0.04 -8.85,4.88 -18.58,10.75 z m 337,0 c -9.74,5.86 -17.96,11 -18.25,11.41 -0.3,0.41 0.87,3.34 2.61,6.5 1.74,3.16 3.21,5.88 3.25,6.03 0.05,0.16 8.87,-3.17 19.59,-7.39 10.72,-4.23 19.86,-7.95 20.3,-8.29 0.44,-0.33 -1.19,-4.76 -3.62,-9.85 -2.43,-5.09 -4.82,-9.21 -5.3,-9.16 -0.48,0.04 -8.85,4.88 -18.58,10.75 z m 573.27,-5.15 c -1.88,1 -4.27,2.94 -5.31,4.31 -1.03,1.38 -2.1,4.52 -2.38,7 -0.34,3.18 0.04,5.51 1.32,7.93 0.99,1.88 2.93,4.28 4.3,5.33 1.38,1.04 4.75,2.11 7.5,2.37 3.62,0.35 5.95,-0.02 8.43,-1.32 1.88,-1 4.27,-2.93 5.31,-4.31 1.03,-1.37 2.1,-4.52 2.38,-7 0.34,-3.18 -0.04,-5.51 -1.32,-7.93 -0.99,-1.88 -2.92,-4.28 -4.3,-5.33 -1.37,-1.04 -4.75,-2.11 -7.5,-2.37 -3.62,-0.35 -5.95,0.02 -8.43,1.32 z M 908,702.5 V 725 c -8.14,-5.4 -12.75,-7.49 -15.5,-8.12 -2.77,-0.64 -7.68,-0.89 -11,-0.56 -3.59,0.35 -8.41,1.77 -12,3.52 -3.43,1.68 -7.63,4.81 -9.81,7.3 -2.1,2.4 -5.14,7.06 -6.76,10.36 -1.62,3.3 -3.62,9.49 -4.44,13.75 -0.82,4.26 -1.49,10.56 -1.49,14 0.01,3.44 0.68,10.3 1.49,15.25 0.83,5 2.75,11.67 4.32,15 1.56,3.3 4.38,7.73 6.26,9.84 1.89,2.11 5.9,5.04 8.93,6.5 4.71,2.28 6.8,2.66 14.5,2.66 7.55,0 9.81,-0.4 14,-2.47 2.75,-1.35 6.91,-4.39 9.25,-6.75 3.8,-3.82 4.25,-4.04 4.24,-2.03 -0.01,1.24 0.33,3.72 0.75,5.52 l 0.76,3.28 L 933,812 c 0,-115.42 -0.26,-129.01 -1.25,-129.03 -0.69,-0.02 -5.97,-0.68 -11.75,-1.47 -5.78,-0.79 -10.84,-1.45 -11.25,-1.47 -0.41,-0.02 -0.75,10.1 -0.75,22.47 z m -369,49 V 812 h 26 v -49 h 36 v -19 h -36 v -34 l 41.5,0.02 c 1.95,-12.03 2.51,-16.31 2.51,-17.27 C 609,691.12 606.66,691 574,691 h -35 z m 960.5,-54.12 -9,1.12 -0.5,20.5 h -14 v 18 h 14 c -0.01,45.59 0.34,52.88 1.52,57.5 0.84,3.3 2.78,7.8 4.31,10 1.79,2.58 4.85,5.06 8.65,7 5.18,2.64 6.89,3 14.45,3 5.57,0 10.49,-0.63 14.07,-1.81 3.03,-0.99 6.51,-2.57 7.75,-3.5 l 2.25,-1.69 -8,-15.5 c -5.42,2.33 -8.58,3 -10.5,3 -1.92,0 -4.4,-0.45 -5.5,-1 -1.1,-0.55 -2.46,-2.46 -3.02,-4.25 -0.57,-1.84 -1.01,-13.98 -1,-28 L 1515,737 h 19 c 1.55,-11.62 2,-15.67 2,-16.5 0,-1.24 -1.83,-1.5 -10.5,-1.5 H 1515 v -23 c -5.04,0.2 -10.55,0.77 -15.5,1.38 z M 712,717.55 c -3.02,0.85 -7.3,2.6 -9.5,3.88 -2.2,1.29 -5.91,4.42 -8.25,6.95 -2.34,2.54 -5.33,6.76 -6.65,9.37 -1.31,2.61 -3.21,7.45 -4.21,10.75 -1.3,4.3 -1.82,9.25 -1.82,17.5 0,8.19 0.52,13.23 1.8,17.5 1,3.3 3,8.19 4.47,10.87 1.46,2.68 4.8,6.84 7.41,9.25 2.61,2.41 7.11,5.49 10,6.85 2.89,1.36 7.73,2.94 10.75,3.51 3.02,0.57 8.2,1.03 11.5,1.02 3.3,-0.02 8.92,-0.72 12.5,-1.57 3.58,-0.85 8.98,-2.88 12,-4.52 3.02,-1.63 6.63,-3.8 8,-4.83 l 2.5,-1.86 L 752,788 c -5.81,3.81 -9.52,5.62 -12,6.48 -2.48,0.86 -7.42,1.56 -11,1.56 -4.88,0 -7.62,-0.58 -11,-2.35 -3.51,-1.83 -5.1,-3.54 -7.21,-7.77 -1.5,-2.98 -2.96,-7.11 -3.25,-9.17 L 707,773 h 58 c 1.01,-4.26 1.04,-9.33 0.72,-14 -0.32,-4.67 -1.42,-11.2 -2.44,-14.5 -1.01,-3.3 -3.4,-8.44 -5.31,-11.42 -1.91,-2.98 -5.49,-6.94 -7.97,-8.8 -2.48,-1.85 -6.98,-4.29 -10,-5.41 -3.3,-1.22 -8.9,-2.2 -14,-2.45 -5.8,-0.29 -10.25,0.07 -14,1.13 z m 337,0 c -3.03,0.85 -7.3,2.6 -9.5,3.88 -2.2,1.29 -5.91,4.42 -8.25,6.95 -2.34,2.54 -5.33,6.76 -6.65,9.37 -1.31,2.61 -3.21,7.45 -4.21,10.75 -1.3,4.3 -1.82,9.25 -1.82,17.5 0,8.19 0.52,13.23 1.8,17.5 1,3.3 3,8.19 4.47,10.87 1.46,2.68 4.8,6.84 7.41,9.25 2.61,2.41 7.11,5.49 10,6.85 2.89,1.36 7.72,2.94 10.75,3.51 3.03,0.57 8.2,1.03 11.5,1.02 3.3,-0.02 8.92,-0.72 12.5,-1.57 3.58,-0.85 8.97,-2.88 12,-4.52 3.03,-1.63 6.63,-3.8 8,-4.83 l 2.5,-1.86 L 1089,788 c -5.81,3.81 -9.53,5.62 -12,6.48 -2.47,0.86 -7.42,1.56 -11,1.56 -4.88,0 -7.62,-0.58 -11,-2.35 -3.51,-1.83 -5.1,-3.54 -7.21,-7.77 -1.5,-2.98 -2.96,-7.11 -3.25,-9.17 L 1044,773 h 58 c 1.01,-4.26 1.04,-9.33 0.72,-14 -0.32,-4.67 -1.42,-11.2 -2.44,-14.5 -1.01,-3.3 -3.4,-8.44 -5.31,-11.42 -1.91,-2.98 -5.5,-6.94 -7.97,-8.8 -2.47,-1.85 -6.97,-4.29 -10,-5.41 -3.3,-1.22 -8.9,-2.2 -14,-2.45 -5.8,-0.29 -10.25,0.07 -14,1.13 z m 179.5,-0.07 c -2.2,0.83 -5.91,3.42 -8.24,5.76 -2.33,2.34 -5.03,5.93 -6,7.97 -0.97,2.05 -1.98,3.56 -2.26,3.36 -0.28,-0.19 -0.84,-3.77 -1.25,-7.96 L 1210,719 h -22 v 93 h 25 c 0,-46.25 0.22,-49.7 2,-55.25 1.1,-3.44 3.15,-7.92 4.55,-9.96 1.76,-2.54 4.03,-4.24 7.25,-5.41 3.35,-1.22 6.07,-1.52 9.45,-1.05 4.02,0.57 4.82,0.4 5.21,-1.08 0.25,-0.96 1.16,-6.02 2.03,-11.25 0.86,-5.23 1.22,-9.84 0.79,-10.26 -0.43,-0.42 -3.25,-0.99 -6.28,-1.27 -3.6,-0.33 -6.89,0.02 -9.5,1.01 z M 1348,716.6 c -1.37,0.25 -6.33,1.35 -11,2.44 -4.67,1.09 -9.29,2.54 -10.25,3.22 -1.65,1.17 -1.59,1.72 1,9.34 l 2.75,8.09 c 9.67,-3.16 15.88,-4.09 22,-4.36 7.04,-0.3 10.71,-0.05 12.4,0.87 1.33,0.71 3.35,2.58 4.5,4.13 1.39,1.88 2.22,4.76 2.46,8.5 l 0.35,5.67 c -21.33,1.1 -27.92,2.02 -32.21,3.36 -3.58,1.12 -8.53,3.56 -11,5.43 -2.55,1.93 -5.8,5.75 -7.48,8.81 -2.65,4.79 -2.99,6.35 -3,13.9 -0.01,6.97 0.4,9.31 2.32,13 1.28,2.48 3.76,5.97 5.5,7.76 1.74,1.79 5.41,4.22 8.16,5.39 2.75,1.18 7.92,2.36 11.5,2.64 4.87,0.37 8.32,-0.04 13.75,-1.65 5.85,-1.73 8.18,-3.06 12.09,-6.89 l 4.84,-4.75 c 3.69,6.41 5.84,8.2 9.57,9.9 2.89,1.32 6.6,2.65 8.25,2.94 2.98,0.53 3.01,0.49 5.52,-7.65 l 2.52,-8.19 -6.04,-5.33 c -1.04,-53.7 -1.15,-54.86 -3.53,-60.09 -1.49,-3.27 -4.25,-6.95 -6.97,-9.28 -2.47,-2.13 -6.53,-4.56 -9,-5.42 -2.65,-0.91 -9.03,-1.69 -15.5,-1.9 -6.05,-0.18 -12.12,-0.13 -13.5,0.12 z m 418.25,0.9 c -2.89,0.82 -7.05,2.4 -9.25,3.5 -2.2,1.1 -5.84,3.69 -8.09,5.75 -2.25,2.06 -5.5,6 -7.22,8.75 -1.72,2.75 -4,7.7 -5.06,11 -1.47,4.53 -1.96,9.06 -2.02,18.5 -0.08,10.19 0.31,13.79 2.08,19.5 1.2,3.85 4.12,9.87 6.49,13.39 3,4.43 6.15,7.57 10.32,10.28 4.11,2.67 8.36,4.4 13.5,5.5 5.03,1.08 9.97,1.43 15,1.07 4.15,-0.3 10.18,-1.57 13.5,-2.84 3.3,-1.27 7.8,-3.7 10,-5.4 2.2,-1.71 5.67,-5.33 7.72,-8.05 2.05,-2.72 4.67,-7.43 5.83,-10.45 1.16,-3.02 2.61,-9.33 3.22,-14 0.82,-6.24 0.82,-10.76 0,-17 -0.61,-4.67 -2.03,-10.98 -3.16,-14 -1.12,-3.02 -3.52,-7.7 -5.32,-10.39 -1.81,-2.69 -5.54,-6.51 -8.29,-8.48 -2.75,-1.97 -7.25,-4.42 -10,-5.45 -3.13,-1.18 -8.55,-2.03 -14.5,-2.28 -6.54,-0.28 -11.14,0.06 -14.75,1.1 z m 184.25,-0.16 c -2.2,0.73 -5.35,2.03 -7,2.89 -1.65,0.86 -5.14,3.41 -7.75,5.67 l -4.75,4.1 -1,-11 h -22 v 93 h 25 l -0.04,-64.5 c 4.29,-5.73 6.89,-8.42 8.54,-9.68 2.05,-1.56 4.73,-2.39 8.5,-2.64 4.91,-0.33 5.77,-0.09 8,2.3 l 2.5,2.68 0.5,71.84 h 25 c -0.5,-75.82 -0.54,-76.59 -2.81,-81.5 -1.27,-2.75 -3.29,-6.06 -4.5,-7.35 -1.2,-1.29 -3.99,-3.27 -6.19,-4.41 -2.6,-1.34 -6.44,-2.17 -11,-2.39 -4.06,-0.2 -8.68,0.22 -11,0.99 z M 1622,765.5 V 812 h 25 v -93 h -25 z" />
    <path
       id="Path 9"
       class="shp0"
       d="m 717.35,734.43 c -1.73,0.74 -4.04,2.64 -5.13,4.21 -1.1,1.57 -2.73,5.34 -3.62,8.36 -0.89,3.02 -1.62,6.51 -1.61,7.75 0.01,2.25 0.04,2.25 17.26,2.26 l 17.25,0.01 c -1.13,-8.93 -2.48,-13.51 -3.73,-15.95 -1.43,-2.79 -3.57,-5.11 -5.77,-6.26 -1.92,-1 -5.3,-1.8 -7.5,-1.77 -2.2,0.02 -5.42,0.65 -7.15,1.39 z m 337,0 c -1.73,0.74 -4.04,2.64 -5.13,4.21 -1.1,1.57 -2.73,5.34 -3.62,8.36 -0.89,3.02 -1.62,6.51 -1.61,7.75 0.01,2.25 0.04,2.25 17.26,2.26 l 17.25,0.01 c -1.13,-8.93 -2.48,-13.51 -3.73,-15.95 -1.43,-2.79 -3.57,-5.11 -5.77,-6.26 -1.92,-1 -5.3,-1.8 -7.5,-1.77 -2.2,0.02 -5.42,0.65 -7.15,1.39 z m -171.42,2.82 c -1.89,1.24 -4.44,4.28 -5.67,6.75 -1.23,2.48 -2.74,7.2 -3.36,10.5 -0.62,3.3 -0.92,10.5 -0.67,16 0.38,8.06 0.98,11.12 3.12,15.75 1.73,3.76 3.77,6.44 5.9,7.75 2.13,1.3 4.98,1.99 8.25,1.97 3.49,-0.01 6.29,-0.76 9.25,-2.49 2.34,-1.36 5.15,-3.83 6.25,-5.48 1.84,-2.76 2,-4.67 2,-24 v -21 c -5.42,-4.65 -8.12,-6.45 -9.5,-7 -1.37,-0.55 -4.67,-1 -7.32,-1 -3.31,0 -5.89,0.7 -8.25,2.25 z m 889.07,-1.6 c -0.83,0.33 -2.97,2 -4.77,3.72 -1.8,1.72 -4.05,5.38 -5,8.13 -1.29,3.74 -1.73,8.27 -1.73,18 0,9.73 0.44,14.26 1.73,18 0.96,2.78 3.32,6.56 5.3,8.5 3.44,3.36 3.87,3.5 10.97,3.5 7.1,0 7.53,-0.14 10.97,-3.5 1.98,-1.94 4.34,-5.72 5.3,-8.5 1.29,-3.74 1.73,-8.27 1.73,-18 0,-9.73 -0.44,-14.26 -1.73,-18 -0.96,-2.79 -3.31,-6.55 -5.31,-8.5 -3.23,-3.16 -4.19,-3.52 -9.77,-3.72 -3.41,-0.13 -6.86,0.04 -7.69,0.37 z m -419.42,35.14 c -2.92,1.02 -5.76,2.86 -7,4.55 -1.31,1.8 -2.19,4.74 -2.39,8 -0.22,3.87 0.21,5.97 1.75,8.41 1.13,1.79 3.19,3.7 4.56,4.25 1.38,0.55 4.08,1 6,1 1.92,0 4.74,-0.48 6.25,-1.06 1.51,-0.58 4.44,-2.72 6.52,-4.75 l 3.76,-3.69 L 1372,769 c -11.38,0.07 -16.62,0.82 -19.42,1.79 z" />
    <g
       id="g1349"
       clip-path="url(#clipPath1351)"
       transform="matrix(1.0088806,0,0,1,0.76219345,0)">
      <g
         inkscape:label="Clip"
         id="g1347"
         inkscape:export-xdpi="96"
         inkscape:export-ydpi="96">
        <g
           id="g1321">
          <rect
             style="fill:#ffffff;stroke-width:5.556"
             id="rect103"
             width="1512.0599"
             height="222.13902"
             x="489.71558"
             y="662.74677" />
          <rect
             style="fill:#ffffff;stroke-width:5.556"
             id="rect105"
             width="628.55243"
             height="620.97955"
             x="-85.826447"
             y="210.8958" />
          <rect
             style="fill:#ffffff;stroke-width:5.556"
             id="rect107"
             width="451.85095"
             height="408.93774"
             x="15.145844"
             y="-39.010605" />
          <g
             id="g984"
             clip-path="url(#clipPath986)"
             transform="matrix(0.83150589,0,0,0.80754801,-84.275012,86.910473)">
            <g
               inkscape:label="Clip"
               id="g982">
              <text
                 xml:space="preserve"
                 id="text115"
                 style="font-style:normal;font-variant:normal;font-weight:normal;font-stretch:normal;font-size:1066.75px;line-height:1.25;font-family:Gabriola;-inkscape-font-specification:'Gabriola, Normal';font-variant-ligatures:normal;font-variant-caps:normal;font-variant-numeric:normal;font-variant-east-asian:normal;white-space:pre;shape-inside:url(#rect117);fill:#ffd485;fill-opacity:1;stroke:none"
                 transform="translate(429.13221,-964.28536)"><tspan
                   sodipodi:role="line"
                   id="tspan119"
                   style="font-style:normal;font-variant:normal;font-weight:normal;font-stretch:normal;font-size:1066.75px;font-family:Gabriola;-inkscape-font-specification:'Gabriola, Normal';font-variant-ligatures:normal;font-variant-caps:normal;font-variant-numeric:normal;font-variant-east-asian:normal;fill:#ffd485;fill-opacity:1">W</tspan></text>
              <text
                 xml:space="preserve"
                 id="text964"
                 style="font-style:normal;font-variant:normal;font-weight:normal;font-stretch:normal;font-size:1066.75px;line-height:1.25;font-family:Gabriola;-inkscape-font-specification:'Gabriola, Normal';font-variant-ligatures:normal;font-variant-caps:normal;font-variant-numeric:normal;font-variant-east-asian:normal;white-space:pre;shape-inside:url(#rect966);fill:#fdef87;fill-opacity:1;stroke:none"
                 transform="translate(-817.03448,10.097453)"><tspan
                   sodipodi:role="line"
                   id="tspan968"
                   style="font-style:normal;font-variant:normal;font-weight:normal;font-stretch:normal;font-size:1066.75px;font-family:Gabriola;-inkscape-font-specification:'Gabriola, Normal';font-variant-ligatures:normal;font-variant-caps:normal;font-variant-numeric:normal;font-variant-east-asian:normal;fill:#fdef87;fill-opacity:1">e</tspan></text>
              <text
                 xml:space="preserve"
                 id="text970"
                 style="font-style:normal;font-variant:normal;font-weight:normal;font-stretch:normal;font-size:1066.75px;line-height:1.25;font-family:Gabriola;-inkscape-font-specification:'Gabriola, Normal';font-variant-ligatures:normal;font-variant-caps:normal;font-variant-numeric:normal;font-variant-east-asian:normal;white-space:pre;shape-inside:url(#rect972);fill:#fadce6;fill-opacity:1;stroke:none"
                 transform="translate(-344.47821,113.59355)"><tspan
                   sodipodi:role="line"
                   id="tspan974"
                   style="font-style:normal;font-variant:normal;font-weight:normal;font-stretch:normal;font-size:1066.75px;font-family:Gabriola;-inkscape-font-specification:'Gabriola, Normal';font-variant-ligatures:normal;font-variant-caps:normal;font-variant-numeric:normal;font-variant-east-asian:normal;fill:#fadce6;fill-opacity:1">b</tspan></text>
            </g>
          </g>
          <g
             id="Background-0"
             transform="matrix(5.7595257,0,0,4.6719309,3995.9551,0.19000477)">
            <g
               id="g1165"
               clip-path="url(#clipPath1167)"
               transform="matrix(0.52292916,0,0,0.5709668,-576.67599,163.18473)"
               style="mix-blend-mode:normal">
              <g
                 inkscape:label="Clip"
                 id="g1163">
                <path
                   id="Path_1"
                   class="st1"
                   d="m 91.4,30 c -0.4,0 -1.2,0.1 -1.8,0.2 l -1,0.1 c 0.3,4.1 0.5,6.7 0.7,8.5 0.2,1.7 0.5,4.1 0.7,5.2 0.2,1.1 0.6,3.3 0.9,4.9 l 0.6,2.8 h 4.4 c 0.5,-2 0.9,-3.7 1.1,-5 0.2,-1.3 0.7,-3.7 0.9,-5.5 0.2,-1.7 0.5,-4.2 0.7,-5.6 0.1,-1.3 0.2,-3.1 0.2,-3.9 0,-1.4 0,-1.4 -0.6,-1.6 -0.3,-0.1 -1.8,-0.2 -3.3,-0.2 -1.5,0 -3,0.1 -3.5,0.1 z"
                   style="fill:#fdef87;fill-opacity:1" />
                <path
                   id="Path_3"
                   class="st1"
                   d="m 70.4,39.1 c -0.9,0.9 -2.3,2.5 -3,3.5 -0.7,1 -1.3,1.9 -1.3,2 0,0.1 1.1,1 2.4,1.8 1.3,0.9 3.7,2.3 5.3,3.3 1.6,0.9 4.4,2.5 6.2,3.4 1.8,0.9 4,2 4.7,2.4 0.7,0.4 1.4,0.6 1.5,0.6 0,0 0.3,-0.4 0.6,-0.8 0.3,-0.4 0.9,-1 1.3,-1.5 L 88.9,53 C 88,52 87,50.9 86.1,50 c -0.9,-0.9 -2.9,-3 -4.5,-4.5 -1.6,-1.6 -4.3,-4 -6,-5.4 -1.7,-1.4 -3.2,-2.6 -3.3,-2.6 -0.1,-0.1 -1,0.7 -1.9,1.6 z m 43.9,-0.7 c -0.5,0.4 -2.3,1.9 -4.1,3.4 -1.7,1.5 -4.5,4 -6.2,5.6 -1.6,1.6 -3.5,3.6 -4.2,4.3 L 98.6,53 c 1.4,1.4 1.9,2.1 2.1,2.4 0.2,0.3 0.5,0.6 0.6,0.6 0.2,0 1.5,-0.6 3.1,-1.3 1.5,-0.7 3.8,-1.9 5.1,-2.6 1.3,-0.7 4.3,-2.4 6.8,-3.9 2.5,-1.5 4.7,-2.8 4.9,-3 0.3,-0.2 0.4,-0.4 0.3,-0.7 -0.1,-0.2 -0.6,-0.9 -1.1,-1.6 -0.5,-0.7 -1.4,-1.7 -1.9,-2.3 -0.6,-0.6 -1.5,-1.5 -2,-2.1 -0.6,-0.5 -1.1,-1 -1.1,-1 -0.2,0.1 -0.6,0.5 -1.1,0.9 z"
                   style="fill:#fdef87;fill-opacity:1" />
                <path
                   id="Path_5"
                   class="st1"
                   d="m 78.6,58.9 c -1.7,0.1 -4.7,0.3 -6.6,0.5 -1.9,0.2 -4.9,0.6 -6.7,0.8 -1.8,0.3 -3.3,0.5 -3.4,0.5 -0.1,0 -0.1,0.3 -0.1,0.7 0,0.4 0.2,1.5 0.4,2.6 0.2,1.1 0.7,2.8 1,3.9 0.4,1.1 0.7,2 0.7,2 0,0 2,-0.4 4.3,-1.1 2.4,-0.6 5.9,-1.7 7.9,-2.3 2,-0.7 4.8,-1.7 6.2,-2.2 1.4,-0.6 2.9,-1.2 3.3,-1.4 l 0.8,-0.4 C 85.8,61 85.6,60.2 85.6,59.7 l -0.1,-1 c -2.9,0.1 -5.1,0.1 -6.9,0.2 z m 23.2,0.3 c -0.1,0.2 -0.1,0.5 -0.1,0.8 0,0.3 -0.2,1 -0.4,1.5 l -0.4,1 c 3.5,1.5 6,2.5 7.7,3.1 1.7,0.6 4.4,1.5 6,2 1.6,0.5 4.2,1.2 5.8,1.7 1.6,0.4 3,0.7 3,0.6 0.1,-0.1 0.3,-0.8 0.6,-1.5 0.3,-0.7 0.7,-2.1 0.9,-3 0.2,-0.9 0.5,-2.3 0.6,-3 0.2,-1.1 0.1,-1.3 -0.3,-1.4 -0.2,-0.1 -1.6,-0.3 -3,-0.5 -1.4,-0.2 -4.1,-0.6 -6,-0.8 -1.9,-0.2 -4.8,-0.5 -6.5,-0.6 -1.7,-0.1 -4.1,-0.2 -5.4,-0.2 -1.9,0 -2.4,0.1 -2.5,0.3 z m -14.2,6.3 c -0.4,0.5 -1.4,1.7 -2.3,2.8 -0.9,1.1 -2.5,3.2 -3.7,4.9 -1.2,1.6 -3,4.4 -4.2,6.2 -1.2,1.8 -2,3.4 -2,3.5 0,0.2 1,0.8 2.1,1.4 1.1,0.6 3,1.5 4.3,1.9 1.3,0.4 2.4,0.8 2.5,0.8 0.1,0 0.3,-0.3 0.5,-0.8 0.2,-0.4 0.9,-2 1.6,-3.6 0.7,-1.6 1.8,-4.2 2.4,-5.8 0.6,-1.6 1.6,-4.5 2.2,-6.5 0.6,-2 1.1,-3.7 1.1,-3.8 0,-0.1 -0.3,-0.3 -0.7,-0.3 -0.4,-0.1 -1.3,-0.4 -1.9,-0.8 l -1.2,-0.7 z m 10.1,-0.1 c -0.6,0.3 -1.3,0.7 -1.8,0.7 -0.7,0.1 -0.7,0.2 -0.6,1 0.1,0.4 0.6,2.3 1.2,4.2 0.6,1.8 1.6,4.8 2.2,6.6 0.7,1.8 1.8,4.5 2.5,6.1 0.7,1.6 1.4,2.9 1.6,2.9 0.2,0 1.5,-0.4 2.9,-0.9 1.4,-0.5 3.3,-1.4 4.3,-1.9 1,-0.5 1.7,-1.1 1.7,-1.2 0,-0.1 -1,-1.8 -2.3,-3.9 -1.2,-2 -3.2,-5 -4.4,-6.6 -1.2,-1.6 -3,-4 -4,-5.3 -1.1,-1.3 -2,-2.4 -2.1,-2.4 -0.1,0.1 -0.7,0.4 -1.2,0.7 z"
                   style="fill:#fdef87;fill-opacity:1" />
                <path
                   id="Path_6"
                   class="st2"
                   d="m 141.9,72 c -0.3,0.1 -0.4,0.2 -0.4,0.4 0,0.2 0.2,1.5 0.4,3 0.2,1.4 0.6,3.7 0.9,5 0.3,1.3 0.7,2.9 0.9,3.5 l 0.4,1.2 h 2 c 0.5,-1.7 0.8,-3 1.1,-4 0.2,-1 0.6,-2.8 0.8,-4 0.2,-1.2 0.4,-2.8 0.5,-3.5 0.1,-1.4 0.1,-1.4 -0.4,-1.6 -0.3,-0.1 -1.7,-0.1 -3.1,-0.1 -1.5,0 -2.8,0.1 -3.1,0.1 z m -12.4,8.9 c -0.3,0.6 -0.7,1.6 -0.9,2.2 -0.2,0.6 -0.4,1.5 -0.5,1.9 -0.1,0.7 -0.1,0.8 0.7,1 0.5,0.1 1.9,0.4 3.2,0.6 1.3,0.2 3.1,0.5 4.1,0.6 1,0.1 2.8,0.3 4,0.3 l 2.2,0.1 c 0.5,-1.6 0.5,-1.7 0.2,-2 -0.2,-0.2 -1.7,-1 -3.3,-1.9 -1.6,-0.9 -4.2,-2.1 -5.7,-2.7 -1.6,-0.6 -3,-1.2 -3.2,-1.2 -0.2,0 -0.5,0.4 -0.8,1.1 z m 27,0.1 c -1.5,0.6 -4.1,1.9 -5.7,2.7 -1.6,0.9 -3.1,1.7 -3.3,1.9 -0.3,0.3 -0.4,0.4 -0.1,1.1 l 0.3,0.8 c 3.3,-0.2 5.1,-0.4 6.1,-0.5 1,-0.1 2.9,-0.4 4.2,-0.6 1.3,-0.2 2.7,-0.5 3.2,-0.6 0.8,-0.2 0.8,-0.2 0.7,-1 -0.1,-0.4 -0.3,-1.3 -0.5,-1.9 -0.2,-0.6 -0.6,-1.6 -0.9,-2.2 -0.4,-0.7 -0.7,-1.1 -0.9,-1.1 -0.1,0.2 -1.5,0.7 -3.1,1.4 z M 141,90 c -1,0.7 -2.9,2.3 -4.3,3.6 -1.4,1.3 -3,2.8 -3.5,3.3 l -0.9,1 c 2.1,1.8 3.4,2.6 4.1,3 l 1.4,0.7 c 0.7,-0.8 1.5,-2 2.2,-3.2 0.7,-1.2 1.8,-3.3 2.5,-4.6 0.6,-1.3 1.3,-2.8 1.5,-3.2 0.3,-0.7 0.3,-0.8 -0.4,-1.3 -0.4,-0.3 -0.7,-0.5 -0.8,-0.5 0,-0.1 -0.8,0.5 -1.8,1.2 z m 5.4,-0.7 -0.7,0.5 c 0.7,1.6 1.4,3.2 2,4.5 0.7,1.3 1.9,3.5 2.7,4.8 0.8,1.3 1.6,2.4 1.7,2.4 0.1,0 0.8,-0.3 1.5,-0.7 0.7,-0.4 1.9,-1.2 2.7,-1.8 l 1.4,-1.1 c -1.7,-1.8 -3.2,-3.3 -4.5,-4.4 -1.2,-1.1 -3.1,-2.6 -4.1,-3.4 -1,-0.8 -1.9,-1.4 -2,-1.4 0,0 -0.3,0.3 -0.7,0.6 z"
                   style="fill:#fadce6;fill-opacity:1" />
                <path
                   id="Path_7"
                   class="st3"
                   d="m 92.8,94.9 c -0.4,0 -1,0.1 -1.3,0.2 L 91,95.2 c 0.2,5.7 0.4,9 0.6,10.9 0.2,2 0.5,5 0.8,6.8 0.2,1.8 0.7,4.7 1,6.5 0.3,1.8 0.6,3.3 0.7,3.4 0.1,0.1 0.8,0.1 1.6,0 0.9,-0.1 2,-0.1 2.9,0 0.8,0.1 1.5,0.2 1.5,0.1 0,0 0.3,-1.7 0.7,-3.7 0.4,-2 0.9,-5.1 1.1,-6.9 0.2,-1.8 0.6,-4.8 0.8,-6.8 0.2,-2 0.4,-5.1 0.5,-6.9 0.1,-3.2 0.1,-3.4 -0.3,-3.5 -0.2,-0.1 -2.4,-0.2 -4.9,-0.2 -2.4,0 -4.8,0 -5.2,0 z m -17.7,5.2 c -0.9,0.5 -2.2,1.3 -3,1.8 -0.8,0.5 -2.3,1.6 -3.4,2.4 -1.6,1.2 -1.9,1.5 -1.7,1.8 0.1,0.2 1.3,1.6 2.6,3.1 1.3,1.5 3.6,4 5.1,5.6 1.5,1.6 4.1,4.2 5.8,5.8 1.7,1.6 3.9,3.7 4.9,4.5 l 1.8,1.6 c 2.2,-1.6 3.3,-2.3 3.8,-2.6 0.9,-0.4 1,-0.5 0.9,-0.9 -0.1,-0.3 -1,-1.9 -1.9,-3.6 -1,-1.7 -2.5,-4.5 -3.5,-6.1 -1,-1.6 -2.5,-4 -3.3,-5.3 -0.8,-1.3 -2.6,-3.8 -3.9,-5.6 -1.3,-1.8 -2.4,-3.3 -2.5,-3.3 -0.1,0 -0.9,0.4 -1.7,0.8 z m 40.2,2.1 c -1.1,1.5 -2.9,4.1 -4.1,5.8 -1.2,1.7 -2.9,4.5 -3.9,6.1 -1,1.6 -2.6,4.3 -3.5,6 -0.9,1.7 -1.7,3.2 -1.7,3.4 0,0.2 0.1,0.3 0.2,0.3 0.1,0 0.7,0.3 1.4,0.7 0.6,0.4 1.6,1.1 2.2,1.5 l 1,0.9 c 7.4,-6.9 10.9,-10.2 12.5,-11.9 1.6,-1.7 4,-4.3 5.4,-5.9 1.4,-1.6 2.5,-3 2.5,-3.1 0,-0.1 -0.8,-0.8 -1.7,-1.6 -1,-0.8 -3.1,-2.2 -4.7,-3.2 -1.7,-1 -3.1,-1.8 -3.3,-1.8 -0.1,0.1 -1.2,1.3 -2.3,2.8 z m -57.7,15.3 c -0.2,0.3 -0.7,1.5 -1.2,2.6 -0.5,1.1 -1.2,3.1 -1.5,4.4 -0.4,1.3 -0.7,2.5 -0.7,2.8 0,0.4 0.3,0.5 4.1,1.5 2.2,0.6 5.3,1.3 6.9,1.6 1.5,0.3 4.3,0.9 6.1,1.2 1.8,0.3 5.2,0.9 7.6,1.2 2.3,0.3 4.5,0.6 4.8,0.6 0.5,0 0.6,-0.1 0.6,-0.6 0,-0.3 0.2,-1.2 0.5,-1.9 0.3,-0.7 0.7,-1.6 0.9,-1.9 l 0.4,-0.7 c -2.5,-1.3 -5.2,-2.5 -7.7,-3.6 -2.5,-1.1 -6.3,-2.7 -8.5,-3.6 -2.2,-0.9 -5.7,-2.1 -7.7,-2.9 -2.1,-0.7 -3.9,-1.3 -4,-1.3 -0.2,0 -0.5,0.3 -0.6,0.6 z m 74.2,0.9 c -2,0.7 -5.1,1.8 -6.9,2.5 -1.8,0.7 -4.9,1.9 -6.9,2.8 -2,0.9 -5,2.2 -6.7,3 -1.6,0.8 -3,1.5 -3.1,1.6 0,0.1 0.2,0.7 0.5,1.3 0.3,0.6 0.7,1.8 0.9,2.5 0.2,0.7 0.3,1.3 0.4,1.3 0,0 1.7,-0.2 3.7,-0.5 2,-0.3 5.3,-0.8 7.4,-1.1 2,-0.3 5.4,-1 7.6,-1.4 2.1,-0.5 5.4,-1.2 7.1,-1.6 1.8,-0.5 3.5,-0.8 3.7,-0.9 0.4,-0.1 0.5,-0.2 0.4,-0.6 -0.1,-0.3 -0.4,-1.5 -0.7,-2.6 -0.3,-1.1 -0.8,-2.7 -1.1,-3.5 -0.3,-0.8 -0.9,-2.1 -1.2,-2.8 -0.4,-0.9 -0.8,-1.3 -1,-1.3 -0.3,0 -2.1,0.6 -4.1,1.3 z m -52.4,17.5 c -1.9,0.3 -5.3,0.8 -7.6,1.2 -2.3,0.4 -6,1.1 -8.2,1.6 -2.3,0.5 -5.2,1.2 -6.6,1.5 -1.3,0.3 -2.6,0.7 -2.7,0.8 -0.1,0.1 -0.1,0.6 0.1,1.6 0.2,0.8 0.6,2.4 1.1,3.7 0.4,1.3 1.1,3 1.6,3.9 0.4,0.9 0.8,1.6 0.9,1.6 0,0 1.7,-0.6 3.8,-1.2 2.1,-0.7 5.8,-2.1 8.4,-3.1 2.6,-1 7,-2.9 9.8,-4.1 2.8,-1.3 5.3,-2.5 5.6,-2.6 0.4,-0.3 0.4,-0.3 -0.2,-1.6 -0.4,-0.7 -0.8,-1.8 -0.9,-2.5 -0.2,-1.1 -0.3,-1.2 -0.9,-1.3 -0.4,0 -2.3,0.2 -4.2,0.5 z m 30.5,-0.3 c -0.1,0.1 -0.2,0.8 -0.3,1.4 -0.1,0.6 -0.5,1.7 -0.9,2.3 l -0.6,1.2 c 1.4,0.7 4,1.9 6.6,3.1 2.6,1.2 6.1,2.7 7.8,3.4 1.7,0.7 4.7,1.8 6.7,2.5 2,0.7 4.4,1.6 5.3,1.8 l 1.6,0.5 c 1.2,-2.3 1.8,-3.7 2.2,-4.7 0.4,-0.9 0.9,-2.6 1.2,-3.6 0.3,-1.1 0.5,-2.1 0.4,-2.2 -0.1,-0.2 -1.5,-0.6 -3.9,-1.3 -2.1,-0.5 -4.8,-1.2 -6,-1.5 -1.2,-0.3 -4.2,-0.9 -6.6,-1.3 -2.4,-0.4 -6.1,-1 -8.1,-1.3 -2.1,-0.3 -4.1,-0.6 -4.5,-0.6 -0.6,0.1 -0.9,0.1 -0.9,0.3 z M 82.7,146 c -2.4,2.1 -5.8,5.5 -7.6,7.3 -1.8,1.9 -4.3,4.5 -5.5,5.9 -1.2,1.3 -2.3,2.7 -2.6,3 l -0.4,0.6 c 0.9,0.8 2.1,1.8 3.3,2.7 1.2,0.9 3.2,2.2 4.4,2.9 1.3,0.7 2.3,1.2 2.3,1 0.1,-0.1 1.3,-1.8 2.7,-3.8 1.4,-2 3.5,-5 4.7,-6.8 1.2,-1.8 2.9,-4.6 3.9,-6.3 1,-1.7 2.3,-3.9 2.8,-5 0.6,-1.1 1,-2 1,-2.2 0,-0.1 -0.6,-0.5 -1.3,-0.9 -0.7,-0.4 -1.7,-1 -2.3,-1.5 -0.6,-0.5 -1.1,-0.9 -1.2,-0.9 0.1,0 -1.9,1.8 -4.2,4 z m 22.9,-3 c -0.6,0.5 -1.7,1.2 -2.3,1.5 -0.7,0.3 -1.2,0.6 -1.3,0.7 -0.1,0.1 1,1.9 2.2,4.2 1.2,2.3 2.9,5.2 3.7,6.4 0.8,1.3 2.1,3.3 2.9,4.6 0.8,1.3 2.5,3.8 3.9,5.6 1.3,1.9 2.5,3.4 2.7,3.4 0.2,0 1.1,-0.5 2.1,-1 1,-0.5 2.6,-1.6 3.7,-2.3 1,-0.7 2.4,-1.7 3.1,-2.3 l 1.2,-1 c -2.8,-3.3 -4.7,-5.4 -5.9,-6.7 -1.2,-1.3 -3.1,-3.3 -4.2,-4.5 -1.1,-1.1 -3.9,-3.7 -6.1,-5.8 -2.3,-2.1 -4.2,-3.8 -4.2,-3.8 -0.3,0.1 -0.9,0.5 -1.5,1 z m -12,4.8 c -0.2,1 -0.6,3.3 -0.9,5.1 -0.3,1.8 -0.7,5 -1,7.2 -0.2,2.2 -0.6,6.1 -0.7,8.7 -0.2,2.6 -0.2,4.7 -0.2,4.8 0.1,0.1 1.4,0.2 3,0.3 1.6,0.1 3.7,0.2 4.7,0.1 1,-0.1 2.4,-0.2 3.2,-0.2 l 1.4,-0.1 c -0.3,-5.9 -0.5,-9.2 -0.7,-11.1 -0.2,-2 -0.5,-5 -0.8,-6.8 -0.2,-1.8 -0.7,-4.7 -1,-6.5 l -0.6,-3.2 h -6.2 z"
                   style="fill:#ffd485;fill-opacity:1" />
              </g>
            </g>
          </g>
          <text
             xml:space="preserve"
             id="text1267"
             style="font-style:normal;font-variant:normal;font-weight:normal;font-stretch:normal;font-size:1066.75px;line-height:1.25;font-family:'French Script MT';-inkscape-font-specification:'French Script MT, Normal';font-variant-ligatures:normal;font-variant-caps:normal;font-variant-numeric:normal;font-variant-east-asian:normal;white-space:pre;shape-inside:url(#rect1269);fill:#677db7;fill-opacity:1;stroke:none"
             transform="translate(-2405.6647,-567.96911)"><tspan
               sodipodi:role="line"
               id="tspan1271"
               style="font-style:normal;font-variant:normal;font-weight:normal;font-stretch:normal;font-size:1066.75px;font-family:'French Script MT';-inkscape-font-specification:'French Script MT, Normal';font-variant-ligatures:normal;font-variant-caps:normal;font-variant-numeric:normal;font-variant-east-asian:normal;fill:#677db7;fill-opacity:1">'</tspan></text>
          <text
             xml:space="preserve"
             id="text1439"
             style="font-style:normal;font-weight:normal;font-size:222.24px;line-height:1.25;font-family:sans-serif;white-space:pre;shape-inside:url(#rect1441);fill:#000000;fill-opacity:1;stroke:none"><tspan
               sodipodi:role="line"
               id="tspan1443"></tspan></text>
          <text
             xml:space="preserve"
             id="text1451"
             style="font-style:normal;font-variant:normal;font-weight:normal;font-stretch:normal;font-size:1066.75px;line-height:1.25;font-family:'French Script MT';-inkscape-font-specification:'French Script MT, Normal';font-variant-ligatures:normal;font-variant-caps:normal;font-variant-numeric:normal;font-variant-east-asian:normal;white-space:pre;shape-inside:url(#rect1453);opacity:0.996;fill:#677db7;fill-opacity:1;stroke:none"
             transform="matrix(1.2459876,0.17104557,0,1.8606701,-3449.1464,-1840.0687)"><tspan
               sodipodi:role="line"
               id="tspan1455"
               style="font-style:normal;font-variant:normal;font-weight:normal;font-stretch:normal;font-size:1066.75px;font-family:'French Script MT';-inkscape-font-specification:'French Script MT, Normal';font-variant-ligatures:normal;font-variant-caps:normal;font-variant-numeric:normal;font-variant-east-asian:normal;fill:#677db7;fill-opacity:1">l</tspan></text>
        </g>
      </g>
    </g>
  </g>
</svg>
