<?xml version="1.0" encoding="UTF-8" standalone="no"?>
<svg
   xmlns:dc="http://purl.org/dc/elements/1.1/"
   xmlns:cc="http://creativecommons.org/ns#"
   xmlns:rdf="http://www.w3.org/1999/02/22-rdf-syntax-ns#"
   xmlns:svg="http://www.w3.org/2000/svg"
   xmlns="http://www.w3.org/2000/svg"
   xmlns:sodipodi="http://sodipodi.sourceforge.net/DTD/sodipodi-0.dtd"
   xmlns:inkscape="http://www.inkscape.org/namespaces/inkscape"
   version="1.1"
   id="svg1495"
   width="750"
   height="384"
   viewBox="0 0 750 384"
   sodipodi:docname="ma-page2.svg"
   inkscape:version="1.0.2-2 (e86c870879, 2021-01-15)"
   inkscape:export-filename="C:\xampp\htdocs\webapp\public\assets\img\ma-page2.png"
   inkscape:export-xdpi="96"
   inkscape:export-ydpi="96">
  <metadata
     id="metadata1501">
    <rdf:RDF>
      <cc:Work
         rdf:about="">
        <dc:format>image/svg+xml</dc:format>
        <dc:type
           rdf:resource="http://purl.org/dc/dcmitype/StillImage" />
        <dc:title />
      </cc:Work>
    </rdf:RDF>
  </metadata>
  <defs
     id="defs1499">
    <rect
       x="806.19653"
       y="-108.54019"
       width="369.89355"
       height="601.25555"
       id="rect1290" />
    <rect
       x="77.120667"
       y="363.46683"
       width="992.57153"
       height="249.214"
       id="rect2325" />
    <rect
       x="773.34888"
       y="14.281604"
       width="194.94389"
       height="287.06024"
       id="rect2261" />
    <rect
       x="-343.4726"
       y="-47.843376"
       width="332.76138"
       height="526.99121"
       id="rect2255" />
    <rect
       x="-296.34329"
       y="-24.278727"
       width="261.35336"
       height="476.2915"
       id="rect2249" />
    <rect
       x="77.120667"
       y="363.46683"
       width="992.57153"
       height="249.214"
       id="rect2325-3" />
    <rect
       x="77.120667"
       y="363.46683"
       width="992.57153"
       height="249.214"
       id="rect2338" />
    <rect
       x="77.120667"
       y="363.46683"
       width="992.57153"
       height="249.214"
       id="rect2325-3-5" />
    <rect
       x="77.120667"
       y="363.46683"
       width="992.57153"
       height="249.214"
       id="rect2374" />
    <rect
       x="77.120667"
       y="363.46683"
       width="992.57153"
       height="249.214"
       id="rect2325-3-3" />
    <rect
       x="77.120667"
       y="363.46683"
       width="992.57153"
       height="249.214"
       id="rect2374-3" />
    <rect
       x="77.120667"
       y="363.46683"
       width="992.57153"
       height="249.214"
       id="rect2325-3-3-5" />
    <rect
       x="77.120667"
       y="363.46683"
       width="992.57153"
       height="249.214"
       id="rect1315" />
  </defs>
  <sodipodi:namedview
     pagecolor="#ffffff"
     bordercolor="#666666"
     borderopacity="1"
     objecttolerance="10"
     gridtolerance="10"
     guidetolerance="10"
     inkscape:pageopacity="0"
     inkscape:pageshadow="2"
     inkscape:window-width="1920"
     inkscape:window-height="1001"
     id="namedview1497"
     showgrid="false"
     showborder="true"
     inkscape:pagecheckerboard="true"
     inkscape:zoom="1.4004029"
     inkscape:cx="375"
     inkscape:cy="247.67467"
     inkscape:window-x="-9"
     inkscape:window-y="-9"
     inkscape:window-maximized="1"
     inkscape:current-layer="g1503"
     inkscape:document-rotation="0" />
  <g
     inkscape:groupmode="layer"
     inkscape:label="Image"
     id="g1503">
    <text
       xml:space="preserve"
       id="text2247"
       style="font-style:normal;font-weight:normal;font-size:40px;line-height:1.25;font-family:sans-serif;white-space:pre;shape-inside:url(#rect2249);fill:#000000;fill-opacity:1;stroke:none;" />
    <text
       xml:space="preserve"
       id="text2259"
       style="font-style:normal;font-variant:normal;font-weight:normal;font-stretch:normal;font-size:192px;line-height:1.25;font-family:'Segoe Script';-inkscape-font-specification:'Segoe Script, Normal';font-variant-ligatures:normal;font-variant-caps:normal;font-variant-numeric:normal;font-variant-east-asian:normal;white-space:pre;shape-inside:url(#rect2261);fill:#faec55;fill-opacity:1;stroke:none;"
       transform="matrix(-0.84090291,-0.54118601,-0.54118601,0.84090291,967.06284,408.55406)"><tspan
         x="773.34961"
         y="183.32679"><tspan
           style="font-style:normal;font-variant:normal;font-weight:normal;font-stretch:normal;font-size:192px;font-family:'Segoe Script';-inkscape-font-specification:'Segoe Script, Normal';font-variant-ligatures:normal;font-variant-caps:normal;font-variant-numeric:normal;font-variant-east-asian:normal;white-space:pre;fill:#faec55;fill-opacity:1">'</tspan></tspan></text>
    <text
       xml:space="preserve"
       id="text2323-9"
       style="font-style:normal;font-variant:normal;font-weight:bold;font-stretch:normal;font-size:192px;line-height:1.25;font-family:'Segoe Script';-inkscape-font-specification:'Segoe Script, Bold';font-variant-ligatures:normal;font-variant-caps:normal;font-variant-numeric:normal;font-variant-east-asian:normal;white-space:pre;shape-inside:url(#rect2325-3);fill:#f4b5ca;fill-opacity:1;stroke:none;"
       transform="matrix(0.87549906,0,0,0.8138524,518.30572,-93.535931)"><tspan
         x="77.121094"
         y="532.55879"><tspan
           style="font-style:normal;font-variant:normal;font-weight:bold;font-stretch:normal;font-size:192px;font-family:'Segoe Script';-inkscape-font-specification:'Segoe Script, Bold';font-variant-ligatures:normal;font-variant-caps:normal;font-variant-numeric:normal;font-variant-east-asian:normal;white-space:pre;fill:#f4b5ca;fill-opacity:1">so</tspan></tspan></text>
    <text
       xml:space="preserve"
       id="text2323-9-8"
       style="font-style:normal;font-variant:normal;font-weight:bold;font-stretch:normal;font-size:192px;line-height:1.25;font-family:'Segoe Script';-inkscape-font-specification:'Segoe Script, Bold';font-variant-ligatures:normal;font-variant-caps:normal;font-variant-numeric:normal;font-variant-east-asian:normal;white-space:pre;shape-inside:url(#rect2325-3-5);fill:#faec55;fill-opacity:1;stroke:none;"
       transform="matrix(0.87549906,0,0,0.8138524,433.33019,-88.537371)"><tspan
         x="77.121094"
         y="532.55879"><tspan
           style="font-style:normal;font-variant:normal;font-weight:bold;font-stretch:normal;font-size:192px;font-family:'Segoe Script';-inkscape-font-specification:'Segoe Script, Bold';font-variant-ligatures:normal;font-variant-caps:normal;font-variant-numeric:normal;font-variant-east-asian:normal;white-space:pre;fill:#faec55;fill-opacity:1">r</tspan></tspan></text>
    <text
       xml:space="preserve"
       id="text2323-9-7"
       style="font-style:normal;font-variant:normal;font-weight:bold;font-stretch:normal;font-size:192px;line-height:1.25;font-family:'Segoe Script';-inkscape-font-specification:'Segoe Script, Bold';font-variant-ligatures:normal;font-variant-caps:normal;font-variant-numeric:normal;font-variant-east-asian:normal;white-space:pre;shape-inside:url(#rect2325-3-3);fill:#f49f5c;fill-opacity:1;stroke:none;"
       transform="matrix(0.87549906,0,0,0.8138524,234.81588,-92.821849)"><tspan
         x="77.121094"
         y="532.55879"><tspan
           style="font-style:normal;font-variant:normal;font-weight:bold;font-stretch:normal;font-size:192px;font-family:'Segoe Script';-inkscape-font-specification:'Segoe Script, Bold';font-variant-ligatures:normal;font-variant-caps:normal;font-variant-numeric:normal;font-variant-east-asian:normal;white-space:pre;fill:#f49f5c;fill-opacity:1">pe</tspan></tspan></text>
    <text
       xml:space="preserve"
       id="text1288"
       style="font-style:normal;font-variant:normal;font-weight:normal;font-stretch:normal;font-size:192px;line-height:1.25;font-family:'MV Boli';-inkscape-font-specification:'MV Boli, Normal';font-variant-ligatures:normal;font-variant-caps:normal;font-variant-numeric:normal;font-variant-east-asian:normal;white-space:pre;shape-inside:url(#rect1290);fill:#faec55;fill-opacity:1;stroke:none;"
       transform="translate(-817.62184,157.81173)"><tspan
         x="806.19727"
         y="61.327173"><tspan
           style="font-style:normal;font-variant:normal;font-weight:normal;font-stretch:normal;font-size:192px;font-family:'MV Boli';-inkscape-font-specification:'MV Boli, Normal';font-variant-ligatures:normal;font-variant-caps:normal;font-variant-numeric:normal;font-variant-east-asian:normal;white-space:pre;fill:#faec55;fill-opacity:1">M</tspan></tspan></text>
    <g
       id="g9323"
       transform="matrix(0.94828582,0,0,0.89409076,127.62339,112.83637)">
      <path
         id="Path_1_2_"
         class="st2"
         d="m 137.15828,153.65812 c -0.27081,0.0243 -0.7786,0.0851 -1.13969,0.13376 l -0.64319,0.073 c 0.16926,2.68735 0.31595,4.38974 0.44008,5.50846 0.12412,1.11871 0.31595,2.6387 0.42879,3.35614 0.11284,0.72959 0.37238,2.1523 0.57549,3.16158 l 0.37238,1.84831 h 2.79846 c 0.31595,-1.32544 0.54164,-2.39551 0.7109,-3.23455 0.15798,-0.83903 0.41751,-2.43198 0.57549,-3.56286 0.15797,-1.11871 0.3498,-2.7603 0.42879,-3.62365 0.079,-0.87552 0.1467,-1.99424 0.1467,-2.50495 0.0113,-0.89983 0,-0.92416 -0.38366,-1.00928 -0.2144,-0.0486 -1.16227,-0.12159 -2.09885,-0.15808 -0.94786,-0.0243 -1.94087,-0.0243 -2.21169,0.0122 z"
         style="fill:#faec55;fill-opacity:1;stroke-width:0.117138" />
      <path
         id="Path_3_2_"
         class="st2"
         d="m 123.73019,159.53138 c -0.59805,0.59583 -1.47821,1.61726 -1.94087,2.24958 -0.46264,0.63232 -0.8463,1.22815 -0.8463,1.31327 0,0.0973 0.68833,0.62016 1.52335,1.16736 0.83503,0.54719 2.35838,1.50783 3.37395,2.12798 1.01557,0.608 2.80974,1.61728 3.98329,2.23743 1.17355,0.62016 2.52764,1.31328 3.02414,1.53216 0.49651,0.21887 0.91402,0.40127 0.93659,0.37695 0.0226,-0.0122 0.19182,-0.2432 0.37237,-0.49856 0.18055,-0.25535 0.56421,-0.68095 0.84631,-0.94847 l 0.50779,-0.4864 c -0.5755,-0.66879 -1.2074,-1.37407 -1.77161,-1.99423 -0.56421,-0.62015 -1.87316,-1.94559 -2.90002,-2.95486 -1.02685,-1.00927 -2.75332,-2.57791 -3.8366,-3.4899 -1.08327,-0.912 -2.01985,-1.67807 -2.07627,-1.70239 -0.0451,0 -0.58677,0.47424 -1.19612,1.07008 z m 27.99588,-0.46208 c -0.31595,0.26751 -1.47821,1.25247 -2.59534,2.20094 -1.11713,0.94848 -2.88873,2.59007 -3.92687,3.63582 -1.03814,1.04576 -2.25682,2.31039 -2.69691,2.79679 l -0.80117,0.88767 c 0.88016,0.92416 1.22997,1.36192 1.3541,1.5808 0.12412,0.21888 0.29338,0.38911 0.39494,0.38911 0.10156,0 0.98172,-0.38911 1.95215,-0.87551 0.98172,-0.47424 2.44865,-1.22816 3.27239,-1.66591 0.82374,-0.43776 2.7759,-1.58079 4.3331,-2.55359 1.56849,-0.9728 2.96772,-1.84831 3.1257,-1.95775 0.20312,-0.14592 0.24825,-0.26752 0.16926,-0.43776 -0.0677,-0.13375 -0.38366,-0.59583 -0.69961,-1.02143 -0.31596,-0.4256 -0.86888,-1.11872 -1.21868,-1.51999 -0.34981,-0.40128 -0.93658,-1.00928 -1.28639,-1.34976 -0.34981,-0.34047 -0.68833,-0.62015 -0.72219,-0.62015 -0.0451,0.0365 -0.33852,0.2432 -0.65448,0.51072 z"
         style="fill:#faec55;fill-opacity:1;stroke-width:0.117138" />
      <path
         id="Path_5_2_"
         class="st2"
         d="m 128.98859,172.44522 c -1.09456,0.0608 -2.97901,0.20672 -4.19769,0.31616 -1.2074,0.1216 -3.14827,0.3648 -4.29925,0.53504 -1.15098,0.17023 -2.1327,0.31615 -2.16655,0.31615 -0.0339,0 -0.0677,0.19457 -0.0677,0.42561 0,0.23103 0.10155,0.98495 0.22568,1.67807 0.12412,0.69311 0.41751,1.81183 0.65448,2.50494 0.23696,0.69312 0.44008,1.26463 0.45136,1.28896 0.0113,0.0243 1.25254,-0.29184 2.75333,-0.69312 1.50078,-0.40128 3.78017,-1.08224 5.044,-1.50783 1.2751,-0.4256 3.04671,-1.08224 3.94943,-1.43488 0.90273,-0.3648 1.86188,-0.75391 2.1327,-0.87551 l 0.4965,-0.23104 c -0.37237,-0.94847 -0.4965,-1.50783 -0.51907,-1.84831 l -0.0451,-0.62016 c -1.88445,0.0243 -3.32882,0.0851 -4.41209,0.14592 z m 14.79347,0.1824 c -0.0451,0.10944 -0.079,0.35264 -0.079,0.52288 0,0.1824 -0.12412,0.62015 -0.2821,0.98495 l -0.28211,0.65664 c 2.25683,0.98496 3.81404,1.60511 4.9086,2.01855 1.09455,0.40128 2.82102,0.99711 3.83659,1.32543 1.01557,0.32832 2.68562,0.80256 3.70119,1.08224 1.01557,0.26751 1.88445,0.43776 1.94087,0.37695 0.0451,-0.0608 0.22568,-0.49855 0.38366,-0.97279 0.16926,-0.47424 0.42879,-1.36192 0.57549,-1.98207 0.15798,-0.62016 0.32723,-1.48351 0.39494,-1.93343 0.10156,-0.74175 0.0903,-0.81471 -0.16926,-0.88767 -0.15798,-0.0487 -1.01557,-0.19457 -1.9183,-0.34048 -0.90273,-0.14592 -2.6292,-0.37696 -3.8366,-0.52288 -1.2074,-0.14592 -3.06928,-0.32832 -4.1187,-0.40128 -1.0607,-0.073 -2.60663,-0.13376 -3.43037,-0.13376 -1.24125,0.0122 -1.5572,0.0486 -1.62491,0.20672 z m -9.10628,4.06142 c -0.25953,0.304 -0.91401,1.11871 -1.46693,1.79967 -0.54164,0.69312 -1.60235,2.11583 -2.3471,3.16158 -0.74475,1.04576 -1.94087,2.85759 -2.65176,4.02494 -0.7109,1.15519 -1.27511,2.18879 -1.26383,2.29823 0.0226,0.0973 0.60935,0.49856 1.32025,0.88767 0.69961,0.38912 1.94086,0.94848 2.74203,1.22816 0.80117,0.29184 1.50079,0.52287 1.5685,0.53503 0.0677,0.0122 0.21439,-0.21888 0.33852,-0.49855 0.13541,-0.27968 0.59806,-1.32544 1.04942,-2.34687 0.45137,-1.02144 1.12841,-2.71167 1.51207,-3.75742 0.38366,-1.04576 1.02686,-2.95487 1.41052,-4.2195 0.38366,-1.26463 0.69961,-2.38335 0.69961,-2.46847 0,-0.0851 -0.20311,-0.19455 -0.46265,-0.23103 -0.25953,-0.0365 -0.80117,-0.26752 -1.21868,-0.52288 l -0.75604,-0.46208 z m 6.4658,-0.0243 c -0.34981,0.21887 -0.8576,0.42559 -1.11713,0.48639 -0.46265,0.0973 -0.47393,0.10944 -0.38366,0.62016 0.0451,0.29183 0.38366,1.50783 0.74475,2.6995 0.36109,1.19168 1.00429,3.12511 1.43309,4.2803 0.42879,1.15519 1.15098,2.9427 1.59105,3.95198 0.45137,1.03359 0.90273,1.86047 1.01557,1.88479 0.11284,0.0243 0.93658,-0.23104 1.83931,-0.55936 0.90274,-0.32832 2.1327,-0.88767 2.74204,-1.22815 0.60934,-0.34048 1.10585,-0.68096 1.10585,-0.75392 0,-0.073 -0.65448,-1.20383 -1.44437,-2.50494 -0.78989,-1.30112 -2.04242,-3.23455 -2.78717,-4.2803 -0.74476,-1.04575 -1.90702,-2.61439 -2.57278,-3.46558 -0.67705,-0.8512 -1.28639,-1.54431 -1.37666,-1.53215 -0.0903,0 -0.44009,0.1824 -0.78989,0.40128 z"
         style="fill:#faec55;fill-opacity:1;stroke-width:0.117138" />
      <path
         id="Path_6_2_"
         class="st0"
         d="m 169.36314,180.95718 c -0.16926,0.0365 -0.27082,0.15808 -0.24825,0.27968 0.0226,0.12159 0.13541,0.99711 0.24825,1.93342 0.12413,0.94848 0.37238,2.39551 0.55292,3.23455 0.19183,0.83903 0.44008,1.86047 0.56421,2.2739 l 0.22568,0.75392 h 1.27511 c 0.31595,-1.07007 0.54163,-1.92127 0.69961,-2.56574 0.15798,-0.64448 0.37238,-1.81183 0.4965,-2.56575 0.11284,-0.76608 0.24825,-1.79967 0.30467,-2.31039 0.0903,-0.88767 0.079,-0.92416 -0.23696,-1.02143 -0.18055,-0.0486 -1.06071,-0.0973 -1.96344,-0.0851 -0.90273,0.0122 -1.77161,0.0486 -1.9183,0.073 z m -7.9553,5.75165 c -0.18054,0.37695 -0.4288,1.02143 -0.55292,1.42271 -0.12412,0.40128 -0.25953,0.94847 -0.30467,1.21599 -0.079,0.4864 -0.0677,0.49856 0.45136,0.62016 0.29339,0.073 1.2074,0.2432 2.01986,0.38912 0.82374,0.14591 2.00857,0.32831 2.6292,0.40127 0.62062,0.073 1.78289,0.17024 2.56149,0.21888 l 1.4218,0.0851 c 0.33853,-1.02143 0.32724,-1.10655 0.10156,-1.27679 -0.13541,-0.10944 -1.08328,-0.65664 -2.09885,-1.216 -1.01557,-0.55935 -2.66305,-1.37407 -3.65605,-1.7875 -0.993,-0.41344 -1.90702,-0.76608 -2.03114,-0.76608 -0.11284,0 -0.34981,0.29184 -0.54164,0.69312 z m 17.26469,0.073 c -0.98171,0.41343 -2.60662,1.21599 -3.62219,1.7875 -1.01557,0.55936 -1.96344,1.10656 -2.09885,1.216 -0.2144,0.17024 -0.22568,0.25536 -0.0677,0.7296 l 0.18054,0.54719 c 2.09885,-0.13376 3.24983,-0.23104 3.91559,-0.304 0.66576,-0.073 1.88444,-0.25536 2.6969,-0.40127 0.82374,-0.14592 1.73776,-0.32832 2.01985,-0.38912 0.51908,-0.1216 0.53036,-0.13376 0.45137,-0.62016 -0.0451,-0.26752 -0.18055,-0.82688 -0.30467,-1.21599 -0.12413,-0.38912 -0.37237,-1.0336 -0.55292,-1.42271 -0.22568,-0.46208 -0.4288,-0.69312 -0.58678,-0.69312 -0.14669,0 -1.04942,0.34048 -2.03114,0.76608 z m -9.90745,5.86108 c -0.60934,0.44992 -1.85059,1.50784 -2.74204,2.34687 -0.90273,0.82688 -1.89573,1.81183 -2.2004,2.16447 l -0.5642,0.64448 c 1.34281,1.14303 2.14398,1.67807 2.64048,1.92127 l 0.91401,0.44991 c 0.44008,-0.53503 0.94787,-1.32543 1.4218,-2.10367 0.47393,-0.77823 1.18483,-2.14014 1.57978,-3.0035 0.40622,-0.87552 0.81245,-1.79967 0.92529,-2.06719 0.19183,-0.46208 0.18055,-0.4864 -0.22568,-0.81471 -0.23697,-0.18241 -0.47393,-0.34048 -0.51907,-0.34048 -0.079,-0.0243 -0.62063,0.34048 -1.22997,0.80255 z m 3.44166,-0.47423 -0.4288,0.34047 c 0.41751,1.04576 0.89145,2.06719 1.30896,2.94271 0.41751,0.87551 1.19612,2.28607 1.71518,3.13726 0.53036,0.85119 1.02686,1.54431 1.10585,1.54431 0.079,0 0.51906,-0.19455 0.98171,-0.42559 0.46266,-0.23104 1.22997,-0.75392 1.7039,-1.16736 l 0.86888,-0.74175 c -1.09455,-1.20384 -2.05371,-2.14015 -2.8436,-2.86975 -0.7786,-0.7296 -1.95215,-1.71455 -2.59534,-2.21311 -0.6432,-0.4864 -1.21868,-0.88767 -1.2751,-0.88767 -0.0677,-0.0122 -0.31596,0.14592 -0.54164,0.34048 z"
         style="fill:#f4b5ca;fill-opacity:1;stroke-width:0.117138" />
      <path
         id="Path_7_2_"
         class="st1"
         d="m 138.01588,195.8531 c -0.27082,0.0365 -0.6432,0.0851 -0.82374,0.1216 l -0.32724,0.0729 c 0.12412,3.72094 0.25953,5.83677 0.37237,7.10141 0.11285,1.26463 0.33853,3.25886 0.49651,4.41405 0.15797,1.15519 0.45136,3.06431 0.65447,4.2195 0.20312,1.15519 0.40623,2.15231 0.46265,2.20095 0.0564,0.0486 0.50779,0.0365 1.01557,-0.0243 0.55292,-0.073 1.29767,-0.073 1.8506,0 0.50778,0.0608 0.93658,0.10945 0.94786,0.0973 0.0113,-0.0122 0.2144,-1.0944 0.46265,-2.39551 0.23697,-1.30111 0.56421,-3.31966 0.72219,-4.48702 0.15797,-1.15519 0.38365,-3.14942 0.49649,-4.41405 0.11285,-1.26464 0.25954,-3.28318 0.31596,-4.48702 0.0903,-2.06719 0.079,-2.17663 -0.18055,-2.28606 -0.14669,-0.0608 -1.5572,-0.13376 -3.11441,-0.15808 -1.57977,-0.0122 -3.08056,-0.0122 -3.35138,0.0243 z m -11.30668,3.38046 c -0.54164,0.304 -1.41051,0.82687 -1.9183,1.14303 -0.50778,0.31616 -1.4895,1.02144 -2.16655,1.54431 -1.02686,0.7904 -1.21869,0.99712 -1.11713,1.19168 0.0677,0.12159 0.82374,1.03359 1.65877,2.00639 0.83502,0.97279 2.30196,2.61438 3.26111,3.62366 0.94786,1.00927 2.61791,2.71166 3.71247,3.76957 1.08327,1.05792 2.50507,2.37119 3.14827,2.93055 l 1.17354,1.00927 c 1.37666,-1.04575 2.07628,-1.49567 2.44865,-1.66591 0.59806,-0.27968 0.66577,-0.34047 0.55293,-0.608 -0.0677,-0.15807 -0.62063,-1.21599 -1.22997,-2.34686 -0.60934,-1.13088 -1.61363,-2.90623 -2.24554,-3.95198 -0.63191,-1.05791 -1.59106,-2.59007 -2.12141,-3.4291 -0.53036,-0.83904 -1.67005,-2.48063 -2.50507,-3.66014 -0.83503,-1.17952 -1.54593,-2.14015 -1.59107,-2.14015 -0.0339,0.0243 -0.51906,0.27968 -1.0607,0.58368 z m 25.69392,1.31327 c -0.69962,0.96063 -1.87316,2.66303 -2.61791,3.7939 -0.74475,1.13087 -1.86188,2.90622 -2.49379,3.95198 -0.63191,1.05791 -1.62491,2.8211 -2.22297,3.92766 -0.59806,1.10655 -1.08327,2.10366 -1.08327,2.21311 0,0.10943 0.0677,0.19455 0.14669,0.19455 0.079,0 0.47393,0.19456 0.89144,0.43776 0.40623,0.2432 1.03814,0.69312 1.38795,0.99712 l 0.64319,0.55935 c 4.73933,-4.46269 6.95101,-6.63932 7.96658,-7.72155 1.01557,-1.08224 2.5615,-2.79679 3.44166,-3.83039 0.88016,-1.02143 1.60234,-1.92126 1.60234,-1.99422 0,-0.073 -0.4965,-0.53504 -1.10584,-1.0336 -0.60934,-0.49855 -1.97472,-1.43487 -3.02414,-2.07935 -1.06071,-0.64447 -1.99729,-1.17951 -2.08756,-1.17951 -0.10156,0.0243 -0.74475,0.80255 -1.44437,1.76319 z m -36.85391,9.95899 c -0.10156,0.19455 -0.4288,0.96063 -0.73347,1.67807 -0.30467,0.72959 -0.74475,2.00639 -0.98171,2.83326 -0.23697,0.83904 -0.4288,1.65375 -0.41752,1.81183 0,0.26752 0.2144,0.35264 2.59535,0.94848 1.43308,0.36479 3.39652,0.83903 4.36695,1.04575 0.98172,0.21888 2.74204,0.57152 3.91559,0.7904 1.17355,0.21888 3.35138,0.58367 4.8296,0.80255 1.4895,0.21888 2.87745,0.40128 3.09184,0.40128 0.33853,0 0.39495,-0.0486 0.39495,-0.38912 0,-0.21888 0.13541,-0.76607 0.29338,-1.21599 0.15798,-0.44992 0.41752,-1.02144 0.56421,-1.25247 l 0.27082,-0.4256 c -1.60234,-0.81472 -3.3401,-1.64159 -4.90859,-2.35903 -1.56849,-0.71743 -3.99458,-1.76319 -5.40509,-2.32254 -1.41051,-0.55936 -3.63348,-1.3984 -4.94244,-1.86048 -1.30896,-0.46208 -2.47122,-0.83903 -2.57278,-0.83903 -0.10155,-0.0122 -0.25953,0.15808 -0.36109,0.35264 z m 47.33685,0.60799 c -1.28639,0.44992 -3.27239,1.19168 -4.41209,1.62943 -1.13969,0.43776 -3.11441,1.25248 -4.41208,1.81183 -1.28639,0.55936 -3.20469,1.44703 -4.25411,1.95775 -1.04943,0.52288 -1.92959,0.98496 -1.95216,1.0336 -0.0339,0.0486 0.11285,0.43775 0.31596,0.8512 0.20311,0.41343 0.46265,1.14303 0.57549,1.61726 0.11284,0.47424 0.2144,0.86336 0.23697,0.87552 0.0226,0.0122 1.09456,-0.1216 2.38094,-0.29184 1.28639,-0.17024 3.4078,-0.49856 4.69419,-0.71744 1.28639,-0.21887 3.46423,-0.64447 4.8296,-0.93631 1.36538,-0.29184 3.41909,-0.77823 4.5475,-1.07007 1.1397,-0.29184 2.2004,-0.5472 2.38095,-0.58368 0.27082,-0.0365 0.30467,-0.10944 0.23697,-0.41344 -0.0451,-0.19456 -0.23697,-0.96063 -0.4288,-1.67807 -0.19183,-0.7296 -0.51907,-1.76319 -0.72218,-2.31039 -0.20312,-0.54719 -0.55293,-1.36191 -0.76733,-1.81183 -0.2821,-0.55935 -0.48521,-0.82687 -0.65447,-0.81471 -0.13541,0.0243 -1.29768,0.40128 -2.59535,0.85119 z m -33.40097,11.36954 c -1.2074,0.17024 -3.38523,0.52288 -4.8296,0.7904 -1.44437,0.25535 -3.81403,0.74175 -5.2584,1.05791 -1.44436,0.32832 -3.32881,0.76608 -4.19769,0.99711 -0.85759,0.21888 -1.62491,0.46208 -1.7039,0.52288 -0.0903,0.0851 -0.079,0.4256 0.0451,1.00927 0.10156,0.48641 0.41751,1.56864 0.68833,2.40767 0.27082,0.83904 0.73347,1.98207 1.01557,2.54143 0.2821,0.55936 0.54164,1.02144 0.55292,1.02144 0.0226,0 1.10585,-0.3648 2.4148,-0.81472 1.30896,-0.43776 3.72376,-1.33759 5.37124,-1.98207 1.64748,-0.64448 4.45722,-1.86047 6.2514,-2.69951 1.79417,-0.82687 3.39651,-1.60511 3.55449,-1.70239 0.28211,-0.18239 0.28211,-0.19456 -0.12412,-1.00927 -0.22569,-0.44992 -0.48522,-1.17952 -0.57549,-1.61727 -0.15798,-0.74176 -0.19183,-0.7904 -0.58678,-0.81472 -0.23696,-0.0122 -1.41051,0.10944 -2.61791,0.29184 z m 19.41996,-0.1824 c -0.0339,0.0973 -0.13541,0.49856 -0.2144,0.89984 -0.0903,0.40127 -0.33853,1.08223 -0.56421,1.51999 l -0.40623,0.79039 c 0.90273,0.4864 2.55022,1.26464 4.23155,2.04287 1.68133,0.7904 3.92687,1.77536 4.97629,2.21311 1.04942,0.43776 2.979,1.16736 4.26539,1.64159 1.28639,0.47424 2.80975,1.00928 3.37395,1.20384 l 1.02686,0.34047 c 0.74475,-1.48351 1.15098,-2.41982 1.38795,-3.02782 0.23696,-0.62016 0.57548,-1.67807 0.74475,-2.37119 0.18054,-0.69312 0.29338,-1.33759 0.24825,-1.44703 -0.0451,-0.1216 -0.93659,-0.42559 -2.47122,-0.81471 -1.32025,-0.34048 -3.03543,-0.76608 -3.82532,-0.94848 -0.7786,-0.1824 -2.67433,-0.55935 -4.19769,-0.85119 -1.52335,-0.29184 -3.85917,-0.68096 -5.19069,-0.86336 -1.33153,-0.1824 -2.61791,-0.37696 -2.87745,-0.41344 -0.29338,-0.0608 -0.46265,-0.0243 -0.50778,0.0851 z m -17.3324,6.73661 c -1.50079,1.39839 -3.67862,3.5507 -4.84089,4.77885 -1.16226,1.22815 -2.73075,2.95487 -3.48678,3.81822 -0.75604,0.87551 -1.50079,1.75103 -1.64749,1.94559 l -0.2821,0.3648 c 0.55292,0.53503 1.35409,1.15519 2.1327,1.73887 0.7786,0.57151 2.05371,1.41055 2.82103,1.86047 0.81245,0.47424 1.44436,0.75392 1.4895,0.68096 0.0564,-0.073 0.83502,-1.16736 1.73776,-2.44415 0.90272,-1.26464 2.25681,-3.25886 3.00157,-4.41406 0.74475,-1.15519 1.86188,-3.0035 2.49378,-4.08574 0.63192,-1.09439 1.44437,-2.54143 1.80547,-3.23454 0.36108,-0.69312 0.65447,-1.32543 0.65447,-1.42271 0,-0.0973 -0.37237,-0.35264 -0.82374,-0.58368 -0.45136,-0.23104 -1.10584,-0.6688 -1.45565,-0.98495 -0.34981,-0.31616 -0.68833,-0.57152 -0.75603,-0.57152 -0.0677,0.0122 -1.34281,1.15519 -2.8436,2.55359 z m 14.60164,-1.90911 c -0.39494,0.34047 -1.07199,0.79039 -1.4895,1.00927 -0.4288,0.20672 -0.78989,0.40128 -0.81246,0.4256 -0.0226,0.0243 0.60934,1.25247 1.39923,2.71166 0.78989,1.47136 1.8506,3.35615 2.35838,4.18302 0.50779,0.82687 1.34281,2.16447 1.85059,2.96702 0.50779,0.80256 1.62492,2.44415 2.47123,3.66015 0.8463,1.21599 1.62491,2.20095 1.71518,2.20095 0.10156,0 0.68833,-0.29184 1.32024,-0.64448 0.62063,-0.35264 1.68133,-1.02144 2.3471,-1.48351 0.66576,-0.46208 1.54592,-1.13088 1.96343,-1.49568 l 0.75604,-0.65664 c -1.80546,-2.14014 -2.97901,-3.47774 -3.76889,-4.35325 -0.78989,-0.87552 -2.00858,-2.17663 -2.70819,-2.90622 -0.69962,-0.7296 -2.45994,-2.43199 -3.91559,-3.7939 -1.44436,-1.36192 -2.66305,-2.46847 -2.70818,-2.46847 -0.0226,0.0122 -0.38367,0.304 -0.77861,0.64448 z m -7.66191,3.1251 c -0.13541,0.65664 -0.38366,2.14015 -0.57549,3.29534 -0.19183,1.15519 -0.47393,3.27102 -0.63191,4.68158 -0.15798,1.41055 -0.37238,3.95197 -0.46265,5.63005 -0.10155,1.67807 -0.14669,3.08862 -0.11284,3.1251 0.0339,0.0365 0.90273,0.13376 1.9183,0.20672 1.01557,0.073 2.35838,0.10944 2.99029,0.0608 0.63191,-0.0486 1.5572,-0.10944 2.06499,-0.14592 l 0.9253,-0.073 c -0.16926,-3.80606 -0.31596,-5.95837 -0.4288,-7.223 -0.11284,-1.26464 -0.33852,-3.25886 -0.4965,-4.41406 -0.15798,-1.15519 -0.45137,-3.0643 -0.65448,-4.2195 l -0.37237,-2.10367 h -3.92687 z"
         style="fill:#f49f5c;fill-opacity:1;stroke-width:0.117138" />
    </g>
    <path
       id="Path 2-5"
       style="mix-blend-mode:normal;fill:#536c18;fill-opacity:1;stroke:none;stroke-width:0;stroke-miterlimit:4;stroke-dasharray:none;stroke-opacity:1"
       d="m 273.68298,111.7338 c -26.1969,0 -27.01371,0.0175 -27.1289,0.31445 -0.0666,0.17279 -7.25416,23.52053 -15.97266,51.88086 l -15.85156,51.56641 c 18.46112,0.0684 23.08272,0.0188 23.13672,-0.082 0.0486,-0.0918 1.38488,-5.31513 2.96875,-11.60743 l 2.88086,-11.43945 32.30664,0.002 c 0.54716,2.16163 1.86266,7.38687 3.27734,13.00782 l 2.57227,10.2207 23.48828,-0.0117 c -0.16379,-0.76674 -7.17177,-23.74964 -15.67969,-51.56641 -8.50972,-27.81678 -15.58858,-50.95992 -15.73438,-51.42968 z m 43.01758,0 v 51.92578 51.92578 h 22.31641 v -35.45703 c 12.34522,0 16.82124,-0.083 17.91015,-0.18555 1.08891,-0.10259 2.78938,-0.30553 3.7793,-0.45312 0.98992,-0.14759 2.72983,-0.47489 3.86914,-0.73047 1.13931,-0.25378 3.16451,-0.82693 4.5,-1.27149 1.33549,-0.44457 3.32124,-1.23164 4.41016,-1.75 1.08891,-0.52016 2.66922,-1.37467 3.50976,-1.89843 0.84053,-0.52376 2.01543,-1.32799 2.60938,-1.78516 0.59395,-0.45896 1.67761,-1.399 2.41015,-2.09375 0.73074,-0.69294 1.78821,-1.82853 2.35157,-2.52148 0.56335,-0.69294 1.34817,-1.7459 1.74414,-2.33985 0.39597,-0.59395 1.04996,-1.68635 1.45312,-2.42969 0.40137,-0.74154 1.01817,-2.07782 1.36914,-2.96875 0.35098,-0.89093 0.852,-2.3493 1.10938,-3.24023 0.25918,-0.89093 0.62157,-2.5107 0.81055,-3.59961 0.18718,-1.08891 0.43317,-3.2755 0.54296,-4.85937 0.14219,-2.06804 0.14465,-3.64163 0.006,-5.58008 -0.10439,-1.48488 -0.30297,-3.34674 -0.44336,-4.13867 -0.13859,-0.79194 -0.41755,-2.08893 -0.61914,-2.88086 -0.19978,-0.79194 -0.58112,-2.04573 -0.8457,-2.78907 -0.26458,-0.74154 -0.93424,-2.24116 -1.49219,-3.33007 -0.55616,-1.08892 -1.44982,-2.58674 -1.98437,-3.33008 -0.53456,-0.74154 -1.42627,-1.86615 -1.98242,-2.4961 -0.55436,-0.63175 -1.65924,-1.69373 -2.45118,-2.36328 -0.79193,-0.66775 -2.12822,-1.67688 -2.96875,-2.24023 -0.84054,-0.56516 -2.58225,-1.54419 -3.86914,-2.17774 -1.2869,-0.63355 -3.55613,-1.54935 -5.04101,-2.03711 -1.48488,-0.48776 -3.63022,-1.09372 -4.76953,-1.3457 -1.13931,-0.25378 -3.20396,-0.62233 -4.58985,-0.82031 -1.38589,-0.19798 -3.61373,-0.44638 -4.94922,-0.55078 -1.47229,-0.11339 -9.57618,-0.1875 -20.5625,-0.1875 z m 134.71875,0 c -26.2689,0 -27.07392,0.0175 -27.16211,0.31445 -0.0504,0.17279 -7.18541,23.39859 -15.85351,51.61133 -8.66811,28.21275 -15.79891,51.43854 -15.84571,51.61133 -0.0792,0.29697 0.55354,0.3143 11.48047,0.3125 h 11.5625 c 4.30346,-17.08603 5.62018,-22.30868 5.70117,-22.63086 l 0.14844,-0.58399 h 32.30859 l 5.78126,23.12696 c 21.2149,0.081 23.63226,0.0434 23.58007,-0.13477 -0.036,-0.12419 -7.18606,-23.48985 -15.88476,-51.92578 z m 48.875,0 -0.0566,46.66211 c -0.0504,44.09107 -0.0711,46.76532 -0.37891,48.55078 -0.17999,1.03852 -0.52639,2.57939 -0.76757,3.41992 -0.24298,0.84053 -0.70532,2.09612 -1.0293,2.78906 -0.32397,0.69295 -0.86054,1.6652 -1.19531,2.16016 -0.33477,0.49496 -0.97597,1.33639 -1.42774,1.86914 -0.45176,0.53276 -1.43049,1.45292 -2.17383,2.04687 -0.74154,0.59395 -2.11906,1.53129 -3.05859,2.08204 -0.93952,0.55076 -2.60054,1.39218 -3.68945,1.86914 -1.17891,0.51476 -1.95998,0.95665 -1.92578,1.08984 0.0288,0.12239 1.31464,3.62359 2.85351,7.78125 1.53888,4.15767 2.86883,7.64124 2.95703,7.74023 0.10079,0.11699 1.02749,-0.12866 2.63477,-0.69921 1.36249,-0.48236 3.61216,-1.3566 4.99805,-1.94336 1.38588,-0.58495 3.45233,-1.55284 4.58984,-2.15039 1.13751,-0.59756 2.96187,-1.67234 4.05078,-2.38868 1.08892,-0.71634 2.70868,-1.9108 3.59961,-2.65234 0.89093,-0.74154 2.29059,-2.0733 3.11133,-2.95703 0.82073,-0.88553 2.01309,-2.3376 2.64844,-3.22852 0.63714,-0.89093 1.59887,-2.47125 2.14062,-3.50976 0.54176,-1.03852 1.28096,-2.65828 1.64453,-3.59961 0.36177,-0.94132 0.92844,-2.76193 1.25781,-4.04883 0.32758,-1.2869 0.72443,-3.23139 0.88282,-4.32031 0.15839,-1.08891 0.36554,-3.19481 0.46093,-4.67969 0.1044,-1.60907 0.17594,-20.70175 0.17774,-47.29102 l 0.004,-44.59179 z m 43.1875,1.08008 v 51.38671 51.38477 h 9.17969 v -50.21484 h 48.95508 v 50.21484 h 9.17968 V 112.81388 h -9.17968 v 44.8164 H 552.6615 v -44.8164 z m -204.46484,14.93945 6.3457,0.002 c 4.71922,0.002 6.82869,0.072 8.23438,0.27539 1.04032,0.14938 2.61883,0.47638 3.50976,0.72656 0.89093,0.24839 2.26667,0.76281 3.0586,1.14258 0.79193,0.37977 2.04947,1.17106 2.79101,1.75782 0.74334,0.58495 1.74436,1.58566 2.22852,2.2246 0.48416,0.63895 1.19444,1.80767 1.57421,2.59961 0.38157,0.79194 0.84798,2.04948 1.03516,2.79102 0.18899,0.74334 0.43123,2.07782 0.54102,2.96875 0.10978,0.89093 0.19922,2.22916 0.19922,2.9707 0.002,0.74334 -0.0834,2.19976 -0.19141,3.23828 -0.10799,1.03852 -0.39133,2.65829 -0.62891,3.59961 -0.23758,0.94133 -0.79341,2.43915 -1.23437,3.33008 -0.44097,0.89093 -1.19522,2.10527 -1.67578,2.69922 -0.48236,0.59395 -1.35692,1.47225 -1.94727,1.94922 -0.58856,0.47876 -1.80047,1.22475 -2.6914,1.66211 -0.89094,0.43737 -2.38861,0.98929 -3.32813,1.23047 -0.93953,0.23938 -2.31721,0.52934 -3.06055,0.64453 -0.74154,0.11339 -4.36739,0.26233 -14.75976,0.45312 v -18.13281 z m 98.52148,0.97656 c 0.0169,-0.015 0.029,-0.0111 0.0371,0.0137 0.0306,0.099 2.69669,10.62651 5.92383,23.39649 3.22714,12.76997 5.90422,23.36042 5.94922,23.5332 0.0774,0.29718 -0.57463,0.31549 -23.76758,0.30469 l 5.72266,-22.98828 c 3.14614,-12.64399 5.80998,-23.31107 5.91796,-23.70703 0.081,-0.29698 0.16618,-0.5076 0.2168,-0.55274 z m -177.67578,0.23438 c 0.072,0.17459 2.76444,10.7474 5.98438,23.49218 3.22174,12.74478 5.85546,23.25257 5.85546,23.35157 0,0.11879 -4.08012,0.18164 -11.8789,0.18164 -11.2167,0 -11.87416,-0.0194 -11.81836,-0.31641 0.0324,-0.17278 2.68539,-10.8263 5.89453,-23.67187 3.60152,-14.41865 5.88369,-23.23329 5.96289,-23.03711 z"
       inkscape:export-xdpi="96"
       inkscape:export-ydpi="96" />
  </g>
  <style
     id="style1595"> tspan { white-space:pre } .shp0 { fill: #ffffff } .shp1 { fill: #f7e300 } .shp2 { fill: #536c18 } .shp3 { fill: #f4b5ca } .shp4 { fill: #f49f5c } .shp5 { fill: #757577 } </style>
  <style
     type="text/css"
     id="style2282">
	.st0{fill:#FFFFFF;}
	.st1{fill:#FDEF87;}
	.st2{fill:#FADCE6;}
	.st3{fill:#FFD485;}
</style>
</svg>
