<?xml version="1.0" encoding="UTF-8" standalone="no"?>
<svg
   xmlns:dc="http://purl.org/dc/elements/1.1/"
   xmlns:cc="http://creativecommons.org/ns#"
   xmlns:rdf="http://www.w3.org/1999/02/22-rdf-syntax-ns#"
   xmlns:svg="http://www.w3.org/2000/svg"
   xmlns="http://www.w3.org/2000/svg"
   xmlns:sodipodi="http://sodipodi.sourceforge.net/DTD/sodipodi-0.dtd"
   xmlns:inkscape="http://www.inkscape.org/namespaces/inkscape"
   version="1.1"
   id="Calque_1"
   x="0px"
   y="0px"
   viewBox="0 0 412 915"
   style="enable-background:new 0 0 412 915;"
   xml:space="preserve"
   sodipodi:docname="mobileBackground_black.svg"
   inkscape:version="1.0.2-2 (e86c870879, 2021-01-15)"><metadata
   id="metadata881"><rdf:RDF><cc:Work
       rdf:about=""><dc:format>image/svg+xml</dc:format><dc:type
         rdf:resource="http://purl.org/dc/dcmitype/StillImage" /><dc:title></dc:title></cc:Work></rdf:RDF></metadata><defs
   id="defs879">
	

		
		
		
		
		
		
	</defs><sodipodi:namedview
   pagecolor="#ffffff"
   bordercolor="#666666"
   borderopacity="1"
   objecttolerance="10"
   gridtolerance="10"
   guidetolerance="10"
   inkscape:pageopacity="0"
   inkscape:pageshadow="2"
   inkscape:window-width="2400"
   inkscape:window-height="1271"
   id="namedview877"
   showgrid="false"
   inkscape:zoom="0.87540984"
   inkscape:cx="206"
   inkscape:cy="548.88577"
   inkscape:window-x="-9"
   inkscape:window-y="-9"
   inkscape:window-maximized="1"
   inkscape:current-layer="Calque_1"
   inkscape:document-rotation="0" />
<style
   type="text/css"
   id="style858">
	.st0{fill:#FFD485;}
	.st1{fill:#FDEF87;}
	.st2{fill:#FADCE6;}
	.st3{display:none;fill:#FFFFFF;}
</style>



<rect
   style="fill:#424242;fill-opacity:1;stroke-width:0.181062;stroke-opacity:0"
   id="rect16355"
   width="412.3783"
   height="913.94159"
   x="1.1423221"
   y="1.0584425" /><path
   class="st3"
   d="m 574.13858,1192.4206 c 1.2,-0.9 2.4,-1.8 3.5,-2.8 1.9,-2.8 3.6,-5.7 5.2,-8.7 5.9,-14.1 10.2,-28.6 14.5,-43.2 2.3,-7.6 4.6,-15.1 7.2,-22.5 3.4,-9.6 8.1,-18.8 12.7,-28 9.9,-22 17.7,-44.8 24.2,-67.9 12.3,-43.7 20.2,-88.3 31.7,-132.2 11.1,-42 25.5,-83.3 32.8,-126 0.9,-7.3 1.5,-14.6 2.5,-21.8 1.2,-8.7 2.6,-17.4 4,-26 0.9,-6.8 1.6,-13.6 1.4,-20.3 -2.4,-3.5 -4.2,-7.3 -5.5,-11.3 -0.4,-2.7 -0.8,-5.5 -1.2,-8.2 -0.5,-0.7 -1,-1.5 -1.4,-2.3 -5.9,-10.6 -8.5,-21.3 -8.7,-33.3 -0.1,-7.7 1,-15.1 0.6,-22.7 -2.3,-10.3 -5.9,-20.3 -9.2,-30.4 -1.9,-6.1 -3.7,-12.2 -4.9,-18.5 -1.9,-9.7 -3.6,-19.6 -3.2,-29.5 0.2,-4.3 0.9,-8.4 2.2,-12.3 h -398.4 v 681.7 h 279.9 c 2,-5.2 5.4,-9.8 10.1,-13.8 z"
   id="path866" /><path
   id="Path_1_2_"
   class="st1"
   d="m 264.53858,412.6206 c -0.9,0.1 -2.6,0.3 -3.8,0.5 l -2.2,0.3 c 0.6,10.1 1.1,16.5 1.5,20.7 0.4,4.2 1.1,9.9 1.4,12.6 0.4,2.7 1.2,8.1 1.9,11.9 l 1.2,6.9 h 9.4 c 1.1,-5 1.8,-9 2.4,-12.2 0.5,-3.2 1.4,-9.1 1.9,-13.4 0.5,-4.2 1.2,-10.4 1.4,-13.6 0.3,-3.3 0.5,-7.5 0.5,-9.4 0,-3.4 0,-3.5 -1.3,-3.8 -0.7,-0.2 -3.9,-0.5 -7,-0.6 -3.1,0 -6.4,0 -7.3,0.1 z"
   style="fill:#525252;fill-opacity:1" /><path
   id="Path_3_2_"
   class="st1"
   d="m 219.63858,434.7206 c -2,2.2 -4.9,6.1 -6.5,8.5 -1.5,2.4 -2.8,4.6 -2.8,4.9 0,0.4 2.3,2.3 5.1,4.4 2.8,2.1 7.9,5.7 11.3,8 3.4,2.3 9.4,6.1 13.3,8.4 3.9,2.3 8.5,4.9 10.1,5.8 1.7,0.8 3.1,1.5 3.1,1.4 0.1,0 0.6,-0.9 1.2,-1.9 0.6,-1 1.9,-2.6 2.8,-3.6 l 1.7,-1.8 c -1.9,-2.5 -4,-5.2 -5.9,-7.5 -1.9,-2.3 -6.3,-7.3 -9.7,-11.1 -3.4,-3.8 -9.2,-9.7 -12.8,-13.1 -3.6,-3.4 -6.8,-6.3 -6.9,-6.4 -0.2,0 -2,1.7 -4,4 z m 93.6,-1.8 c -1.1,1 -4.9,4.7 -8.7,8.3 -3.7,3.6 -9.7,9.7 -13.1,13.7 -3.4,4 -7.5,8.7 -9,10.5 l -2.7,3.3 c 2.9,3.5 4.1,5.1 4.5,5.9 0.4,0.8 1,1.5 1.3,1.5 0.3,0 3.3,-1.5 6.5,-3.3 3.3,-1.8 8.2,-4.6 10.9,-6.3 2.8,-1.6 9.3,-5.9 14.5,-9.6 5.2,-3.7 9.9,-6.9 10.5,-7.4 0.7,-0.5 0.8,-1 0.6,-1.6 -0.2,-0.5 -1.3,-2.2 -2.3,-3.8 -1.1,-1.6 -2.9,-4.2 -4.1,-5.7 -1.2,-1.5 -3.1,-3.8 -4.3,-5.1 -1.2,-1.3 -2.3,-2.3 -2.4,-2.3 -0.1,0.2 -1.1,0.9 -2.2,1.9 z"
   style="fill:#525252;fill-opacity:1" /><path
   id="Path_5_2_"
   class="st1"
   d="m 237.23858,483.2206 c -3.7,0.2 -10,0.8 -14,1.2 -4,0.5 -10.5,1.4 -14.4,2 -3.8,0.6 -7.1,1.2 -7.2,1.2 -0.1,0 -0.2,0.7 -0.2,1.6 0,0.9 0.3,3.7 0.8,6.3 0.4,2.6 1.4,6.8 2.2,9.4 0.8,2.6 1.5,4.8 1.5,4.8 0,0.1 4.2,-1.1 9.2,-2.6 5,-1.5 12.6,-4.1 16.9,-5.7 4.3,-1.6 10.2,-4.1 13.2,-5.4 3,-1.4 6.2,-2.8 7.1,-3.3 l 1.7,-0.9 c -1.2,-3.6 -1.7,-5.7 -1.7,-6.9 l -0.2,-2.3 c -6.5,0.2 -11.3,0.4 -14.9,0.6 z m 49.5,0.7 c -0.2,0.4 -0.3,1.3 -0.3,2 0,0.7 -0.4,2.3 -0.9,3.7 l -0.9,2.5 c 7.5,3.7 12.8,6 16.4,7.6 3.7,1.5 9.4,3.7 12.8,5 3.4,1.2 9,3 12.4,4.1 3.4,1 6.3,1.6 6.5,1.4 0.2,-0.2 0.8,-1.9 1.3,-3.7 0.6,-1.8 1.4,-5.1 1.9,-7.5 0.5,-2.3 1.1,-5.6 1.3,-7.3 0.3,-2.8 0.3,-3.1 -0.6,-3.3 -0.5,-0.2 -3.4,-0.7 -6.4,-1.3 -3,-0.5 -8.8,-1.4 -12.8,-2 -4,-0.5 -10.3,-1.2 -13.8,-1.5 -3.5,-0.3 -8.7,-0.5 -11.5,-0.5 -4.2,0.1 -5.2,0.2 -5.4,0.8 z m -30.5,15.3 c -0.9,1.1 -3.1,4.2 -4.9,6.8 -1.8,2.6 -5.4,8 -7.9,11.9 -2.5,3.9 -6.5,10.7 -8.9,15.1 -2.4,4.3 -4.3,8.2 -4.2,8.6 0.1,0.4 2,1.9 4.4,3.3 2.3,1.5 6.5,3.6 9.2,4.6 2.7,1.1 5,2 5.2,2 0.2,0 0.7,-0.8 1.1,-1.9 0.5,-1.1 2,-5 3.5,-8.8 1.5,-3.8 3.8,-10.2 5.1,-14.1 1.3,-3.9 3.4,-11.1 4.7,-15.9 1.3,-4.8 2.3,-9 2.3,-9.3 0,-0.3 -0.7,-0.7 -1.5,-0.9 -0.9,-0.1 -2.7,-1 -4.1,-2 l -2.5,-1.7 z m 21.6,-0.1 c -1.2,0.8 -2.9,1.6 -3.7,1.8 -1.5,0.4 -1.6,0.4 -1.3,2.3 0.2,1.1 1.3,5.7 2.5,10.1 1.2,4.5 3.4,11.7 4.8,16.1 1.4,4.3 3.8,11.1 5.3,14.9 1.5,3.9 3,7 3.4,7.1 0.4,0.1 3.1,-0.9 6.2,-2.1 3.1,-1.2 7.1,-3.3 9.2,-4.6 2,-1.3 3.7,-2.6 3.7,-2.8 0,-0.3 -2.2,-4.5 -4.8,-9.4 -2.6,-4.9 -6.8,-12.2 -9.3,-16.1 -2.5,-3.9 -6.4,-9.8 -8.6,-13 -2.3,-3.2 -4.3,-5.8 -4.6,-5.8 -0.4,0 -1.6,0.7 -2.8,1.5 z"
   style="fill:#525252;fill-opacity:1" /><path
   id="Path_6_2_"
   class="st2"
   d="m 372.23858,515.2206 c -0.6,0.1 -0.9,0.6 -0.8,1.1 0.1,0.5 0.5,3.7 0.8,7.3 0.4,3.6 1.2,9 1.8,12.2 0.6,3.2 1.5,7 1.9,8.5 l 0.8,2.8 h 4.3 c 1.1,-4 1.8,-7.2 2.3,-9.6 0.5,-2.4 1.2,-6.8 1.7,-9.6 0.4,-2.9 0.8,-6.8 1,-8.7 0.3,-3.3 0.3,-3.5 -0.8,-3.8 -0.6,-0.2 -3.5,-0.4 -6.6,-0.3 -3,-0.1 -5.9,0 -6.4,0.1 z m -26.6,21.6 c -0.6,1.4 -1.4,3.8 -1.8,5.3 -0.4,1.5 -0.9,3.6 -1,4.6 -0.3,1.8 -0.2,1.9 1.5,2.3 1,0.3 4,0.9 6.8,1.5 2.8,0.5 6.7,1.2 8.8,1.5 2.1,0.3 6,0.6 8.6,0.8 l 4.8,0.3 c 1.1,-3.8 1.1,-4.2 0.3,-4.8 -0.5,-0.4 -3.6,-2.5 -7,-4.6 -3.4,-2.1 -8.9,-5.2 -12.2,-6.7 -3.3,-1.6 -6.4,-2.9 -6.8,-2.9 -0.6,0.1 -1.3,1.2 -2,2.7 z m 57.8,0.3 c -3.3,1.6 -8.7,4.6 -12.1,6.7 -3.4,2.1 -6.6,4.2 -7,4.6 -0.7,0.6 -0.8,1 -0.2,2.7 l 0.6,2.1 c 7,-0.5 10.9,-0.9 13.1,-1.1 2.2,-0.3 6.3,-1 9,-1.5 2.8,-0.5 5.8,-1.2 6.8,-1.5 1.7,-0.5 1.8,-0.5 1.5,-2.3 -0.2,-1 -0.6,-3.1 -1,-4.6 -0.4,-1.5 -1.2,-3.9 -1.8,-5.3 -0.8,-1.7 -1.4,-2.6 -2,-2.6 -0.6,-0.1 -3.7,1.2 -6.9,2.8 z m -33.2,22 c -2,1.7 -6.2,5.7 -9.2,8.8 -3,3.1 -6.3,6.8 -7.4,8.1 l -1.9,2.4 c 4.5,4.3 7.2,6.3 8.8,7.2 l 3.1,1.7 c 1.5,-2 3.2,-5 4.8,-7.9 1.6,-2.9 4,-8 5.3,-11.3 1.4,-3.3 2.7,-6.8 3.1,-7.8 0.6,-1.7 0.6,-1.8 -0.8,-3.1 -0.8,-0.7 -1.6,-1.3 -1.7,-1.3 -0.2,0.1 -2,1.5 -4.1,3.2 z m 11.5,-1.7 -1.4,1.3 c 1.4,3.9 3,7.8 4.4,11.1 1.4,3.3 4,8.6 5.7,11.8 1.8,3.2 3.4,5.8 3.7,5.8 0.3,0 1.7,-0.7 3.3,-1.6 1.6,-0.9 4.1,-2.8 5.7,-4.4 l 2.9,-2.8 c -3.7,-4.5 -6.9,-8 -9.5,-10.8 -2.6,-2.7 -6.5,-6.4 -8.7,-8.3 -2.2,-1.8 -4.1,-3.3 -4.3,-3.3 -0.2,-0.2 -1,0.4 -1.8,1.2 z"
   style="fill:#525252;fill-opacity:1" /><path
   id="Path_7_2_"
   class="st0"
   d="m 267.43858,571.2206 c -0.9,0.1 -2.2,0.3 -2.8,0.5 l -1.1,0.3 c 0.4,14 0.9,21.9 1.2,26.7 0.4,4.8 1.1,12.2 1.7,16.6 0.6,4.4 1.5,11.5 2.2,15.9 0.7,4.4 1.4,8.1 1.5,8.3 0.2,0.2 1.7,0.1 3.4,-0.1 1.8,-0.3 4.3,-0.3 6.2,0 1.7,0.2 3.1,0.4 3.2,0.4 0,0 0.7,-4.1 1.5,-9 0.8,-4.9 1.9,-12.5 2.4,-16.9 0.5,-4.3 1.3,-11.8 1.7,-16.6 0.4,-4.8 0.9,-12.3 1.1,-16.9 0.3,-7.8 0.3,-8.2 -0.6,-8.6 -0.5,-0.2 -5.2,-0.5 -10.4,-0.6 -5.3,-0.1 -10.3,-0.1 -11.2,0 z m -37.8,12.7 c -1.8,1.1 -4.7,3.1 -6.4,4.3 -1.7,1.2 -5,3.8 -7.2,5.8 -3.4,3 -4.1,3.7 -3.7,4.5 0.2,0.5 2.8,3.9 5.5,7.5 2.8,3.7 7.7,9.8 10.9,13.6 3.2,3.8 8.8,10.2 12.4,14.2 3.6,4 8.4,8.9 10.5,11 l 3.9,3.8 c 4.6,-3.9 6.9,-5.6 8.2,-6.3 2,-1.1 2.2,-1.3 1.8,-2.3 -0.2,-0.6 -2.1,-4.6 -4.1,-8.8 -2,-4.3 -5.4,-10.9 -7.5,-14.9 -2.1,-4 -5.3,-9.7 -7.1,-12.9 -1.8,-3.2 -5.6,-9.3 -8.4,-13.8 -2.8,-4.4 -5.2,-8 -5.3,-8 -0.1,0.2 -1.7,1.2 -3.5,2.3 z m 85.9,5 c -2.3,3.6 -6.3,10 -8.8,14.3 -2.5,4.3 -6.2,10.9 -8.3,14.9 -2.1,4 -5.4,10.6 -7.4,14.8 -2,4.2 -3.6,7.9 -3.6,8.3 0,0.4 0.2,0.7 0.5,0.7 0.3,0 1.6,0.7 3,1.6 1.4,0.9 3.5,2.6 4.6,3.7 l 2.2,2.1 c 15.9,-16.8 23.2,-25 26.6,-29 3.4,-4.1 8.6,-10.5 11.5,-14.4 2.9,-3.8 5.4,-7.2 5.4,-7.5 0,-0.3 -1.7,-2 -3.7,-3.9 -2,-1.9 -6.6,-5.4 -10.1,-7.8 -3.5,-2.4 -6.7,-4.4 -7,-4.4 -0.4,0 -2.6,2.9 -4.9,6.6 z m -123.3,37.4 c -0.3,0.7 -1.4,3.6 -2.5,6.3 -1,2.7 -2.5,7.5 -3.3,10.6 -0.8,3.2 -1.4,6.2 -1.4,6.8 0,1 0.7,1.3 8.7,3.6 4.8,1.4 11.4,3.2 14.6,3.9 3.3,0.8 9.2,2.1 13.1,3 3.9,0.8 11.2,2.2 16.2,3 5,0.8 9.6,1.5 10.3,1.5 1.1,0 1.3,-0.2 1.3,-1.5 0,-0.8 0.5,-2.9 1,-4.6 0.5,-1.7 1.4,-3.8 1.9,-4.7 l 0.9,-1.6 c -5.4,-3.1 -11.2,-6.2 -16.4,-8.9 -5.2,-2.7 -13.4,-6.6 -18.1,-8.7 -4.7,-2.1 -12.2,-5.3 -16.5,-7 -4.4,-1.7 -8.3,-3.2 -8.6,-3.2 -0.3,0.1 -0.8,0.8 -1.2,1.5 z m 158.4,2.3 c -4.3,1.7 -10.9,4.5 -14.8,6.1 -3.8,1.6 -10.4,4.7 -14.8,6.8 -4.3,2.1 -10.7,5.4 -14.2,7.4 -3.5,2 -6.5,3.7 -6.5,3.9 -0.1,0.2 0.4,1.6 1.1,3.2 0.7,1.6 1.5,4.3 1.9,6.1 0.4,1.8 0.7,3.2 0.8,3.3 0.1,0.1 3.7,-0.5 8,-1.1 4.3,-0.6 11.4,-1.9 15.7,-2.7 4.3,-0.8 11.6,-2.4 16.2,-3.5 4.6,-1.1 11.4,-2.9 15.2,-4 3.8,-1.1 7.4,-2.1 8,-2.2 0.9,-0.1 1,-0.4 0.8,-1.6 -0.2,-0.7 -0.8,-3.6 -1.4,-6.3 -0.6,-2.7 -1.7,-6.6 -2.4,-8.7 -0.7,-2.1 -1.8,-5.1 -2.6,-6.8 -0.9,-2.1 -1.6,-3.1 -2.2,-3.1 -0.6,0.1 -4.5,1.5 -8.8,3.2 z m -111.8,42.7 c -4,0.6 -11.3,2 -16.2,3 -4.8,1 -12.8,2.8 -17.6,4 -4.8,1.2 -11.1,2.9 -14,3.7 -2.9,0.8 -5.4,1.7 -5.7,2 -0.3,0.3 -0.3,1.6 0.2,3.8 0.3,1.8 1.4,5.9 2.3,9 0.9,3.2 2.5,7.5 3.4,9.6 0.9,2.1 1.8,3.8 1.8,3.8 0.1,0 3.7,-1.4 8.1,-3.1 4.4,-1.6 12.5,-5 18,-7.5 5.5,-2.4 14.9,-7 20.9,-10.1 6,-3.1 11.4,-6 11.9,-6.4 0.9,-0.7 0.9,-0.7 -0.4,-3.8 -0.8,-1.7 -1.6,-4.4 -1.9,-6.1 -0.5,-2.8 -0.6,-3 -2,-3.1 -0.8,0.1 -4.7,0.5 -8.8,1.2 z m 65,-0.7 c -0.1,0.4 -0.5,1.9 -0.7,3.4 -0.3,1.5 -1.1,4.1 -1.9,5.7 l -1.4,3 c 3,1.8 8.5,4.8 14.2,7.7 5.6,3 13.1,6.7 16.6,8.3 3.5,1.6 10,4.4 14.3,6.2 4.3,1.8 9.4,3.8 11.3,4.5 l 3.4,1.3 c 2.5,-5.6 3.8,-9.1 4.6,-11.4 0.8,-2.3 1.9,-6.3 2.5,-8.9 0.6,-2.6 1,-5 0.8,-5.4 -0.2,-0.5 -3.1,-1.6 -8.3,-3.1 -4.4,-1.3 -10.2,-2.9 -12.8,-3.6 -2.6,-0.7 -8.9,-2.1 -14,-3.2 -5.1,-1.1 -12.9,-2.6 -17.4,-3.2 -4.5,-0.7 -8.8,-1.4 -9.6,-1.6 -0.9,-0.2 -1.5,-0.1 -1.6,0.3 z m -58,25.3 c -5,5.3 -12.3,13.3 -16.2,18 -3.9,4.6 -9.1,11.1 -11.7,14.4 -2.5,3.3 -5,6.6 -5.5,7.3 l -0.9,1.4 c 1.8,2 4.5,4.3 7.1,6.5 2.6,2.1 6.9,5.3 9.4,7 2.7,1.8 4.8,2.8 5,2.6 0.2,-0.3 2.8,-4.4 5.8,-9.2 3,-4.8 7.5,-12.2 10,-16.6 2.5,-4.4 6.2,-11.3 8.3,-15.4 2.1,-4.1 4.8,-9.6 6,-12.2 1.2,-2.6 2.2,-5 2.2,-5.3 0,-0.3 -1.2,-1.3 -2.8,-2.2 -1.5,-0.9 -3.7,-2.5 -4.9,-3.7 -1.2,-1.2 -2.3,-2.1 -2.5,-2.1 0,0 -4.3,4.3 -9.3,9.5 z m 48.9,-7.1 c -1.3,1.3 -3.6,3 -5,3.8 -1.4,0.8 -2.6,1.5 -2.7,1.6 -0.1,0.1 2,4.7 4.7,10.2 2.6,5.5 6.2,12.6 7.9,15.7 1.7,3.1 4.5,8.1 6.2,11.2 1.7,3.1 5.4,9.2 8.3,13.8 2.9,4.6 5.4,8.3 5.7,8.3 0.3,0 2.3,-1.1 4.4,-2.4 2.1,-1.3 5.6,-3.8 7.9,-5.6 2.2,-1.7 5.2,-4.3 6.6,-5.6 l 2.5,-2.5 c -6,-8 -10,-13.1 -12.6,-16.4 -2.6,-3.3 -6.7,-8.2 -9.1,-10.9 -2.3,-2.7 -8.2,-9.1 -13.1,-14.3 -4.8,-5.1 -8.9,-9.3 -9.1,-9.3 -0.1,0 -1.3,1.1 -2.6,2.4 z m -25.7,11.7 c -0.5,2.5 -1.3,8 -1.9,12.4 -0.6,4.3 -1.6,12.3 -2.1,17.6 -0.5,5.3 -1.2,14.9 -1.5,21.2 -0.3,6.3 -0.5,11.6 -0.4,11.7 0.1,0.1 3,0.5 6.4,0.8 3.4,0.3 7.9,0.4 10,0.2 2.1,-0.2 5.2,-0.4 6.9,-0.5 l 3.1,-0.3 c -0.6,-14.3 -1.1,-22.4 -1.4,-27.2 -0.3,-4.8 -1.1,-12.2 -1.7,-16.6 -0.5,-4.3 -1.5,-11.5 -2.2,-15.9 l -1.2,-7.9 h -13.1 z"
   style="fill:#525252;fill-opacity:1" />
</svg>
