<?xml version="1.0" encoding="UTF-8" standalone="no"?>
<svg
   xmlns:dc="http://purl.org/dc/elements/1.1/"
   xmlns:cc="http://creativecommons.org/ns#"
   xmlns:rdf="http://www.w3.org/1999/02/22-rdf-syntax-ns#"
   xmlns:svg="http://www.w3.org/2000/svg"
   xmlns="http://www.w3.org/2000/svg"
   xmlns:xlink="http://www.w3.org/1999/xlink"
   xmlns:sodipodi="http://sodipodi.sourceforge.net/DTD/sodipodi-0.dtd"
   xmlns:inkscape="http://www.inkscape.org/namespaces/inkscape"
   viewBox="0 0 2778 870"
   width="500"
   height="157"
   version="1.1"
   id="svg867"
   sodipodi:docname="page-signes.svg"
   inkscape:export-filename="C:\xampp\htdocs\webapp\public\assets\img\logo3.png"
   inkscape:export-xdpi="96"
   inkscape:export-ydpi="96"
   inkscape:version="1.0.2-2 (e86c870879, 2021-01-15)">
  <metadata
     id="metadata873">
    <rdf:RDF>
      <cc:Work
         rdf:about="">
        <dc:format>image/svg+xml</dc:format>
        <dc:type
           rdf:resource="http://purl.org/dc/dcmitype/StillImage" />
        <dc:title></dc:title>
      </cc:Work>
    </rdf:RDF>
  </metadata>
  <defs
     id="defs871">
    <rect
       x="3411.9228"
       y="1660.7022"
       width="2338.8085"
       height="975.9639"
       id="rect5961" />
    <rect
       x="-119.90601"
       y="-584.21838"
       width="576.01909"
       height="1318.9662"
       id="rect1763" />
    <clipPath
       clipPathUnits="userSpaceOnUse"
       id="clipPath986">
      <use
         x="0"
         y="0"
         xlink:href="#g982"
         id="use988"
         width="100%"
         height="100%"
         transform="matrix(1.2106894,0,0,1.2281462,183.48144,-187.72988)" />
    </clipPath>
    <rect
       x="1229.3376"
       y="1470.5251"
       width="1763.6999"
       height="1222.6543"
       id="rect117" />
    <rect
       x="1229.3376"
       y="1470.5251"
       width="2435.9563"
       height="1279.8237"
       id="rect1625" />
    <rect
       x="3233.6375"
       y="496.14249"
       width="1322.7369"
       height="1365.6501"
       id="rect966" />
    <rect
       x="3233.6375"
       y="496.14249"
       width="1322.7369"
       height="1365.6501"
       id="rect1628" />
    <rect
       x="3089.752"
       y="392.6459"
       width="926.42072"
       height="1231.8619"
       id="rect972" />
    <rect
       x="3089.752"
       y="392.6459"
       width="926.42072"
       height="1231.8619"
       id="rect1631" />
    <clipPath
       clipPathUnits="userSpaceOnUse"
       id="clipPath1167">
      <use
         x="0"
         y="0"
         xlink:href="#g1163"
         id="use1169"
         width="100%"
         height="100%" />
    </clipPath>
    <rect
       x="27.767378"
       y="-203.09058"
       width="1974.0082"
       height="1358.0771"
       id="rect111" />
    <rect
       x="27.767378"
       y="-203.09058"
       width="1974.0082"
       height="1358.0771"
       id="rect1776" />
    <rect
       x="3112.4707"
       y="142.73952"
       width="800.20538"
       height="1514.5844"
       id="rect1269" />
    <rect
       x="3112.4707"
       y="142.73952"
       width="800.20538"
       height="1514.5844"
       id="rect1813" />
    <rect
       x="1229.3376"
       y="1470.5251"
       width="1763.7"
       height="1222.6543"
       id="rect117-7" />
    <rect
       x="1229.3376"
       y="1470.5251"
       width="1763.7"
       height="1222.6543"
       id="rect5974" />
    <rect
       x="1229.3376"
       y="1470.5251"
       width="1932.7705"
       height="1222.6543"
       id="rect117-7-1" />
    <rect
       x="1229.3376"
       y="1470.5251"
       width="1763.7"
       height="1222.6543"
       id="rect6010" />
  </defs>
  <sodipodi:namedview
     pagecolor="#ffffff"
     bordercolor="#666666"
     borderopacity="1"
     objecttolerance="10"
     gridtolerance="10"
     guidetolerance="10"
     inkscape:pageopacity="0"
     inkscape:pageshadow="2"
     inkscape:window-width="2400"
     inkscape:window-height="1271"
     id="namedview869"
     showgrid="false"
     inkscape:zoom="0.8355"
     inkscape:cx="371.9246"
     inkscape:cy="-18.981269"
     inkscape:window-x="-9"
     inkscape:window-y="-9"
     inkscape:window-maximized="1"
     inkscape:current-layer="svg867"
     inkscape:pagecheckerboard="true" />
  <style
     id="style854"> tspan { white-space:pre } .shp0 { fill: #ffffff } .shp1 { fill: #f7e300 } .shp2 { fill: #536c18 } .shp3 { fill: #f4b5ca } .shp4 { fill: #f49f5c } .shp5 { fill: #757577 } </style>
  <g
     inkscape:label="Clip"
     id="g982"
     transform="matrix(0.82597567,0,0,0.81423531,-151.5512,152.8563)">
    <text
       xml:space="preserve"
       id="text5959"
       style="fill:black;fill-opacity:1;line-height:1.25;stroke:none;font-family:sans-serif;font-style:normal;font-weight:normal;font-size:270.99647072px;white-space:pre;shape-inside:url(#rect5961);" />
  </g>
  <g
     id="g6072">
    <path
       id="Path 2"
       class="shp2"
       d="m 633.98156,91.665376 c -0.37,0.96 -40.3,130.680004 -88.74,288.250004 l -88.07,286.5 c 102.57,0.38 128.24,0.1 128.54,-0.46 0.27,-0.51 7.7,-29.53 16.5,-64.49 l 16,-63.56 179.5,0.01 c 3.04,12.01 10.35,41.05 18.21,72.28 l 14.29,56.78 130.5,-0.06 c -0.91,-4.26 -39.85,-131.95 -87.12,-286.5 -47.28,-154.55 -86.61,-283.140004 -87.42,-285.750004 l -1.46,-4.75 c -145.55,0 -150.09,0.1 -150.73,1.75 z M 1023.7116,378.41538 v 288.5 h 124 v -197 c 68.59,0 93.45,-0.46 99.5,-1.03 6.05,-0.57 15.5,-1.7 21,-2.52 5.5,-0.82 15.17,-2.64 21.5,-4.06 6.33,-1.41 17.58,-4.59 25,-7.06 7.42,-2.47 18.45,-6.85 24.5,-9.73 6.05,-2.89 14.83,-7.63 19.5,-10.54 4.67,-2.91 11.2,-7.38 14.5,-9.92 3.3,-2.55 9.32,-7.78 13.39,-11.64 4.06,-3.85 9.94,-10.15 13.07,-14 3.13,-3.85 7.49,-9.7 9.69,-13 2.2,-3.3 5.83,-9.37 8.07,-13.5 2.23,-4.12 5.66,-11.55 7.61,-16.5 1.95,-4.95 4.73,-13.05 6.16,-18 1.44,-4.95 3.46,-13.95 4.51,-20 1.04,-6.05 2.4,-18.2 3.01,-27 0.79,-11.49 0.81,-20.23 0.04,-31 -0.58,-8.25 -1.69,-18.6 -2.47,-23 -0.77,-4.4 -2.32,-11.6 -3.44,-16 -1.11,-4.4 -3.23,-11.37 -4.7,-15.5 -1.47,-4.12 -5.19,-12.45 -8.29,-18.5 -3.09,-6.05 -8.05,-14.37 -11.02,-18.5 -2.97,-4.12 -7.93,-10.37 -11.02,-13.87 -3.08,-3.51 -9.21,-9.41 -13.61,-13.13 -4.4,-3.71 -11.83,-9.32 -16.5,-12.45 -4.67,-3.14 -14.35,-8.58 -21.5,-12.1 -7.15,-3.52 -19.75,-8.61 -28,-11.32 -8.25,-2.71 -20.17,-6.070004 -26.5,-7.470004 -6.33,-1.41 -17.8,-3.46 -25.5,-4.56 -7.7,-1.1 -20.08,-2.48 -27.5,-3.06 -8.18,-0.63 -53.21,-1.04 -114.25,-1.04 h -100.75 z m 597.59,-286.750004 c -0.28,0.96 -39.92,130.000004 -88.08,286.750004 -48.16,156.75 -87.78,285.79 -88.04,286.75 -0.44,1.65 3.07,1.75 63.78,1.74 h 64.25 c 23.91,-94.93 31.22,-123.95 31.67,-125.74 l 0.83,-3.25 h 179.5 l 32.12,128.5 c 117.87,0.45 131.3,0.24 131.01,-0.75 -0.2,-0.69 -39.92,-130.51 -88.25,-288.5 l -87.88,-287.250004 c -145.95,0 -150.42,0.1 -150.91,1.75 z m 422.15,257.500004 c -0.28,244.97 -0.4,259.83 -2.11,269.75 -1,5.77 -2.92,14.33 -4.26,19 -1.35,4.67 -3.92,11.65 -5.72,15.5 -1.8,3.85 -4.78,9.25 -6.64,12 -1.86,2.75 -5.43,7.42 -7.94,10.38 -2.51,2.96 -7.94,8.08 -12.07,11.38 -4.12,3.3 -11.78,8.51 -17,11.57 -5.22,3.06 -14.45,7.73 -20.5,10.38 -6.55,2.86 -10.88,5.31 -10.69,6.05 0.16,0.68 7.3,20.14 15.85,43.24 8.55,23.1 15.94,42.45 16.43,43 0.56,0.65 5.71,-0.71 14.64,-3.88 7.57,-2.68 20.07,-7.54 27.77,-10.8 7.7,-3.25 19.18,-8.63 25.5,-11.95 6.32,-3.32 16.45,-9.29 22.5,-13.27 6.05,-3.98 15.05,-10.61 20,-14.73 4.95,-4.12 12.73,-11.52 17.29,-16.43 4.56,-4.92 11.18,-12.99 14.71,-17.94 3.54,-4.95 8.89,-13.73 11.9,-19.5 3.01,-5.77 7.12,-14.77 9.14,-20 2.01,-5.23 5.15,-15.35 6.98,-22.5 1.82,-7.15 4.03,-17.95 4.91,-24 0.88,-6.05 2.03,-17.75 2.56,-26 0.58,-8.94 0.98,-115.02 0.99,-262.75 l 0.02,-247.750004 h -123.95 z m 240.26,32.25 v 285.5 h 51 v -279 h 272 v 279 h 51 V 95.915376 h -51 V 344.91538 h -272 V 95.915376 h -51 z"
       style="fill:#536c18;fill-opacity:1;fill-rule:nonzero;stroke:none;stroke-width:1.00795;stroke-miterlimit:4;stroke-dasharray:none;stroke-opacity:0"
       inkscape:export-xdpi="96"
       inkscape:export-ydpi="96" />
    <path
       id="Path 4"
       class="shp0"
       d="m 1147.7116,279.66538 v 100.75 c 57.74,-1.06 77.88,-1.89 82,-2.52 4.13,-0.64 11.78,-2.25 17,-3.58 5.22,-1.34 13.55,-4.41 18.5,-6.84 4.95,-2.43 11.68,-6.58 14.95,-9.24 3.28,-2.65 8.14,-7.52 10.82,-10.82 2.67,-3.3 6.86,-10.05 9.31,-15 2.45,-4.95 5.54,-13.27 6.86,-18.5 1.32,-5.23 2.89,-14.23 3.49,-20 0.6,-5.77 1.08,-13.87 1.07,-18 0,-4.12 -0.5,-11.55 -1.11,-16.5 -0.61,-4.95 -1.96,-12.37 -3.01,-16.5 -1.04,-4.12 -3.63,-11.1 -5.75,-15.5 -2.11,-4.4 -6.05,-10.9 -8.74,-14.45 -2.69,-3.55 -8.26,-9.11 -12.39,-12.36 -4.12,-3.26 -11.1,-7.65 -15.5,-9.76 -4.4,-2.11 -12.05,-4.97 -17,-6.35 -4.95,-1.39 -13.72,-3.21 -19.5,-4.04 -7.81,-1.13 -19.53,-1.52 -45.75,-1.53 l -35.25,-0.01 z m -472.92004,33.98 c -17.83,71.37 -32.57,130.56 -32.75,131.52 -0.31,1.65 3.35,1.75 65.67,1.75 43.33,0 66,-0.34 66,-1 0,-0.55 -14.64,-58.94 -32.54,-129.75 -17.89,-70.81 -32.85,-129.55 -33.25,-130.52 -0.44,-1.09 -13.12,47.89 -33.13,128 z m 1019.10004,-126.23 c -0.6,2.2 -15.4,61.47 -32.88,131.72 l -31.8,127.72 c 128.86,0.06 132.48,-0.04 132.05,-1.69 -0.25,-0.96 -15.12,-59.8 -33.05,-130.75 -17.93,-70.95 -32.74,-129.45 -32.91,-130 -0.18,-0.55 -0.81,0.8 -1.41,3 z"
       style="fill:#ffffff;fill-opacity:1;stroke:none;stroke-opacity:0" />
    <path
       id="Path 9"
       class="shp0"
       d="m 635.06156,767.34538 c -1.73,0.74 -4.04,2.64 -5.13,4.21 -1.1,1.57 -2.73,5.34 -3.62,8.36 -0.89,3.02 -1.62,6.51 -1.61,7.75 0.01,2.25 0.04,2.25 17.26,2.26 l 17.25,0.01 c -1.13,-8.93 -2.48,-13.51 -3.73,-15.95 -1.43,-2.79 -3.57,-5.11 -5.77,-6.26 -1.92,-1 -5.3,-1.8 -7.5,-1.77 -2.2,0.02 -5.42,0.65 -7.15,1.39 z m 337,0 c -1.73,0.74 -4.04,2.64 -5.13,4.21 -1.1,1.57 -2.73,5.34 -3.62,8.36 -0.89,3.02 -1.62,6.51 -1.61,7.75 0.01,2.25 0.04,2.25 17.26,2.26 l 17.25,0.01 c -1.13,-8.93 -2.48,-13.51 -3.73,-15.95 -1.43,-2.79 -3.57,-5.11 -5.77,-6.26 -1.92,-1 -5.3,-1.8 -7.5,-1.77 -2.2,0.02 -5.42,0.65 -7.15,1.39 z m -171.42,2.82 c -1.89,1.24 -4.44,4.28 -5.67,6.75 -1.23,2.48 -2.74,7.2 -3.36,10.5 -0.62,3.3 -0.92,10.5 -0.67,16 0.38,8.06 0.98,11.12 3.12,15.75 1.73,3.76 3.77,6.44 5.9,7.75 2.13,1.3 4.98,1.99 8.25,1.97 3.49,-0.01 6.29,-0.76 9.25,-2.49 2.34,-1.36 5.15,-3.83 6.25,-5.48 1.84,-2.76 2,-4.67 2,-24 v -21 c -5.42,-4.65 -8.12,-6.45 -9.5,-7 -1.37,-0.55 -4.67,-1 -7.32,-1 -3.31,0 -5.89,0.7 -8.25,2.25 z m 889.07004,-1.6 c -0.83,0.33 -2.97,2 -4.77,3.72 -1.8,1.72 -4.05,5.38 -5,8.13 -1.29,3.74 -1.73,8.27 -1.73,18 0,9.73 0.44,14.26 1.73,18 0.96,2.78 3.32,6.56 5.3,8.5 3.44,3.36 3.87,3.5 10.97,3.5 7.1,0 7.53,-0.14 10.97,-3.5 1.98,-1.94 4.34,-5.72 5.3,-8.5 1.29,-3.74 1.73,-8.27 1.73,-18 0,-9.73 -0.44,-14.26 -1.73,-18 -0.96,-2.79 -3.31,-6.55 -5.31,-8.5 -3.23,-3.16 -4.19,-3.52 -9.77,-3.72 -3.41,-0.13 -6.86,0.04 -7.69,0.37 z m -419.42,35.14 c -2.92,1.02 -5.76,2.86 -7,4.55 -1.31,1.8 -2.19,4.74 -2.39,8 -0.22,3.87 0.21,5.97 1.75,8.41 1.13,1.79 3.19,3.7 4.56,4.25 1.38,0.55 4.08,1 6,1 1.92,0 4.74,-0.48 6.25,-1.06 1.51,-0.58 4.44,-2.72 6.52,-4.75 l 3.76,-3.69 -0.03,-18.5 c -11.38,0.07 -16.62,0.82 -19.42,1.79 z"
       style="stroke:none;stroke-opacity:0" />
    <text
       xml:space="preserve"
       id="text115"
       style="font-style:normal;font-variant:normal;font-weight:bold;font-stretch:normal;font-size:1066.75px;line-height:1.25;font-family:'Segoe Script';-inkscape-font-specification:'Segoe Script, Bold';font-variant-ligatures:normal;font-variant-caps:normal;font-variant-numeric:normal;font-variant-east-asian:normal;white-space:pre;shape-inside:url(#rect117);fill:#ffd485;fill-opacity:1;stroke:none;stroke-opacity:0;"
       transform="matrix(0.82597568,0,0,0.8142353,-1.6439918,-582.92582)"><tspan
         x="1229.3379"
         y="2409.9987"><tspan
           style="font-style:normal;font-variant:normal;font-weight:bold;font-stretch:normal;font-size:1066.75px;font-family:'Segoe Script';-inkscape-font-specification:'Segoe Script, Bold';font-variant-ligatures:normal;font-variant-caps:normal;font-variant-numeric:normal;font-variant-east-asian:normal;white-space:pre;fill:#ffd485;fill-opacity:1;stroke:none;stroke-opacity:0">des</tspan></tspan></text>
    <text
       xml:space="preserve"
       id="text115-6"
       style="font-style:normal;font-variant:normal;font-weight:bold;font-stretch:normal;font-size:1066.75px;line-height:1.25;font-family:'Segoe Script';-inkscape-font-specification:'Segoe Script, Bold';font-variant-ligatures:normal;font-variant-caps:normal;font-variant-numeric:normal;font-variant-east-asian:normal;white-space:pre;shape-inside:url(#rect117-7);fill:#fdef87;fill-opacity:1;stroke:none;stroke-opacity:0;"
       transform="matrix(0.82597568,0,0,0.8142353,1564.0206,-594.03637)"><tspan
         x="1229.3379"
         y="2409.9987"><tspan
           style="white-space:pre">sig</tspan></tspan></text>
    <text
       xml:space="preserve"
       id="text115-6-3"
       style="font-style:normal;font-variant:normal;font-weight:bold;font-stretch:normal;font-size:1066.75px;line-height:1.25;font-family:'Segoe Script';-inkscape-font-specification:'Segoe Script, Bold';font-variant-ligatures:normal;font-variant-caps:normal;font-variant-numeric:normal;font-variant-east-asian:normal;white-space:pre;shape-inside:url(#rect117-7-1);fill:#fadce6;fill-opacity:1;stroke:none;stroke-opacity:0;"
       transform="matrix(0.82597568,0,0,0.8142353,2770.9793,-617.31107)"><tspan
         x="1229.3379"
         y="2409.9987"><tspan
           style="white-space:pre;fill:#fadce6;fill-opacity:1">nes</tspan></tspan></text>
    <g
       id="Background-0"
       transform="matrix(5.556,0,0,5.556,3682.3381,-130.96717)">
      <g
         id="g1165"
         clip-path="url(#clipPath1167)"
         transform="matrix(0.52292916,0,0,0.5709668,-576.67599,163.18473)"
         style="mix-blend-mode:normal">
        <g
           inkscape:label="Clip"
           id="g1163">
          <path
             id="Path_1"
             class="st1"
             d="m 91.4,30 c -0.4,0 -1.2,0.1 -1.8,0.2 l -1,0.1 c 0.3,4.1 0.5,6.7 0.7,8.5 0.2,1.7 0.5,4.1 0.7,5.2 0.2,1.1 0.6,3.3 0.9,4.9 l 0.6,2.8 h 4.4 c 0.5,-2 0.9,-3.7 1.1,-5 0.2,-1.3 0.7,-3.7 0.9,-5.5 0.2,-1.7 0.5,-4.2 0.7,-5.6 0.1,-1.3 0.2,-3.1 0.2,-3.9 0,-1.4 0,-1.4 -0.6,-1.6 -0.3,-0.1 -1.8,-0.2 -3.3,-0.2 -1.5,0 -3,0.1 -3.5,0.1 z"
             style="fill:#fdef87;fill-opacity:1;stroke:none;stroke-opacity:0" />
          <path
             id="Path_3"
             class="st1"
             d="m 70.4,39.1 c -0.9,0.9 -2.3,2.5 -3,3.5 -0.7,1 -1.3,1.9 -1.3,2 0,0.1 1.1,1 2.4,1.8 1.3,0.9 3.7,2.3 5.3,3.3 1.6,0.9 4.4,2.5 6.2,3.4 1.8,0.9 4,2 4.7,2.4 0.7,0.4 1.4,0.6 1.5,0.6 0,0 0.3,-0.4 0.6,-0.8 0.3,-0.4 0.9,-1 1.3,-1.5 L 88.9,53 C 88,52 87,50.9 86.1,50 c -0.9,-0.9 -2.9,-3 -4.5,-4.5 -1.6,-1.6 -4.3,-4 -6,-5.4 -1.7,-1.4 -3.2,-2.6 -3.3,-2.6 -0.1,-0.1 -1,0.7 -1.9,1.6 z m 43.9,-0.7 c -0.5,0.4 -2.3,1.9 -4.1,3.4 -1.7,1.5 -4.5,4 -6.2,5.6 -1.6,1.6 -3.5,3.6 -4.2,4.3 L 98.6,53 c 1.4,1.4 1.9,2.1 2.1,2.4 0.2,0.3 0.5,0.6 0.6,0.6 0.2,0 1.5,-0.6 3.1,-1.3 1.5,-0.7 3.8,-1.9 5.1,-2.6 1.3,-0.7 4.3,-2.4 6.8,-3.9 2.5,-1.5 4.7,-2.8 4.9,-3 0.3,-0.2 0.4,-0.4 0.3,-0.7 -0.1,-0.2 -0.6,-0.9 -1.1,-1.6 -0.5,-0.7 -1.4,-1.7 -1.9,-2.3 -0.6,-0.6 -1.5,-1.5 -2,-2.1 -0.6,-0.5 -1.1,-1 -1.1,-1 -0.2,0.1 -0.6,0.5 -1.1,0.9 z"
             style="fill:#fdef87;fill-opacity:1;stroke:none;stroke-opacity:0" />
          <path
             id="Path_5"
             class="st1"
             d="m 78.6,58.9 c -1.7,0.1 -4.7,0.3 -6.6,0.5 -1.9,0.2 -4.9,0.6 -6.7,0.8 -1.8,0.3 -3.3,0.5 -3.4,0.5 -0.1,0 -0.1,0.3 -0.1,0.7 0,0.4 0.2,1.5 0.4,2.6 0.2,1.1 0.7,2.8 1,3.9 0.4,1.1 0.7,2 0.7,2 0,0 2,-0.4 4.3,-1.1 2.4,-0.6 5.9,-1.7 7.9,-2.3 2,-0.7 4.8,-1.7 6.2,-2.2 1.4,-0.6 2.9,-1.2 3.3,-1.4 l 0.8,-0.4 C 85.8,61 85.6,60.2 85.6,59.7 l -0.1,-1 c -2.9,0.1 -5.1,0.1 -6.9,0.2 z m 23.2,0.3 c -0.1,0.2 -0.1,0.5 -0.1,0.8 0,0.3 -0.2,1 -0.4,1.5 l -0.4,1 c 3.5,1.5 6,2.5 7.7,3.1 1.7,0.6 4.4,1.5 6,2 1.6,0.5 4.2,1.2 5.8,1.7 1.6,0.4 3,0.7 3,0.6 0.1,-0.1 0.3,-0.8 0.6,-1.5 0.3,-0.7 0.7,-2.1 0.9,-3 0.2,-0.9 0.5,-2.3 0.6,-3 0.2,-1.1 0.1,-1.3 -0.3,-1.4 -0.2,-0.1 -1.6,-0.3 -3,-0.5 -1.4,-0.2 -4.1,-0.6 -6,-0.8 -1.9,-0.2 -4.8,-0.5 -6.5,-0.6 -1.7,-0.1 -4.1,-0.2 -5.4,-0.2 -1.9,0 -2.4,0.1 -2.5,0.3 z m -14.2,6.3 c -0.4,0.5 -1.4,1.7 -2.3,2.8 -0.9,1.1 -2.5,3.2 -3.7,4.9 -1.2,1.6 -3,4.4 -4.2,6.2 -1.2,1.8 -2,3.4 -2,3.5 0,0.2 1,0.8 2.1,1.4 1.1,0.6 3,1.5 4.3,1.9 1.3,0.4 2.4,0.8 2.5,0.8 0.1,0 0.3,-0.3 0.5,-0.8 0.2,-0.4 0.9,-2 1.6,-3.6 0.7,-1.6 1.8,-4.2 2.4,-5.8 0.6,-1.6 1.6,-4.5 2.2,-6.5 0.6,-2 1.1,-3.7 1.1,-3.8 0,-0.1 -0.3,-0.3 -0.7,-0.3 -0.4,-0.1 -1.3,-0.4 -1.9,-0.8 l -1.2,-0.7 z m 10.1,-0.1 c -0.6,0.3 -1.3,0.7 -1.8,0.7 -0.7,0.1 -0.7,0.2 -0.6,1 0.1,0.4 0.6,2.3 1.2,4.2 0.6,1.8 1.6,4.8 2.2,6.6 0.7,1.8 1.8,4.5 2.5,6.1 0.7,1.6 1.4,2.9 1.6,2.9 0.2,0 1.5,-0.4 2.9,-0.9 1.4,-0.5 3.3,-1.4 4.3,-1.9 1,-0.5 1.7,-1.1 1.7,-1.2 0,-0.1 -1,-1.8 -2.3,-3.9 -1.2,-2 -3.2,-5 -4.4,-6.6 -1.2,-1.6 -3,-4 -4,-5.3 -1.1,-1.3 -2,-2.4 -2.1,-2.4 -0.1,0.1 -0.7,0.4 -1.2,0.7 z"
             style="fill:#fdef87;fill-opacity:1;stroke:none;stroke-opacity:0" />
          <path
             id="Path_6"
             class="st2"
             d="m 141.9,72 c -0.3,0.1 -0.4,0.2 -0.4,0.4 0,0.2 0.2,1.5 0.4,3 0.2,1.4 0.6,3.7 0.9,5 0.3,1.3 0.7,2.9 0.9,3.5 l 0.4,1.2 h 2 c 0.5,-1.7 0.8,-3 1.1,-4 0.2,-1 0.6,-2.8 0.8,-4 0.2,-1.2 0.4,-2.8 0.5,-3.5 0.1,-1.4 0.1,-1.4 -0.4,-1.6 -0.3,-0.1 -1.7,-0.1 -3.1,-0.1 -1.5,0 -2.8,0.1 -3.1,0.1 z m -12.4,8.9 c -0.3,0.6 -0.7,1.6 -0.9,2.2 -0.2,0.6 -0.4,1.5 -0.5,1.9 -0.1,0.7 -0.1,0.8 0.7,1 0.5,0.1 1.9,0.4 3.2,0.6 1.3,0.2 3.1,0.5 4.1,0.6 1,0.1 2.8,0.3 4,0.3 l 2.2,0.1 c 0.5,-1.6 0.5,-1.7 0.2,-2 -0.2,-0.2 -1.7,-1 -3.3,-1.9 -1.6,-0.9 -4.2,-2.1 -5.7,-2.7 -1.6,-0.6 -3,-1.2 -3.2,-1.2 -0.2,0 -0.5,0.4 -0.8,1.1 z m 27,0.1 c -1.5,0.6 -4.1,1.9 -5.7,2.7 -1.6,0.9 -3.1,1.7 -3.3,1.9 -0.3,0.3 -0.4,0.4 -0.1,1.1 l 0.3,0.8 c 3.3,-0.2 5.1,-0.4 6.1,-0.5 1,-0.1 2.9,-0.4 4.2,-0.6 1.3,-0.2 2.7,-0.5 3.2,-0.6 0.8,-0.2 0.8,-0.2 0.7,-1 -0.1,-0.4 -0.3,-1.3 -0.5,-1.9 -0.2,-0.6 -0.6,-1.6 -0.9,-2.2 -0.4,-0.7 -0.7,-1.1 -0.9,-1.1 -0.1,0.2 -1.5,0.7 -3.1,1.4 z M 141,90 c -1,0.7 -2.9,2.3 -4.3,3.6 -1.4,1.3 -3,2.8 -3.5,3.3 l -0.9,1 c 2.1,1.8 3.4,2.6 4.1,3 l 1.4,0.7 c 0.7,-0.8 1.5,-2 2.2,-3.2 0.7,-1.2 1.8,-3.3 2.5,-4.6 0.6,-1.3 1.3,-2.8 1.5,-3.2 0.3,-0.7 0.3,-0.8 -0.4,-1.3 -0.4,-0.3 -0.7,-0.5 -0.8,-0.5 0,-0.1 -0.8,0.5 -1.8,1.2 z m 5.4,-0.7 -0.7,0.5 c 0.7,1.6 1.4,3.2 2,4.5 0.7,1.3 1.9,3.5 2.7,4.8 0.8,1.3 1.6,2.4 1.7,2.4 0.1,0 0.8,-0.3 1.5,-0.7 0.7,-0.4 1.9,-1.2 2.7,-1.8 l 1.4,-1.1 c -1.7,-1.8 -3.2,-3.3 -4.5,-4.4 -1.2,-1.1 -3.1,-2.6 -4.1,-3.4 -1,-0.8 -1.9,-1.4 -2,-1.4 0,0 -0.3,0.3 -0.7,0.6 z"
             style="fill:#fadce6;fill-opacity:1;stroke:none;stroke-opacity:0" />
          <path
             id="Path_7"
             class="st3"
             d="m 92.8,94.9 c -0.4,0 -1,0.1 -1.3,0.2 L 91,95.2 c 0.2,5.7 0.4,9 0.6,10.9 0.2,2 0.5,5 0.8,6.8 0.2,1.8 0.7,4.7 1,6.5 0.3,1.8 0.6,3.3 0.7,3.4 0.1,0.1 0.8,0.1 1.6,0 0.9,-0.1 2,-0.1 2.9,0 0.8,0.1 1.5,0.2 1.5,0.1 0,0 0.3,-1.7 0.7,-3.7 0.4,-2 0.9,-5.1 1.1,-6.9 0.2,-1.8 0.6,-4.8 0.8,-6.8 0.2,-2 0.4,-5.1 0.5,-6.9 0.1,-3.2 0.1,-3.4 -0.3,-3.5 -0.2,-0.1 -2.4,-0.2 -4.9,-0.2 -2.4,0 -4.8,0 -5.2,0 z m -17.7,5.2 c -0.9,0.5 -2.2,1.3 -3,1.8 -0.8,0.5 -2.3,1.6 -3.4,2.4 -1.6,1.2 -1.9,1.5 -1.7,1.8 0.1,0.2 1.3,1.6 2.6,3.1 1.3,1.5 3.6,4 5.1,5.6 1.5,1.6 4.1,4.2 5.8,5.8 1.7,1.6 3.9,3.7 4.9,4.5 l 1.8,1.6 c 2.2,-1.6 3.3,-2.3 3.8,-2.6 0.9,-0.4 1,-0.5 0.9,-0.9 -0.1,-0.3 -1,-1.9 -1.9,-3.6 -1,-1.7 -2.5,-4.5 -3.5,-6.1 -1,-1.6 -2.5,-4 -3.3,-5.3 -0.8,-1.3 -2.6,-3.8 -3.9,-5.6 -1.3,-1.8 -2.4,-3.3 -2.5,-3.3 -0.1,0 -0.9,0.4 -1.7,0.8 z m 40.2,2.1 c -1.1,1.5 -2.9,4.1 -4.1,5.8 -1.2,1.7 -2.9,4.5 -3.9,6.1 -1,1.6 -2.6,4.3 -3.5,6 -0.9,1.7 -1.7,3.2 -1.7,3.4 0,0.2 0.1,0.3 0.2,0.3 0.1,0 0.7,0.3 1.4,0.7 0.6,0.4 1.6,1.1 2.2,1.5 l 1,0.9 c 7.4,-6.9 10.9,-10.2 12.5,-11.9 1.6,-1.7 4,-4.3 5.4,-5.9 1.4,-1.6 2.5,-3 2.5,-3.1 0,-0.1 -0.8,-0.8 -1.7,-1.6 -1,-0.8 -3.1,-2.2 -4.7,-3.2 -1.7,-1 -3.1,-1.8 -3.3,-1.8 -0.1,0.1 -1.2,1.3 -2.3,2.8 z m -57.7,15.3 c -0.2,0.3 -0.7,1.5 -1.2,2.6 -0.5,1.1 -1.2,3.1 -1.5,4.4 -0.4,1.3 -0.7,2.5 -0.7,2.8 0,0.4 0.3,0.5 4.1,1.5 2.2,0.6 5.3,1.3 6.9,1.6 1.5,0.3 4.3,0.9 6.1,1.2 1.8,0.3 5.2,0.9 7.6,1.2 2.3,0.3 4.5,0.6 4.8,0.6 0.5,0 0.6,-0.1 0.6,-0.6 0,-0.3 0.2,-1.2 0.5,-1.9 0.3,-0.7 0.7,-1.6 0.9,-1.9 l 0.4,-0.7 c -2.5,-1.3 -5.2,-2.5 -7.7,-3.6 -2.5,-1.1 -6.3,-2.7 -8.5,-3.6 -2.2,-0.9 -5.7,-2.1 -7.7,-2.9 -2.1,-0.7 -3.9,-1.3 -4,-1.3 -0.2,0 -0.5,0.3 -0.6,0.6 z m 74.2,0.9 c -2,0.7 -5.1,1.8 -6.9,2.5 -1.8,0.7 -4.9,1.9 -6.9,2.8 -2,0.9 -5,2.2 -6.7,3 -1.6,0.8 -3,1.5 -3.1,1.6 0,0.1 0.2,0.7 0.5,1.3 0.3,0.6 0.7,1.8 0.9,2.5 0.2,0.7 0.3,1.3 0.4,1.3 0,0 1.7,-0.2 3.7,-0.5 2,-0.3 5.3,-0.8 7.4,-1.1 2,-0.3 5.4,-1 7.6,-1.4 2.1,-0.5 5.4,-1.2 7.1,-1.6 1.8,-0.5 3.5,-0.8 3.7,-0.9 0.4,-0.1 0.5,-0.2 0.4,-0.6 -0.1,-0.3 -0.4,-1.5 -0.7,-2.6 -0.3,-1.1 -0.8,-2.7 -1.1,-3.5 -0.3,-0.8 -0.9,-2.1 -1.2,-2.8 -0.4,-0.9 -0.8,-1.3 -1,-1.3 -0.3,0 -2.1,0.6 -4.1,1.3 z m -52.4,17.5 c -1.9,0.3 -5.3,0.8 -7.6,1.2 -2.3,0.4 -6,1.1 -8.2,1.6 -2.3,0.5 -5.2,1.2 -6.6,1.5 -1.3,0.3 -2.6,0.7 -2.7,0.8 -0.1,0.1 -0.1,0.6 0.1,1.6 0.2,0.8 0.6,2.4 1.1,3.7 0.4,1.3 1.1,3 1.6,3.9 0.4,0.9 0.8,1.6 0.9,1.6 0,0 1.7,-0.6 3.8,-1.2 2.1,-0.7 5.8,-2.1 8.4,-3.1 2.6,-1 7,-2.9 9.8,-4.1 2.8,-1.3 5.3,-2.5 5.6,-2.6 0.4,-0.3 0.4,-0.3 -0.2,-1.6 -0.4,-0.7 -0.8,-1.8 -0.9,-2.5 -0.2,-1.1 -0.3,-1.2 -0.9,-1.3 -0.4,0 -2.3,0.2 -4.2,0.5 z m 30.5,-0.3 c -0.1,0.1 -0.2,0.8 -0.3,1.4 -0.1,0.6 -0.5,1.7 -0.9,2.3 l -0.6,1.2 c 1.4,0.7 4,1.9 6.6,3.1 2.6,1.2 6.1,2.7 7.8,3.4 1.7,0.7 4.7,1.8 6.7,2.5 2,0.7 4.4,1.6 5.3,1.8 l 1.6,0.5 c 1.2,-2.3 1.8,-3.7 2.2,-4.7 0.4,-0.9 0.9,-2.6 1.2,-3.6 0.3,-1.1 0.5,-2.1 0.4,-2.2 -0.1,-0.2 -1.5,-0.6 -3.9,-1.3 -2.1,-0.5 -4.8,-1.2 -6,-1.5 -1.2,-0.3 -4.2,-0.9 -6.6,-1.3 -2.4,-0.4 -6.1,-1 -8.1,-1.3 -2.1,-0.3 -4.1,-0.6 -4.5,-0.6 -0.6,0.1 -0.9,0.1 -0.9,0.3 z M 82.7,146 c -2.4,2.1 -5.8,5.5 -7.6,7.3 -1.8,1.9 -4.3,4.5 -5.5,5.9 -1.2,1.3 -2.3,2.7 -2.6,3 l -0.4,0.6 c 0.9,0.8 2.1,1.8 3.3,2.7 1.2,0.9 3.2,2.2 4.4,2.9 1.3,0.7 2.3,1.2 2.3,1 0.1,-0.1 1.3,-1.8 2.7,-3.8 1.4,-2 3.5,-5 4.7,-6.8 1.2,-1.8 2.9,-4.6 3.9,-6.3 1,-1.7 2.3,-3.9 2.8,-5 0.6,-1.1 1,-2 1,-2.2 0,-0.1 -0.6,-0.5 -1.3,-0.9 -0.7,-0.4 -1.7,-1 -2.3,-1.5 -0.6,-0.5 -1.1,-0.9 -1.2,-0.9 0.1,0 -1.9,1.8 -4.2,4 z m 22.9,-3 c -0.6,0.5 -1.7,1.2 -2.3,1.5 -0.7,0.3 -1.2,0.6 -1.3,0.7 -0.1,0.1 1,1.9 2.2,4.2 1.2,2.3 2.9,5.2 3.7,6.4 0.8,1.3 2.1,3.3 2.9,4.6 0.8,1.3 2.5,3.8 3.9,5.6 1.3,1.9 2.5,3.4 2.7,3.4 0.2,0 1.1,-0.5 2.1,-1 1,-0.5 2.6,-1.6 3.7,-2.3 1,-0.7 2.4,-1.7 3.1,-2.3 l 1.2,-1 c -2.8,-3.3 -4.7,-5.4 -5.9,-6.7 -1.2,-1.3 -3.1,-3.3 -4.2,-4.5 -1.1,-1.1 -3.9,-3.7 -6.1,-5.8 -2.3,-2.1 -4.2,-3.8 -4.2,-3.8 -0.3,0.1 -0.9,0.5 -1.5,1 z m -12,4.8 c -0.2,1 -0.6,3.3 -0.9,5.1 -0.3,1.8 -0.7,5 -1,7.2 -0.2,2.2 -0.6,6.1 -0.7,8.7 -0.2,2.6 -0.2,4.7 -0.2,4.8 0.1,0.1 1.4,0.2 3,0.3 1.6,0.1 3.7,0.2 4.7,0.1 1,-0.1 2.4,-0.2 3.2,-0.2 l 1.4,-0.1 c -0.3,-5.9 -0.5,-9.2 -0.7,-11.1 -0.2,-2 -0.5,-5 -0.8,-6.8 -0.2,-1.8 -0.7,-4.7 -1,-6.5 l -0.6,-3.2 h -6.2 z"
             style="fill:#ffd485;fill-opacity:1;stroke:none;stroke-opacity:0" />
        </g>
      </g>
    </g>
    <text
       xml:space="preserve"
       id="text109"
       style="font-style:normal;font-variant:normal;font-weight:normal;font-stretch:normal;font-size:1066.75px;line-height:1.25;font-family:'Segoe Script';-inkscape-font-specification:'Segoe Script, Normal';font-variant-ligatures:normal;font-variant-caps:normal;font-variant-numeric:normal;font-variant-east-asian:normal;white-space:pre;shape-inside:url(#rect111);fill:#677db7;fill-opacity:1;stroke:none;"
       transform="matrix(1.7413166,0.31496731,-0.2747411,1.8466562,-222.48718,-308.38223)"
       inkscape:export-xdpi="96"
       inkscape:export-ydpi="96"><tspan
         x="27.767578"
         y="736.12544"><tspan
           style="font-style:normal;font-variant:normal;font-weight:normal;font-stretch:normal;font-size:1066.75px;font-family:'Segoe Script';-inkscape-font-specification:'Segoe Script, Normal';font-variant-ligatures:normal;font-variant-caps:normal;font-variant-numeric:normal;font-variant-east-asian:normal;white-space:pre;fill:#677db7;fill-opacity:1">l
</tspan></tspan></text>
    <text
       xml:space="preserve"
       id="text1267"
       style="font-style:normal;font-variant:normal;font-weight:normal;font-stretch:normal;font-size:1066.75px;line-height:1.25;font-family:'Segoe Script';-inkscape-font-specification:'Segoe Script, Normal';font-variant-ligatures:normal;font-variant-caps:normal;font-variant-numeric:normal;font-variant-east-asian:normal;white-space:pre;shape-inside:url(#rect1269);fill:#677db7;fill-opacity:1;stroke:none;"
       transform="matrix(-0.83341736,-0.5526441,-0.5526441,0.83341736,3664.4862,1078.7594)"><tspan
         x="3112.4707"
         y="1081.9555"><tspan
           style="font-style:normal;font-variant:normal;font-weight:normal;font-stretch:normal;font-size:1066.75px;font-family:'Segoe Script';-inkscape-font-specification:'Segoe Script, Normal';font-variant-ligatures:normal;font-variant-caps:normal;font-variant-numeric:normal;font-variant-east-asian:normal;white-space:pre;fill:#677db7;fill-opacity:1">'</tspan></tspan></text>
    <rect
       style="fill:none;fill-opacity:1;fill-rule:nonzero;stroke:none;stroke-width:1.00795;stroke-miterlimit:4;stroke-dasharray:none;stroke-opacity:0"
       id="rect5238"
       width="2104.2329"
       height="246.86533"
       x="853.44867"
       y="1390.7042" />
  </g>
</svg>
