<?xml version="1.0" encoding="UTF-8" standalone="no"?>
<svg
   xmlns:osb="http://www.openswatchbook.org/uri/2009/osb"
   xmlns:dc="http://purl.org/dc/elements/1.1/"
   xmlns:cc="http://creativecommons.org/ns#"
   xmlns:rdf="http://www.w3.org/1999/02/22-rdf-syntax-ns#"
   xmlns:svg="http://www.w3.org/2000/svg"
   xmlns="http://www.w3.org/2000/svg"
   xmlns:sodipodi="http://sodipodi.sourceforge.net/DTD/sodipodi-0.dtd"
   xmlns:inkscape="http://www.inkscape.org/namespaces/inkscape"
   version="1.1"
   id="svg1495"
   width="620"
   height="520"
   viewBox="0 0 620 520"
   sodipodi:docname="page-num2.svg"
   inkscape:version="1.0.2-2 (e86c870879, 2021-01-15)"
   inkscape:export-filename="C:\xampp\htdocs\webapp\public\assets\img\page-num2.png"
   inkscape:export-xdpi="96"
   inkscape:export-ydpi="96">
  <metadata
     id="metadata1501">
    <rdf:RDF>
      <cc:Work
         rdf:about="">
        <dc:format>image/svg+xml</dc:format>
        <dc:type
           rdf:resource="http://purl.org/dc/dcmitype/StillImage" />
        <dc:title></dc:title>
      </cc:Work>
    </rdf:RDF>
  </metadata>
  <defs
     id="defs1499">
    <linearGradient
       inkscape:collect="always"
       id="linearGradient3493"
       osb:paint="gradient">
      <stop
         style="stop-color:#736867;stop-opacity:1;"
         offset="0"
         id="stop3489" />
      <stop
         style="stop-color:#736867;stop-opacity:0;"
         offset="1"
         id="stop3491" />
    </linearGradient>
    <linearGradient
       id="linearGradient13680"
       osb:paint="solid">
      <stop
         style="stop-color:#faec55;stop-opacity:1;"
         offset="0"
         id="stop13678" />
    </linearGradient>
    <rect
       x="77.120667"
       y="363.46683"
       width="992.57153"
       height="249.214"
       id="rect2325" />
    <rect
       x="773.34888"
       y="14.281604"
       width="194.94389"
       height="287.06024"
       id="rect2261" />
    <rect
       x="-343.4726"
       y="-47.843376"
       width="332.76138"
       height="526.99121"
       id="rect2255" />
    <rect
       x="-296.34329"
       y="-24.278727"
       width="261.35336"
       height="476.2915"
       id="rect2249" />
    <rect
       x="77.120667"
       y="363.46683"
       width="992.57153"
       height="249.214"
       id="rect2325-3" />
    <rect
       x="77.120667"
       y="363.46683"
       width="992.57153"
       height="249.214"
       id="rect2338" />
    <rect
       x="77.120667"
       y="363.46683"
       width="992.57153"
       height="249.214"
       id="rect2325-3-5" />
    <rect
       x="77.120667"
       y="363.46683"
       width="992.57153"
       height="249.214"
       id="rect2374" />
    <rect
       x="77.120667"
       y="363.46683"
       width="992.57153"
       height="249.214"
       id="rect2325-3-3" />
    <rect
       x="77.120667"
       y="363.46683"
       width="992.57153"
       height="249.214"
       id="rect2374-3" />
    <rect
       x="77.120667"
       y="363.46683"
       width="992.57153"
       height="249.214"
       id="rect2325-3-0" />
    <rect
       x="77.120667"
       y="363.46683"
       width="992.57153"
       height="249.214"
       id="rect12694" />
    <rect
       x="77.120667"
       y="363.46683"
       width="992.57153"
       height="249.214"
       id="rect2325-3-5-2" />
    <rect
       x="77.120667"
       y="363.46683"
       width="992.57153"
       height="249.214"
       id="rect12697" />
    <rect
       x="77.120667"
       y="363.46683"
       width="992.57153"
       height="249.214"
       id="rect2325-3-3-9" />
    <rect
       x="77.120667"
       y="363.46683"
       width="992.57153"
       height="249.214"
       id="rect12700" />
  </defs>
  <sodipodi:namedview
     pagecolor="#ffffff"
     bordercolor="#666666"
     borderopacity="1"
     objecttolerance="10"
     gridtolerance="10"
     guidetolerance="10"
     inkscape:pageopacity="0"
     inkscape:pageshadow="2"
     inkscape:window-width="1920"
     inkscape:window-height="1001"
     id="namedview1497"
     showgrid="false"
     showborder="true"
     inkscape:pagecheckerboard="true"
     inkscape:zoom="1"
     inkscape:cx="244.96005"
     inkscape:cy="269.57407"
     inkscape:window-x="2391"
     inkscape:window-y="-9"
     inkscape:window-maximized="1"
     inkscape:current-layer="g1503"
     inkscape:document-rotation="0" />
  <g
     inkscape:groupmode="layer"
     inkscape:label="Image"
     id="g1503">
    <text
       xml:space="preserve"
       id="text2247"
       style="font-style:normal;font-weight:normal;font-size:40px;line-height:1.25;font-family:sans-serif;white-space:pre;shape-inside:url(#rect2249);fill:#000000;fill-opacity:1;stroke:none;" />
    <text
       xml:space="preserve"
       id="text2253"
       style="font-style:normal;font-variant:normal;font-weight:normal;font-stretch:normal;font-size:192px;line-height:1.25;font-family:'Segoe Script';-inkscape-font-specification:'Segoe Script, Normal';font-variant-ligatures:normal;font-variant-caps:normal;font-variant-numeric:normal;font-variant-east-asian:normal;white-space:pre;shape-inside:url(#rect2255);fill:#faec55;fill-opacity:1;stroke:none;stroke-opacity:1;"
       transform="matrix(1.786645,0.38832476,-0.28306204,1.8334068,615.49817,195.14029)"><tspan
         x="-343.47266"
         y="121.20179"><tspan
           style="font-style:normal;font-variant:normal;font-weight:normal;font-stretch:normal;font-size:192px;font-family:'Segoe Script';-inkscape-font-specification:'Segoe Script, Normal';font-variant-ligatures:normal;font-variant-caps:normal;font-variant-numeric:normal;font-variant-east-asian:normal;white-space:pre;fill:#faec55;fill-opacity:1;stroke:none;stroke-opacity:1">l</tspan></tspan></text>
    <text
       xml:space="preserve"
       id="text2259"
       style="font-style:normal;font-variant:normal;font-weight:normal;font-stretch:normal;font-size:192px;line-height:1.25;font-family:'Segoe Script';-inkscape-font-specification:'Segoe Script, Normal';font-variant-ligatures:normal;font-variant-caps:normal;font-variant-numeric:normal;font-variant-east-asian:normal;white-space:pre;shape-inside:url(#rect2261);fill:#faec55;fill-opacity:1;stroke:none;stroke-opacity:1;"
       transform="matrix(-0.84090291,-0.54118601,-0.54118601,0.84090291,876.37465,411.41038)"><tspan
         x="773.34961"
         y="183.32679"><tspan
           style="font-style:normal;font-variant:normal;font-weight:normal;font-stretch:normal;font-size:192px;font-family:'Segoe Script';-inkscape-font-specification:'Segoe Script, Normal';font-variant-ligatures:normal;font-variant-caps:normal;font-variant-numeric:normal;font-variant-east-asian:normal;white-space:pre;fill:#faec55;fill-opacity:1;stroke:none;stroke-opacity:1">'</tspan></tspan></text>
    <path
       id="Path_1_2_"
       class="st2"
       d="m 64.70536,347.63692 c -0.39202,0.0335 -1.12708,0.11738 -1.64979,0.1845 l -0.93107,0.1007 c 0.24502,3.70682 0.45737,6.05504 0.63705,7.59816 0.17968,1.5431 0.45737,3.63972 0.62071,4.62933 0.16334,1.00636 0.53905,2.9688 0.83307,4.36096 l 0.53905,2.54949 h 4.05098 c 0.45736,-1.82827 0.78407,-3.30428 1.02909,-4.46162 0.22868,-1.15732 0.60437,-3.35458 0.83306,-4.91447 0.22868,-1.54311 0.50636,-3.80745 0.62071,-4.99832 0.11436,-1.20766 0.21236,-2.75078 0.21236,-3.45524 0.0164,-1.24119 0,-1.27475 -0.55538,-1.39216 -0.31036,-0.067 -1.68248,-0.16771 -3.03825,-0.21805 -1.3721,-0.0335 -2.80956,-0.0335 -3.20159,0.0168 z"
       style="fill:#faec55;fill-opacity:1;stroke:none;stroke-width:0.165523;stroke-opacity:1" />
    <path
       style="fill:#faec55;fill-opacity:1;stroke:none;stroke-width:0.165523;stroke-opacity:1"
       d="m 85.793365,355.10089 c -0.457362,0.369 -2.139823,1.72761 -3.756956,3.0359 -1.617132,1.30829 -4.181659,3.57264 -5.684449,5.01511 -1.50279,1.44248 -3.26692,3.18686 -3.90399,3.85778 l -1.15975,1.22442 c 1.2741,1.27475 1.78048,1.87858 1.96016,2.18049 0.17968,0.30192 0.42469,0.53673 0.57171,0.53673 0.14702,0 1.42112,-0.53673 2.82589,-1.20765 1.42111,-0.65415 3.544609,-1.69407 4.737036,-2.29789 1.192428,-0.60383 4.018331,-2.18048 6.272498,-3.52232 2.270511,-1.34185 4.296005,-2.54949 4.524693,-2.70045 0.294032,-0.20128 0.359361,-0.36901 0.245017,-0.60383 -0.098,-0.18449 -0.555377,-0.82186 -1.012739,-1.40892 -0.457377,-0.58706 -1.257772,-1.54312 -1.764134,-2.09662 -0.506377,-0.55351 -1.355772,-1.39216 -1.862149,-1.8618 -0.506377,-0.46963 -0.996411,-0.85541 -1.045426,-0.85541 -0.06529,0.0503 -0.490034,0.33546 -0.947411,0.70446 z"
       id="path15671" />
    <path
       style="fill:#faec55;fill-opacity:1;stroke:none;stroke-width:0.165523;stroke-opacity:1"
       d="m 45.26716,355.73827 c -0.86572,0.82186 -2.13982,2.23079 -2.80956,3.10298 -0.66971,0.8722 -1.22509,1.69407 -1.22509,1.81148 0,0.13421 0.99642,0.85542 2.20517,1.61021 1.20877,0.75477 3.41394,2.07984 4.88406,2.93525 1.47011,0.83866 4.06731,2.23082 5.76612,3.08623 1.6988,0.85542 3.65895,1.81149 4.37767,2.1134 0.71874,0.3019 1.32312,0.5535 1.35579,0.51995 0.0327,-0.0168 0.27767,-0.33546 0.53903,-0.68769 0.26136,-0.35222 0.81674,-0.93928 1.2251,-1.30829 l 0.73507,-0.67092 c -0.83308,-0.9225 -1.74781,-1.89534 -2.56454,-2.75076 -0.81674,-0.85541 -2.71155,-2.68367 -4.19801,-4.07582 -1.48644,-1.39215 -3.98564,-3.55587 -5.55377,-4.81384 -1.56812,-1.25797 -2.92389,-2.31466 -3.00556,-2.34821 -0.0653,0 -0.8494,0.65415 -1.73148,1.47603 z"
       id="Path_3_2_" />
    <path
       style="fill:#faec55;fill-opacity:1;stroke:none;stroke-width:0.165523;stroke-opacity:1"
       d="m 70.4715,379.37139 c -0.50638,0.3019 -1.24145,0.58704 -1.61714,0.67091 -0.66972,0.13421 -0.68605,0.15095 -0.55537,0.85542 0.0653,0.40254 0.55537,2.07984 1.07808,3.72359 0.5227,1.64376 1.45379,4.31065 2.07451,5.90408 0.6207,1.59342 1.66613,4.05905 2.30317,5.45121 0.65339,1.42569 1.30677,2.56626 1.47011,2.59981 0.16335,0.0335 1.35577,-0.31869 2.66255,-0.77156 1.306782,-0.45288 3.087245,-1.22442 3.969312,-1.69407 0.882066,-0.46964 1.600803,-0.93929 1.600803,-1.03993 0,-0.10069 -0.94741,-1.66051 -2.090837,-3.45521 -1.143427,-1.79472 -2.956558,-4.46162 -4.034648,-5.90408 -1.07809,-1.44247 -2.76056,-3.60619 -3.7243,-4.78029 -0.98008,-1.17412 -1.86214,-2.13016 -1.99282,-2.11339 -0.13071,0 -0.63706,0.25159 -1.14342,0.55351 z"
       id="path15657" />
    <path
       style="fill:#faec55;fill-opacity:1;stroke:none;stroke-width:0.165523;stroke-opacity:1"
       d="m 61.11175,379.40489 c -0.37569,0.41932 -1.3231,1.5431 -2.1235,2.48239 -0.78406,0.95607 -2.31952,2.9185 -3.39761,4.36096 -1.07808,1.44249 -2.80955,3.94165 -3.83862,5.55185 -1.02909,1.59343 -1.84582,3.01914 -1.8295,3.17009 0.0327,0.13421 0.88209,0.6877 1.91117,1.22442 1.01274,0.53674 2.80954,1.3083 3.9693,1.69408 1.15976,0.40255 2.17251,0.72122 2.27053,0.738 0.098,0.0168 0.31034,-0.30192 0.49003,-0.68768 0.19602,-0.38578 0.86574,-1.82826 1.51912,-3.23719 0.65339,-1.40893 1.63346,-3.74037 2.18883,-5.18284 0.55538,-1.44248 1.48646,-4.07583 2.04184,-5.82021 0.55538,-1.74439 1.01274,-3.2875 1.01274,-3.40492 0,-0.11738 -0.29402,-0.26835 -0.66972,-0.31867 -0.37569,-0.0503 -1.15976,-0.36901 -1.76413,-0.72124 l -1.09443,-0.63738 z"
       id="path15655" />
    <path
       style="fill:#faec55;fill-opacity:1;stroke:none;stroke-width:0.165523;stroke-opacity:1"
       d="m 74.29379,373.80272 c -0.0653,0.15096 -0.11435,0.48642 -0.11435,0.72124 0,0.2516 -0.17968,0.85541 -0.40837,1.3586 l -0.40837,0.90575 c 3.26693,1.35861 5.521117,2.21402 7.105578,2.78431 1.584446,0.55351 4.083645,1.37537 5.553761,1.82824 1.470116,0.45288 3.887643,1.10702 5.357759,1.4928 1.470117,0.369 2.727888,0.60383 2.80956,0.51996 0.06529,-0.0839 0.326689,-0.68769 0.555378,-1.34183 0.245017,-0.65415 0.620706,-1.87858 0.833066,-2.734 0.228688,-0.85542 0.473691,-2.04629 0.571706,-2.66689 0.147016,-1.02315 0.130716,-1.12378 -0.245017,-1.22442 -0.228688,-0.0672 -1.470116,-0.26838 -2.776888,-0.46965 -1.306771,-0.20127 -3.80597,-0.51996 -5.553775,-0.72124 -1.747806,-0.20127 -4.443021,-0.45287 -5.962138,-0.55351 -1.535445,-0.10069 -3.7733,-0.1845 -4.96573,-0.1845 -1.7968,0.0168 -2.25416,0.067 -2.35218,0.28514 z"
       id="path15653" />
    <path
       style="fill:#faec55;fill-opacity:1;stroke:none;stroke-width:0.165523;stroke-opacity:1"
       d="m 52.8791,373.55112 c -1.58446,0.0839 -4.31235,0.28515 -6.07648,0.4361 -1.74781,0.16773 -4.55737,0.50319 -6.2235,0.73802 -1.66613,0.23481 -3.08725,0.43608 -3.13625,0.43608 -0.0491,0 -0.098,0.26838 -0.098,0.58707 0,0.31868 0.147,1.3586 0.32669,2.31467 0.17967,0.95605 0.60438,2.49917 0.94741,3.45522 0.34302,0.95606 0.63705,1.74438 0.65338,1.77794 0.0164,0.0335 1.81315,-0.40256 3.98566,-0.95607 2.17249,-0.55351 5.47209,-1.4928 7.30158,-2.07984 1.84581,-0.58705 4.41035,-1.4928 5.71711,-1.97922 1.30677,-0.50319 2.69521,-1.03991 3.08724,-1.20764 l 0.71873,-0.31869 c -0.53904,-1.30828 -0.71873,-2.07984 -0.7514,-2.54949 l -0.0653,-0.85542 c -2.72789,0.0335 -4.81873,0.11738 -6.38685,0.20127 z"
       id="Path_5_2_" />
    <path
       style="fill:#f4b5ca;fill-opacity:1;stroke:none;stroke-width:0.165523;stroke-opacity:1"
       d="m 115.44072,400.75691 -0.62072,0.46963 c 0.60438,1.44248 1.29044,2.8514 1.89482,4.05906 0.60438,1.20765 1.73148,3.15332 2.48286,4.32742 0.76773,1.1741 1.48646,2.13016 1.6008,2.13016 0.11436,0 0.75138,-0.26836 1.4211,-0.58704 0.66974,-0.31869 1.78048,-1.03993 2.46653,-1.61022 l 1.25777,-1.02314 c -1.58445,-1.66053 -2.9729,-2.95204 -4.11633,-3.95842 -1.12708,-1.00638 -2.82589,-2.36498 -3.75696,-3.05268 -0.93108,-0.67092 -1.76413,-1.22442 -1.8458,-1.22442 -0.098,-0.0168 -0.45738,0.20128 -0.78407,0.46965 z"
       id="path15667" />
    <path
       style="fill:#f4b5ca;fill-opacity:1;stroke:none;stroke-width:0.165523;stroke-opacity:1"
       d="m 110.45865,401.41104 c -0.88206,0.6206 -2.67887,2.07986 -3.96931,3.23718 -1.30677,1.14057 -2.74422,2.49917 -3.18525,2.98559 l -0.81673,0.88897 c 1.94383,1.57665 3.10358,2.31467 3.8223,2.65013 l 1.3231,0.62059 c 0.63705,-0.738 1.37212,-1.82825 2.05817,-2.90172 0.68605,-1.07346 1.71513,-2.95203 2.28685,-4.14292 0.58804,-1.20766 1.17609,-2.48239 1.33943,-2.8514 0.27769,-0.63737 0.26136,-0.67092 -0.32669,-1.12378 -0.34303,-0.25161 -0.68605,-0.46964 -0.75139,-0.46964 -0.11436,-0.0335 -0.89841,0.46964 -1.78048,1.107 z"
       id="path15665" />
    <path
       style="fill:#f4b5ca;fill-opacity:1;stroke:none;stroke-width:0.165523;stroke-opacity:1"
       d="m 124.80045,393.32649 c -1.4211,0.57027 -3.77328,1.67729 -5.2434,2.46561 -1.47011,0.77156 -2.84223,1.52635 -3.03824,1.67731 -0.31037,0.23482 -0.32669,0.35223 -0.098,1.00638 l 0.26134,0.75477 c 3.03825,-0.1845 4.70438,-0.31869 5.66812,-0.41932 0.96374,-0.1007 2.72787,-0.35224 3.90397,-0.5535 1.19243,-0.20128 2.51555,-0.45287 2.92389,-0.53674 0.75141,-0.16773 0.76774,-0.1845 0.65339,-0.85542 -0.0653,-0.36901 -0.26136,-1.14057 -0.44103,-1.67729 -0.17969,-0.53674 -0.53903,-1.42571 -0.80039,-1.96243 -0.32669,-0.63738 -0.62072,-0.95607 -0.84941,-0.95607 -0.21235,0 -1.51912,0.46965 -2.94023,1.0567 z"
       id="path15663" />
    <path
       style="fill:#f4b5ca;fill-opacity:1;stroke:none;stroke-width:0.165523;stroke-opacity:1"
       d="m 99.808478,393.2258 c -0.261346,0.51995 -0.620722,1.40892 -0.800395,1.96243 -0.179673,0.55351 -0.37569,1.30829 -0.441033,1.67729 -0.114359,0.67092 -0.098,0.6877 0.653378,0.85543 0.424705,0.10069 1.747802,0.33546 2.923902,0.53673 1.19243,0.20127 2.90756,0.45286 3.80597,0.5535 0.8984,0.10069 2.58087,0.23482 3.70796,0.30192 l 2.05816,0.11738 c 0.49005,-1.40892 0.47371,-1.52633 0.14702,-1.76116 -0.19602,-0.15095 -1.56813,-0.90574 -3.03825,-1.6773 -1.47012,-0.77155 -3.85497,-1.89534 -5.29241,-2.46561 -1.43745,-0.57028 -2.76056,-1.0567 -2.94024,-1.0567 -0.16334,0 -0.50637,0.40255 -0.784062,0.95606 z"
       id="path15661" />
    <path
       style="fill:#f4b5ca;fill-opacity:1;stroke:none;stroke-width:0.165523;stroke-opacity:1"
       d="m 111.32439,385.2922 c -0.24502,0.0503 -0.39203,0.21804 -0.35936,0.38578 0.0327,0.16771 0.19602,1.37537 0.35936,2.66688 0.17969,1.3083 0.53905,3.30427 0.80039,4.46161 0.27769,1.15733 0.63705,2.56627 0.81674,3.13653 l 0.32669,1.03993 h 1.84582 c 0.45736,-1.47601 0.78405,-2.65012 1.01274,-3.53908 0.22869,-0.88897 0.53905,-2.49917 0.71873,-3.5391 0.16334,-1.0567 0.35936,-2.48239 0.44103,-3.18686 0.13071,-1.22442 0.11436,-1.27475 -0.34302,-1.40892 -0.26136,-0.067 -1.53546,-0.13421 -2.84223,-0.11739 -1.30677,0.0168 -2.56454,0.067 -2.77689,0.1007 z"
       id="Path_6_2_" />
    <path
       style="fill:#f49f5c;fill-opacity:1;stroke:none;stroke-width:0.165523;stroke-opacity:1"
       d="m 66.66552,453.28972 c -0.19601,0.90574 -0.55537,2.95204 -0.83306,4.54546 -0.27769,1.59343 -0.68605,4.51192 -0.91474,6.45759 -0.22869,1.94566 -0.53905,5.4512 -0.66972,7.76588 -0.147,2.31466 -0.21235,4.26032 -0.16335,4.31064 0.0491,0.0504 1.30677,0.1845 2.77689,0.28514 1.47012,0.1007 3.41394,0.15096 4.32868,0.0839 0.91474,-0.067 2.25417,-0.15096 2.98923,-0.20128 l 1.33944,-0.10069 c -0.24501,-5.24994 -0.45737,-8.21875 -0.62072,-9.96313 -0.16334,-1.7444 -0.49003,-4.49515 -0.71872,-6.08859 -0.22869,-1.59342 -0.65339,-4.22677 -0.94741,-5.82021 l -0.53903,-2.90172 h -5.68445 z"
       id="path15649" />
    <path
       style="fill:#f49f5c;fill-opacity:1;stroke:none;stroke-width:0.165523;stroke-opacity:1"
       d="m 77.75673,448.97907 c -0.5717,0.46963 -1.55179,1.09024 -2.15616,1.39215 -0.62072,0.28514 -1.14343,0.55351 -1.1761,0.58706 -0.0327,0.0335 0.88206,1.72761 2.02549,3.74036 1.14343,2.02953 2.678889,4.62934 3.413939,5.76989 0.735066,1.14056 1.943822,2.98559 2.678873,4.0926 0.735065,1.10702 2.352198,3.37136 3.577297,5.04867 1.225085,1.67729 2.352183,3.0359 2.482856,3.0359 0.147016,0 0.996411,-0.40255 1.91115,-0.88897 0.89841,-0.48642 2.433855,-1.40893 3.397609,-2.04629 0.963739,-0.63738 2.237839,-1.5599 2.842217,-2.06309 l 1.094426,-0.90574 c -2.613543,-2.95203 -4.312348,-4.79706 -5.45576,-6.00471 -1.143427,-1.20766 -2.907575,-3.00236 -3.920315,-4.00873 -1.012754,-1.00638 -3.560954,-3.35459 -5.66812,-5.23316 -2.090823,-1.87858 -3.854971,-3.40491 -3.9203,-3.40491 -0.03272,0.0168 -0.555392,0.41933 -1.127102,0.88897 z"
       id="path15647" />
    <path
       style="fill:#f49f5c;fill-opacity:1;stroke:none;stroke-width:0.165523;stroke-opacity:1"
       d="m 56.61973,451.61243 c -2.17251,1.92888 -5.32509,4.89769 -7.00757,6.59176 -1.68246,1.69406 -3.95297,4.07583 -5.04738,5.2667 -1.09443,1.20765 -2.17251,2.41531 -2.38487,2.68368 l -0.40836,0.50319 c 0.80039,0.738 1.96015,1.59342 3.08725,2.39853 1.12708,0.78832 2.9729,1.94566 4.08366,2.56626 1.17608,0.65415 2.09082,1.03993 2.15616,0.93929 0.0816,-0.1007 1.20876,-1.61021 2.51555,-3.37137 1.30675,-1.74439 3.2669,-4.49514 4.345,-6.08858 1.07808,-1.59343 2.69522,-4.14292 3.60994,-5.63572 0.91475,-1.50956 2.09084,-3.50555 2.61356,-4.4616 0.52269,-0.95606 0.94739,-1.82824 0.94739,-1.96243 0,-0.13421 -0.53903,-0.48642 -1.19242,-0.8051 -0.65338,-0.31869 -1.60079,-0.92252 -2.10717,-1.35861 -0.50638,-0.43609 -0.99641,-0.78833 -1.09441,-0.78833 -0.098,0.0168 -1.94382,1.59343 -4.11633,3.52233 z"
       id="path15645" />
    <path
       style="fill:#f49f5c;fill-opacity:1;stroke:none;stroke-width:0.165523;stroke-opacity:1"
       d="m 81.70972,442.3202 c -0.04907,0.13422 -0.196016,0.6877 -0.310361,1.24121 -0.130716,0.5535 -0.490048,1.49279 -0.816737,2.09661 l -0.58805,1.09024 c 1.306772,0.67092 3.691641,1.74439 6.125497,2.81785 2.433855,1.09025 5.684449,2.44887 7.203565,3.05268 1.519117,0.60383 4.312334,1.61022 6.174483,2.26435 1.862153,0.65415 4.067333,1.39216 4.884053,1.66053 l 1.48646,0.46963 c 1.07808,-2.04629 1.66613,-3.33781 2.00917,-4.17646 0.34301,-0.85542 0.83305,-2.31466 1.07808,-3.27073 0.26135,-0.95606 0.42469,-1.84502 0.35936,-1.99597 -0.0653,-0.16773 -1.35579,-0.58705 -3.57728,-1.12378 -1.91117,-0.46965 -4.39402,-1.0567 -5.53745,-1.3083 -1.127083,-0.2516 -3.871299,-0.77155 -6.076481,-1.1741 -2.205167,-0.40255 -5.586448,-0.93929 -7.513926,-1.19088 -1.927493,-0.2516 -3.789628,-0.51997 -4.165332,-0.57029 -0.42469,-0.0839 -0.669722,-0.0335 -0.735051,0.11739 z"
       id="path15643" />
    <path
       style="fill:#f49f5c;fill-opacity:1;stroke:none;stroke-width:0.165523;stroke-opacity:1"
       d="m 53.59782,442.5718 c -1.7478,0.23482 -4.90038,0.72124 -6.99122,1.09025 -2.09083,0.35222 -5.5211,1.02314 -7.61194,1.45924 -2.09082,0.45287 -4.81871,1.0567 -6.07648,1.37537 -1.24143,0.30192 -2.35218,0.63738 -2.46653,0.72124 -0.13071,0.11739 -0.11436,0.58706 0.0653,1.39215 0.14701,0.67094 0.60438,2.16372 0.99641,3.32105 0.39203,1.15734 1.06175,2.73399 1.47012,3.50555 0.40836,0.77156 0.78406,1.40894 0.80039,1.40894 0.0327,0 1.6008,-0.5032 3.49561,-1.1238 1.89482,-0.60383 5.39043,-1.84502 7.77529,-2.73399 2.38485,-0.88897 6.45217,-2.56626 9.04938,-3.7236 2.5972,-1.14055 4.91671,-2.21403 5.1454,-2.34821 0.40838,-0.25158 0.40838,-0.26837 -0.17967,-1.39215 -0.32671,-0.6206 -0.7024,-1.62698 -0.83307,-2.2308 -0.22869,-1.02316 -0.27769,-1.09025 -0.84941,-1.12379 -0.34302,-0.0168 -2.04182,0.15095 -3.78963,0.40255 z"
       id="path15641" />
    <path
       style="fill:#f49f5c;fill-opacity:1;stroke:none;stroke-width:0.165523;stroke-opacity:1"
       d="m 101.94832,426.88909 c -1.86215,0.62061 -4.737043,1.64376 -6.386847,2.24758 -1.649789,0.60383 -4.50835,1.72762 -6.386827,2.49916 -1.86215,0.77156 -4.639038,1.99598 -6.158154,2.70045 -1.519132,0.72124 -2.793231,1.35862 -2.825903,1.42571 -0.04907,0.067 0.163359,0.60381 0.457376,1.17411 0.294018,0.57027 0.669722,1.57665 0.833067,2.23079 0.163344,0.65415 0.31036,1.19088 0.343032,1.20766 0.03272,0.0168 1.584461,-0.16773 3.446595,-0.40256 1.86215,-0.23482 4.933055,-0.68769 6.795204,-0.98961 1.862149,-0.3019 5.014742,-0.88895 6.99122,-1.29151 1.976497,-0.40255 4.949397,-1.07346 6.582857,-1.47601 1.64981,-0.40255 3.18525,-0.75479 3.44661,-0.80511 0.39203,-0.0503 0.44104,-0.15095 0.34303,-0.57028 -0.0653,-0.26837 -0.34303,-1.32506 -0.62072,-2.31466 -0.27769,-1.00639 -0.75139,-2.43208 -1.04541,-3.18687 -0.29403,-0.75477 -0.80041,-1.87856 -1.11077,-2.49917 -0.40836,-0.77154 -0.70238,-1.14055 -0.94739,-1.12378 -0.19602,0.0335 -1.8785,0.55351 -3.75697,1.1741 z"
       id="path15639" />
    <path
       style="fill:#f49f5c;fill-opacity:1;stroke:none;stroke-width:0.165523;stroke-opacity:1"
       d="m 33.42456,426.05045 c -0.14702,0.26836 -0.62072,1.32506 -1.06176,2.31467 -0.44103,1.00637 -1.07808,2.76754 -1.4211,3.90809 -0.34303,1.15734 -0.62072,2.28112 -0.60439,2.49917 0,0.36901 0.31036,0.48642 3.75697,1.3083 2.07449,0.50317 4.91672,1.15732 6.3215,1.44246 1.42111,0.30192 3.96931,0.78834 5.66812,1.09025 1.6988,0.30192 4.85138,0.80509 6.99122,1.10701 2.15616,0.30191 4.16533,0.55351 4.47568,0.55351 0.49004,0 0.57172,-0.067 0.57172,-0.53674 0,-0.30191 0.19601,-1.05669 0.42469,-1.67729 0.22868,-0.6206 0.60439,-1.40893 0.81673,-1.72761 l 0.39204,-0.58706 c -2.31951,-1.12379 -4.83506,-2.26434 -7.10557,-3.25395 -2.27051,-0.9896 -5.78246,-2.43208 -7.82428,-3.20362 -2.04183,-0.77156 -5.25975,-1.9289 -7.15457,-2.56628 -1.89482,-0.63737 -3.57728,-1.15732 -3.7243,-1.15732 -0.147,-0.0168 -0.37569,0.21805 -0.5227,0.48641 z"
       id="path15637" />
    <path
       style="fill:#f49f5c;fill-opacity:1;stroke:none;stroke-width:0.165523;stroke-opacity:1"
       d="m 86.773447,412.31341 c -1.012754,1.32505 -2.711544,3.67328 -3.789627,5.23316 -1.078084,1.55987 -2.695216,4.00872 -3.609954,5.45121 -0.914736,1.45924 -2.352186,3.89131 -3.217926,5.41766 -0.86573,1.52633 -1.56811,2.90171 -1.56811,3.05268 0,0.15094 0.098,0.26835 0.21234,0.26835 0.11436,0 0.68605,0.26837 1.29043,0.60383 0.58805,0.33546 1.50279,0.95607 2.00917,1.37539 l 0.931063,0.77155 c 6.860548,-6.15567 10.062126,-9.15803 11.532242,-10.65081 1.470116,-1.4928 3.70797,-3.85779 4.98207,-5.2835 1.274099,-1.40892 2.319511,-2.65011 2.319511,-2.75075 0,-0.10069 -0.718722,-0.73801 -1.600789,-1.4257 -0.882067,-0.68768 -2.85856,-1.97921 -4.377677,-2.86818 -1.53546,-0.88896 -2.891232,-1.62697 -3.021905,-1.62697 -0.147016,0.0335 -1.078083,1.10701 -2.090838,2.43208 z"
       id="path15635" />
    <path
       style="fill:#f49f5c;fill-opacity:1;stroke:none;stroke-width:0.165523;stroke-opacity:1"
       d="m 49.57951,410.50193 c -0.78407,0.41933 -2.04183,1.14055 -2.77689,1.57665 -0.73505,0.4361 -2.15617,1.40894 -3.13625,2.13017 -1.48646,1.09024 -1.76415,1.37538 -1.61713,1.64375 0.098,0.16772 1.19243,1.4257 2.4012,2.76754 1.20875,1.34183 3.33226,3.60618 4.72071,4.99834 1.3721,1.39215 3.78962,3.74036 5.37408,5.1996 1.56812,1.45925 3.62629,3.27073 4.55737,4.04229 l 1.69879,1.39214 c 1.99282,-1.44246 3.00557,-2.06307 3.54461,-2.29789 0.86574,-0.38578 0.96375,-0.46963 0.80041,-0.83865 -0.098,-0.21804 -0.89841,-1.67729 -1.78048,-3.23717 -0.88207,-1.55989 -2.33585,-4.00874 -3.25059,-5.45121 -0.91474,-1.45924 -2.30318,-3.57264 -3.07091,-4.72997 -0.76773,-1.15734 -2.41752,-3.42168 -3.62628,-5.04865 -1.20877,-1.62699 -2.23785,-2.95204 -2.3032,-2.95204 -0.0491,0.0335 -0.75138,0.38578 -1.53544,0.8051 z"
       id="path15633" />
    <path
       style="fill:#f49f5c;fill-opacity:1;stroke:none;stroke-width:0.165523;stroke-opacity:1"
       d="m 65.9468,405.83906 c -0.39203,0.0503 -0.93108,0.11738 -1.19242,0.16773 l -0.47371,0.10055 c 0.17967,5.13252 0.37569,8.05102 0.53903,9.79541 0.16336,1.74439 0.49005,4.49515 0.71874,6.08857 0.22867,1.59343 0.65338,4.2268 0.9474,5.82022 0.29403,1.59343 0.58805,2.96881 0.66972,3.03591 0.0816,0.067 0.73506,0.0503 1.47011,-0.0335 0.8004,-0.1007 1.87848,-0.1007 2.67889,0 0.73505,0.0839 1.35577,0.15097 1.3721,0.13421 0.0164,-0.0168 0.31036,-1.50957 0.66972,-3.30427 0.34304,-1.79471 0.81674,-4.57902 1.04543,-6.18923 0.22867,-1.59342 0.55536,-4.34419 0.71871,-6.08857 0.16336,-1.74439 0.3757,-4.52869 0.45737,-6.18922 0.13072,-2.8514 0.11436,-3.00236 -0.26136,-3.15331 -0.21234,-0.0839 -2.25416,-0.1845 -4.50835,-0.21804 -2.28683,-0.0168 -4.45934,-0.0168 -4.85138,0.0335 z"
       id="Path_7_2_" />
    <text
       xml:space="preserve"
       id="text2323-9-7-4"
       style="font-style:normal;font-variant:normal;font-weight:bold;font-stretch:normal;font-size:143.637px;line-height:1.25;font-family:'Segoe Script';-inkscape-font-specification:'Segoe Script, Bold';font-variant-ligatures:normal;font-variant-caps:normal;font-variant-numeric:normal;font-variant-east-asian:normal;white-space:pre;shape-inside:url(#rect2325-3-3-9);fill:#f49f5c;fill-opacity:1;stroke:none;stroke-opacity:1;"
       transform="matrix(1.0634251,0,0,1.1397175,70.76,-198.76467)"><tspan
         x="77.121094"
         y="489.96609"><tspan
           style="font-style:normal;font-variant:normal;font-weight:bold;font-stretch:normal;font-size:143.637px;font-family:'Segoe Script';-inkscape-font-specification:'Segoe Script, Bold';font-variant-ligatures:normal;font-variant-caps:normal;font-variant-numeric:normal;font-variant-east-asian:normal;white-space:pre;fill:#f49f5c;fill-opacity:1;stroke:none;stroke-opacity:1">Num</tspan></tspan></text>
    <text
       xml:space="preserve"
       id="text2323-9-8-3"
       style="font-style:normal;font-variant:normal;font-weight:bold;font-stretch:normal;font-size:99.2755px;line-height:1.25;font-family:'Segoe Script';-inkscape-font-specification:'Segoe Script, Bold';font-variant-ligatures:normal;font-variant-caps:normal;font-variant-numeric:normal;font-variant-east-asian:normal;white-space:pre;shape-inside:url(#rect2325-3-5-2);fill:#faec55;fill-opacity:1;stroke:none;stroke-opacity:1;"
       transform="matrix(1.6456303,0,0,1.5262465,16.57112,-198.55313)"><tspan
         x="77.121094"
         y="450.89748"><tspan
           style="font-style:normal;font-variant:normal;font-weight:bold;font-stretch:normal;font-size:99.2755px;font-family:'Segoe Script';-inkscape-font-specification:'Segoe Script, Bold';font-variant-ligatures:normal;font-variant-caps:normal;font-variant-numeric:normal;font-variant-east-asian:normal;white-space:pre;fill:#faec55;fill-opacity:1;stroke:none;stroke-opacity:1">&amp;</tspan></tspan></text>
    <text
       xml:space="preserve"
       id="text2323-9-84"
       style="font-style:normal;font-variant:normal;font-weight:bold;font-stretch:normal;font-size:121.608px;line-height:1.25;font-family:'Segoe Script';-inkscape-font-specification:'Segoe Script, Bold';font-variant-ligatures:normal;font-variant-caps:normal;font-variant-numeric:normal;font-variant-east-asian:normal;white-space:pre;shape-inside:url(#rect2325-3-0);fill:#f4b5ca;fill-opacity:1;stroke:none;stroke-opacity:1;"
       transform="matrix(1.3020411,0,0,1.2855517,182.03912,-115.37557)"><tspan
         x="77.121094"
         y="470.56544"><tspan
           style="font-style:normal;font-variant:normal;font-weight:bold;font-stretch:normal;font-size:121.608px;font-family:'Segoe Script';-inkscape-font-specification:'Segoe Script, Bold';font-variant-ligatures:normal;font-variant-caps:normal;font-variant-numeric:normal;font-variant-east-asian:normal;white-space:pre;fill:#f4b5ca;fill-opacity:1;stroke:none;stroke-opacity:1">Rik</tspan></tspan></text>
    <path
       id="Path 2"
       style="mix-blend-mode:normal;fill:#536c18;fill-opacity:1;stroke:none;stroke-width:0;stroke-miterlimit:4;stroke-dasharray:none;stroke-opacity:1"
       d="m 181.12695,114.67969 c -26.1969,0 -27.01371,0.0175 -27.1289,0.31445 -0.0666,0.17279 -7.25416,23.52053 -15.97266,51.88086 l -15.85156,51.56641 c 18.46112,0.0684 23.08272,0.0188 23.13672,-0.082 0.0486,-0.0918 1.38488,-5.31513 2.96875,-11.60743 l 2.88086,-11.43945 32.30664,0.002 c 0.54716,2.16163 1.86266,7.38687 3.27734,13.00782 l 2.57227,10.2207 23.48828,-0.0117 c -0.16379,-0.76674 -7.17177,-23.74964 -15.67969,-51.56641 -8.50972,-27.81678 -15.58858,-50.95992 -15.73438,-51.42968 z m 43.01758,0 v 51.92578 51.92578 h 22.31641 v -35.45703 c 12.34522,0 16.82124,-0.083 17.91015,-0.18555 1.08891,-0.10259 2.78938,-0.30553 3.7793,-0.45312 0.98992,-0.14759 2.72983,-0.47489 3.86914,-0.73047 1.13931,-0.25378 3.16451,-0.82693 4.5,-1.27149 1.33549,-0.44457 3.32124,-1.23164 4.41016,-1.75 1.08891,-0.52016 2.66922,-1.37467 3.50976,-1.89843 0.84053,-0.52376 2.01543,-1.32799 2.60938,-1.78516 0.59395,-0.45896 1.67761,-1.399 2.41015,-2.09375 0.73074,-0.69294 1.78821,-1.82853 2.35157,-2.52148 0.56335,-0.69294 1.34817,-1.7459 1.74414,-2.33985 0.39597,-0.59395 1.04996,-1.68635 1.45312,-2.42969 0.40137,-0.74154 1.01817,-2.07782 1.36914,-2.96875 0.35098,-0.89093 0.852,-2.3493 1.10938,-3.24023 0.25918,-0.89093 0.62157,-2.5107 0.81055,-3.59961 0.18718,-1.08891 0.43317,-3.2755 0.54296,-4.85937 0.14219,-2.06804 0.14465,-3.64163 0.006,-5.58008 -0.10439,-1.48488 -0.30297,-3.34674 -0.44336,-4.13867 -0.13859,-0.79194 -0.41755,-2.08893 -0.61914,-2.88086 -0.19978,-0.79194 -0.58112,-2.04573 -0.8457,-2.78907 -0.26458,-0.74154 -0.93424,-2.24116 -1.49219,-3.33007 -0.55616,-1.08892 -1.44982,-2.58674 -1.98437,-3.33008 -0.53456,-0.74154 -1.42627,-1.86615 -1.98242,-2.4961 -0.55436,-0.63175 -1.65924,-1.69373 -2.45118,-2.36328 -0.79193,-0.66775 -2.12822,-1.67688 -2.96875,-2.24023 -0.84054,-0.56516 -2.58225,-1.54419 -3.86914,-2.17774 -1.2869,-0.63355 -3.55613,-1.54935 -5.04101,-2.03711 -1.48488,-0.48776 -3.63022,-1.09372 -4.76953,-1.3457 -1.13931,-0.25378 -3.20396,-0.62233 -4.58985,-0.82031 -1.38589,-0.19798 -3.61373,-0.44638 -4.94922,-0.55078 -1.47229,-0.11339 -9.57618,-0.1875 -20.5625,-0.1875 z m 134.71875,0 c -26.2689,0 -27.07392,0.0175 -27.16211,0.31445 -0.0504,0.17279 -7.18541,23.39859 -15.85351,51.61133 -8.66811,28.21275 -15.79891,51.43854 -15.84571,51.61133 -0.0792,0.29697 0.55354,0.3143 11.48047,0.3125 h 11.5625 c 4.30346,-17.08603 5.62018,-22.30868 5.70117,-22.63086 l 0.14844,-0.58399 h 32.30859 l 5.78126,23.12696 c 21.2149,0.081 23.63226,0.0434 23.58007,-0.13477 -0.036,-0.12419 -7.18606,-23.48985 -15.88476,-51.92578 z m 48.875,0 -0.0566,46.66211 c -0.0504,44.09107 -0.0711,46.76532 -0.37891,48.55078 -0.17999,1.03852 -0.52639,2.57939 -0.76757,3.41992 -0.24298,0.84053 -0.70532,2.09612 -1.0293,2.78906 -0.32397,0.69295 -0.86054,1.6652 -1.19531,2.16016 -0.33477,0.49496 -0.97597,1.33639 -1.42774,1.86914 -0.45176,0.53276 -1.43049,1.45292 -2.17383,2.04687 -0.74154,0.59395 -2.11906,1.53129 -3.05859,2.08204 -0.93952,0.55076 -2.60054,1.39218 -3.68945,1.86914 -1.17891,0.51476 -1.95998,0.95665 -1.92578,1.08984 0.0288,0.12239 1.31464,3.62359 2.85351,7.78125 1.53888,4.15767 2.86883,7.64124 2.95703,7.74023 0.10079,0.11699 1.02749,-0.12866 2.63477,-0.69921 1.36249,-0.48236 3.61216,-1.3566 4.99805,-1.94336 1.38588,-0.58495 3.45233,-1.55284 4.58984,-2.15039 1.13751,-0.59756 2.96187,-1.67234 4.05078,-2.38868 1.08892,-0.71634 2.70868,-1.9108 3.59961,-2.65234 0.89093,-0.74154 2.29059,-2.0733 3.11133,-2.95703 0.82073,-0.88553 2.01309,-2.3376 2.64844,-3.22852 0.63714,-0.89093 1.59887,-2.47125 2.14062,-3.50976 0.54176,-1.03852 1.28096,-2.65828 1.64453,-3.59961 0.36177,-0.94132 0.92844,-2.76193 1.25781,-4.04883 0.32758,-1.2869 0.72443,-3.23139 0.88282,-4.32031 0.15839,-1.08891 0.36554,-3.19481 0.46093,-4.67969 0.1044,-1.60907 0.17594,-20.70175 0.17774,-47.29102 l 0.004,-44.59179 z m 43.1875,1.08008 v 51.38671 51.38477 h 9.17969 v -50.21484 h 48.95508 v 50.21484 h 9.17968 V 115.75977 h -9.17968 v 44.8164 h -48.95508 v -44.8164 z m -204.46484,14.93945 6.3457,0.002 c 4.71922,0.002 6.82869,0.072 8.23438,0.27539 1.04032,0.14938 2.61883,0.47638 3.50976,0.72656 0.89093,0.24839 2.26667,0.76281 3.0586,1.14258 0.79193,0.37977 2.04947,1.17106 2.79101,1.75782 0.74334,0.58495 1.74436,1.58566 2.22852,2.2246 0.48416,0.63895 1.19444,1.80767 1.57421,2.59961 0.38157,0.79194 0.84798,2.04948 1.03516,2.79102 0.18899,0.74334 0.43123,2.07782 0.54102,2.96875 0.10978,0.89093 0.19922,2.22916 0.19922,2.9707 0.002,0.74334 -0.0834,2.19976 -0.19141,3.23828 -0.10799,1.03852 -0.39133,2.65829 -0.62891,3.59961 -0.23758,0.94133 -0.79341,2.43915 -1.23437,3.33008 -0.44097,0.89093 -1.19522,2.10527 -1.67578,2.69922 -0.48236,0.59395 -1.35692,1.47225 -1.94727,1.94922 -0.58856,0.47876 -1.80047,1.22475 -2.6914,1.66211 -0.89094,0.43737 -2.38861,0.98929 -3.32813,1.23047 -0.93953,0.23938 -2.31721,0.52934 -3.06055,0.64453 -0.74154,0.11339 -4.36739,0.26233 -14.75976,0.45312 v -18.13281 z m 98.52148,0.97656 c 0.0169,-0.015 0.029,-0.0111 0.0371,0.0137 0.0306,0.099 2.69669,10.62651 5.92383,23.39649 3.22714,12.76997 5.90422,23.36042 5.94922,23.5332 0.0774,0.29718 -0.57463,0.31549 -23.76758,0.30469 l 5.72266,-22.98828 c 3.14614,-12.64399 5.80998,-23.31107 5.91796,-23.70703 0.081,-0.29698 0.16618,-0.5076 0.2168,-0.55274 z m -177.67578,0.23438 c 0.072,0.17459 2.76444,10.7474 5.98438,23.49218 3.22174,12.74478 5.85546,23.25257 5.85546,23.35157 0,0.11879 -4.08012,0.18164 -11.8789,0.18164 -11.2167,0 -11.87416,-0.0194 -11.81836,-0.31641 0.0324,-0.17278 2.68539,-10.8263 5.89453,-23.67187 3.60152,-14.41865 5.88369,-23.23329 5.96289,-23.03711 z"
       inkscape:export-xdpi="96"
       inkscape:export-ydpi="96" />
  </g>
  <style
     id="style1595"> tspan { white-space:pre } .shp0 { fill: #ffffff } .shp1 { fill: #f7e300 } .shp2 { fill: #536c18 } .shp3 { fill: #f4b5ca } .shp4 { fill: #f49f5c } .shp5 { fill: #757577 } </style>
  <style
     type="text/css"
     id="style2282">
	.st0{fill:#FFFFFF;}
	.st1{fill:#FDEF87;}
	.st2{fill:#FADCE6;}
	.st3{fill:#FFD485;}
</style>
</svg>
