<?xml version="1.0" encoding="UTF-8" standalone="no"?>
<svg
   xmlns:osb="http://www.openswatchbook.org/uri/2009/osb"
   xmlns:dc="http://purl.org/dc/elements/1.1/"
   xmlns:cc="http://creativecommons.org/ns#"
   xmlns:rdf="http://www.w3.org/1999/02/22-rdf-syntax-ns#"
   xmlns:svg="http://www.w3.org/2000/svg"
   xmlns="http://www.w3.org/2000/svg"
   xmlns:sodipodi="http://sodipodi.sourceforge.net/DTD/sodipodi-0.dtd"
   xmlns:inkscape="http://www.inkscape.org/namespaces/inkscape"
   version="1.1"
   id="svg1495"
   width="620"
   height="520"
   viewBox="0 0 620 520"
   sodipodi:docname="page-num2.svg"
   inkscape:version="1.0.2-2 (e86c870879, 2021-01-15)"
   inkscape:export-filename="C:\xampp\htdocs\webapp\public\assets\img\page-num2.png"
   inkscape:export-xdpi="96"
   inkscape:export-ydpi="96">
  <metadata
     id="metadata1501">
    <rdf:RDF>
      <cc:Work
         rdf:about="">
        <dc:format>image/svg+xml</dc:format>
        <dc:type
           rdf:resource="http://purl.org/dc/dcmitype/StillImage" />
        <dc:title></dc:title>
      </cc:Work>
    </rdf:RDF>
  </metadata>
  <defs
     id="defs1499">
    <linearGradient
       id="linearGradient13680"
       osb:paint="solid">
      <stop
         style="stop-color:#faec55;stop-opacity:1;"
         offset="0"
         id="stop13678" />
    </linearGradient>
    <rect
       x="77.120667"
       y="363.46683"
       width="992.57153"
       height="249.214"
       id="rect2325" />
    <rect
       x="773.34888"
       y="14.281604"
       width="194.94389"
       height="287.06024"
       id="rect2261" />
    <rect
       x="-343.4726"
       y="-47.843376"
       width="332.76138"
       height="526.99121"
       id="rect2255" />
    <rect
       x="-296.34329"
       y="-24.278727"
       width="261.35336"
       height="476.2915"
       id="rect2249" />
    <rect
       x="77.120667"
       y="363.46683"
       width="992.57153"
       height="249.214"
       id="rect2325-3" />
    <rect
       x="77.120667"
       y="363.46683"
       width="992.57153"
       height="249.214"
       id="rect2338" />
    <rect
       x="77.120667"
       y="363.46683"
       width="992.57153"
       height="249.214"
       id="rect2325-3-5" />
    <rect
       x="77.120667"
       y="363.46683"
       width="992.57153"
       height="249.214"
       id="rect2374" />
    <rect
       x="77.120667"
       y="363.46683"
       width="992.57153"
       height="249.214"
       id="rect2325-3-3" />
    <rect
       x="77.120667"
       y="363.46683"
       width="992.57153"
       height="249.214"
       id="rect2374-3" />
    <rect
       x="77.120667"
       y="363.46683"
       width="992.57153"
       height="249.214"
       id="rect2325-3-0" />
    <rect
       x="77.120667"
       y="363.46683"
       width="992.57153"
       height="249.214"
       id="rect12694" />
    <rect
       x="77.120667"
       y="363.46683"
       width="992.57153"
       height="249.214"
       id="rect2325-3-5-2" />
    <rect
       x="77.120667"
       y="363.46683"
       width="992.57153"
       height="249.214"
       id="rect12697" />
    <rect
       x="77.120667"
       y="363.46683"
       width="992.57153"
       height="249.214"
       id="rect2325-3-3-9" />
    <rect
       x="77.120667"
       y="363.46683"
       width="992.57153"
       height="249.214"
       id="rect12700" />
  </defs>
  <sodipodi:namedview
     pagecolor="#ffffff"
     bordercolor="#666666"
     borderopacity="1"
     objecttolerance="10"
     gridtolerance="10"
     guidetolerance="10"
     inkscape:pageopacity="0"
     inkscape:pageshadow="2"
     inkscape:window-width="2400"
     inkscape:window-height="1271"
     id="namedview1497"
     showgrid="false"
     showborder="true"
     inkscape:pagecheckerboard="true"
     inkscape:zoom="0.70020145"
     inkscape:cx="-35.900907"
     inkscape:cy="365.8639"
     inkscape:window-x="-9"
     inkscape:window-y="-9"
     inkscape:window-maximized="1"
     inkscape:current-layer="g12772"
     inkscape:document-rotation="0" />
  <g
     inkscape:groupmode="layer"
     inkscape:label="Image"
     id="g1503">
    <text
       xml:space="preserve"
       id="text2247"
       style="font-style:normal;font-weight:normal;font-size:40px;line-height:1.25;font-family:sans-serif;white-space:pre;shape-inside:url(#rect2249);fill:#000000;fill-opacity:1;stroke:none;" />
    <g
       id="g12772"
       transform="translate(178.52005,-22.850567)">
      <g
         id="g15714">
        <g
           id="g1652"
           transform="translate(-82.11922,-68.551703)"
           style="stroke:#ffffff;stroke-opacity:1">
          <g
             id="g1639"
             transform="translate(90.688187,34.275851)"
             style="stroke:#ffffff;stroke-opacity:1">
            <path
               id="Path 2"
               class="shp2"
               d="m -33.091244,172.12138 c -0.06659,0.17279 -7.25342,23.52052 -15.971922,51.88085 l -15.851332,51.56588 c 18.461123,0.0684 23.081353,0.018 23.135349,-0.0828 0.0486,-0.0918 1.385889,-5.31497 2.969762,-11.60727 l 2.87977,-11.43988 32.307415,0.002 c 0.5471562,2.16163 1.862851,7.38841 3.27753778,13.00936 L 2.22733,275.6689 25.715451,275.6581 C 25.551664,274.89136 18.543025,251.909 10.035105,224.09223 1.5253862,196.27545 -5.5534475,173.1311 -5.6992358,172.66134 l -0.262779,-0.85493 c -26.1969042,0 -27.0140392,0.018 -27.1292292,0.31497 z m 70.145788,51.61087 v 51.92585 h 22.318214 v -35.45716 c 12.345212,0 16.819654,-0.0828 17.908567,-0.18539 1.088913,-0.10259 2.789777,-0.30597 3.779698,-0.45356 0.989921,-0.14759 2.730381,-0.47516 3.86969,-0.73074 1.139309,-0.25378 3.164147,-0.82614 4.49964,-1.2707 1.335493,-0.44457 3.320735,-1.2329 4.409647,-1.75126 1.088913,-0.52016 2.669187,-1.37329 3.50972,-1.89705 0.840532,-0.52376 2.015838,-1.32829 2.609791,-1.78546 0.593949,-0.45896 1.677469,-1.40028 2.410009,-2.09503 0.73074,-0.69294 1.78905,-1.82685 2.35241,-2.5198 0.56335,-0.69294 1.34809,-1.74586 1.74406,-2.33981 0.39597,-0.59395 1.04932,-1.68647 1.45248,-2.42981 0.40137,-0.74154 1.01872,-2.07883 1.36969,-2.96976 0.35098,-0.89093 0.85134,-2.34881 1.10872,-3.23974 0.25918,-0.89093 0.62275,-2.5108 0.81173,-3.59971 0.18719,-1.08891 0.43197,-3.27574 0.54176,-4.85961 0.14219,-2.06804 0.14579,-3.64111 0.007,-5.57956 -0.10439,-1.48488 -0.30418,-3.34773 -0.44457,-4.13966 -0.13859,-0.79194 -0.41756,-2.08784 -0.61915,-2.87977 -0.19978,-0.79194 -0.58135,-2.04644 -0.84593,-2.78978 -0.26458,-0.74154 -0.93413,-2.24082 -1.49208,-3.32973 -0.55616,-1.08892 -1.44889,-2.5864 -1.98344,-3.32974 -0.53456,-0.74154 -1.42729,-1.86645 -1.98344,-2.4964 -0.55436,-0.63175 -1.65767,-1.69366 -2.44961,-2.36321 -0.79193,-0.66775 -2.129227,-1.67747 -2.96976,-2.24082 -0.840533,-0.56516 -2.582793,-1.54428 -3.86969,-2.17783 -1.286897,-0.63355 -3.554716,-1.54967 -5.039597,-2.03743 -1.484881,-0.48776 -3.63031,-1.09252 -4.769619,-1.3445 -1.139308,-0.25378 -3.203743,-0.62275 -4.589632,-0.82073 -1.38589,-0.19798 -3.614111,-0.44636 -4.949604,-0.55076 -1.472283,-0.11339 -9.577034,-0.18718 -20.563355,-0.18718 H 37.054544 Z M 144.61214,172.12138 c -0.0504,0.17279 -7.18503,23.39813 -15.85313,51.61087 -8.66811,28.21275 -15.79914,51.43809 -15.84594,51.61088 -0.0792,0.29697 0.55256,0.31497 11.47949,0.31317 h 11.56407 c 4.30346,-17.08603 5.61915,-22.30921 5.70014,-22.63139 l 0.14939,-0.58495 h 32.30742 l 5.78114,23.12815 c 21.2149,0.081 23.6321,0.0432 23.57991,-0.13499 -0.036,-0.12419 -7.18503,-23.48992 -15.88373,-51.92585 l -15.81713,-51.70086 c -26.2689,0 -27.07344,0.018 -27.16163,0.31497 z m 75.98092,46.3463 c -0.0504,44.09107 -0.072,46.76565 -0.37977,48.55111 -0.17999,1.03852 -0.52556,2.5792 -0.76674,3.41973 -0.24298,0.84053 -0.70554,2.09683 -1.02952,2.78977 -0.32397,0.69295 -0.86033,1.66487 -1.1951,2.15983 -0.33477,0.49496 -0.97732,1.3355 -1.42909,1.86825 -0.45176,0.53276 -1.42908,1.45429 -2.17242,2.04824 -0.74154,0.59395 -2.12023,1.53168 -3.05976,2.08243 -0.93952,0.55076 -2.60079,1.39129 -3.6897,1.86825 -1.17891,0.51476 -1.95825,0.95573 -1.92405,1.08892 0.0288,0.12239 1.3139,3.62491 2.85277,7.78257 1.53888,4.15767 2.86897,7.64039 2.95717,7.73938 0.10079,0.11699 1.02771,-0.12779 2.63499,-0.69834 1.36249,-0.48236 3.61231,-1.35709 4.9982,-1.94385 1.38588,-0.58495 3.45212,-1.55327 4.58963,-2.15082 1.13751,-0.59756 2.96076,-1.67207 4.04967,-2.38841 1.08892,-0.71634 2.70879,-1.90965 3.59972,-2.65119 0.89093,-0.74154 2.29121,-2.07343 3.11195,-2.95716 0.82073,-0.88553 2.01224,-2.33802 2.64759,-3.22894 0.63714,-0.89093 1.60007,-2.47121 2.14182,-3.50972 0.54176,-1.03852 1.2815,-2.65839 1.64507,-3.59972 0.36177,-0.94132 0.92693,-2.76277 1.2563,-4.04967 0.32758,-1.2869 0.72534,-3.23074 0.88373,-4.31966 0.15839,-1.08891 0.36537,-3.19474 0.46076,-4.67962 0.1044,-1.60907 0.17639,-20.70195 0.17819,-47.29122 l 0.004,-44.59143 h -22.30922 z m 43.24334,5.80453 v 51.38589 h 9.17927 v -50.21598 h 48.95608 v 50.21598 h 9.17926 V 172.88632 h -9.17926 v 44.81642 h -48.95608 v -44.81642 h -9.17927 z"
               style="stroke-width:0.179986;stroke:#ffffff;stroke-opacity:1" />
          </g>
          <path
             id="Path 4"
             class="shp0"
             d="m 150.06094,240.23453 v 18.13355 c 10.39237,-0.19079 14.01728,-0.34018 14.75882,-0.45357 0.74334,-0.11519 2.12023,-0.40497 3.05976,-0.64435 0.93952,-0.24118 2.4388,-0.79373 3.32973,-1.2311 0.89093,-0.43736 2.10223,-1.1843 2.69079,-1.66306 0.59035,-0.47697 1.46508,-1.3535 1.94744,-1.94745 0.48056,-0.59395 1.2347,-1.80885 1.67567,-2.69978 0.44096,-0.89093 0.99712,-2.38841 1.2347,-3.32974 0.23758,-0.94132 0.52016,-2.56119 0.62815,-3.59971 0.10799,-1.03852 0.19438,-2.4964 0.19258,-3.23974 0,-0.74154 -0.09,-2.07883 -0.19978,-2.96976 -0.10979,-0.89093 -0.35277,-2.22642 -0.54176,-2.96976 -0.18718,-0.74154 -0.65335,-1.99784 -1.03491,-2.78978 -0.37977,-0.79194 -1.08892,-1.96184 -1.57308,-2.60079 -0.48416,-0.63895 -1.48668,-1.63967 -2.23002,-2.22462 -0.74154,-0.58676 -1.99784,-1.37689 -2.78978,-1.75666 -0.79193,-0.37977 -2.16882,-0.89453 -3.05975,-1.14291 -0.89093,-0.25018 -2.4694,-0.57776 -3.50972,-0.72714 -1.40569,-0.20339 -3.51512,-0.27358 -8.23434,-0.27538 l -6.3445,-0.002 z m -85.118785,6.11591 c -3.209143,12.84557 -5.862131,23.49892 -5.894528,23.6717 -0.0558,0.29698 0.602951,0.31498 11.819654,0.31498 7.798776,0 11.87905,-0.0612 11.87905,-0.17999 0,-0.099 -2.63499,-10.60835 -5.856732,-23.35313 -3.219942,-12.74478 -5.912527,-23.31713 -5.984521,-23.49172 -0.07919,-0.19618 -2.361411,8.61951 -5.962923,23.03816 z M 248.36548,223.63086 c -0.10799,0.39596 -2.77178,11.06371 -5.91792,23.7077 l -5.72355,22.98776 c 23.19295,0.0108 23.8445,-0.007 23.7671,-0.30418 -0.045,-0.17278 -2.72138,-10.76314 -5.94852,-23.53311 -3.22714,-12.76998 -5.89273,-23.29914 -5.92333,-23.39813 -0.0324,-0.099 -0.14579,0.14399 -0.25378,0.53996 z"
             style="fill:#ffffff;fill-opacity:1;stroke-width:0.179986;stroke:#ffffff;stroke-opacity:1" />
        </g>
        <text
           xml:space="preserve"
           id="text2253"
           style="font-style:normal;font-variant:normal;font-weight:normal;font-stretch:normal;font-size:192px;line-height:1.25;font-family:'Segoe Script';-inkscape-font-specification:'Segoe Script, Normal';font-variant-ligatures:normal;font-variant-caps:normal;font-variant-numeric:normal;font-variant-east-asian:normal;white-space:pre;shape-inside:url(#rect2255);fill:#faec55;fill-opacity:1;stroke:#ffffff;stroke-opacity:1;"
           transform="matrix(1.786645,0.38832476,-0.28306204,1.8334068,436.97812,217.99086)"><tspan
             x="-343.47266"
             y="121.20179"><tspan
               style="font-style:normal;font-variant:normal;font-weight:normal;font-stretch:normal;font-size:192px;font-family:'Segoe Script';-inkscape-font-specification:'Segoe Script, Normal';font-variant-ligatures:normal;font-variant-caps:normal;font-variant-numeric:normal;font-variant-east-asian:normal;white-space:pre;fill:#faec55;fill-opacity:1;stroke:#ffffff;stroke-opacity:1">l</tspan></tspan></text>
        <text
           xml:space="preserve"
           id="text2259"
           style="font-style:normal;font-variant:normal;font-weight:normal;font-stretch:normal;font-size:192px;line-height:1.25;font-family:'Segoe Script';-inkscape-font-specification:'Segoe Script, Normal';font-variant-ligatures:normal;font-variant-caps:normal;font-variant-numeric:normal;font-variant-east-asian:normal;white-space:pre;shape-inside:url(#rect2261);fill:#faec55;fill-opacity:1;stroke:#ffffff;stroke-opacity:1;"
           transform="matrix(-0.84090291,-0.54118601,-0.54118601,0.84090291,697.8546,434.26095)"><tspan
             x="773.34961"
             y="183.32679"><tspan
               style="font-style:normal;font-variant:normal;font-weight:normal;font-stretch:normal;font-size:192px;font-family:'Segoe Script';-inkscape-font-specification:'Segoe Script, Normal';font-variant-ligatures:normal;font-variant-caps:normal;font-variant-numeric:normal;font-variant-east-asian:normal;white-space:pre;fill:#faec55;fill-opacity:1;stroke:#ffffff;stroke-opacity:1">'</tspan></tspan></text>
        <path
           id="Path_1_2_"
           class="st2"
           d="m -113.81469,370.48749 c -0.39202,0.0335 -1.12708,0.11738 -1.64979,0.1845 l -0.93107,0.1007 c 0.24502,3.70682 0.45737,6.05504 0.63705,7.59816 0.17968,1.5431 0.45737,3.63972 0.62071,4.62933 0.16334,1.00636 0.53905,2.9688 0.83307,4.36096 l 0.53905,2.54949 h 4.05098 c 0.45736,-1.82827 0.78407,-3.30428 1.02909,-4.46162 0.22868,-1.15732 0.60437,-3.35458 0.83306,-4.91447 0.22868,-1.54311 0.50636,-3.80745 0.62071,-4.99832 0.11436,-1.20766 0.21236,-2.75078 0.21236,-3.45524 0.0164,-1.24119 0,-1.27475 -0.55538,-1.39216 -0.31036,-0.067 -1.68248,-0.16771 -3.03825,-0.21805 -1.3721,-0.0335 -2.80956,-0.0335 -3.20159,0.0168 z"
           style="fill:#faec55;fill-opacity:1;stroke:#ffffff;stroke-width:0.165523;stroke-opacity:1" />
        <path
           style="fill:#faec55;fill-opacity:1;stroke:#ffffff;stroke-width:0.165523;stroke-opacity:1"
           d="m -92.726685,377.95146 c -0.457362,0.369 -2.139823,1.72761 -3.756956,3.0359 -1.617132,1.30829 -4.181659,3.57264 -5.684449,5.01511 -1.50279,1.44248 -3.26692,3.18686 -3.90399,3.85778 l -1.15975,1.22442 c 1.2741,1.27475 1.78048,1.87858 1.96016,2.18049 0.17968,0.30192 0.42469,0.53673 0.57171,0.53673 0.14702,0 1.42112,-0.53673 2.82589,-1.20765 1.42111,-0.65415 3.544609,-1.69407 4.737036,-2.29789 1.192428,-0.60383 4.018331,-2.18048 6.272498,-3.52232 2.270511,-1.34185 4.296005,-2.54949 4.524693,-2.70045 0.294032,-0.20128 0.359361,-0.36901 0.245017,-0.60383 -0.098,-0.18449 -0.555377,-0.82186 -1.012739,-1.40892 -0.457377,-0.58706 -1.257772,-1.54312 -1.764134,-2.09662 -0.506377,-0.55351 -1.355772,-1.39216 -1.862149,-1.8618 -0.506377,-0.46963 -0.996411,-0.85541 -1.045426,-0.85541 -0.06529,0.0503 -0.490034,0.33546 -0.947411,0.70446 z"
           id="path15671" />
        <path
           style="fill:#faec55;fill-opacity:1;stroke:#ffffff;stroke-width:0.165523;stroke-opacity:1"
           d="m -133.25289,378.58884 c -0.86572,0.82186 -2.13982,2.23079 -2.80956,3.10298 -0.66971,0.8722 -1.22509,1.69407 -1.22509,1.81148 0,0.13421 0.99642,0.85542 2.20517,1.61021 1.20877,0.75477 3.41394,2.07984 4.88406,2.93525 1.47011,0.83866 4.06731,2.23082 5.76612,3.08623 1.6988,0.85542 3.65895,1.81149 4.37767,2.1134 0.71874,0.3019 1.32312,0.5535 1.35579,0.51995 0.0327,-0.0168 0.27767,-0.33546 0.53903,-0.68769 0.26136,-0.35222 0.81674,-0.93928 1.2251,-1.30829 l 0.73507,-0.67092 c -0.83308,-0.9225 -1.74781,-1.89534 -2.56454,-2.75076 -0.81674,-0.85541 -2.71155,-2.68367 -4.19801,-4.07582 -1.48644,-1.39215 -3.98564,-3.55587 -5.55377,-4.81384 -1.56812,-1.25797 -2.92389,-2.31466 -3.00556,-2.34821 -0.0653,0 -0.8494,0.65415 -1.73148,1.47603 z"
           id="Path_3_2_" />
        <path
           style="fill:#faec55;fill-opacity:1;stroke:#ffffff;stroke-width:0.165523;stroke-opacity:1"
           d="m -108.04855,402.22196 c -0.50638,0.3019 -1.24145,0.58704 -1.61714,0.67091 -0.66972,0.13421 -0.68605,0.15095 -0.55537,0.85542 0.0653,0.40254 0.55537,2.07984 1.07808,3.72359 0.5227,1.64376 1.45379,4.31065 2.07451,5.90408 0.6207,1.59342 1.66613,4.05905 2.30317,5.45121 0.65339,1.42569 1.30677,2.56626 1.47011,2.59981 0.16335,0.0335 1.35577,-0.31869 2.66255,-0.77156 1.306782,-0.45288 3.087245,-1.22442 3.969312,-1.69407 0.882066,-0.46964 1.600803,-0.93929 1.600803,-1.03993 0,-0.10069 -0.94741,-1.66051 -2.090837,-3.45521 -1.143427,-1.79472 -2.956558,-4.46162 -4.034648,-5.90408 -1.07809,-1.44247 -2.76056,-3.60619 -3.7243,-4.78029 -0.98008,-1.17412 -1.86214,-2.13016 -1.99282,-2.11339 -0.13071,0 -0.63706,0.25159 -1.14342,0.55351 z"
           id="path15657" />
        <path
           style="fill:#faec55;fill-opacity:1;stroke:#ffffff;stroke-width:0.165523;stroke-opacity:1"
           d="m -117.4083,402.25546 c -0.37569,0.41932 -1.3231,1.5431 -2.1235,2.48239 -0.78406,0.95607 -2.31952,2.9185 -3.39761,4.36096 -1.07808,1.44249 -2.80955,3.94165 -3.83862,5.55185 -1.02909,1.59343 -1.84582,3.01914 -1.8295,3.17009 0.0327,0.13421 0.88209,0.6877 1.91117,1.22442 1.01274,0.53674 2.80954,1.3083 3.9693,1.69408 1.15976,0.40255 2.17251,0.72122 2.27053,0.738 0.098,0.0168 0.31034,-0.30192 0.49003,-0.68768 0.19602,-0.38578 0.86574,-1.82826 1.51912,-3.23719 0.65339,-1.40893 1.63346,-3.74037 2.18883,-5.18284 0.55538,-1.44248 1.48646,-4.07583 2.04184,-5.82021 0.55538,-1.74439 1.01274,-3.2875 1.01274,-3.40492 0,-0.11738 -0.29402,-0.26835 -0.66972,-0.31867 -0.37569,-0.0503 -1.15976,-0.36901 -1.76413,-0.72124 l -1.09443,-0.63738 z"
           id="path15655" />
        <path
           style="fill:#faec55;fill-opacity:1;stroke:#ffffff;stroke-width:0.165523;stroke-opacity:1"
           d="m -104.22626,396.65329 c -0.0653,0.15096 -0.11435,0.48642 -0.11435,0.72124 0,0.2516 -0.17968,0.85541 -0.40837,1.3586 l -0.40837,0.90575 c 3.26693,1.35861 5.521117,2.21402 7.105578,2.78431 1.584446,0.55351 4.083645,1.37537 5.553761,1.82824 1.470116,0.45288 3.887643,1.10702 5.357759,1.4928 1.470117,0.369 2.727888,0.60383 2.80956,0.51996 0.06529,-0.0839 0.326689,-0.68769 0.555378,-1.34183 0.245017,-0.65415 0.620706,-1.87858 0.833066,-2.734 0.228688,-0.85542 0.473691,-2.04629 0.571706,-2.66689 0.147016,-1.02315 0.130716,-1.12378 -0.245017,-1.22442 -0.228688,-0.0672 -1.470116,-0.26838 -2.776888,-0.46965 -1.306771,-0.20127 -3.80597,-0.51996 -5.553775,-0.72124 -1.747806,-0.20127 -4.443021,-0.45287 -5.962138,-0.55351 -1.535445,-0.10069 -3.7733,-0.1845 -4.96573,-0.1845 -1.7968,0.0168 -2.25416,0.067 -2.35218,0.28514 z"
           id="path15653" />
        <path
           style="fill:#faec55;fill-opacity:1;stroke:#ffffff;stroke-width:0.165523;stroke-opacity:1"
           d="m -125.64095,396.40169 c -1.58446,0.0839 -4.31235,0.28515 -6.07648,0.4361 -1.74781,0.16773 -4.55737,0.50319 -6.2235,0.73802 -1.66613,0.23481 -3.08725,0.43608 -3.13625,0.43608 -0.0491,0 -0.098,0.26838 -0.098,0.58707 0,0.31868 0.147,1.3586 0.32669,2.31467 0.17967,0.95605 0.60438,2.49917 0.94741,3.45522 0.34302,0.95606 0.63705,1.74438 0.65338,1.77794 0.0164,0.0335 1.81315,-0.40256 3.98566,-0.95607 2.17249,-0.55351 5.47209,-1.4928 7.30158,-2.07984 1.84581,-0.58705 4.41035,-1.4928 5.71711,-1.97922 1.30677,-0.50319 2.69521,-1.03991 3.08724,-1.20764 l 0.71873,-0.31869 c -0.53904,-1.30828 -0.71873,-2.07984 -0.7514,-2.54949 l -0.0653,-0.85542 c -2.72789,0.0335 -4.81873,0.11738 -6.38685,0.20127 z"
           id="Path_5_2_" />
        <path
           style="fill:#f4b5ca;fill-opacity:1;stroke:#ffffff;stroke-width:0.165523;stroke-opacity:1"
           d="m -63.079328,423.60748 -0.620721,0.46963 c 0.604378,1.44248 1.290443,2.8514 1.894821,4.05906 0.604378,1.20765 1.731476,3.15332 2.482856,4.32742 0.767737,1.1741 1.486459,2.13016 1.600804,2.13016 0.114358,0 0.751379,-0.26836 1.421101,-0.58704 0.669736,-0.31869 1.780477,-1.03993 2.466527,-1.61022 l 1.257771,-1.02314 c -1.584446,-1.66053 -2.972904,-2.95204 -4.116331,-3.95842 -1.127084,-1.00638 -2.825889,-2.36498 -3.756956,-3.05268 -0.931082,-0.67092 -1.764134,-1.22442 -1.845806,-1.22442 -0.098,-0.0168 -0.457377,0.20128 -0.784066,0.46965 z"
           id="path15667" />
        <path
           style="fill:#f4b5ca;fill-opacity:1;stroke:#ffffff;stroke-width:0.165523;stroke-opacity:1"
           d="m -68.061397,424.26161 c -0.882067,0.6206 -2.678873,2.07986 -3.969316,3.23718 -1.306771,1.14057 -2.744216,2.49917 -3.185249,2.98559 l -0.816724,0.88897 c 1.943822,1.57665 3.103578,2.31467 3.8223,2.65013 l 1.3231,0.62059 c 0.63705,-0.738 1.372115,-1.82825 2.058166,-2.90172 0.68605,-1.07346 1.715133,-2.95203 2.286854,-4.14292 0.588035,-1.20766 1.176084,-2.48239 1.339429,-2.8514 0.277689,-0.63737 0.26136,-0.67092 -0.326689,-1.12378 -0.343033,-0.25161 -0.686051,-0.46964 -0.751395,-0.46964 -0.114358,-0.0335 -0.89841,0.46964 -1.780476,1.107 z"
           id="path15665" />
        <path
           style="fill:#f4b5ca;fill-opacity:1;stroke:#ffffff;stroke-width:0.165523;stroke-opacity:1"
           d="m -53.719596,416.17706 c -1.421101,0.57027 -3.773284,1.67729 -5.2434,2.46561 -1.470117,0.77156 -2.842232,1.52635 -3.038248,1.67731 -0.310361,0.23482 -0.32669,0.35223 -0.098,1.00638 l 0.261345,0.75477 c 3.038248,-0.1845 4.704381,-0.31869 5.66812,-0.41932 0.963739,-0.1007 2.727873,-0.35224 3.903972,-0.5535 1.192427,-0.20128 2.515542,-0.45287 2.923889,-0.53674 0.751409,-0.16773 0.767738,-0.1845 0.653393,-0.85542 -0.06528,-0.36901 -0.26136,-1.14057 -0.441033,-1.67729 -0.179688,-0.53674 -0.539034,-1.42571 -0.800395,-1.96243 -0.326689,-0.63738 -0.620721,-0.95607 -0.849409,-0.95607 -0.212345,0 -1.519117,0.46965 -2.940233,1.0567 z"
           id="path15663" />
        <path
           style="fill:#f4b5ca;fill-opacity:1;stroke:#ffffff;stroke-width:0.165523;stroke-opacity:1"
           d="m -78.711572,416.07637 c -0.261346,0.51995 -0.620722,1.40892 -0.800395,1.96243 -0.179673,0.55351 -0.37569,1.30829 -0.441033,1.67729 -0.114359,0.67092 -0.098,0.6877 0.653378,0.85543 0.424705,0.10069 1.747805,0.33546 2.923904,0.53673 1.192427,0.20127 2.907561,0.45286 3.805971,0.5535 0.898395,0.10069 2.580871,0.23482 3.707955,0.30192 l 2.058166,0.11738 c 0.490048,-1.40892 0.473705,-1.52633 0.147016,-1.76116 -0.196017,-0.15095 -1.568132,-0.90574 -3.038248,-1.6773 -1.470117,-0.77155 -3.854972,-1.89534 -5.292416,-2.46561 -1.437445,-0.57028 -2.760559,-1.0567 -2.940233,-1.0567 -0.163344,0 -0.506377,0.40255 -0.784065,0.95606 z"
           id="path15661" />
        <path
           style="fill:#f4b5ca;fill-opacity:1;stroke:#ffffff;stroke-width:0.165523;stroke-opacity:1"
           d="m -67.195659,408.14277 c -0.245017,0.0503 -0.392033,0.21804 -0.359361,0.38578 0.03271,0.16771 0.196016,1.37537 0.359361,2.66688 0.179688,1.3083 0.539049,3.30427 0.800394,4.46161 0.277689,1.15733 0.63705,2.56627 0.816738,3.13653 l 0.326689,1.03993 h 1.845821 c 0.457362,-1.47601 0.784051,-2.65012 1.01274,-3.53908 0.228688,-0.88897 0.539048,-2.49917 0.718722,-3.5391 0.163344,-1.0567 0.359361,-2.48239 0.441033,-3.18686 0.130716,-1.22442 0.114359,-1.27475 -0.343018,-1.40892 -0.26136,-0.067 -1.53546,-0.13421 -2.842231,-0.11739 -1.306772,0.0168 -2.564543,0.067 -2.776888,0.1007 z"
           id="Path_6_2_" />
        <path
           style="fill:#f49f5c;fill-opacity:1;stroke:#ffffff;stroke-width:0.165523;stroke-opacity:1"
           d="m -111.85453,476.14029 c -0.19601,0.90574 -0.55537,2.95204 -0.83306,4.54546 -0.27769,1.59343 -0.68605,4.51192 -0.91474,6.45759 -0.22869,1.94566 -0.53905,5.4512 -0.66972,7.76588 -0.147,2.31466 -0.21235,4.26032 -0.16335,4.31064 0.0491,0.0504 1.30677,0.1845 2.77689,0.28514 1.47012,0.1007 3.41394,0.15096 4.32868,0.0839 0.91474,-0.067 2.25417,-0.15096 2.98923,-0.20128 l 1.33944,-0.10069 c -0.24501,-5.24994 -0.45737,-8.21875 -0.62072,-9.96313 -0.16334,-1.7444 -0.49003,-4.49515 -0.71872,-6.08859 -0.22869,-1.59342 -0.65339,-4.22677 -0.94741,-5.82021 l -0.53903,-2.90172 h -5.68445 z"
           id="path15649" />
        <path
           style="fill:#f49f5c;fill-opacity:1;stroke:#ffffff;stroke-width:0.165523;stroke-opacity:1"
           d="m -100.76332,471.82964 c -0.5717,0.46963 -1.55179,1.09024 -2.15616,1.39215 -0.62072,0.28514 -1.14343,0.55351 -1.1761,0.58706 -0.0327,0.0335 0.88206,1.72761 2.02549,3.74036 1.14343,2.02953 2.678889,4.62934 3.413939,5.76989 0.735066,1.14056 1.943822,2.98559 2.678873,4.0926 0.735065,1.10702 2.352198,3.37136 3.577297,5.04867 1.225085,1.67729 2.352183,3.0359 2.482856,3.0359 0.147016,0 0.996411,-0.40255 1.91115,-0.88897 0.89841,-0.48642 2.433855,-1.40893 3.397609,-2.04629 0.963739,-0.63738 2.237839,-1.5599 2.842217,-2.06309 l 1.094426,-0.90574 c -2.613543,-2.95203 -4.312348,-4.79706 -5.45576,-6.00471 -1.143427,-1.20766 -2.907575,-3.00236 -3.920315,-4.00873 -1.012754,-1.00638 -3.560954,-3.35459 -5.66812,-5.23316 -2.090823,-1.87858 -3.854971,-3.40491 -3.9203,-3.40491 -0.03272,0.0168 -0.555392,0.41933 -1.127102,0.88897 z"
           id="path15647" />
        <path
           style="fill:#f49f5c;fill-opacity:1;stroke:#ffffff;stroke-width:0.165523;stroke-opacity:1"
           d="m -121.90032,474.463 c -2.17251,1.92888 -5.32509,4.89769 -7.00757,6.59176 -1.68246,1.69406 -3.95297,4.07583 -5.04738,5.2667 -1.09443,1.20765 -2.17251,2.41531 -2.38487,2.68368 l -0.40836,0.50319 c 0.80039,0.738 1.96015,1.59342 3.08725,2.39853 1.12708,0.78832 2.9729,1.94566 4.08366,2.56626 1.17608,0.65415 2.09082,1.03993 2.15616,0.93929 0.0816,-0.1007 1.20876,-1.61021 2.51555,-3.37137 1.30675,-1.74439 3.2669,-4.49514 4.345,-6.08858 1.07808,-1.59343 2.69522,-4.14292 3.60994,-5.63572 0.91475,-1.50956 2.09084,-3.50555 2.61356,-4.4616 0.52269,-0.95606 0.94739,-1.82824 0.94739,-1.96243 0,-0.13421 -0.53903,-0.48642 -1.19242,-0.8051 -0.65338,-0.31869 -1.60079,-0.92252 -2.10717,-1.35861 -0.50638,-0.43609 -0.99641,-0.78833 -1.09441,-0.78833 -0.098,0.0168 -1.94382,1.59343 -4.11633,3.52233 z"
           id="path15645" />
        <path
           style="fill:#f49f5c;fill-opacity:1;stroke:#ffffff;stroke-width:0.165523;stroke-opacity:1"
           d="m -96.81033,465.17077 c -0.04907,0.13422 -0.196016,0.6877 -0.310361,1.24121 -0.130716,0.5535 -0.490048,1.49279 -0.816737,2.09661 l -0.58805,1.09024 c 1.306772,0.67092 3.691641,1.74439 6.125497,2.81785 2.433855,1.09025 5.684449,2.44887 7.203565,3.05268 1.519117,0.60383 4.312334,1.61022 6.174483,2.26435 1.862149,0.65415 4.067331,1.39216 4.884054,1.66053 l 1.486459,0.46963 c 1.078084,-2.04629 1.666133,-3.33781 2.009166,-4.17646 0.343018,-0.85542 0.833052,-2.31466 1.078083,-3.27073 0.261346,-0.95606 0.42469,-1.84502 0.359361,-1.99597 -0.06529,-0.16773 -1.355787,-0.58705 -3.577282,-1.12378 -1.911165,-0.46965 -4.394021,-1.0567 -5.537448,-1.3083 -1.127083,-0.2516 -3.871299,-0.77155 -6.076481,-1.1741 -2.205167,-0.40255 -5.586448,-0.93929 -7.513926,-1.19088 -1.927493,-0.2516 -3.789628,-0.51997 -4.165332,-0.57029 -0.42469,-0.0839 -0.669722,-0.0335 -0.735051,0.11739 z"
           id="path15643" />
        <path
           style="fill:#f49f5c;fill-opacity:1;stroke:#ffffff;stroke-width:0.165523;stroke-opacity:1"
           d="m -124.92223,465.42237 c -1.7478,0.23482 -4.90038,0.72124 -6.99122,1.09025 -2.09083,0.35222 -5.5211,1.02314 -7.61194,1.45924 -2.09082,0.45287 -4.81871,1.0567 -6.07648,1.37537 -1.24143,0.30192 -2.35218,0.63738 -2.46653,0.72124 -0.13071,0.11739 -0.11436,0.58706 0.0653,1.39215 0.14701,0.67094 0.60438,2.16372 0.99641,3.32105 0.39203,1.15734 1.06175,2.73399 1.47012,3.50555 0.40836,0.77156 0.78406,1.40894 0.80039,1.40894 0.0327,0 1.6008,-0.5032 3.49561,-1.1238 1.89482,-0.60383 5.39043,-1.84502 7.77529,-2.73399 2.38485,-0.88897 6.45217,-2.56626 9.04938,-3.7236 2.5972,-1.14055 4.91671,-2.21403 5.1454,-2.34821 0.40838,-0.25158 0.40838,-0.26837 -0.17967,-1.39215 -0.32671,-0.6206 -0.7024,-1.62698 -0.83307,-2.2308 -0.22869,-1.02316 -0.27769,-1.09025 -0.84941,-1.12379 -0.34302,-0.0168 -2.04182,0.15095 -3.78963,0.40255 z"
           id="path15641" />
        <path
           style="fill:#f49f5c;fill-opacity:1;stroke:#ffffff;stroke-width:0.165523;stroke-opacity:1"
           d="m -76.571734,449.73966 c -1.86215,0.62061 -4.737039,1.64376 -6.386843,2.24758 -1.649789,0.60383 -4.50835,1.72762 -6.386827,2.49916 -1.86215,0.77156 -4.639038,1.99598 -6.158154,2.70045 -1.519132,0.72124 -2.793231,1.35862 -2.825903,1.42571 -0.04907,0.067 0.163359,0.60381 0.457376,1.17411 0.294018,0.57027 0.669722,1.57665 0.833067,2.23079 0.163344,0.65415 0.31036,1.19088 0.343032,1.20766 0.03272,0.0168 1.584461,-0.16773 3.446595,-0.40256 1.86215,-0.23482 4.933055,-0.68769 6.795204,-0.98961 1.862149,-0.3019 5.014742,-0.88895 6.99122,-1.29151 1.976494,-0.40255 4.949398,-1.07346 6.582859,-1.47601 1.649804,-0.40255 3.18525,-0.75479 3.44661,-0.80511 0.392033,-0.0503 0.441033,-0.15095 0.343032,-0.57028 -0.06529,-0.26837 -0.343032,-1.32506 -0.620721,-2.31466 -0.277689,-1.00639 -0.751394,-2.43208 -1.045412,-3.18687 -0.294031,-0.75477 -0.800409,-1.87856 -1.110769,-2.49917 -0.408362,-0.77154 -0.702379,-1.14055 -0.947396,-1.12378 -0.196017,0.0335 -1.878493,0.55351 -3.75697,1.1741 z"
           id="path15639" />
        <path
           style="fill:#f49f5c;fill-opacity:1;stroke:#ffffff;stroke-width:0.165523;stroke-opacity:1"
           d="m -145.09549,448.90102 c -0.14702,0.26836 -0.62072,1.32506 -1.06176,2.31467 -0.44103,1.00637 -1.07808,2.76754 -1.4211,3.90809 -0.34303,1.15734 -0.62072,2.28112 -0.60439,2.49917 0,0.36901 0.31036,0.48642 3.75697,1.3083 2.07449,0.50317 4.91672,1.15732 6.3215,1.44246 1.42111,0.30192 3.96931,0.78834 5.66812,1.09025 1.6988,0.30192 4.85138,0.80509 6.99122,1.10701 2.15616,0.30191 4.16533,0.55351 4.47568,0.55351 0.49004,0 0.57172,-0.067 0.57172,-0.53674 0,-0.30191 0.19601,-1.05669 0.42469,-1.67729 0.22868,-0.6206 0.60439,-1.40893 0.81673,-1.72761 l 0.39204,-0.58706 c -2.31951,-1.12379 -4.83506,-2.26434 -7.10557,-3.25395 -2.27051,-0.9896 -5.78246,-2.43208 -7.82428,-3.20362 -2.04183,-0.77156 -5.25975,-1.9289 -7.15457,-2.56628 -1.89482,-0.63737 -3.57728,-1.15732 -3.7243,-1.15732 -0.147,-0.0168 -0.37569,0.21805 -0.5227,0.48641 z"
           id="path15637" />
        <path
           style="fill:#f49f5c;fill-opacity:1;stroke:#ffffff;stroke-width:0.165523;stroke-opacity:1"
           d="m -91.746603,435.16398 c -1.012754,1.32505 -2.711544,3.67328 -3.789627,5.23316 -1.078084,1.55987 -2.695216,4.00872 -3.609954,5.45121 -0.914736,1.45924 -2.352186,3.89131 -3.217926,5.41766 -0.86573,1.52633 -1.56811,2.90171 -1.56811,3.05268 0,0.15094 0.098,0.26835 0.21234,0.26835 0.11436,0 0.68605,0.26837 1.29043,0.60383 0.58805,0.33546 1.50279,0.95607 2.00917,1.37539 l 0.931063,0.77155 c 6.860548,-6.15567 10.062126,-9.15803 11.532242,-10.65081 1.470116,-1.4928 3.70797,-3.85779 4.98207,-5.2835 1.274099,-1.40892 2.319511,-2.65011 2.319511,-2.75075 0,-0.10069 -0.718722,-0.73801 -1.600789,-1.4257 -0.882067,-0.68768 -2.85856,-1.97921 -4.377677,-2.86818 -1.53546,-0.88896 -2.891232,-1.62697 -3.021905,-1.62697 -0.147016,0.0335 -1.078083,1.10701 -2.090838,2.43208 z"
           id="path15635" />
        <path
           style="fill:#f49f5c;fill-opacity:1;stroke:#ffffff;stroke-width:0.165523;stroke-opacity:1"
           d="m -128.94054,433.3525 c -0.78407,0.41933 -2.04183,1.14055 -2.77689,1.57665 -0.73505,0.4361 -2.15617,1.40894 -3.13625,2.13017 -1.48646,1.09024 -1.76415,1.37538 -1.61713,1.64375 0.098,0.16772 1.19243,1.4257 2.4012,2.76754 1.20875,1.34183 3.33226,3.60618 4.72071,4.99834 1.3721,1.39215 3.78962,3.74036 5.37408,5.1996 1.56812,1.45925 3.62629,3.27073 4.55737,4.04229 l 1.69879,1.39214 c 1.99282,-1.44246 3.00557,-2.06307 3.54461,-2.29789 0.86574,-0.38578 0.96375,-0.46963 0.80041,-0.83865 -0.098,-0.21804 -0.89841,-1.67729 -1.78048,-3.23717 -0.88207,-1.55989 -2.33585,-4.00874 -3.25059,-5.45121 -0.91474,-1.45924 -2.30318,-3.57264 -3.07091,-4.72997 -0.76773,-1.15734 -2.41752,-3.42168 -3.62628,-5.04865 -1.20877,-1.62699 -2.23785,-2.95204 -2.3032,-2.95204 -0.0491,0.0335 -0.75138,0.38578 -1.53544,0.8051 z"
           id="path15633" />
        <path
           style="fill:#f49f5c;fill-opacity:1;stroke:#ffffff;stroke-width:0.165523;stroke-opacity:1"
           d="m -112.57325,428.68963 c -0.39203,0.0503 -0.93108,0.11738 -1.19242,0.16773 l -0.47371,0.10055 c 0.17967,5.13252 0.37569,8.05102 0.53903,9.79541 0.16336,1.74439 0.49005,4.49515 0.71874,6.08857 0.22867,1.59343 0.65338,4.2268 0.9474,5.82022 0.29403,1.59343 0.58805,2.96881 0.66972,3.03591 0.0816,0.067 0.73506,0.0503 1.47011,-0.0335 0.8004,-0.1007 1.87848,-0.1007 2.67889,0 0.73505,0.0839 1.35577,0.15097 1.3721,0.13421 0.0164,-0.0168 0.31036,-1.50957 0.66972,-3.30427 0.34304,-1.79471 0.81674,-4.57902 1.04543,-6.18923 0.22867,-1.59342 0.55536,-4.34419 0.71871,-6.08857 0.16336,-1.74439 0.3757,-4.52869 0.45737,-6.18922 0.13072,-2.8514 0.11436,-3.00236 -0.26136,-3.15331 -0.21234,-0.0839 -2.25416,-0.1845 -4.50835,-0.21804 -2.28683,-0.0168 -4.45934,-0.0168 -4.85138,0.0335 z"
           id="Path_7_2_" />
        <text
           xml:space="preserve"
           id="text2323-9-7-4"
           style="font-style:normal;font-variant:normal;font-weight:bold;font-stretch:normal;font-size:143.637px;line-height:1.25;font-family:'Segoe Script';-inkscape-font-specification:'Segoe Script, Bold';font-variant-ligatures:normal;font-variant-caps:normal;font-variant-numeric:normal;font-variant-east-asian:normal;white-space:pre;shape-inside:url(#rect2325-3-3-9);fill:#f49f5c;fill-opacity:1;stroke:none;stroke-opacity:1;"
           transform="matrix(1.0634251,0,0,1.1397175,-107.76005,-175.9141)"><tspan
             x="77.121094"
             y="489.96609"><tspan
               style="font-style:normal;font-variant:normal;font-weight:bold;font-stretch:normal;font-size:143.637px;font-family:'Segoe Script';-inkscape-font-specification:'Segoe Script, Bold';font-variant-ligatures:normal;font-variant-caps:normal;font-variant-numeric:normal;font-variant-east-asian:normal;white-space:pre;fill:#f49f5c;fill-opacity:1;stroke:none;stroke-opacity:1">Num</tspan></tspan></text>
        <text
           xml:space="preserve"
           id="text2323-9-8-3"
           style="font-style:normal;font-variant:normal;font-weight:bold;font-stretch:normal;font-size:99.2755px;line-height:1.25;font-family:'Segoe Script';-inkscape-font-specification:'Segoe Script, Bold';font-variant-ligatures:normal;font-variant-caps:normal;font-variant-numeric:normal;font-variant-east-asian:normal;white-space:pre;shape-inside:url(#rect2325-3-5-2);fill:#faec55;fill-opacity:1;stroke:#ffffff;stroke-opacity:1;"
           transform="matrix(1.6456303,0,0,1.5262465,-161.94893,-175.70256)"><tspan
             x="77.121094"
             y="450.89748"><tspan
               style="font-style:normal;font-variant:normal;font-weight:bold;font-stretch:normal;font-size:99.2755px;font-family:'Segoe Script';-inkscape-font-specification:'Segoe Script, Bold';font-variant-ligatures:normal;font-variant-caps:normal;font-variant-numeric:normal;font-variant-east-asian:normal;white-space:pre;fill:#faec55;fill-opacity:1;stroke:#ffffff;stroke-opacity:1">&amp;</tspan></tspan></text>
        <text
           xml:space="preserve"
           id="text2323-9-84"
           style="font-style:normal;font-variant:normal;font-weight:bold;font-stretch:normal;font-size:121.608px;line-height:1.25;font-family:'Segoe Script';-inkscape-font-specification:'Segoe Script, Bold';font-variant-ligatures:normal;font-variant-caps:normal;font-variant-numeric:normal;font-variant-east-asian:normal;white-space:pre;shape-inside:url(#rect2325-3-0);fill:#f4b5ca;fill-opacity:1;stroke:none;stroke-opacity:1;"
           transform="matrix(1.3020411,0,0,1.2855517,3.5190715,-92.525001)"><tspan
             x="77.121094"
             y="470.56544"><tspan
               style="font-style:normal;font-variant:normal;font-weight:bold;font-stretch:normal;font-size:121.608px;font-family:'Segoe Script';-inkscape-font-specification:'Segoe Script, Bold';font-variant-ligatures:normal;font-variant-caps:normal;font-variant-numeric:normal;font-variant-east-asian:normal;white-space:pre;fill:#f4b5ca;fill-opacity:1;stroke:none;stroke-opacity:1">rik</tspan></tspan></text>
      </g>
    </g>
  </g>
  <style
     id="style1595"> tspan { white-space:pre } .shp0 { fill: #ffffff } .shp1 { fill: #f7e300 } .shp2 { fill: #536c18 } .shp3 { fill: #f4b5ca } .shp4 { fill: #f49f5c } .shp5 { fill: #757577 } </style>
  <style
     type="text/css"
     id="style2282">
	.st0{fill:#FFFFFF;}
	.st1{fill:#FDEF87;}
	.st2{fill:#FADCE6;}
	.st3{fill:#FFD485;}
</style>
</svg>
