<?xml version="1.0" encoding="UTF-8" standalone="no"?>
<svg
   xmlns:dc="http://purl.org/dc/elements/1.1/"
   xmlns:cc="http://creativecommons.org/ns#"
   xmlns:rdf="http://www.w3.org/1999/02/22-rdf-syntax-ns#"
   xmlns:svg="http://www.w3.org/2000/svg"
   xmlns="http://www.w3.org/2000/svg"
   xmlns:xlink="http://www.w3.org/1999/xlink"
   xmlns:sodipodi="http://sodipodi.sourceforge.net/DTD/sodipodi-0.dtd"
   xmlns:inkscape="http://www.inkscape.org/namespaces/inkscape"
   viewBox="0 0 2778 870"
   width="500"
   height="157"
   version="1.1"
   id="svg867"
   sodipodi:docname="page-404.svg"
   inkscape:export-filename="C:\xampp\htdocs\webapp\public\assets\img\page-404.png"
   inkscape:export-xdpi="96"
   inkscape:export-ydpi="96"
   inkscape:version="1.0.2-2 (e86c870879, 2021-01-15)">
  <metadata
     id="metadata873">
    <rdf:RDF>
      <cc:Work
         rdf:about="">
        <dc:format>image/svg+xml</dc:format>
        <dc:type
           rdf:resource="http://purl.org/dc/dcmitype/StillImage" />
        <dc:title></dc:title>
      </cc:Work>
    </rdf:RDF>
  </metadata>
  <defs
     id="defs871">
    <rect
       x="3411.9228"
       y="1660.7022"
       width="2338.8085"
       height="975.9639"
       id="rect5961" />
    <rect
       x="-119.90601"
       y="-584.21838"
       width="576.01909"
       height="1318.9662"
       id="rect1763" />
    <clipPath
       clipPathUnits="userSpaceOnUse"
       id="clipPath986">
      <use
         x="0"
         y="0"
         xlink:href="#g982"
         id="use988"
         width="100%"
         height="100%"
         transform="matrix(1.2106894,0,0,1.2281462,183.48144,-187.72988)" />
    </clipPath>
    <rect
       x="1229.3376"
       y="1470.5251"
       width="1763.6999"
       height="1222.6543"
       id="rect117" />
    <rect
       x="1229.3376"
       y="1470.5251"
       width="2435.9563"
       height="1279.8237"
       id="rect1625" />
    <rect
       x="3233.6375"
       y="496.14249"
       width="1322.7369"
       height="1365.6501"
       id="rect966" />
    <rect
       x="3233.6375"
       y="496.14249"
       width="1322.7369"
       height="1365.6501"
       id="rect1628" />
    <rect
       x="3089.752"
       y="392.6459"
       width="926.42072"
       height="1231.8619"
       id="rect972" />
    <rect
       x="3089.752"
       y="392.6459"
       width="926.42072"
       height="1231.8619"
       id="rect1631" />
    <clipPath
       clipPathUnits="userSpaceOnUse"
       id="clipPath1167">
      <g
         inkscape:label="Clip"
         id="use1169">
        <path
           id="path12646"
           class="st1"
           d="m 91.4,30 c -0.4,0 -1.2,0.1 -1.8,0.2 l -1,0.1 c 0.3,4.1 0.5,6.7 0.7,8.5 0.2,1.7 0.5,4.1 0.7,5.2 0.2,1.1 0.6,3.3 0.9,4.9 l 0.6,2.8 h 4.4 c 0.5,-2 0.9,-3.7 1.1,-5 0.2,-1.3 0.7,-3.7 0.9,-5.5 0.2,-1.7 0.5,-4.2 0.7,-5.6 0.1,-1.3 0.2,-3.1 0.2,-3.9 0,-1.4 0,-1.4 -0.6,-1.6 -0.3,-0.1 -1.8,-0.2 -3.3,-0.2 -1.5,0 -3,0.1 -3.5,0.1 z"
           style="fill:#fdef87;fill-opacity:1;stroke:none;stroke-opacity:0" />
        <path
           id="path12648"
           class="st1"
           d="m 70.4,39.1 c -0.9,0.9 -2.3,2.5 -3,3.5 -0.7,1 -1.3,1.9 -1.3,2 0,0.1 1.1,1 2.4,1.8 1.3,0.9 3.7,2.3 5.3,3.3 1.6,0.9 4.4,2.5 6.2,3.4 1.8,0.9 4,2 4.7,2.4 0.7,0.4 1.4,0.6 1.5,0.6 0,0 0.3,-0.4 0.6,-0.8 0.3,-0.4 0.9,-1 1.3,-1.5 L 88.9,53 C 88,52 87,50.9 86.1,50 c -0.9,-0.9 -2.9,-3 -4.5,-4.5 -1.6,-1.6 -4.3,-4 -6,-5.4 -1.7,-1.4 -3.2,-2.6 -3.3,-2.6 -0.1,-0.1 -1,0.7 -1.9,1.6 z m 43.9,-0.7 c -0.5,0.4 -2.3,1.9 -4.1,3.4 -1.7,1.5 -4.5,4 -6.2,5.6 -1.6,1.6 -3.5,3.6 -4.2,4.3 L 98.6,53 c 1.4,1.4 1.9,2.1 2.1,2.4 0.2,0.3 0.5,0.6 0.6,0.6 0.2,0 1.5,-0.6 3.1,-1.3 1.5,-0.7 3.8,-1.9 5.1,-2.6 1.3,-0.7 4.3,-2.4 6.8,-3.9 2.5,-1.5 4.7,-2.8 4.9,-3 0.3,-0.2 0.4,-0.4 0.3,-0.7 -0.1,-0.2 -0.6,-0.9 -1.1,-1.6 -0.5,-0.7 -1.4,-1.7 -1.9,-2.3 -0.6,-0.6 -1.5,-1.5 -2,-2.1 -0.6,-0.5 -1.1,-1 -1.1,-1 -0.2,0.1 -0.6,0.5 -1.1,0.9 z"
           style="fill:#fdef87;fill-opacity:1;stroke:none;stroke-opacity:0" />
        <path
           id="path12650"
           class="st1"
           d="m 78.6,58.9 c -1.7,0.1 -4.7,0.3 -6.6,0.5 -1.9,0.2 -4.9,0.6 -6.7,0.8 -1.8,0.3 -3.3,0.5 -3.4,0.5 -0.1,0 -0.1,0.3 -0.1,0.7 0,0.4 0.2,1.5 0.4,2.6 0.2,1.1 0.7,2.8 1,3.9 0.4,1.1 0.7,2 0.7,2 0,0 2,-0.4 4.3,-1.1 2.4,-0.6 5.9,-1.7 7.9,-2.3 2,-0.7 4.8,-1.7 6.2,-2.2 1.4,-0.6 2.9,-1.2 3.3,-1.4 l 0.8,-0.4 C 85.8,61 85.6,60.2 85.6,59.7 l -0.1,-1 c -2.9,0.1 -5.1,0.1 -6.9,0.2 z m 23.2,0.3 c -0.1,0.2 -0.1,0.5 -0.1,0.8 0,0.3 -0.2,1 -0.4,1.5 l -0.4,1 c 3.5,1.5 6,2.5 7.7,3.1 1.7,0.6 4.4,1.5 6,2 1.6,0.5 4.2,1.2 5.8,1.7 1.6,0.4 3,0.7 3,0.6 0.1,-0.1 0.3,-0.8 0.6,-1.5 0.3,-0.7 0.7,-2.1 0.9,-3 0.2,-0.9 0.5,-2.3 0.6,-3 0.2,-1.1 0.1,-1.3 -0.3,-1.4 -0.2,-0.1 -1.6,-0.3 -3,-0.5 -1.4,-0.2 -4.1,-0.6 -6,-0.8 -1.9,-0.2 -4.8,-0.5 -6.5,-0.6 -1.7,-0.1 -4.1,-0.2 -5.4,-0.2 -1.9,0 -2.4,0.1 -2.5,0.3 z m -14.2,6.3 c -0.4,0.5 -1.4,1.7 -2.3,2.8 -0.9,1.1 -2.5,3.2 -3.7,4.9 -1.2,1.6 -3,4.4 -4.2,6.2 -1.2,1.8 -2,3.4 -2,3.5 0,0.2 1,0.8 2.1,1.4 1.1,0.6 3,1.5 4.3,1.9 1.3,0.4 2.4,0.8 2.5,0.8 0.1,0 0.3,-0.3 0.5,-0.8 0.2,-0.4 0.9,-2 1.6,-3.6 0.7,-1.6 1.8,-4.2 2.4,-5.8 0.6,-1.6 1.6,-4.5 2.2,-6.5 0.6,-2 1.1,-3.7 1.1,-3.8 0,-0.1 -0.3,-0.3 -0.7,-0.3 -0.4,-0.1 -1.3,-0.4 -1.9,-0.8 l -1.2,-0.7 z m 10.1,-0.1 c -0.6,0.3 -1.3,0.7 -1.8,0.7 -0.7,0.1 -0.7,0.2 -0.6,1 0.1,0.4 0.6,2.3 1.2,4.2 0.6,1.8 1.6,4.8 2.2,6.6 0.7,1.8 1.8,4.5 2.5,6.1 0.7,1.6 1.4,2.9 1.6,2.9 0.2,0 1.5,-0.4 2.9,-0.9 1.4,-0.5 3.3,-1.4 4.3,-1.9 1,-0.5 1.7,-1.1 1.7,-1.2 0,-0.1 -1,-1.8 -2.3,-3.9 -1.2,-2 -3.2,-5 -4.4,-6.6 -1.2,-1.6 -3,-4 -4,-5.3 -1.1,-1.3 -2,-2.4 -2.1,-2.4 -0.1,0.1 -0.7,0.4 -1.2,0.7 z"
           style="fill:#fdef87;fill-opacity:1;stroke:none;stroke-opacity:0" />
        <path
           id="path12652"
           class="st2"
           d="m 141.9,72 c -0.3,0.1 -0.4,0.2 -0.4,0.4 0,0.2 0.2,1.5 0.4,3 0.2,1.4 0.6,3.7 0.9,5 0.3,1.3 0.7,2.9 0.9,3.5 l 0.4,1.2 h 2 c 0.5,-1.7 0.8,-3 1.1,-4 0.2,-1 0.6,-2.8 0.8,-4 0.2,-1.2 0.4,-2.8 0.5,-3.5 0.1,-1.4 0.1,-1.4 -0.4,-1.6 -0.3,-0.1 -1.7,-0.1 -3.1,-0.1 -1.5,0 -2.8,0.1 -3.1,0.1 z m -12.4,8.9 c -0.3,0.6 -0.7,1.6 -0.9,2.2 -0.2,0.6 -0.4,1.5 -0.5,1.9 -0.1,0.7 -0.1,0.8 0.7,1 0.5,0.1 1.9,0.4 3.2,0.6 1.3,0.2 3.1,0.5 4.1,0.6 1,0.1 2.8,0.3 4,0.3 l 2.2,0.1 c 0.5,-1.6 0.5,-1.7 0.2,-2 -0.2,-0.2 -1.7,-1 -3.3,-1.9 -1.6,-0.9 -4.2,-2.1 -5.7,-2.7 -1.6,-0.6 -3,-1.2 -3.2,-1.2 -0.2,0 -0.5,0.4 -0.8,1.1 z m 27,0.1 c -1.5,0.6 -4.1,1.9 -5.7,2.7 -1.6,0.9 -3.1,1.7 -3.3,1.9 -0.3,0.3 -0.4,0.4 -0.1,1.1 l 0.3,0.8 c 3.3,-0.2 5.1,-0.4 6.1,-0.5 1,-0.1 2.9,-0.4 4.2,-0.6 1.3,-0.2 2.7,-0.5 3.2,-0.6 0.8,-0.2 0.8,-0.2 0.7,-1 -0.1,-0.4 -0.3,-1.3 -0.5,-1.9 -0.2,-0.6 -0.6,-1.6 -0.9,-2.2 -0.4,-0.7 -0.7,-1.1 -0.9,-1.1 -0.1,0.2 -1.5,0.7 -3.1,1.4 z M 141,90 c -1,0.7 -2.9,2.3 -4.3,3.6 -1.4,1.3 -3,2.8 -3.5,3.3 l -0.9,1 c 2.1,1.8 3.4,2.6 4.1,3 l 1.4,0.7 c 0.7,-0.8 1.5,-2 2.2,-3.2 0.7,-1.2 1.8,-3.3 2.5,-4.6 0.6,-1.3 1.3,-2.8 1.5,-3.2 0.3,-0.7 0.3,-0.8 -0.4,-1.3 -0.4,-0.3 -0.7,-0.5 -0.8,-0.5 0,-0.1 -0.8,0.5 -1.8,1.2 z m 5.4,-0.7 -0.7,0.5 c 0.7,1.6 1.4,3.2 2,4.5 0.7,1.3 1.9,3.5 2.7,4.8 0.8,1.3 1.6,2.4 1.7,2.4 0.1,0 0.8,-0.3 1.5,-0.7 0.7,-0.4 1.9,-1.2 2.7,-1.8 l 1.4,-1.1 c -1.7,-1.8 -3.2,-3.3 -4.5,-4.4 -1.2,-1.1 -3.1,-2.6 -4.1,-3.4 -1,-0.8 -1.9,-1.4 -2,-1.4 0,0 -0.3,0.3 -0.7,0.6 z"
           style="fill:#fadce6;fill-opacity:1;stroke:none;stroke-opacity:0" />
        <path
           id="path12654"
           class="st3"
           d="m 92.8,94.9 c -0.4,0 -1,0.1 -1.3,0.2 L 91,95.2 c 0.2,5.7 0.4,9 0.6,10.9 0.2,2 0.5,5 0.8,6.8 0.2,1.8 0.7,4.7 1,6.5 0.3,1.8 0.6,3.3 0.7,3.4 0.1,0.1 0.8,0.1 1.6,0 0.9,-0.1 2,-0.1 2.9,0 0.8,0.1 1.5,0.2 1.5,0.1 0,0 0.3,-1.7 0.7,-3.7 0.4,-2 0.9,-5.1 1.1,-6.9 0.2,-1.8 0.6,-4.8 0.8,-6.8 0.2,-2 0.4,-5.1 0.5,-6.9 0.1,-3.2 0.1,-3.4 -0.3,-3.5 -0.2,-0.1 -2.4,-0.2 -4.9,-0.2 -2.4,0 -4.8,0 -5.2,0 z m -17.7,5.2 c -0.9,0.5 -2.2,1.3 -3,1.8 -0.8,0.5 -2.3,1.6 -3.4,2.4 -1.6,1.2 -1.9,1.5 -1.7,1.8 0.1,0.2 1.3,1.6 2.6,3.1 1.3,1.5 3.6,4 5.1,5.6 1.5,1.6 4.1,4.2 5.8,5.8 1.7,1.6 3.9,3.7 4.9,4.5 l 1.8,1.6 c 2.2,-1.6 3.3,-2.3 3.8,-2.6 0.9,-0.4 1,-0.5 0.9,-0.9 -0.1,-0.3 -1,-1.9 -1.9,-3.6 -1,-1.7 -2.5,-4.5 -3.5,-6.1 -1,-1.6 -2.5,-4 -3.3,-5.3 -0.8,-1.3 -2.6,-3.8 -3.9,-5.6 -1.3,-1.8 -2.4,-3.3 -2.5,-3.3 -0.1,0 -0.9,0.4 -1.7,0.8 z m 40.2,2.1 c -1.1,1.5 -2.9,4.1 -4.1,5.8 -1.2,1.7 -2.9,4.5 -3.9,6.1 -1,1.6 -2.6,4.3 -3.5,6 -0.9,1.7 -1.7,3.2 -1.7,3.4 0,0.2 0.1,0.3 0.2,0.3 0.1,0 0.7,0.3 1.4,0.7 0.6,0.4 1.6,1.1 2.2,1.5 l 1,0.9 c 7.4,-6.9 10.9,-10.2 12.5,-11.9 1.6,-1.7 4,-4.3 5.4,-5.9 1.4,-1.6 2.5,-3 2.5,-3.1 0,-0.1 -0.8,-0.8 -1.7,-1.6 -1,-0.8 -3.1,-2.2 -4.7,-3.2 -1.7,-1 -3.1,-1.8 -3.3,-1.8 -0.1,0.1 -1.2,1.3 -2.3,2.8 z m -57.7,15.3 c -0.2,0.3 -0.7,1.5 -1.2,2.6 -0.5,1.1 -1.2,3.1 -1.5,4.4 -0.4,1.3 -0.7,2.5 -0.7,2.8 0,0.4 0.3,0.5 4.1,1.5 2.2,0.6 5.3,1.3 6.9,1.6 1.5,0.3 4.3,0.9 6.1,1.2 1.8,0.3 5.2,0.9 7.6,1.2 2.3,0.3 4.5,0.6 4.8,0.6 0.5,0 0.6,-0.1 0.6,-0.6 0,-0.3 0.2,-1.2 0.5,-1.9 0.3,-0.7 0.7,-1.6 0.9,-1.9 l 0.4,-0.7 c -2.5,-1.3 -5.2,-2.5 -7.7,-3.6 -2.5,-1.1 -6.3,-2.7 -8.5,-3.6 -2.2,-0.9 -5.7,-2.1 -7.7,-2.9 -2.1,-0.7 -3.9,-1.3 -4,-1.3 -0.2,0 -0.5,0.3 -0.6,0.6 z m 74.2,0.9 c -2,0.7 -5.1,1.8 -6.9,2.5 -1.8,0.7 -4.9,1.9 -6.9,2.8 -2,0.9 -5,2.2 -6.7,3 -1.6,0.8 -3,1.5 -3.1,1.6 0,0.1 0.2,0.7 0.5,1.3 0.3,0.6 0.7,1.8 0.9,2.5 0.2,0.7 0.3,1.3 0.4,1.3 0,0 1.7,-0.2 3.7,-0.5 2,-0.3 5.3,-0.8 7.4,-1.1 2,-0.3 5.4,-1 7.6,-1.4 2.1,-0.5 5.4,-1.2 7.1,-1.6 1.8,-0.5 3.5,-0.8 3.7,-0.9 0.4,-0.1 0.5,-0.2 0.4,-0.6 -0.1,-0.3 -0.4,-1.5 -0.7,-2.6 -0.3,-1.1 -0.8,-2.7 -1.1,-3.5 -0.3,-0.8 -0.9,-2.1 -1.2,-2.8 -0.4,-0.9 -0.8,-1.3 -1,-1.3 -0.3,0 -2.1,0.6 -4.1,1.3 z m -52.4,17.5 c -1.9,0.3 -5.3,0.8 -7.6,1.2 -2.3,0.4 -6,1.1 -8.2,1.6 -2.3,0.5 -5.2,1.2 -6.6,1.5 -1.3,0.3 -2.6,0.7 -2.7,0.8 -0.1,0.1 -0.1,0.6 0.1,1.6 0.2,0.8 0.6,2.4 1.1,3.7 0.4,1.3 1.1,3 1.6,3.9 0.4,0.9 0.8,1.6 0.9,1.6 0,0 1.7,-0.6 3.8,-1.2 2.1,-0.7 5.8,-2.1 8.4,-3.1 2.6,-1 7,-2.9 9.8,-4.1 2.8,-1.3 5.3,-2.5 5.6,-2.6 0.4,-0.3 0.4,-0.3 -0.2,-1.6 -0.4,-0.7 -0.8,-1.8 -0.9,-2.5 -0.2,-1.1 -0.3,-1.2 -0.9,-1.3 -0.4,0 -2.3,0.2 -4.2,0.5 z m 30.5,-0.3 c -0.1,0.1 -0.2,0.8 -0.3,1.4 -0.1,0.6 -0.5,1.7 -0.9,2.3 l -0.6,1.2 c 1.4,0.7 4,1.9 6.6,3.1 2.6,1.2 6.1,2.7 7.8,3.4 1.7,0.7 4.7,1.8 6.7,2.5 2,0.7 4.4,1.6 5.3,1.8 l 1.6,0.5 c 1.2,-2.3 1.8,-3.7 2.2,-4.7 0.4,-0.9 0.9,-2.6 1.2,-3.6 0.3,-1.1 0.5,-2.1 0.4,-2.2 -0.1,-0.2 -1.5,-0.6 -3.9,-1.3 -2.1,-0.5 -4.8,-1.2 -6,-1.5 -1.2,-0.3 -4.2,-0.9 -6.6,-1.3 -2.4,-0.4 -6.1,-1 -8.1,-1.3 -2.1,-0.3 -4.1,-0.6 -4.5,-0.6 -0.6,0.1 -0.9,0.1 -0.9,0.3 z M 82.7,146 c -2.4,2.1 -5.8,5.5 -7.6,7.3 -1.8,1.9 -4.3,4.5 -5.5,5.9 -1.2,1.3 -2.3,2.7 -2.6,3 l -0.4,0.6 c 0.9,0.8 2.1,1.8 3.3,2.7 1.2,0.9 3.2,2.2 4.4,2.9 1.3,0.7 2.3,1.2 2.3,1 0.1,-0.1 1.3,-1.8 2.7,-3.8 1.4,-2 3.5,-5 4.7,-6.8 1.2,-1.8 2.9,-4.6 3.9,-6.3 1,-1.7 2.3,-3.9 2.8,-5 0.6,-1.1 1,-2 1,-2.2 0,-0.1 -0.6,-0.5 -1.3,-0.9 -0.7,-0.4 -1.7,-1 -2.3,-1.5 -0.6,-0.5 -1.1,-0.9 -1.2,-0.9 0.1,0 -1.9,1.8 -4.2,4 z m 22.9,-3 c -0.6,0.5 -1.7,1.2 -2.3,1.5 -0.7,0.3 -1.2,0.6 -1.3,0.7 -0.1,0.1 1,1.9 2.2,4.2 1.2,2.3 2.9,5.2 3.7,6.4 0.8,1.3 2.1,3.3 2.9,4.6 0.8,1.3 2.5,3.8 3.9,5.6 1.3,1.9 2.5,3.4 2.7,3.4 0.2,0 1.1,-0.5 2.1,-1 1,-0.5 2.6,-1.6 3.7,-2.3 1,-0.7 2.4,-1.7 3.1,-2.3 l 1.2,-1 c -2.8,-3.3 -4.7,-5.4 -5.9,-6.7 -1.2,-1.3 -3.1,-3.3 -4.2,-4.5 -1.1,-1.1 -3.9,-3.7 -6.1,-5.8 -2.3,-2.1 -4.2,-3.8 -4.2,-3.8 -0.3,0.1 -0.9,0.5 -1.5,1 z m -12,4.8 c -0.2,1 -0.6,3.3 -0.9,5.1 -0.3,1.8 -0.7,5 -1,7.2 -0.2,2.2 -0.6,6.1 -0.7,8.7 -0.2,2.6 -0.2,4.7 -0.2,4.8 0.1,0.1 1.4,0.2 3,0.3 1.6,0.1 3.7,0.2 4.7,0.1 1,-0.1 2.4,-0.2 3.2,-0.2 l 1.4,-0.1 c -0.3,-5.9 -0.5,-9.2 -0.7,-11.1 -0.2,-2 -0.5,-5 -0.8,-6.8 -0.2,-1.8 -0.7,-4.7 -1,-6.5 l -0.6,-3.2 h -6.2 z"
           style="fill:#ffd485;fill-opacity:1;stroke:none;stroke-opacity:0" />
      </g>
    </clipPath>
    <rect
       x="27.767378"
       y="-203.09058"
       width="1974.0082"
       height="1358.0771"
       id="rect111" />
    <rect
       x="27.767378"
       y="-203.09058"
       width="1974.0082"
       height="1358.0771"
       id="rect1776" />
    <rect
       x="3112.4707"
       y="142.73952"
       width="800.20538"
       height="1514.5844"
       id="rect1269" />
    <rect
       x="3112.4707"
       y="142.73952"
       width="800.20538"
       height="1514.5844"
       id="rect1813" />
    <rect
       x="1229.3376"
       y="1470.5251"
       width="1763.7"
       height="1222.6543"
       id="rect117-7" />
    <rect
       x="1229.3376"
       y="1470.5251"
       width="1763.7"
       height="1222.6543"
       id="rect5974" />
    <rect
       x="1229.3376"
       y="1470.5251"
       width="1932.7705"
       height="1222.6543"
       id="rect117-7-1" />
    <rect
       x="1229.3376"
       y="1470.5251"
       width="1763.7"
       height="1222.6543"
       id="rect6010" />
  </defs>
  <sodipodi:namedview
     pagecolor="#ffffff"
     bordercolor="#666666"
     borderopacity="1"
     objecttolerance="10"
     gridtolerance="10"
     guidetolerance="10"
     inkscape:pageopacity="0"
     inkscape:pageshadow="2"
     inkscape:window-width="1920"
     inkscape:window-height="1001"
     id="namedview869"
     showgrid="false"
     inkscape:zoom="1"
     inkscape:cx="313.05631"
     inkscape:cy="197.29581"
     inkscape:window-x="2391"
     inkscape:window-y="-9"
     inkscape:window-maximized="1"
     inkscape:current-layer="svg867"
     inkscape:pagecheckerboard="true"
     inkscape:document-rotation="0" />
  <style
     id="style854"> tspan { white-space:pre } .shp0 { fill: #ffffff } .shp1 { fill: #f7e300 } .shp2 { fill: #536c18 } .shp3 { fill: #f4b5ca } .shp4 { fill: #f49f5c } .shp5 { fill: #757577 } </style>
  <g
     inkscape:label="Clip"
     id="g982"
     transform="matrix(0.82597567,0,0,0.81423531,-151.5512,152.8563)">
    <text
       xml:space="preserve"
       id="text5959"
       style="fill:black;fill-opacity:1;line-height:1.25;stroke:none;font-family:sans-serif;font-style:normal;font-weight:normal;font-size:270.99647072px;white-space:pre;shape-inside:url(#rect5961);" />
  </g>
  <text
     xml:space="preserve"
     id="text109"
     style="font-style:normal;font-variant:normal;font-weight:normal;font-stretch:normal;font-size:1066.75px;line-height:1.25;font-family:'Segoe Script';-inkscape-font-specification:'Segoe Script, Normal';font-variant-ligatures:normal;font-variant-caps:normal;font-variant-numeric:normal;font-variant-east-asian:normal;white-space:pre;shape-inside:url(#rect111);fill:#faec55;fill-opacity:1;stroke:none;"
     transform="matrix(1.7413166,0.31496731,-0.2747411,1.8466562,-222.48718,-308.38223)"
     inkscape:export-xdpi="96"
     inkscape:export-ydpi="96"><tspan
       x="27.767578"
       y="736.12544"><tspan
         style="font-style:normal;font-variant:normal;font-weight:normal;font-stretch:normal;font-size:1066.75px;font-family:'Segoe Script';-inkscape-font-specification:'Segoe Script, Normal';font-variant-ligatures:normal;font-variant-caps:normal;font-variant-numeric:normal;font-variant-east-asian:normal;white-space:pre;fill:#faec55;fill-opacity:1">l
</tspan></tspan></text>
  <text
     xml:space="preserve"
     id="text115"
     style="font-style:normal;font-variant:normal;font-weight:bold;font-stretch:normal;font-size:1066.75px;line-height:1.25;font-family:'Segoe Script';-inkscape-font-specification:'Segoe Script, Bold';font-variant-ligatures:normal;font-variant-caps:normal;font-variant-numeric:normal;font-variant-east-asian:normal;white-space:pre;shape-inside:url(#rect117);fill:#f49f5c;fill-opacity:1;stroke:none;stroke-opacity:0;"
     transform="matrix(0.82597568,0,0,0.8142353,-1.6439918,-582.92582)"><tspan
       x="1229.3379"
       y="2409.9987"><tspan
         style="white-space:pre">4</tspan></tspan></text>
  <text
     xml:space="preserve"
     id="text115-6"
     style="font-style:normal;font-variant:normal;font-weight:bold;font-stretch:normal;font-size:1066.75px;line-height:1.25;font-family:'Segoe Script';-inkscape-font-specification:'Segoe Script, Bold';font-variant-ligatures:normal;font-variant-caps:normal;font-variant-numeric:normal;font-variant-east-asian:normal;white-space:pre;shape-inside:url(#rect117-7);fill:#faec55;fill-opacity:1;stroke:none;stroke-opacity:0;"
     transform="matrix(0.82597568,0,0,0.8142353,669.5046,-566.25637)"><tspan
       x="1229.3379"
       y="2409.9987"><tspan
         style="white-space:pre">0</tspan></tspan></text>
  <text
     xml:space="preserve"
     id="text115-6-3"
     style="font-style:normal;font-variant:normal;font-weight:bold;font-stretch:normal;font-size:1066.75px;line-height:1.25;font-family:'Segoe Script';-inkscape-font-specification:'Segoe Script, Bold';font-variant-ligatures:normal;font-variant-caps:normal;font-variant-numeric:normal;font-variant-east-asian:normal;white-space:pre;shape-inside:url(#rect117-7-1);fill:#f4b5ca;fill-opacity:1;stroke:none;stroke-opacity:0;"
     transform="matrix(0.82597568,0,0,0.8142353,1320.8633,-578.41907)"><tspan
       x="1229.3379"
       y="2409.9987"><tspan
         style="white-space:pre">4</tspan></tspan></text>
  <text
     xml:space="preserve"
     id="text1267"
     style="font-style:normal;font-variant:normal;font-weight:normal;font-stretch:normal;font-size:1066.75px;line-height:1.25;font-family:'Segoe Script';-inkscape-font-specification:'Segoe Script, Normal';font-variant-ligatures:normal;font-variant-caps:normal;font-variant-numeric:normal;font-variant-east-asian:normal;white-space:pre;shape-inside:url(#rect1269);fill:#faec55;fill-opacity:1;stroke:none;"
     transform="matrix(-0.83341736,-0.5526441,-0.5526441,0.83341736,3664.4862,1078.7594)"><tspan
       x="3112.4707"
       y="1081.9555"><tspan
         style="font-style:normal;font-variant:normal;font-weight:normal;font-stretch:normal;font-size:1066.75px;font-family:'Segoe Script';-inkscape-font-specification:'Segoe Script, Normal';font-variant-ligatures:normal;font-variant-caps:normal;font-variant-numeric:normal;font-variant-east-asian:normal;white-space:pre;fill:#faec55;fill-opacity:1">'</tspan></tspan></text>
  <rect
     style="fill:none;fill-opacity:1;fill-rule:nonzero;stroke:none;stroke-width:1.00795;stroke-miterlimit:4;stroke-dasharray:none;stroke-opacity:0"
     id="rect5238"
     width="2104.2329"
     height="246.86533"
     x="853.44867"
     y="1390.7042" />
  <g
     id="g9323"
     transform="matrix(5.268676,0,0,4.9675683,25.928564,120.27905)">
    <path
       id="Path_1_2_"
       class="st2"
       d="m 137.15828,153.65812 c -0.27081,0.0243 -0.7786,0.0851 -1.13969,0.13376 l -0.64319,0.073 c 0.16926,2.68735 0.31595,4.38974 0.44008,5.50846 0.12412,1.11871 0.31595,2.6387 0.42879,3.35614 0.11284,0.72959 0.37238,2.1523 0.57549,3.16158 l 0.37238,1.84831 h 2.79846 c 0.31595,-1.32544 0.54164,-2.39551 0.7109,-3.23455 0.15798,-0.83903 0.41751,-2.43198 0.57549,-3.56286 0.15797,-1.11871 0.3498,-2.7603 0.42879,-3.62365 0.079,-0.87552 0.1467,-1.99424 0.1467,-2.50495 0.0113,-0.89983 0,-0.92416 -0.38366,-1.00928 -0.2144,-0.0486 -1.16227,-0.12159 -2.09885,-0.15808 -0.94786,-0.0243 -1.94087,-0.0243 -2.21169,0.0122 z"
       style="fill:#faec55;fill-opacity:1;stroke-width:0.117138" />
    <path
       id="Path_3_2_"
       class="st2"
       d="m 123.73019,159.53138 c -0.59805,0.59583 -1.47821,1.61726 -1.94087,2.24958 -0.46264,0.63232 -0.8463,1.22815 -0.8463,1.31327 0,0.0973 0.68833,0.62016 1.52335,1.16736 0.83503,0.54719 2.35838,1.50783 3.37395,2.12798 1.01557,0.608 2.80974,1.61728 3.98329,2.23743 1.17355,0.62016 2.52764,1.31328 3.02414,1.53216 0.49651,0.21887 0.91402,0.40127 0.93659,0.37695 0.0226,-0.0122 0.19182,-0.2432 0.37237,-0.49856 0.18055,-0.25535 0.56421,-0.68095 0.84631,-0.94847 l 0.50779,-0.4864 c -0.5755,-0.66879 -1.2074,-1.37407 -1.77161,-1.99423 -0.56421,-0.62015 -1.87316,-1.94559 -2.90002,-2.95486 -1.02685,-1.00927 -2.75332,-2.57791 -3.8366,-3.4899 -1.08327,-0.912 -2.01985,-1.67807 -2.07627,-1.70239 -0.0451,0 -0.58677,0.47424 -1.19612,1.07008 z m 27.99588,-0.46208 c -0.31595,0.26751 -1.47821,1.25247 -2.59534,2.20094 -1.11713,0.94848 -2.88873,2.59007 -3.92687,3.63582 -1.03814,1.04576 -2.25682,2.31039 -2.69691,2.79679 l -0.80117,0.88767 c 0.88016,0.92416 1.22997,1.36192 1.3541,1.5808 0.12412,0.21888 0.29338,0.38911 0.39494,0.38911 0.10156,0 0.98172,-0.38911 1.95215,-0.87551 0.98172,-0.47424 2.44865,-1.22816 3.27239,-1.66591 0.82374,-0.43776 2.7759,-1.58079 4.3331,-2.55359 1.56849,-0.9728 2.96772,-1.84831 3.1257,-1.95775 0.20312,-0.14592 0.24825,-0.26752 0.16926,-0.43776 -0.0677,-0.13375 -0.38366,-0.59583 -0.69961,-1.02143 -0.31596,-0.4256 -0.86888,-1.11872 -1.21868,-1.51999 -0.34981,-0.40128 -0.93658,-1.00928 -1.28639,-1.34976 -0.34981,-0.34047 -0.68833,-0.62015 -0.72219,-0.62015 -0.0451,0.0365 -0.33852,0.2432 -0.65448,0.51072 z"
       style="fill:#faec55;fill-opacity:1;stroke-width:0.117138" />
    <path
       id="Path_5_2_"
       class="st2"
       d="m 128.98859,172.44522 c -1.09456,0.0608 -2.97901,0.20672 -4.19769,0.31616 -1.2074,0.1216 -3.14827,0.3648 -4.29925,0.53504 -1.15098,0.17023 -2.1327,0.31615 -2.16655,0.31615 -0.0339,0 -0.0677,0.19457 -0.0677,0.42561 0,0.23103 0.10155,0.98495 0.22568,1.67807 0.12412,0.69311 0.41751,1.81183 0.65448,2.50494 0.23696,0.69312 0.44008,1.26463 0.45136,1.28896 0.0113,0.0243 1.25254,-0.29184 2.75333,-0.69312 1.50078,-0.40128 3.78017,-1.08224 5.044,-1.50783 1.2751,-0.4256 3.04671,-1.08224 3.94943,-1.43488 0.90273,-0.3648 1.86188,-0.75391 2.1327,-0.87551 l 0.4965,-0.23104 c -0.37237,-0.94847 -0.4965,-1.50783 -0.51907,-1.84831 l -0.0451,-0.62016 c -1.88445,0.0243 -3.32882,0.0851 -4.41209,0.14592 z m 14.79347,0.1824 c -0.0451,0.10944 -0.079,0.35264 -0.079,0.52288 0,0.1824 -0.12412,0.62015 -0.2821,0.98495 l -0.28211,0.65664 c 2.25683,0.98496 3.81404,1.60511 4.9086,2.01855 1.09455,0.40128 2.82102,0.99711 3.83659,1.32543 1.01557,0.32832 2.68562,0.80256 3.70119,1.08224 1.01557,0.26751 1.88445,0.43776 1.94087,0.37695 0.0451,-0.0608 0.22568,-0.49855 0.38366,-0.97279 0.16926,-0.47424 0.42879,-1.36192 0.57549,-1.98207 0.15798,-0.62016 0.32723,-1.48351 0.39494,-1.93343 0.10156,-0.74175 0.0903,-0.81471 -0.16926,-0.88767 -0.15798,-0.0487 -1.01557,-0.19457 -1.9183,-0.34048 -0.90273,-0.14592 -2.6292,-0.37696 -3.8366,-0.52288 -1.2074,-0.14592 -3.06928,-0.32832 -4.1187,-0.40128 -1.0607,-0.073 -2.60663,-0.13376 -3.43037,-0.13376 -1.24125,0.0122 -1.5572,0.0486 -1.62491,0.20672 z m -9.10628,4.06142 c -0.25953,0.304 -0.91401,1.11871 -1.46693,1.79967 -0.54164,0.69312 -1.60235,2.11583 -2.3471,3.16158 -0.74475,1.04576 -1.94087,2.85759 -2.65176,4.02494 -0.7109,1.15519 -1.27511,2.18879 -1.26383,2.29823 0.0226,0.0973 0.60935,0.49856 1.32025,0.88767 0.69961,0.38912 1.94086,0.94848 2.74203,1.22816 0.80117,0.29184 1.50079,0.52287 1.5685,0.53503 0.0677,0.0122 0.21439,-0.21888 0.33852,-0.49855 0.13541,-0.27968 0.59806,-1.32544 1.04942,-2.34687 0.45137,-1.02144 1.12841,-2.71167 1.51207,-3.75742 0.38366,-1.04576 1.02686,-2.95487 1.41052,-4.2195 0.38366,-1.26463 0.69961,-2.38335 0.69961,-2.46847 0,-0.0851 -0.20311,-0.19455 -0.46265,-0.23103 -0.25953,-0.0365 -0.80117,-0.26752 -1.21868,-0.52288 l -0.75604,-0.46208 z m 6.4658,-0.0243 c -0.34981,0.21887 -0.8576,0.42559 -1.11713,0.48639 -0.46265,0.0973 -0.47393,0.10944 -0.38366,0.62016 0.0451,0.29183 0.38366,1.50783 0.74475,2.6995 0.36109,1.19168 1.00429,3.12511 1.43309,4.2803 0.42879,1.15519 1.15098,2.9427 1.59105,3.95198 0.45137,1.03359 0.90273,1.86047 1.01557,1.88479 0.11284,0.0243 0.93658,-0.23104 1.83931,-0.55936 0.90274,-0.32832 2.1327,-0.88767 2.74204,-1.22815 0.60934,-0.34048 1.10585,-0.68096 1.10585,-0.75392 0,-0.073 -0.65448,-1.20383 -1.44437,-2.50494 -0.78989,-1.30112 -2.04242,-3.23455 -2.78717,-4.2803 -0.74476,-1.04575 -1.90702,-2.61439 -2.57278,-3.46558 -0.67705,-0.8512 -1.28639,-1.54431 -1.37666,-1.53215 -0.0903,0 -0.44009,0.1824 -0.78989,0.40128 z"
       style="fill:#faec55;fill-opacity:1;stroke-width:0.117138" />
    <path
       id="Path_6_2_"
       class="st0"
       d="m 169.36314,180.95718 c -0.16926,0.0365 -0.27082,0.15808 -0.24825,0.27968 0.0226,0.12159 0.13541,0.99711 0.24825,1.93342 0.12413,0.94848 0.37238,2.39551 0.55292,3.23455 0.19183,0.83903 0.44008,1.86047 0.56421,2.2739 l 0.22568,0.75392 h 1.27511 c 0.31595,-1.07007 0.54163,-1.92127 0.69961,-2.56574 0.15798,-0.64448 0.37238,-1.81183 0.4965,-2.56575 0.11284,-0.76608 0.24825,-1.79967 0.30467,-2.31039 0.0903,-0.88767 0.079,-0.92416 -0.23696,-1.02143 -0.18055,-0.0486 -1.06071,-0.0973 -1.96344,-0.0851 -0.90273,0.0122 -1.77161,0.0486 -1.9183,0.073 z m -7.9553,5.75165 c -0.18054,0.37695 -0.4288,1.02143 -0.55292,1.42271 -0.12412,0.40128 -0.25953,0.94847 -0.30467,1.21599 -0.079,0.4864 -0.0677,0.49856 0.45136,0.62016 0.29339,0.073 1.2074,0.2432 2.01986,0.38912 0.82374,0.14591 2.00857,0.32831 2.6292,0.40127 0.62062,0.073 1.78289,0.17024 2.56149,0.21888 l 1.4218,0.0851 c 0.33853,-1.02143 0.32724,-1.10655 0.10156,-1.27679 -0.13541,-0.10944 -1.08328,-0.65664 -2.09885,-1.216 -1.01557,-0.55935 -2.66305,-1.37407 -3.65605,-1.7875 -0.993,-0.41344 -1.90702,-0.76608 -2.03114,-0.76608 -0.11284,0 -0.34981,0.29184 -0.54164,0.69312 z m 17.26469,0.073 c -0.98171,0.41343 -2.60662,1.21599 -3.62219,1.7875 -1.01557,0.55936 -1.96344,1.10656 -2.09885,1.216 -0.2144,0.17024 -0.22568,0.25536 -0.0677,0.7296 l 0.18054,0.54719 c 2.09885,-0.13376 3.24983,-0.23104 3.91559,-0.304 0.66576,-0.073 1.88444,-0.25536 2.6969,-0.40127 0.82374,-0.14592 1.73776,-0.32832 2.01985,-0.38912 0.51908,-0.1216 0.53036,-0.13376 0.45137,-0.62016 -0.0451,-0.26752 -0.18055,-0.82688 -0.30467,-1.21599 -0.12413,-0.38912 -0.37237,-1.0336 -0.55292,-1.42271 -0.22568,-0.46208 -0.4288,-0.69312 -0.58678,-0.69312 -0.14669,0 -1.04942,0.34048 -2.03114,0.76608 z m -9.90745,5.86108 c -0.60934,0.44992 -1.85059,1.50784 -2.74204,2.34687 -0.90273,0.82688 -1.89573,1.81183 -2.2004,2.16447 l -0.5642,0.64448 c 1.34281,1.14303 2.14398,1.67807 2.64048,1.92127 l 0.91401,0.44991 c 0.44008,-0.53503 0.94787,-1.32543 1.4218,-2.10367 0.47393,-0.77823 1.18483,-2.14014 1.57978,-3.0035 0.40622,-0.87552 0.81245,-1.79967 0.92529,-2.06719 0.19183,-0.46208 0.18055,-0.4864 -0.22568,-0.81471 -0.23697,-0.18241 -0.47393,-0.34048 -0.51907,-0.34048 -0.079,-0.0243 -0.62063,0.34048 -1.22997,0.80255 z m 3.44166,-0.47423 -0.4288,0.34047 c 0.41751,1.04576 0.89145,2.06719 1.30896,2.94271 0.41751,0.87551 1.19612,2.28607 1.71518,3.13726 0.53036,0.85119 1.02686,1.54431 1.10585,1.54431 0.079,0 0.51906,-0.19455 0.98171,-0.42559 0.46266,-0.23104 1.22997,-0.75392 1.7039,-1.16736 l 0.86888,-0.74175 c -1.09455,-1.20384 -2.05371,-2.14015 -2.8436,-2.86975 -0.7786,-0.7296 -1.95215,-1.71455 -2.59534,-2.21311 -0.6432,-0.4864 -1.21868,-0.88767 -1.2751,-0.88767 -0.0677,-0.0122 -0.31596,0.14592 -0.54164,0.34048 z"
       style="fill:#f4b5ca;fill-opacity:1;stroke-width:0.117138" />
    <path
       id="Path_7_2_"
       class="st1"
       d="m 138.01588,195.8531 c -0.27082,0.0365 -0.6432,0.0851 -0.82374,0.1216 l -0.32724,0.0729 c 0.12412,3.72094 0.25953,5.83677 0.37237,7.10141 0.11285,1.26463 0.33853,3.25886 0.49651,4.41405 0.15797,1.15519 0.45136,3.06431 0.65447,4.2195 0.20312,1.15519 0.40623,2.15231 0.46265,2.20095 0.0564,0.0486 0.50779,0.0365 1.01557,-0.0243 0.55292,-0.073 1.29767,-0.073 1.8506,0 0.50778,0.0608 0.93658,0.10945 0.94786,0.0973 0.0113,-0.0122 0.2144,-1.0944 0.46265,-2.39551 0.23697,-1.30111 0.56421,-3.31966 0.72219,-4.48702 0.15797,-1.15519 0.38365,-3.14942 0.49649,-4.41405 0.11285,-1.26464 0.25954,-3.28318 0.31596,-4.48702 0.0903,-2.06719 0.079,-2.17663 -0.18055,-2.28606 -0.14669,-0.0608 -1.5572,-0.13376 -3.11441,-0.15808 -1.57977,-0.0122 -3.08056,-0.0122 -3.35138,0.0243 z m -11.30668,3.38046 c -0.54164,0.304 -1.41051,0.82687 -1.9183,1.14303 -0.50778,0.31616 -1.4895,1.02144 -2.16655,1.54431 -1.02686,0.7904 -1.21869,0.99712 -1.11713,1.19168 0.0677,0.12159 0.82374,1.03359 1.65877,2.00639 0.83502,0.97279 2.30196,2.61438 3.26111,3.62366 0.94786,1.00927 2.61791,2.71166 3.71247,3.76957 1.08327,1.05792 2.50507,2.37119 3.14827,2.93055 l 1.17354,1.00927 c 1.37666,-1.04575 2.07628,-1.49567 2.44865,-1.66591 0.59806,-0.27968 0.66577,-0.34047 0.55293,-0.608 -0.0677,-0.15807 -0.62063,-1.21599 -1.22997,-2.34686 -0.60934,-1.13088 -1.61363,-2.90623 -2.24554,-3.95198 -0.63191,-1.05791 -1.59106,-2.59007 -2.12141,-3.4291 -0.53036,-0.83904 -1.67005,-2.48063 -2.50507,-3.66014 -0.83503,-1.17952 -1.54593,-2.14015 -1.59107,-2.14015 -0.0339,0.0243 -0.51906,0.27968 -1.0607,0.58368 z m 25.69392,1.31327 c -0.69962,0.96063 -1.87316,2.66303 -2.61791,3.7939 -0.74475,1.13087 -1.86188,2.90622 -2.49379,3.95198 -0.63191,1.05791 -1.62491,2.8211 -2.22297,3.92766 -0.59806,1.10655 -1.08327,2.10366 -1.08327,2.21311 0,0.10943 0.0677,0.19455 0.14669,0.19455 0.079,0 0.47393,0.19456 0.89144,0.43776 0.40623,0.2432 1.03814,0.69312 1.38795,0.99712 l 0.64319,0.55935 c 4.73933,-4.46269 6.95101,-6.63932 7.96658,-7.72155 1.01557,-1.08224 2.5615,-2.79679 3.44166,-3.83039 0.88016,-1.02143 1.60234,-1.92126 1.60234,-1.99422 0,-0.073 -0.4965,-0.53504 -1.10584,-1.0336 -0.60934,-0.49855 -1.97472,-1.43487 -3.02414,-2.07935 -1.06071,-0.64447 -1.99729,-1.17951 -2.08756,-1.17951 -0.10156,0.0243 -0.74475,0.80255 -1.44437,1.76319 z m -36.85391,9.95899 c -0.10156,0.19455 -0.4288,0.96063 -0.73347,1.67807 -0.30467,0.72959 -0.74475,2.00639 -0.98171,2.83326 -0.23697,0.83904 -0.4288,1.65375 -0.41752,1.81183 0,0.26752 0.2144,0.35264 2.59535,0.94848 1.43308,0.36479 3.39652,0.83903 4.36695,1.04575 0.98172,0.21888 2.74204,0.57152 3.91559,0.7904 1.17355,0.21888 3.35138,0.58367 4.8296,0.80255 1.4895,0.21888 2.87745,0.40128 3.09184,0.40128 0.33853,0 0.39495,-0.0486 0.39495,-0.38912 0,-0.21888 0.13541,-0.76607 0.29338,-1.21599 0.15798,-0.44992 0.41752,-1.02144 0.56421,-1.25247 l 0.27082,-0.4256 c -1.60234,-0.81472 -3.3401,-1.64159 -4.90859,-2.35903 -1.56849,-0.71743 -3.99458,-1.76319 -5.40509,-2.32254 -1.41051,-0.55936 -3.63348,-1.3984 -4.94244,-1.86048 -1.30896,-0.46208 -2.47122,-0.83903 -2.57278,-0.83903 -0.10155,-0.0122 -0.25953,0.15808 -0.36109,0.35264 z m 47.33685,0.60799 c -1.28639,0.44992 -3.27239,1.19168 -4.41209,1.62943 -1.13969,0.43776 -3.11441,1.25248 -4.41208,1.81183 -1.28639,0.55936 -3.20469,1.44703 -4.25411,1.95775 -1.04943,0.52288 -1.92959,0.98496 -1.95216,1.0336 -0.0339,0.0486 0.11285,0.43775 0.31596,0.8512 0.20311,0.41343 0.46265,1.14303 0.57549,1.61726 0.11284,0.47424 0.2144,0.86336 0.23697,0.87552 0.0226,0.0122 1.09456,-0.1216 2.38094,-0.29184 1.28639,-0.17024 3.4078,-0.49856 4.69419,-0.71744 1.28639,-0.21887 3.46423,-0.64447 4.8296,-0.93631 1.36538,-0.29184 3.41909,-0.77823 4.5475,-1.07007 1.1397,-0.29184 2.2004,-0.5472 2.38095,-0.58368 0.27082,-0.0365 0.30467,-0.10944 0.23697,-0.41344 -0.0451,-0.19456 -0.23697,-0.96063 -0.4288,-1.67807 -0.19183,-0.7296 -0.51907,-1.76319 -0.72218,-2.31039 -0.20312,-0.54719 -0.55293,-1.36191 -0.76733,-1.81183 -0.2821,-0.55935 -0.48521,-0.82687 -0.65447,-0.81471 -0.13541,0.0243 -1.29768,0.40128 -2.59535,0.85119 z m -33.40097,11.36954 c -1.2074,0.17024 -3.38523,0.52288 -4.8296,0.7904 -1.44437,0.25535 -3.81403,0.74175 -5.2584,1.05791 -1.44436,0.32832 -3.32881,0.76608 -4.19769,0.99711 -0.85759,0.21888 -1.62491,0.46208 -1.7039,0.52288 -0.0903,0.0851 -0.079,0.4256 0.0451,1.00927 0.10156,0.48641 0.41751,1.56864 0.68833,2.40767 0.27082,0.83904 0.73347,1.98207 1.01557,2.54143 0.2821,0.55936 0.54164,1.02144 0.55292,1.02144 0.0226,0 1.10585,-0.3648 2.4148,-0.81472 1.30896,-0.43776 3.72376,-1.33759 5.37124,-1.98207 1.64748,-0.64448 4.45722,-1.86047 6.2514,-2.69951 1.79417,-0.82687 3.39651,-1.60511 3.55449,-1.70239 0.28211,-0.18239 0.28211,-0.19456 -0.12412,-1.00927 -0.22569,-0.44992 -0.48522,-1.17952 -0.57549,-1.61727 -0.15798,-0.74176 -0.19183,-0.7904 -0.58678,-0.81472 -0.23696,-0.0122 -1.41051,0.10944 -2.61791,0.29184 z m 19.41996,-0.1824 c -0.0339,0.0973 -0.13541,0.49856 -0.2144,0.89984 -0.0903,0.40127 -0.33853,1.08223 -0.56421,1.51999 l -0.40623,0.79039 c 0.90273,0.4864 2.55022,1.26464 4.23155,2.04287 1.68133,0.7904 3.92687,1.77536 4.97629,2.21311 1.04942,0.43776 2.979,1.16736 4.26539,1.64159 1.28639,0.47424 2.80975,1.00928 3.37395,1.20384 l 1.02686,0.34047 c 0.74475,-1.48351 1.15098,-2.41982 1.38795,-3.02782 0.23696,-0.62016 0.57548,-1.67807 0.74475,-2.37119 0.18054,-0.69312 0.29338,-1.33759 0.24825,-1.44703 -0.0451,-0.1216 -0.93659,-0.42559 -2.47122,-0.81471 -1.32025,-0.34048 -3.03543,-0.76608 -3.82532,-0.94848 -0.7786,-0.1824 -2.67433,-0.55935 -4.19769,-0.85119 -1.52335,-0.29184 -3.85917,-0.68096 -5.19069,-0.86336 -1.33153,-0.1824 -2.61791,-0.37696 -2.87745,-0.41344 -0.29338,-0.0608 -0.46265,-0.0243 -0.50778,0.0851 z m -17.3324,6.73661 c -1.50079,1.39839 -3.67862,3.5507 -4.84089,4.77885 -1.16226,1.22815 -2.73075,2.95487 -3.48678,3.81822 -0.75604,0.87551 -1.50079,1.75103 -1.64749,1.94559 l -0.2821,0.3648 c 0.55292,0.53503 1.35409,1.15519 2.1327,1.73887 0.7786,0.57151 2.05371,1.41055 2.82103,1.86047 0.81245,0.47424 1.44436,0.75392 1.4895,0.68096 0.0564,-0.073 0.83502,-1.16736 1.73776,-2.44415 0.90272,-1.26464 2.25681,-3.25886 3.00157,-4.41406 0.74475,-1.15519 1.86188,-3.0035 2.49378,-4.08574 0.63192,-1.09439 1.44437,-2.54143 1.80547,-3.23454 0.36108,-0.69312 0.65447,-1.32543 0.65447,-1.42271 0,-0.0973 -0.37237,-0.35264 -0.82374,-0.58368 -0.45136,-0.23104 -1.10584,-0.6688 -1.45565,-0.98495 -0.34981,-0.31616 -0.68833,-0.57152 -0.75603,-0.57152 -0.0677,0.0122 -1.34281,1.15519 -2.8436,2.55359 z m 14.60164,-1.90911 c -0.39494,0.34047 -1.07199,0.79039 -1.4895,1.00927 -0.4288,0.20672 -0.78989,0.40128 -0.81246,0.4256 -0.0226,0.0243 0.60934,1.25247 1.39923,2.71166 0.78989,1.47136 1.8506,3.35615 2.35838,4.18302 0.50779,0.82687 1.34281,2.16447 1.85059,2.96702 0.50779,0.80256 1.62492,2.44415 2.47123,3.66015 0.8463,1.21599 1.62491,2.20095 1.71518,2.20095 0.10156,0 0.68833,-0.29184 1.32024,-0.64448 0.62063,-0.35264 1.68133,-1.02144 2.3471,-1.48351 0.66576,-0.46208 1.54592,-1.13088 1.96343,-1.49568 l 0.75604,-0.65664 c -1.80546,-2.14014 -2.97901,-3.47774 -3.76889,-4.35325 -0.78989,-0.87552 -2.00858,-2.17663 -2.70819,-2.90622 -0.69962,-0.7296 -2.45994,-2.43199 -3.91559,-3.7939 -1.44436,-1.36192 -2.66305,-2.46847 -2.70818,-2.46847 -0.0226,0.0122 -0.38367,0.304 -0.77861,0.64448 z m -7.66191,3.1251 c -0.13541,0.65664 -0.38366,2.14015 -0.57549,3.29534 -0.19183,1.15519 -0.47393,3.27102 -0.63191,4.68158 -0.15798,1.41055 -0.37238,3.95197 -0.46265,5.63005 -0.10155,1.67807 -0.14669,3.08862 -0.11284,3.1251 0.0339,0.0365 0.90273,0.13376 1.9183,0.20672 1.01557,0.073 2.35838,0.10944 2.99029,0.0608 0.63191,-0.0486 1.5572,-0.10944 2.06499,-0.14592 l 0.9253,-0.073 c -0.16926,-3.80606 -0.31596,-5.95837 -0.4288,-7.223 -0.11284,-1.26464 -0.33852,-3.25886 -0.4965,-4.41406 -0.15798,-1.15519 -0.45137,-3.0643 -0.65448,-4.2195 l -0.37237,-2.10367 h -3.92687 z"
       style="fill:#f49f5c;fill-opacity:1;stroke-width:0.117138" />
  </g>
  <path
     id="Path 2"
     style="mix-blend-mode:normal;fill:#536c18;fill-opacity:1;stroke:none;stroke-width:0;stroke-miterlimit:4;stroke-dasharray:none;stroke-opacity:1"
     d="m 784.71517,89.915305 c -145.55,0 -150.0882,0.097 -150.7282,1.747 -0.37,0.9601 -40.3041,130.680105 -88.7441,288.250105 l -88.0713,286.503 c 102.57,0.38 128.2476,0.1044 128.5477,-0.4556 0.27,-0.5101 7.6943,-29.5309 16.4943,-64.4909 l 16.0061,-63.5576 179.4957,0.011 c 3.04,12.01 10.3489,41.0415 18.2089,72.2715 l 14.2915,56.7862 130.5009,-0.065 c -0.91,-4.26 -39.8464,-131.953 -87.1164,-286.503 -47.28,-154.55 -86.6101,-283.133305 -87.4202,-285.743305 z m 239.00563,0 v 288.499605 288.4996 h 123.99 v -196.9992 c 68.5901,0 93.4588,-0.4612 99.5088,-1.0309 6.05,-0.57 15.4978,-1.6976 20.9978,-2.5176 5.5,-0.82 15.1669,-2.6385 21.4969,-4.0585 6.3301,-1.41 17.5821,-4.5944 25.002,-7.0644 7.42,-2.47 18.4529,-6.843 24.5029,-9.723 6.05,-2.89 14.8302,-7.6376 19.5002,-10.5477 4.67,-2.91 11.1978,-7.3783 14.4977,-9.9183 3.3,-2.55 9.3208,-7.7728 13.3908,-11.6329 4.06,-3.8499 9.9353,-10.1593 13.0654,-14.0093 3.1299,-3.85 7.4904,-9.7002 9.6904,-13.0002 2.2,-3.3 5.8336,-9.3694 8.0735,-13.4994 2.23,-4.12 5.657,-11.5444 7.607,-16.4944 1.95,-4.95 4.7337,-13.0527 6.1637,-18.0027 1.44,-4.95 3.4534,-13.9494 4.5034,-19.9994 1.04,-6.05 2.4067,-18.1987 3.0167,-26.9987 0.79,-11.49 0.8037,-20.2329 0.033,-31.0029 -0.58,-8.25 -1.6833,-18.5945 -2.4633,-22.9944 -0.77,-4.4001 -2.3199,-11.6061 -3.4399,-16.0061 -1.11,-4.4 -3.2287,-11.3661 -4.6987,-15.4961 -1.47,-4.12 -5.1907,-12.4519 -8.2906,-18.5018 -3.0901,-6.0501 -8.0552,-14.372 -11.0252,-18.502 -2.97,-4.12 -7.9244,-10.3683 -11.0143,-13.8683 -3.08,-3.51 -9.2188,-9.4104 -13.6188,-13.1304 -4.3999,-3.71 -11.8244,-9.3167 -16.4944,-12.4467 -4.67,-3.14 -14.3469,-8.5795 -21.4969,-12.0995 -7.15,-3.52 -19.7579,-8.6082 -28.0078,-11.3182 -8.25,-2.71 -20.1696,-6.076705 -26.4996,-7.476705 -6.33,-1.41 -17.8012,-3.4577 -25.5012,-4.5577 -7.7,-1.0999 -20.0778,-2.48 -27.4978,-3.0601 -8.1801,-0.63 -53.2053,-1.0417 -114.2453,-1.0417 z m 748.4974,0 c -145.95,0 -150.4227,0.097 -150.9127,1.747 -0.28,0.9601 -39.9221,130.002605 -88.0821,286.752605 -48.16,156.75 -87.7787,285.7925 -88.0387,286.7525 -0.4401,1.65 3.0754,1.7463 63.7855,1.7363 h 64.2412 c 23.91,-94.93 31.2257,-123.947 31.6757,-125.7371 l 0.8247,-3.2446 h 179.5066 l 32.1207,128.4934 c 117.8699,0.45 131.3008,0.2411 131.0108,-0.7488 -0.2,-0.69 -39.9257,-130.5096 -88.2557,-288.4996 z m 271.5495,0 -0.3144,259.254605 c -0.2801,244.97 -0.3951,259.8282 -2.1053,269.7482 -1,5.77 -2.9246,14.3311 -4.2646,19.001 -1.35,4.67 -3.9187,11.6461 -5.7188,15.4961 -1.8,3.85 -4.7811,9.2518 -6.6411,12.0018 -1.86,2.75 -5.4225,7.425 -7.9325,10.385 -2.51,2.96 -7.9478,8.0724 -12.0778,11.3724 -4.12,3.3 -11.7735,8.5078 -16.9936,11.5678 -5.2199,3.06 -14.4486,7.7349 -20.4986,10.3849 -6.55,2.86 -10.8896,5.3152 -10.6996,6.0552 0.16,0.68 7.3042,20.1326 15.8541,43.2326 8.55,23.1 15.9392,42.4547 16.4293,43.0047 0.56,0.65 5.7087,-0.7148 14.6388,-3.8848 7.5699,-2.68 20.0691,-7.5373 27.7691,-10.7973 7.7,-3.25 19.1812,-8.6276 25.5012,-11.9476 6.32,-3.32 16.4561,-9.2915 22.5061,-13.2715 6.05,-3.98 15.0494,-10.6164 19.9994,-14.7364 4.95,-4.12 12.7266,-11.5192 17.2866,-16.4292 4.56,-4.92 11.1847,-12.9877 14.7147,-17.9377 3.54,-4.95 8.8833,-13.7303 11.8933,-19.5002 3.01,-5.77 7.117,-14.7694 9.137,-19.9995 2.01,-5.2299 5.1584,-15.3452 6.9884,-22.4953 1.82,-7.15 4.0249,-17.9536 4.905,-24.0036 0.88,-6.05 2.0309,-17.7504 2.5609,-26.0004 0.58,-8.9399 0.9775,-115.0189 0.9875,-262.7489 l 0.022,-247.751905 z m 239.9498,6.0009 v 285.504505 285.4938 h 51.0023 v -278.9936 h 271.9945 v 278.9936 h 51.0023 V 95.916205 h -51.0023 V 344.91611 H 2334.7198 V 95.916205 Z m -1136.0067,83.003605 35.2567,0.011 c 26.22,0.011 37.9402,0.4 45.7502,1.53 5.7801,0.83 14.5503,2.6468 19.5003,4.0368 4.95,1.3801 12.5936,4.2382 16.9936,6.3482 4.3999,2.11 11.3868,6.5064 15.5068,9.7664 4.13,3.25 9.6917,8.81 12.3817,12.3599 2.69,3.55 6.6363,10.0434 8.7463,14.4434 2.12,4.4001 4.7114,11.387 5.7513,15.507 1.0501,4.1299 2.3959,11.5443 3.0059,16.4943 0.61,4.95 1.1069,12.3852 1.1069,16.5052 0.011,4.13 -0.4634,12.2219 -1.0635,17.9919 -0.6,5.77 -2.1742,14.7695 -3.4942,19.9995 -1.32,5.23 -4.4082,13.5519 -6.8582,18.5019 -2.45,4.95 -6.6406,11.6969 -9.3106,14.9968 -2.68,3.3 -7.539,8.1799 -10.819,10.8299 -3.2701,2.66 -10.0034,6.8047 -14.9534,9.2347 -4.9501,2.43 -13.2712,5.4965 -18.4911,6.8365 -5.2201,1.33 -12.8745,2.941 -17.0045,3.581 -4.1199,0.63 -24.2652,1.4575 -82.0052,2.5175 v -100.7459 z m 547.3854,5.4257 c 0.094,-0.083 0.1611,-0.062 0.2061,0.076 0.17,0.55 14.9828,59.0408 32.9128,129.9908 17.93,70.95 32.8038,129.7905 33.0539,130.7505 0.43,1.6511 -3.1927,1.7529 -132.0527,1.6929 l 31.7951,-127.7229 c 17.4799,-70.25 32.2802,-129.5163 32.8802,-131.7163 0.45,-1.65 0.9233,-2.8202 1.2045,-3.071 z m -987.16673,1.3022 c 0.4001,0.9701 15.3593,59.7126 33.2492,130.5226 17.9,70.81 32.533,129.1913 32.533,129.7413 0,0.66 -22.6692,1.0092 -65.9992,1.0092 -62.32,0 -65.9728,-0.1078 -65.6628,-1.758 0.18,-0.9599 14.92,-60.1509 32.75,-131.5209 20.0101,-80.11 32.6898,-129.0841 33.1298,-127.9942 z"
     inkscape:export-xdpi="96"
     inkscape:export-ydpi="96" />
</svg>
