<?xml version="1.0" encoding="UTF-8" standalone="no"?>
<svg
   xmlns:dc="http://purl.org/dc/elements/1.1/"
   xmlns:cc="http://creativecommons.org/ns#"
   xmlns:rdf="http://www.w3.org/1999/02/22-rdf-syntax-ns#"
   xmlns:svg="http://www.w3.org/2000/svg"
   xmlns="http://www.w3.org/2000/svg"
   xmlns:xlink="http://www.w3.org/1999/xlink"
   xmlns:sodipodi="http://sodipodi.sourceforge.net/DTD/sodipodi-0.dtd"
   xmlns:inkscape="http://www.inkscape.org/namespaces/inkscape"
   viewBox="0 0 2778 870"
   width="500"
   height="157"
   version="1.1"
   id="svg867"
   sodipodi:docname="page-signes2.svg"
   inkscape:export-filename="C:\xampp\htdocs\webapp\public\assets\img\logo3.png"
   inkscape:export-xdpi="96"
   inkscape:export-ydpi="96"
   inkscape:version="1.0.2-2 (e86c870879, 2021-01-15)">
  <metadata
     id="metadata873">
    <rdf:RDF>
      <cc:Work
         rdf:about="">
        <dc:format>image/svg+xml</dc:format>
        <dc:type
           rdf:resource="http://purl.org/dc/dcmitype/StillImage" />
        <dc:title></dc:title>
      </cc:Work>
    </rdf:RDF>
  </metadata>
  <defs
     id="defs871">
    <rect
       x="3411.9228"
       y="1660.7022"
       width="2338.8085"
       height="975.9639"
       id="rect5961" />
    <rect
       x="-119.90601"
       y="-584.21838"
       width="576.01909"
       height="1318.9662"
       id="rect1763" />
    <clipPath
       clipPathUnits="userSpaceOnUse"
       id="clipPath986">
      <use
         x="0"
         y="0"
         xlink:href="#g982"
         id="use988"
         width="100%"
         height="100%"
         transform="matrix(1.2106894,0,0,1.2281462,183.48144,-187.72988)" />
    </clipPath>
    <rect
       x="1229.3376"
       y="1470.5251"
       width="1763.6999"
       height="1222.6543"
       id="rect117" />
    <rect
       x="1229.3376"
       y="1470.5251"
       width="2435.9563"
       height="1279.8237"
       id="rect1625" />
    <rect
       x="3233.6375"
       y="496.14249"
       width="1322.7369"
       height="1365.6501"
       id="rect966" />
    <rect
       x="3233.6375"
       y="496.14249"
       width="1322.7369"
       height="1365.6501"
       id="rect1628" />
    <rect
       x="3089.752"
       y="392.6459"
       width="926.42072"
       height="1231.8619"
       id="rect972" />
    <rect
       x="3089.752"
       y="392.6459"
       width="926.42072"
       height="1231.8619"
       id="rect1631" />
    <clipPath
       clipPathUnits="userSpaceOnUse"
       id="clipPath1167">
      <g
         inkscape:label="Clip"
         id="use1169">
        <path
           id="path12646"
           class="st1"
           d="m 91.4,30 c -0.4,0 -1.2,0.1 -1.8,0.2 l -1,0.1 c 0.3,4.1 0.5,6.7 0.7,8.5 0.2,1.7 0.5,4.1 0.7,5.2 0.2,1.1 0.6,3.3 0.9,4.9 l 0.6,2.8 h 4.4 c 0.5,-2 0.9,-3.7 1.1,-5 0.2,-1.3 0.7,-3.7 0.9,-5.5 0.2,-1.7 0.5,-4.2 0.7,-5.6 0.1,-1.3 0.2,-3.1 0.2,-3.9 0,-1.4 0,-1.4 -0.6,-1.6 -0.3,-0.1 -1.8,-0.2 -3.3,-0.2 -1.5,0 -3,0.1 -3.5,0.1 z"
           style="fill:#fdef87;fill-opacity:1;stroke:none;stroke-opacity:0" />
        <path
           id="path12648"
           class="st1"
           d="m 70.4,39.1 c -0.9,0.9 -2.3,2.5 -3,3.5 -0.7,1 -1.3,1.9 -1.3,2 0,0.1 1.1,1 2.4,1.8 1.3,0.9 3.7,2.3 5.3,3.3 1.6,0.9 4.4,2.5 6.2,3.4 1.8,0.9 4,2 4.7,2.4 0.7,0.4 1.4,0.6 1.5,0.6 0,0 0.3,-0.4 0.6,-0.8 0.3,-0.4 0.9,-1 1.3,-1.5 L 88.9,53 C 88,52 87,50.9 86.1,50 c -0.9,-0.9 -2.9,-3 -4.5,-4.5 -1.6,-1.6 -4.3,-4 -6,-5.4 -1.7,-1.4 -3.2,-2.6 -3.3,-2.6 -0.1,-0.1 -1,0.7 -1.9,1.6 z m 43.9,-0.7 c -0.5,0.4 -2.3,1.9 -4.1,3.4 -1.7,1.5 -4.5,4 -6.2,5.6 -1.6,1.6 -3.5,3.6 -4.2,4.3 L 98.6,53 c 1.4,1.4 1.9,2.1 2.1,2.4 0.2,0.3 0.5,0.6 0.6,0.6 0.2,0 1.5,-0.6 3.1,-1.3 1.5,-0.7 3.8,-1.9 5.1,-2.6 1.3,-0.7 4.3,-2.4 6.8,-3.9 2.5,-1.5 4.7,-2.8 4.9,-3 0.3,-0.2 0.4,-0.4 0.3,-0.7 -0.1,-0.2 -0.6,-0.9 -1.1,-1.6 -0.5,-0.7 -1.4,-1.7 -1.9,-2.3 -0.6,-0.6 -1.5,-1.5 -2,-2.1 -0.6,-0.5 -1.1,-1 -1.1,-1 -0.2,0.1 -0.6,0.5 -1.1,0.9 z"
           style="fill:#fdef87;fill-opacity:1;stroke:none;stroke-opacity:0" />
        <path
           id="path12650"
           class="st1"
           d="m 78.6,58.9 c -1.7,0.1 -4.7,0.3 -6.6,0.5 -1.9,0.2 -4.9,0.6 -6.7,0.8 -1.8,0.3 -3.3,0.5 -3.4,0.5 -0.1,0 -0.1,0.3 -0.1,0.7 0,0.4 0.2,1.5 0.4,2.6 0.2,1.1 0.7,2.8 1,3.9 0.4,1.1 0.7,2 0.7,2 0,0 2,-0.4 4.3,-1.1 2.4,-0.6 5.9,-1.7 7.9,-2.3 2,-0.7 4.8,-1.7 6.2,-2.2 1.4,-0.6 2.9,-1.2 3.3,-1.4 l 0.8,-0.4 C 85.8,61 85.6,60.2 85.6,59.7 l -0.1,-1 c -2.9,0.1 -5.1,0.1 -6.9,0.2 z m 23.2,0.3 c -0.1,0.2 -0.1,0.5 -0.1,0.8 0,0.3 -0.2,1 -0.4,1.5 l -0.4,1 c 3.5,1.5 6,2.5 7.7,3.1 1.7,0.6 4.4,1.5 6,2 1.6,0.5 4.2,1.2 5.8,1.7 1.6,0.4 3,0.7 3,0.6 0.1,-0.1 0.3,-0.8 0.6,-1.5 0.3,-0.7 0.7,-2.1 0.9,-3 0.2,-0.9 0.5,-2.3 0.6,-3 0.2,-1.1 0.1,-1.3 -0.3,-1.4 -0.2,-0.1 -1.6,-0.3 -3,-0.5 -1.4,-0.2 -4.1,-0.6 -6,-0.8 -1.9,-0.2 -4.8,-0.5 -6.5,-0.6 -1.7,-0.1 -4.1,-0.2 -5.4,-0.2 -1.9,0 -2.4,0.1 -2.5,0.3 z m -14.2,6.3 c -0.4,0.5 -1.4,1.7 -2.3,2.8 -0.9,1.1 -2.5,3.2 -3.7,4.9 -1.2,1.6 -3,4.4 -4.2,6.2 -1.2,1.8 -2,3.4 -2,3.5 0,0.2 1,0.8 2.1,1.4 1.1,0.6 3,1.5 4.3,1.9 1.3,0.4 2.4,0.8 2.5,0.8 0.1,0 0.3,-0.3 0.5,-0.8 0.2,-0.4 0.9,-2 1.6,-3.6 0.7,-1.6 1.8,-4.2 2.4,-5.8 0.6,-1.6 1.6,-4.5 2.2,-6.5 0.6,-2 1.1,-3.7 1.1,-3.8 0,-0.1 -0.3,-0.3 -0.7,-0.3 -0.4,-0.1 -1.3,-0.4 -1.9,-0.8 l -1.2,-0.7 z m 10.1,-0.1 c -0.6,0.3 -1.3,0.7 -1.8,0.7 -0.7,0.1 -0.7,0.2 -0.6,1 0.1,0.4 0.6,2.3 1.2,4.2 0.6,1.8 1.6,4.8 2.2,6.6 0.7,1.8 1.8,4.5 2.5,6.1 0.7,1.6 1.4,2.9 1.6,2.9 0.2,0 1.5,-0.4 2.9,-0.9 1.4,-0.5 3.3,-1.4 4.3,-1.9 1,-0.5 1.7,-1.1 1.7,-1.2 0,-0.1 -1,-1.8 -2.3,-3.9 -1.2,-2 -3.2,-5 -4.4,-6.6 -1.2,-1.6 -3,-4 -4,-5.3 -1.1,-1.3 -2,-2.4 -2.1,-2.4 -0.1,0.1 -0.7,0.4 -1.2,0.7 z"
           style="fill:#fdef87;fill-opacity:1;stroke:none;stroke-opacity:0" />
        <path
           id="path12652"
           class="st2"
           d="m 141.9,72 c -0.3,0.1 -0.4,0.2 -0.4,0.4 0,0.2 0.2,1.5 0.4,3 0.2,1.4 0.6,3.7 0.9,5 0.3,1.3 0.7,2.9 0.9,3.5 l 0.4,1.2 h 2 c 0.5,-1.7 0.8,-3 1.1,-4 0.2,-1 0.6,-2.8 0.8,-4 0.2,-1.2 0.4,-2.8 0.5,-3.5 0.1,-1.4 0.1,-1.4 -0.4,-1.6 -0.3,-0.1 -1.7,-0.1 -3.1,-0.1 -1.5,0 -2.8,0.1 -3.1,0.1 z m -12.4,8.9 c -0.3,0.6 -0.7,1.6 -0.9,2.2 -0.2,0.6 -0.4,1.5 -0.5,1.9 -0.1,0.7 -0.1,0.8 0.7,1 0.5,0.1 1.9,0.4 3.2,0.6 1.3,0.2 3.1,0.5 4.1,0.6 1,0.1 2.8,0.3 4,0.3 l 2.2,0.1 c 0.5,-1.6 0.5,-1.7 0.2,-2 -0.2,-0.2 -1.7,-1 -3.3,-1.9 -1.6,-0.9 -4.2,-2.1 -5.7,-2.7 -1.6,-0.6 -3,-1.2 -3.2,-1.2 -0.2,0 -0.5,0.4 -0.8,1.1 z m 27,0.1 c -1.5,0.6 -4.1,1.9 -5.7,2.7 -1.6,0.9 -3.1,1.7 -3.3,1.9 -0.3,0.3 -0.4,0.4 -0.1,1.1 l 0.3,0.8 c 3.3,-0.2 5.1,-0.4 6.1,-0.5 1,-0.1 2.9,-0.4 4.2,-0.6 1.3,-0.2 2.7,-0.5 3.2,-0.6 0.8,-0.2 0.8,-0.2 0.7,-1 -0.1,-0.4 -0.3,-1.3 -0.5,-1.9 -0.2,-0.6 -0.6,-1.6 -0.9,-2.2 -0.4,-0.7 -0.7,-1.1 -0.9,-1.1 -0.1,0.2 -1.5,0.7 -3.1,1.4 z M 141,90 c -1,0.7 -2.9,2.3 -4.3,3.6 -1.4,1.3 -3,2.8 -3.5,3.3 l -0.9,1 c 2.1,1.8 3.4,2.6 4.1,3 l 1.4,0.7 c 0.7,-0.8 1.5,-2 2.2,-3.2 0.7,-1.2 1.8,-3.3 2.5,-4.6 0.6,-1.3 1.3,-2.8 1.5,-3.2 0.3,-0.7 0.3,-0.8 -0.4,-1.3 -0.4,-0.3 -0.7,-0.5 -0.8,-0.5 0,-0.1 -0.8,0.5 -1.8,1.2 z m 5.4,-0.7 -0.7,0.5 c 0.7,1.6 1.4,3.2 2,4.5 0.7,1.3 1.9,3.5 2.7,4.8 0.8,1.3 1.6,2.4 1.7,2.4 0.1,0 0.8,-0.3 1.5,-0.7 0.7,-0.4 1.9,-1.2 2.7,-1.8 l 1.4,-1.1 c -1.7,-1.8 -3.2,-3.3 -4.5,-4.4 -1.2,-1.1 -3.1,-2.6 -4.1,-3.4 -1,-0.8 -1.9,-1.4 -2,-1.4 0,0 -0.3,0.3 -0.7,0.6 z"
           style="fill:#fadce6;fill-opacity:1;stroke:none;stroke-opacity:0" />
        <path
           id="path12654"
           class="st3"
           d="m 92.8,94.9 c -0.4,0 -1,0.1 -1.3,0.2 L 91,95.2 c 0.2,5.7 0.4,9 0.6,10.9 0.2,2 0.5,5 0.8,6.8 0.2,1.8 0.7,4.7 1,6.5 0.3,1.8 0.6,3.3 0.7,3.4 0.1,0.1 0.8,0.1 1.6,0 0.9,-0.1 2,-0.1 2.9,0 0.8,0.1 1.5,0.2 1.5,0.1 0,0 0.3,-1.7 0.7,-3.7 0.4,-2 0.9,-5.1 1.1,-6.9 0.2,-1.8 0.6,-4.8 0.8,-6.8 0.2,-2 0.4,-5.1 0.5,-6.9 0.1,-3.2 0.1,-3.4 -0.3,-3.5 -0.2,-0.1 -2.4,-0.2 -4.9,-0.2 -2.4,0 -4.8,0 -5.2,0 z m -17.7,5.2 c -0.9,0.5 -2.2,1.3 -3,1.8 -0.8,0.5 -2.3,1.6 -3.4,2.4 -1.6,1.2 -1.9,1.5 -1.7,1.8 0.1,0.2 1.3,1.6 2.6,3.1 1.3,1.5 3.6,4 5.1,5.6 1.5,1.6 4.1,4.2 5.8,5.8 1.7,1.6 3.9,3.7 4.9,4.5 l 1.8,1.6 c 2.2,-1.6 3.3,-2.3 3.8,-2.6 0.9,-0.4 1,-0.5 0.9,-0.9 -0.1,-0.3 -1,-1.9 -1.9,-3.6 -1,-1.7 -2.5,-4.5 -3.5,-6.1 -1,-1.6 -2.5,-4 -3.3,-5.3 -0.8,-1.3 -2.6,-3.8 -3.9,-5.6 -1.3,-1.8 -2.4,-3.3 -2.5,-3.3 -0.1,0 -0.9,0.4 -1.7,0.8 z m 40.2,2.1 c -1.1,1.5 -2.9,4.1 -4.1,5.8 -1.2,1.7 -2.9,4.5 -3.9,6.1 -1,1.6 -2.6,4.3 -3.5,6 -0.9,1.7 -1.7,3.2 -1.7,3.4 0,0.2 0.1,0.3 0.2,0.3 0.1,0 0.7,0.3 1.4,0.7 0.6,0.4 1.6,1.1 2.2,1.5 l 1,0.9 c 7.4,-6.9 10.9,-10.2 12.5,-11.9 1.6,-1.7 4,-4.3 5.4,-5.9 1.4,-1.6 2.5,-3 2.5,-3.1 0,-0.1 -0.8,-0.8 -1.7,-1.6 -1,-0.8 -3.1,-2.2 -4.7,-3.2 -1.7,-1 -3.1,-1.8 -3.3,-1.8 -0.1,0.1 -1.2,1.3 -2.3,2.8 z m -57.7,15.3 c -0.2,0.3 -0.7,1.5 -1.2,2.6 -0.5,1.1 -1.2,3.1 -1.5,4.4 -0.4,1.3 -0.7,2.5 -0.7,2.8 0,0.4 0.3,0.5 4.1,1.5 2.2,0.6 5.3,1.3 6.9,1.6 1.5,0.3 4.3,0.9 6.1,1.2 1.8,0.3 5.2,0.9 7.6,1.2 2.3,0.3 4.5,0.6 4.8,0.6 0.5,0 0.6,-0.1 0.6,-0.6 0,-0.3 0.2,-1.2 0.5,-1.9 0.3,-0.7 0.7,-1.6 0.9,-1.9 l 0.4,-0.7 c -2.5,-1.3 -5.2,-2.5 -7.7,-3.6 -2.5,-1.1 -6.3,-2.7 -8.5,-3.6 -2.2,-0.9 -5.7,-2.1 -7.7,-2.9 -2.1,-0.7 -3.9,-1.3 -4,-1.3 -0.2,0 -0.5,0.3 -0.6,0.6 z m 74.2,0.9 c -2,0.7 -5.1,1.8 -6.9,2.5 -1.8,0.7 -4.9,1.9 -6.9,2.8 -2,0.9 -5,2.2 -6.7,3 -1.6,0.8 -3,1.5 -3.1,1.6 0,0.1 0.2,0.7 0.5,1.3 0.3,0.6 0.7,1.8 0.9,2.5 0.2,0.7 0.3,1.3 0.4,1.3 0,0 1.7,-0.2 3.7,-0.5 2,-0.3 5.3,-0.8 7.4,-1.1 2,-0.3 5.4,-1 7.6,-1.4 2.1,-0.5 5.4,-1.2 7.1,-1.6 1.8,-0.5 3.5,-0.8 3.7,-0.9 0.4,-0.1 0.5,-0.2 0.4,-0.6 -0.1,-0.3 -0.4,-1.5 -0.7,-2.6 -0.3,-1.1 -0.8,-2.7 -1.1,-3.5 -0.3,-0.8 -0.9,-2.1 -1.2,-2.8 -0.4,-0.9 -0.8,-1.3 -1,-1.3 -0.3,0 -2.1,0.6 -4.1,1.3 z m -52.4,17.5 c -1.9,0.3 -5.3,0.8 -7.6,1.2 -2.3,0.4 -6,1.1 -8.2,1.6 -2.3,0.5 -5.2,1.2 -6.6,1.5 -1.3,0.3 -2.6,0.7 -2.7,0.8 -0.1,0.1 -0.1,0.6 0.1,1.6 0.2,0.8 0.6,2.4 1.1,3.7 0.4,1.3 1.1,3 1.6,3.9 0.4,0.9 0.8,1.6 0.9,1.6 0,0 1.7,-0.6 3.8,-1.2 2.1,-0.7 5.8,-2.1 8.4,-3.1 2.6,-1 7,-2.9 9.8,-4.1 2.8,-1.3 5.3,-2.5 5.6,-2.6 0.4,-0.3 0.4,-0.3 -0.2,-1.6 -0.4,-0.7 -0.8,-1.8 -0.9,-2.5 -0.2,-1.1 -0.3,-1.2 -0.9,-1.3 -0.4,0 -2.3,0.2 -4.2,0.5 z m 30.5,-0.3 c -0.1,0.1 -0.2,0.8 -0.3,1.4 -0.1,0.6 -0.5,1.7 -0.9,2.3 l -0.6,1.2 c 1.4,0.7 4,1.9 6.6,3.1 2.6,1.2 6.1,2.7 7.8,3.4 1.7,0.7 4.7,1.8 6.7,2.5 2,0.7 4.4,1.6 5.3,1.8 l 1.6,0.5 c 1.2,-2.3 1.8,-3.7 2.2,-4.7 0.4,-0.9 0.9,-2.6 1.2,-3.6 0.3,-1.1 0.5,-2.1 0.4,-2.2 -0.1,-0.2 -1.5,-0.6 -3.9,-1.3 -2.1,-0.5 -4.8,-1.2 -6,-1.5 -1.2,-0.3 -4.2,-0.9 -6.6,-1.3 -2.4,-0.4 -6.1,-1 -8.1,-1.3 -2.1,-0.3 -4.1,-0.6 -4.5,-0.6 -0.6,0.1 -0.9,0.1 -0.9,0.3 z M 82.7,146 c -2.4,2.1 -5.8,5.5 -7.6,7.3 -1.8,1.9 -4.3,4.5 -5.5,5.9 -1.2,1.3 -2.3,2.7 -2.6,3 l -0.4,0.6 c 0.9,0.8 2.1,1.8 3.3,2.7 1.2,0.9 3.2,2.2 4.4,2.9 1.3,0.7 2.3,1.2 2.3,1 0.1,-0.1 1.3,-1.8 2.7,-3.8 1.4,-2 3.5,-5 4.7,-6.8 1.2,-1.8 2.9,-4.6 3.9,-6.3 1,-1.7 2.3,-3.9 2.8,-5 0.6,-1.1 1,-2 1,-2.2 0,-0.1 -0.6,-0.5 -1.3,-0.9 -0.7,-0.4 -1.7,-1 -2.3,-1.5 -0.6,-0.5 -1.1,-0.9 -1.2,-0.9 0.1,0 -1.9,1.8 -4.2,4 z m 22.9,-3 c -0.6,0.5 -1.7,1.2 -2.3,1.5 -0.7,0.3 -1.2,0.6 -1.3,0.7 -0.1,0.1 1,1.9 2.2,4.2 1.2,2.3 2.9,5.2 3.7,6.4 0.8,1.3 2.1,3.3 2.9,4.6 0.8,1.3 2.5,3.8 3.9,5.6 1.3,1.9 2.5,3.4 2.7,3.4 0.2,0 1.1,-0.5 2.1,-1 1,-0.5 2.6,-1.6 3.7,-2.3 1,-0.7 2.4,-1.7 3.1,-2.3 l 1.2,-1 c -2.8,-3.3 -4.7,-5.4 -5.9,-6.7 -1.2,-1.3 -3.1,-3.3 -4.2,-4.5 -1.1,-1.1 -3.9,-3.7 -6.1,-5.8 -2.3,-2.1 -4.2,-3.8 -4.2,-3.8 -0.3,0.1 -0.9,0.5 -1.5,1 z m -12,4.8 c -0.2,1 -0.6,3.3 -0.9,5.1 -0.3,1.8 -0.7,5 -1,7.2 -0.2,2.2 -0.6,6.1 -0.7,8.7 -0.2,2.6 -0.2,4.7 -0.2,4.8 0.1,0.1 1.4,0.2 3,0.3 1.6,0.1 3.7,0.2 4.7,0.1 1,-0.1 2.4,-0.2 3.2,-0.2 l 1.4,-0.1 c -0.3,-5.9 -0.5,-9.2 -0.7,-11.1 -0.2,-2 -0.5,-5 -0.8,-6.8 -0.2,-1.8 -0.7,-4.7 -1,-6.5 l -0.6,-3.2 h -6.2 z"
           style="fill:#ffd485;fill-opacity:1;stroke:none;stroke-opacity:0" />
      </g>
    </clipPath>
    <rect
       x="27.767378"
       y="-203.09058"
       width="1974.0082"
       height="1358.0771"
       id="rect111" />
    <rect
       x="27.767378"
       y="-203.09058"
       width="1974.0082"
       height="1358.0771"
       id="rect1776" />
    <rect
       x="3112.4707"
       y="142.73952"
       width="800.20538"
       height="1514.5844"
       id="rect1269" />
    <rect
       x="3112.4707"
       y="142.73952"
       width="800.20538"
       height="1514.5844"
       id="rect1813" />
    <rect
       x="1229.3376"
       y="1470.5251"
       width="1763.7"
       height="1222.6543"
       id="rect117-7" />
    <rect
       x="1229.3376"
       y="1470.5251"
       width="1763.7"
       height="1222.6543"
       id="rect5974" />
    <rect
       x="1229.3376"
       y="1470.5251"
       width="1932.7705"
       height="1222.6543"
       id="rect117-7-1" />
    <rect
       x="1229.3376"
       y="1470.5251"
       width="1763.7"
       height="1222.6543"
       id="rect6010" />
  </defs>
  <sodipodi:namedview
     pagecolor="#ffffff"
     bordercolor="#666666"
     borderopacity="1"
     objecttolerance="10"
     gridtolerance="10"
     guidetolerance="10"
     inkscape:pageopacity="0"
     inkscape:pageshadow="2"
     inkscape:window-width="2400"
     inkscape:window-height="1271"
     id="namedview869"
     showgrid="false"
     inkscape:zoom="0.8355"
     inkscape:cx="371.9246"
     inkscape:cy="-18.981269"
     inkscape:window-x="-9"
     inkscape:window-y="-9"
     inkscape:window-maximized="1"
     inkscape:current-layer="svg867"
     inkscape:pagecheckerboard="true"
     inkscape:document-rotation="0" />
  <style
     id="style854"> tspan { white-space:pre } .shp0 { fill: #ffffff } .shp1 { fill: #f7e300 } .shp2 { fill: #536c18 } .shp3 { fill: #f4b5ca } .shp4 { fill: #f49f5c } .shp5 { fill: #757577 } </style>
  <g
     inkscape:label="Clip"
     id="g982"
     transform="matrix(0.82597567,0,0,0.81423531,-151.5512,152.8563)">
    <text
       xml:space="preserve"
       id="text5959"
       style="fill:black;fill-opacity:1;line-height:1.25;stroke:none;font-family:sans-serif;font-style:normal;font-weight:normal;font-size:270.99647072px;white-space:pre;shape-inside:url(#rect5961);" />
  </g>
  <g
     id="g12683">
    <text
       xml:space="preserve"
       id="text109"
       style="font-style:normal;font-variant:normal;font-weight:normal;font-stretch:normal;font-size:1066.75px;line-height:1.25;font-family:'Segoe Script';-inkscape-font-specification:'Segoe Script, Normal';font-variant-ligatures:normal;font-variant-caps:normal;font-variant-numeric:normal;font-variant-east-asian:normal;white-space:pre;shape-inside:url(#rect111);fill:#faec55;fill-opacity:1;stroke:none;"
       transform="matrix(1.7413166,0.31496731,-0.2747411,1.8466562,-222.48718,-308.38223)"
       inkscape:export-xdpi="96"
       inkscape:export-ydpi="96"><tspan
         x="27.767578"
         y="736.12544"><tspan
           style="font-style:normal;font-variant:normal;font-weight:normal;font-stretch:normal;font-size:1066.75px;font-family:'Segoe Script';-inkscape-font-specification:'Segoe Script, Normal';font-variant-ligatures:normal;font-variant-caps:normal;font-variant-numeric:normal;font-variant-east-asian:normal;white-space:pre;fill:#faec55;fill-opacity:1">l
</tspan></tspan></text>
    <path
       id="Path 2"
       class="shp2"
       d="m 633.98156,91.665376 c -0.37,0.96 -40.3,130.680004 -88.74,288.250004 l -88.07,286.5 c 102.57,0.38 128.24,0.1 128.54,-0.46 0.27,-0.51 7.7,-29.53 16.5,-64.49 l 16,-63.56 179.5,0.01 c 3.04,12.01 10.35,41.05 18.21,72.28 l 14.29,56.78 130.5,-0.06 c -0.91,-4.26 -39.85,-131.95 -87.12,-286.5 -47.28,-154.55 -86.61,-283.140004 -87.42,-285.750004 l -1.46,-4.75 c -145.55,0 -150.09,0.1 -150.73,1.75 z M 1023.7116,378.41538 v 288.5 h 124 v -197 c 68.59,0 93.45,-0.46 99.5,-1.03 6.05,-0.57 15.5,-1.7 21,-2.52 5.5,-0.82 15.17,-2.64 21.5,-4.06 6.33,-1.41 17.58,-4.59 25,-7.06 7.42,-2.47 18.45,-6.85 24.5,-9.73 6.05,-2.89 14.83,-7.63 19.5,-10.54 4.67,-2.91 11.2,-7.38 14.5,-9.92 3.3,-2.55 9.32,-7.78 13.39,-11.64 4.06,-3.85 9.94,-10.15 13.07,-14 3.13,-3.85 7.49,-9.7 9.69,-13 2.2,-3.3 5.83,-9.37 8.07,-13.5 2.23,-4.12 5.66,-11.55 7.61,-16.5 1.95,-4.95 4.73,-13.05 6.16,-18 1.44,-4.95 3.46,-13.95 4.51,-20 1.04,-6.05 2.4,-18.2 3.01,-27 0.79,-11.49 0.81,-20.23 0.04,-31 -0.58,-8.25 -1.69,-18.6 -2.47,-23 -0.77,-4.4 -2.32,-11.6 -3.44,-16 -1.11,-4.4 -3.23,-11.37 -4.7,-15.5 -1.47,-4.12 -5.19,-12.45 -8.29,-18.5 -3.09,-6.05 -8.05,-14.37 -11.02,-18.5 -2.97,-4.12 -7.93,-10.37 -11.02,-13.87 -3.08,-3.51 -9.21,-9.41 -13.61,-13.13 -4.4,-3.71 -11.83,-9.32 -16.5,-12.45 -4.67,-3.14 -14.35,-8.58 -21.5,-12.1 -7.15,-3.52 -19.75,-8.61 -28,-11.32 -8.25,-2.71 -20.17,-6.070004 -26.5,-7.470004 -6.33,-1.41 -17.8,-3.46 -25.5,-4.56 -7.7,-1.1 -20.08,-2.48 -27.5,-3.06 -8.18,-0.63 -53.21,-1.04 -114.25,-1.04 h -100.75 z m 597.59,-286.750004 c -0.28,0.96 -39.92,130.000004 -88.08,286.750004 -48.16,156.75 -87.78,285.79 -88.04,286.75 -0.44,1.65 3.07,1.75 63.78,1.74 h 64.25 c 23.91,-94.93 31.22,-123.95 31.67,-125.74 l 0.83,-3.25 h 179.5 l 32.12,128.5 c 117.87,0.45 131.3,0.24 131.01,-0.75 -0.2,-0.69 -39.92,-130.51 -88.25,-288.5 l -87.88,-287.250004 c -145.95,0 -150.42,0.1 -150.91,1.75 z m 422.15,257.500004 c -0.28,244.97 -0.4,259.83 -2.11,269.75 -1,5.77 -2.92,14.33 -4.26,19 -1.35,4.67 -3.92,11.65 -5.72,15.5 -1.8,3.85 -4.78,9.25 -6.64,12 -1.86,2.75 -5.43,7.42 -7.94,10.38 -2.51,2.96 -7.94,8.08 -12.07,11.38 -4.12,3.3 -11.78,8.51 -17,11.57 -5.22,3.06 -14.45,7.73 -20.5,10.38 -6.55,2.86 -10.88,5.31 -10.69,6.05 0.16,0.68 7.3,20.14 15.85,43.24 8.55,23.1 15.94,42.45 16.43,43 0.56,0.65 5.71,-0.71 14.64,-3.88 7.57,-2.68 20.07,-7.54 27.77,-10.8 7.7,-3.25 19.18,-8.63 25.5,-11.95 6.32,-3.32 16.45,-9.29 22.5,-13.27 6.05,-3.98 15.05,-10.61 20,-14.73 4.95,-4.12 12.73,-11.52 17.29,-16.43 4.56,-4.92 11.18,-12.99 14.71,-17.94 3.54,-4.95 8.89,-13.73 11.9,-19.5 3.01,-5.77 7.12,-14.77 9.14,-20 2.01,-5.23 5.15,-15.35 6.98,-22.5 1.82,-7.15 4.03,-17.95 4.91,-24 0.88,-6.05 2.03,-17.75 2.56,-26 0.58,-8.94 0.98,-115.02 0.99,-262.75 l 0.02,-247.750004 h -123.95 z m 240.26,32.25 v 285.5 h 51 v -279 h 272 v 279 h 51 V 95.915376 h -51 V 344.91538 h -272 V 95.915376 h -51 z"
       style="fill:#536c18;fill-opacity:1;fill-rule:nonzero;stroke:none;stroke-width:1.00795;stroke-miterlimit:4;stroke-dasharray:none;stroke-opacity:0"
       inkscape:export-xdpi="96"
       inkscape:export-ydpi="96" />
    <path
       id="Path 4"
       class="shp0"
       d="m 1147.7116,279.66538 v 100.75 c 57.74,-1.06 77.88,-1.89 82,-2.52 4.13,-0.64 11.78,-2.25 17,-3.58 5.22,-1.34 13.55,-4.41 18.5,-6.84 4.95,-2.43 11.68,-6.58 14.95,-9.24 3.28,-2.65 8.14,-7.52 10.82,-10.82 2.67,-3.3 6.86,-10.05 9.31,-15 2.45,-4.95 5.54,-13.27 6.86,-18.5 1.32,-5.23 2.89,-14.23 3.49,-20 0.6,-5.77 1.08,-13.87 1.07,-18 0,-4.12 -0.5,-11.55 -1.11,-16.5 -0.61,-4.95 -1.96,-12.37 -3.01,-16.5 -1.04,-4.12 -3.63,-11.1 -5.75,-15.5 -2.11,-4.4 -6.05,-10.9 -8.74,-14.45 -2.69,-3.55 -8.26,-9.11 -12.39,-12.36 -4.12,-3.26 -11.1,-7.65 -15.5,-9.76 -4.4,-2.11 -12.05,-4.97 -17,-6.35 -4.95,-1.39 -13.72,-3.21 -19.5,-4.04 -7.81,-1.13 -19.53,-1.52 -45.75,-1.53 l -35.25,-0.01 z m -472.92004,33.98 c -17.83,71.37 -32.57,130.56 -32.75,131.52 -0.31,1.65 3.35,1.75 65.67,1.75 43.33,0 66,-0.34 66,-1 0,-0.55 -14.64,-58.94 -32.54,-129.75 -17.89,-70.81 -32.85,-129.55 -33.25,-130.52 -0.44,-1.09 -13.12,47.89 -33.13,128 z m 1019.10004,-126.23 c -0.6,2.2 -15.4,61.47 -32.88,131.72 l -31.8,127.72 c 128.86,0.06 132.48,-0.04 132.05,-1.69 -0.25,-0.96 -15.12,-59.8 -33.05,-130.75 -17.93,-70.95 -32.74,-129.45 -32.91,-130 -0.18,-0.55 -0.81,0.8 -1.41,3 z"
       style="fill:#ffffff;fill-opacity:1;stroke:none;stroke-opacity:0" />
    <path
       id="Path 9"
       class="shp0"
       d="m 635.06156,767.34538 c -1.73,0.74 -4.04,2.64 -5.13,4.21 -1.1,1.57 -2.73,5.34 -3.62,8.36 -0.89,3.02 -1.62,6.51 -1.61,7.75 0.01,2.25 0.04,2.25 17.26,2.26 l 17.25,0.01 c -1.13,-8.93 -2.48,-13.51 -3.73,-15.95 -1.43,-2.79 -3.57,-5.11 -5.77,-6.26 -1.92,-1 -5.3,-1.8 -7.5,-1.77 -2.2,0.02 -5.42,0.65 -7.15,1.39 z m 337,0 c -1.73,0.74 -4.04,2.64 -5.13,4.21 -1.1,1.57 -2.73,5.34 -3.62,8.36 -0.89,3.02 -1.62,6.51 -1.61,7.75 0.01,2.25 0.04,2.25 17.26,2.26 l 17.25,0.01 c -1.13,-8.93 -2.48,-13.51 -3.73,-15.95 -1.43,-2.79 -3.57,-5.11 -5.77,-6.26 -1.92,-1 -5.3,-1.8 -7.5,-1.77 -2.2,0.02 -5.42,0.65 -7.15,1.39 z m -171.42,2.82 c -1.89,1.24 -4.44,4.28 -5.67,6.75 -1.23,2.48 -2.74,7.2 -3.36,10.5 -0.62,3.3 -0.92,10.5 -0.67,16 0.38,8.06 0.98,11.12 3.12,15.75 1.73,3.76 3.77,6.44 5.9,7.75 2.13,1.3 4.98,1.99 8.25,1.97 3.49,-0.01 6.29,-0.76 9.25,-2.49 2.34,-1.36 5.15,-3.83 6.25,-5.48 1.84,-2.76 2,-4.67 2,-24 v -21 c -5.42,-4.65 -8.12,-6.45 -9.5,-7 -1.37,-0.55 -4.67,-1 -7.32,-1 -3.31,0 -5.89,0.7 -8.25,2.25 z m 889.07004,-1.6 c -0.83,0.33 -2.97,2 -4.77,3.72 -1.8,1.72 -4.05,5.38 -5,8.13 -1.29,3.74 -1.73,8.27 -1.73,18 0,9.73 0.44,14.26 1.73,18 0.96,2.78 3.32,6.56 5.3,8.5 3.44,3.36 3.87,3.5 10.97,3.5 7.1,0 7.53,-0.14 10.97,-3.5 1.98,-1.94 4.34,-5.72 5.3,-8.5 1.29,-3.74 1.73,-8.27 1.73,-18 0,-9.73 -0.44,-14.26 -1.73,-18 -0.96,-2.79 -3.31,-6.55 -5.31,-8.5 -3.23,-3.16 -4.19,-3.52 -9.77,-3.72 -3.41,-0.13 -6.86,0.04 -7.69,0.37 z m -419.42,35.14 c -2.92,1.02 -5.76,2.86 -7,4.55 -1.31,1.8 -2.19,4.74 -2.39,8 -0.22,3.87 0.21,5.97 1.75,8.41 1.13,1.79 3.19,3.7 4.56,4.25 1.38,0.55 4.08,1 6,1 1.92,0 4.74,-0.48 6.25,-1.06 1.51,-0.58 4.44,-2.72 6.52,-4.75 l 3.76,-3.69 -0.03,-18.5 c -11.38,0.07 -16.62,0.82 -19.42,1.79 z"
       style="stroke:none;stroke-opacity:0" />
    <text
       xml:space="preserve"
       id="text115"
       style="font-style:normal;font-variant:normal;font-weight:bold;font-stretch:normal;font-size:1066.75px;line-height:1.25;font-family:'Segoe Script';-inkscape-font-specification:'Segoe Script, Bold';font-variant-ligatures:normal;font-variant-caps:normal;font-variant-numeric:normal;font-variant-east-asian:normal;white-space:pre;shape-inside:url(#rect117);fill:#f49f5c;fill-opacity:1;stroke:none;stroke-opacity:0;"
       transform="matrix(0.82597568,0,0,0.8142353,-1.6439918,-582.92582)"><tspan
         x="1229.3379"
         y="2409.9987"><tspan
           style="font-style:normal;font-variant:normal;font-weight:bold;font-stretch:normal;font-size:1066.75px;font-family:'Segoe Script';-inkscape-font-specification:'Segoe Script, Bold';font-variant-ligatures:normal;font-variant-caps:normal;font-variant-numeric:normal;font-variant-east-asian:normal;white-space:pre;fill:#f49f5c;fill-opacity:1;stroke:none;stroke-opacity:0">des</tspan></tspan></text>
    <text
       xml:space="preserve"
       id="text115-6"
       style="font-style:normal;font-variant:normal;font-weight:bold;font-stretch:normal;font-size:1066.75px;line-height:1.25;font-family:'Segoe Script';-inkscape-font-specification:'Segoe Script, Bold';font-variant-ligatures:normal;font-variant-caps:normal;font-variant-numeric:normal;font-variant-east-asian:normal;white-space:pre;shape-inside:url(#rect117-7);fill:#faec55;fill-opacity:1;stroke:none;stroke-opacity:0;"
       transform="matrix(0.82597568,0,0,0.8142353,1564.0206,-594.03637)"><tspan
         x="1229.3379"
         y="2409.9987"><tspan
           style="white-space:pre;fill:#faec55;fill-opacity:1">sig</tspan></tspan></text>
    <text
       xml:space="preserve"
       id="text115-6-3"
       style="font-style:normal;font-variant:normal;font-weight:bold;font-stretch:normal;font-size:1066.75px;line-height:1.25;font-family:'Segoe Script';-inkscape-font-specification:'Segoe Script, Bold';font-variant-ligatures:normal;font-variant-caps:normal;font-variant-numeric:normal;font-variant-east-asian:normal;white-space:pre;shape-inside:url(#rect117-7-1);fill:#f4b5ca;fill-opacity:1;stroke:none;stroke-opacity:0;"
       transform="matrix(0.82597568,0,0,0.8142353,2770.9793,-617.31107)"><tspan
         x="1229.3379"
         y="2409.9987"><tspan
           style="white-space:pre;fill:#f4b5ca;fill-opacity:1">nes</tspan></tspan></text>
    <text
       xml:space="preserve"
       id="text1267"
       style="font-style:normal;font-variant:normal;font-weight:normal;font-stretch:normal;font-size:1066.75px;line-height:1.25;font-family:'Segoe Script';-inkscape-font-specification:'Segoe Script, Normal';font-variant-ligatures:normal;font-variant-caps:normal;font-variant-numeric:normal;font-variant-east-asian:normal;white-space:pre;shape-inside:url(#rect1269);fill:#faec55;fill-opacity:1;stroke:none;"
       transform="matrix(-0.83341736,-0.5526441,-0.5526441,0.83341736,3664.4862,1078.7594)"><tspan
         x="3112.4707"
         y="1081.9555"><tspan
           style="font-style:normal;font-variant:normal;font-weight:normal;font-stretch:normal;font-size:1066.75px;font-family:'Segoe Script';-inkscape-font-specification:'Segoe Script, Normal';font-variant-ligatures:normal;font-variant-caps:normal;font-variant-numeric:normal;font-variant-east-asian:normal;white-space:pre;fill:#faec55;fill-opacity:1">'</tspan></tspan></text>
    <rect
       style="fill:none;fill-opacity:1;fill-rule:nonzero;stroke:none;stroke-width:1.00795;stroke-miterlimit:4;stroke-dasharray:none;stroke-opacity:0"
       id="rect5238"
       width="2104.2329"
       height="246.86533"
       x="853.44867"
       y="1390.7042" />
    <g
       id="g9323"
       transform="matrix(5.268676,0,0,4.9675683,25.928564,120.27905)">
      <path
         id="Path_1_2_"
         class="st2"
         d="m 137.15828,153.65812 c -0.27081,0.0243 -0.7786,0.0851 -1.13969,0.13376 l -0.64319,0.073 c 0.16926,2.68735 0.31595,4.38974 0.44008,5.50846 0.12412,1.11871 0.31595,2.6387 0.42879,3.35614 0.11284,0.72959 0.37238,2.1523 0.57549,3.16158 l 0.37238,1.84831 h 2.79846 c 0.31595,-1.32544 0.54164,-2.39551 0.7109,-3.23455 0.15798,-0.83903 0.41751,-2.43198 0.57549,-3.56286 0.15797,-1.11871 0.3498,-2.7603 0.42879,-3.62365 0.079,-0.87552 0.1467,-1.99424 0.1467,-2.50495 0.0113,-0.89983 0,-0.92416 -0.38366,-1.00928 -0.2144,-0.0486 -1.16227,-0.12159 -2.09885,-0.15808 -0.94786,-0.0243 -1.94087,-0.0243 -2.21169,0.0122 z"
         style="fill:#faec55;fill-opacity:1;stroke-width:0.117138" />
      <path
         id="Path_3_2_"
         class="st2"
         d="m 123.73019,159.53138 c -0.59805,0.59583 -1.47821,1.61726 -1.94087,2.24958 -0.46264,0.63232 -0.8463,1.22815 -0.8463,1.31327 0,0.0973 0.68833,0.62016 1.52335,1.16736 0.83503,0.54719 2.35838,1.50783 3.37395,2.12798 1.01557,0.608 2.80974,1.61728 3.98329,2.23743 1.17355,0.62016 2.52764,1.31328 3.02414,1.53216 0.49651,0.21887 0.91402,0.40127 0.93659,0.37695 0.0226,-0.0122 0.19182,-0.2432 0.37237,-0.49856 0.18055,-0.25535 0.56421,-0.68095 0.84631,-0.94847 l 0.50779,-0.4864 c -0.5755,-0.66879 -1.2074,-1.37407 -1.77161,-1.99423 -0.56421,-0.62015 -1.87316,-1.94559 -2.90002,-2.95486 -1.02685,-1.00927 -2.75332,-2.57791 -3.8366,-3.4899 -1.08327,-0.912 -2.01985,-1.67807 -2.07627,-1.70239 -0.0451,0 -0.58677,0.47424 -1.19612,1.07008 z m 27.99588,-0.46208 c -0.31595,0.26751 -1.47821,1.25247 -2.59534,2.20094 -1.11713,0.94848 -2.88873,2.59007 -3.92687,3.63582 -1.03814,1.04576 -2.25682,2.31039 -2.69691,2.79679 l -0.80117,0.88767 c 0.88016,0.92416 1.22997,1.36192 1.3541,1.5808 0.12412,0.21888 0.29338,0.38911 0.39494,0.38911 0.10156,0 0.98172,-0.38911 1.95215,-0.87551 0.98172,-0.47424 2.44865,-1.22816 3.27239,-1.66591 0.82374,-0.43776 2.7759,-1.58079 4.3331,-2.55359 1.56849,-0.9728 2.96772,-1.84831 3.1257,-1.95775 0.20312,-0.14592 0.24825,-0.26752 0.16926,-0.43776 -0.0677,-0.13375 -0.38366,-0.59583 -0.69961,-1.02143 -0.31596,-0.4256 -0.86888,-1.11872 -1.21868,-1.51999 -0.34981,-0.40128 -0.93658,-1.00928 -1.28639,-1.34976 -0.34981,-0.34047 -0.68833,-0.62015 -0.72219,-0.62015 -0.0451,0.0365 -0.33852,0.2432 -0.65448,0.51072 z"
         style="fill:#faec55;fill-opacity:1;stroke-width:0.117138" />
      <path
         id="Path_5_2_"
         class="st2"
         d="m 128.98859,172.44522 c -1.09456,0.0608 -2.97901,0.20672 -4.19769,0.31616 -1.2074,0.1216 -3.14827,0.3648 -4.29925,0.53504 -1.15098,0.17023 -2.1327,0.31615 -2.16655,0.31615 -0.0339,0 -0.0677,0.19457 -0.0677,0.42561 0,0.23103 0.10155,0.98495 0.22568,1.67807 0.12412,0.69311 0.41751,1.81183 0.65448,2.50494 0.23696,0.69312 0.44008,1.26463 0.45136,1.28896 0.0113,0.0243 1.25254,-0.29184 2.75333,-0.69312 1.50078,-0.40128 3.78017,-1.08224 5.044,-1.50783 1.2751,-0.4256 3.04671,-1.08224 3.94943,-1.43488 0.90273,-0.3648 1.86188,-0.75391 2.1327,-0.87551 l 0.4965,-0.23104 c -0.37237,-0.94847 -0.4965,-1.50783 -0.51907,-1.84831 l -0.0451,-0.62016 c -1.88445,0.0243 -3.32882,0.0851 -4.41209,0.14592 z m 14.79347,0.1824 c -0.0451,0.10944 -0.079,0.35264 -0.079,0.52288 0,0.1824 -0.12412,0.62015 -0.2821,0.98495 l -0.28211,0.65664 c 2.25683,0.98496 3.81404,1.60511 4.9086,2.01855 1.09455,0.40128 2.82102,0.99711 3.83659,1.32543 1.01557,0.32832 2.68562,0.80256 3.70119,1.08224 1.01557,0.26751 1.88445,0.43776 1.94087,0.37695 0.0451,-0.0608 0.22568,-0.49855 0.38366,-0.97279 0.16926,-0.47424 0.42879,-1.36192 0.57549,-1.98207 0.15798,-0.62016 0.32723,-1.48351 0.39494,-1.93343 0.10156,-0.74175 0.0903,-0.81471 -0.16926,-0.88767 -0.15798,-0.0487 -1.01557,-0.19457 -1.9183,-0.34048 -0.90273,-0.14592 -2.6292,-0.37696 -3.8366,-0.52288 -1.2074,-0.14592 -3.06928,-0.32832 -4.1187,-0.40128 -1.0607,-0.073 -2.60663,-0.13376 -3.43037,-0.13376 -1.24125,0.0122 -1.5572,0.0486 -1.62491,0.20672 z m -9.10628,4.06142 c -0.25953,0.304 -0.91401,1.11871 -1.46693,1.79967 -0.54164,0.69312 -1.60235,2.11583 -2.3471,3.16158 -0.74475,1.04576 -1.94087,2.85759 -2.65176,4.02494 -0.7109,1.15519 -1.27511,2.18879 -1.26383,2.29823 0.0226,0.0973 0.60935,0.49856 1.32025,0.88767 0.69961,0.38912 1.94086,0.94848 2.74203,1.22816 0.80117,0.29184 1.50079,0.52287 1.5685,0.53503 0.0677,0.0122 0.21439,-0.21888 0.33852,-0.49855 0.13541,-0.27968 0.59806,-1.32544 1.04942,-2.34687 0.45137,-1.02144 1.12841,-2.71167 1.51207,-3.75742 0.38366,-1.04576 1.02686,-2.95487 1.41052,-4.2195 0.38366,-1.26463 0.69961,-2.38335 0.69961,-2.46847 0,-0.0851 -0.20311,-0.19455 -0.46265,-0.23103 -0.25953,-0.0365 -0.80117,-0.26752 -1.21868,-0.52288 l -0.75604,-0.46208 z m 6.4658,-0.0243 c -0.34981,0.21887 -0.8576,0.42559 -1.11713,0.48639 -0.46265,0.0973 -0.47393,0.10944 -0.38366,0.62016 0.0451,0.29183 0.38366,1.50783 0.74475,2.6995 0.36109,1.19168 1.00429,3.12511 1.43309,4.2803 0.42879,1.15519 1.15098,2.9427 1.59105,3.95198 0.45137,1.03359 0.90273,1.86047 1.01557,1.88479 0.11284,0.0243 0.93658,-0.23104 1.83931,-0.55936 0.90274,-0.32832 2.1327,-0.88767 2.74204,-1.22815 0.60934,-0.34048 1.10585,-0.68096 1.10585,-0.75392 0,-0.073 -0.65448,-1.20383 -1.44437,-2.50494 -0.78989,-1.30112 -2.04242,-3.23455 -2.78717,-4.2803 -0.74476,-1.04575 -1.90702,-2.61439 -2.57278,-3.46558 -0.67705,-0.8512 -1.28639,-1.54431 -1.37666,-1.53215 -0.0903,0 -0.44009,0.1824 -0.78989,0.40128 z"
         style="fill:#faec55;fill-opacity:1;stroke-width:0.117138" />
      <path
         id="Path_6_2_"
         class="st0"
         d="m 169.36314,180.95718 c -0.16926,0.0365 -0.27082,0.15808 -0.24825,0.27968 0.0226,0.12159 0.13541,0.99711 0.24825,1.93342 0.12413,0.94848 0.37238,2.39551 0.55292,3.23455 0.19183,0.83903 0.44008,1.86047 0.56421,2.2739 l 0.22568,0.75392 h 1.27511 c 0.31595,-1.07007 0.54163,-1.92127 0.69961,-2.56574 0.15798,-0.64448 0.37238,-1.81183 0.4965,-2.56575 0.11284,-0.76608 0.24825,-1.79967 0.30467,-2.31039 0.0903,-0.88767 0.079,-0.92416 -0.23696,-1.02143 -0.18055,-0.0486 -1.06071,-0.0973 -1.96344,-0.0851 -0.90273,0.0122 -1.77161,0.0486 -1.9183,0.073 z m -7.9553,5.75165 c -0.18054,0.37695 -0.4288,1.02143 -0.55292,1.42271 -0.12412,0.40128 -0.25953,0.94847 -0.30467,1.21599 -0.079,0.4864 -0.0677,0.49856 0.45136,0.62016 0.29339,0.073 1.2074,0.2432 2.01986,0.38912 0.82374,0.14591 2.00857,0.32831 2.6292,0.40127 0.62062,0.073 1.78289,0.17024 2.56149,0.21888 l 1.4218,0.0851 c 0.33853,-1.02143 0.32724,-1.10655 0.10156,-1.27679 -0.13541,-0.10944 -1.08328,-0.65664 -2.09885,-1.216 -1.01557,-0.55935 -2.66305,-1.37407 -3.65605,-1.7875 -0.993,-0.41344 -1.90702,-0.76608 -2.03114,-0.76608 -0.11284,0 -0.34981,0.29184 -0.54164,0.69312 z m 17.26469,0.073 c -0.98171,0.41343 -2.60662,1.21599 -3.62219,1.7875 -1.01557,0.55936 -1.96344,1.10656 -2.09885,1.216 -0.2144,0.17024 -0.22568,0.25536 -0.0677,0.7296 l 0.18054,0.54719 c 2.09885,-0.13376 3.24983,-0.23104 3.91559,-0.304 0.66576,-0.073 1.88444,-0.25536 2.6969,-0.40127 0.82374,-0.14592 1.73776,-0.32832 2.01985,-0.38912 0.51908,-0.1216 0.53036,-0.13376 0.45137,-0.62016 -0.0451,-0.26752 -0.18055,-0.82688 -0.30467,-1.21599 -0.12413,-0.38912 -0.37237,-1.0336 -0.55292,-1.42271 -0.22568,-0.46208 -0.4288,-0.69312 -0.58678,-0.69312 -0.14669,0 -1.04942,0.34048 -2.03114,0.76608 z m -9.90745,5.86108 c -0.60934,0.44992 -1.85059,1.50784 -2.74204,2.34687 -0.90273,0.82688 -1.89573,1.81183 -2.2004,2.16447 l -0.5642,0.64448 c 1.34281,1.14303 2.14398,1.67807 2.64048,1.92127 l 0.91401,0.44991 c 0.44008,-0.53503 0.94787,-1.32543 1.4218,-2.10367 0.47393,-0.77823 1.18483,-2.14014 1.57978,-3.0035 0.40622,-0.87552 0.81245,-1.79967 0.92529,-2.06719 0.19183,-0.46208 0.18055,-0.4864 -0.22568,-0.81471 -0.23697,-0.18241 -0.47393,-0.34048 -0.51907,-0.34048 -0.079,-0.0243 -0.62063,0.34048 -1.22997,0.80255 z m 3.44166,-0.47423 -0.4288,0.34047 c 0.41751,1.04576 0.89145,2.06719 1.30896,2.94271 0.41751,0.87551 1.19612,2.28607 1.71518,3.13726 0.53036,0.85119 1.02686,1.54431 1.10585,1.54431 0.079,0 0.51906,-0.19455 0.98171,-0.42559 0.46266,-0.23104 1.22997,-0.75392 1.7039,-1.16736 l 0.86888,-0.74175 c -1.09455,-1.20384 -2.05371,-2.14015 -2.8436,-2.86975 -0.7786,-0.7296 -1.95215,-1.71455 -2.59534,-2.21311 -0.6432,-0.4864 -1.21868,-0.88767 -1.2751,-0.88767 -0.0677,-0.0122 -0.31596,0.14592 -0.54164,0.34048 z"
         style="fill:#f4b5ca;fill-opacity:1;stroke-width:0.117138" />
      <path
         id="Path_7_2_"
         class="st1"
         d="m 138.01588,195.8531 c -0.27082,0.0365 -0.6432,0.0851 -0.82374,0.1216 l -0.32724,0.0729 c 0.12412,3.72094 0.25953,5.83677 0.37237,7.10141 0.11285,1.26463 0.33853,3.25886 0.49651,4.41405 0.15797,1.15519 0.45136,3.06431 0.65447,4.2195 0.20312,1.15519 0.40623,2.15231 0.46265,2.20095 0.0564,0.0486 0.50779,0.0365 1.01557,-0.0243 0.55292,-0.073 1.29767,-0.073 1.8506,0 0.50778,0.0608 0.93658,0.10945 0.94786,0.0973 0.0113,-0.0122 0.2144,-1.0944 0.46265,-2.39551 0.23697,-1.30111 0.56421,-3.31966 0.72219,-4.48702 0.15797,-1.15519 0.38365,-3.14942 0.49649,-4.41405 0.11285,-1.26464 0.25954,-3.28318 0.31596,-4.48702 0.0903,-2.06719 0.079,-2.17663 -0.18055,-2.28606 -0.14669,-0.0608 -1.5572,-0.13376 -3.11441,-0.15808 -1.57977,-0.0122 -3.08056,-0.0122 -3.35138,0.0243 z m -11.30668,3.38046 c -0.54164,0.304 -1.41051,0.82687 -1.9183,1.14303 -0.50778,0.31616 -1.4895,1.02144 -2.16655,1.54431 -1.02686,0.7904 -1.21869,0.99712 -1.11713,1.19168 0.0677,0.12159 0.82374,1.03359 1.65877,2.00639 0.83502,0.97279 2.30196,2.61438 3.26111,3.62366 0.94786,1.00927 2.61791,2.71166 3.71247,3.76957 1.08327,1.05792 2.50507,2.37119 3.14827,2.93055 l 1.17354,1.00927 c 1.37666,-1.04575 2.07628,-1.49567 2.44865,-1.66591 0.59806,-0.27968 0.66577,-0.34047 0.55293,-0.608 -0.0677,-0.15807 -0.62063,-1.21599 -1.22997,-2.34686 -0.60934,-1.13088 -1.61363,-2.90623 -2.24554,-3.95198 -0.63191,-1.05791 -1.59106,-2.59007 -2.12141,-3.4291 -0.53036,-0.83904 -1.67005,-2.48063 -2.50507,-3.66014 -0.83503,-1.17952 -1.54593,-2.14015 -1.59107,-2.14015 -0.0339,0.0243 -0.51906,0.27968 -1.0607,0.58368 z m 25.69392,1.31327 c -0.69962,0.96063 -1.87316,2.66303 -2.61791,3.7939 -0.74475,1.13087 -1.86188,2.90622 -2.49379,3.95198 -0.63191,1.05791 -1.62491,2.8211 -2.22297,3.92766 -0.59806,1.10655 -1.08327,2.10366 -1.08327,2.21311 0,0.10943 0.0677,0.19455 0.14669,0.19455 0.079,0 0.47393,0.19456 0.89144,0.43776 0.40623,0.2432 1.03814,0.69312 1.38795,0.99712 l 0.64319,0.55935 c 4.73933,-4.46269 6.95101,-6.63932 7.96658,-7.72155 1.01557,-1.08224 2.5615,-2.79679 3.44166,-3.83039 0.88016,-1.02143 1.60234,-1.92126 1.60234,-1.99422 0,-0.073 -0.4965,-0.53504 -1.10584,-1.0336 -0.60934,-0.49855 -1.97472,-1.43487 -3.02414,-2.07935 -1.06071,-0.64447 -1.99729,-1.17951 -2.08756,-1.17951 -0.10156,0.0243 -0.74475,0.80255 -1.44437,1.76319 z m -36.85391,9.95899 c -0.10156,0.19455 -0.4288,0.96063 -0.73347,1.67807 -0.30467,0.72959 -0.74475,2.00639 -0.98171,2.83326 -0.23697,0.83904 -0.4288,1.65375 -0.41752,1.81183 0,0.26752 0.2144,0.35264 2.59535,0.94848 1.43308,0.36479 3.39652,0.83903 4.36695,1.04575 0.98172,0.21888 2.74204,0.57152 3.91559,0.7904 1.17355,0.21888 3.35138,0.58367 4.8296,0.80255 1.4895,0.21888 2.87745,0.40128 3.09184,0.40128 0.33853,0 0.39495,-0.0486 0.39495,-0.38912 0,-0.21888 0.13541,-0.76607 0.29338,-1.21599 0.15798,-0.44992 0.41752,-1.02144 0.56421,-1.25247 l 0.27082,-0.4256 c -1.60234,-0.81472 -3.3401,-1.64159 -4.90859,-2.35903 -1.56849,-0.71743 -3.99458,-1.76319 -5.40509,-2.32254 -1.41051,-0.55936 -3.63348,-1.3984 -4.94244,-1.86048 -1.30896,-0.46208 -2.47122,-0.83903 -2.57278,-0.83903 -0.10155,-0.0122 -0.25953,0.15808 -0.36109,0.35264 z m 47.33685,0.60799 c -1.28639,0.44992 -3.27239,1.19168 -4.41209,1.62943 -1.13969,0.43776 -3.11441,1.25248 -4.41208,1.81183 -1.28639,0.55936 -3.20469,1.44703 -4.25411,1.95775 -1.04943,0.52288 -1.92959,0.98496 -1.95216,1.0336 -0.0339,0.0486 0.11285,0.43775 0.31596,0.8512 0.20311,0.41343 0.46265,1.14303 0.57549,1.61726 0.11284,0.47424 0.2144,0.86336 0.23697,0.87552 0.0226,0.0122 1.09456,-0.1216 2.38094,-0.29184 1.28639,-0.17024 3.4078,-0.49856 4.69419,-0.71744 1.28639,-0.21887 3.46423,-0.64447 4.8296,-0.93631 1.36538,-0.29184 3.41909,-0.77823 4.5475,-1.07007 1.1397,-0.29184 2.2004,-0.5472 2.38095,-0.58368 0.27082,-0.0365 0.30467,-0.10944 0.23697,-0.41344 -0.0451,-0.19456 -0.23697,-0.96063 -0.4288,-1.67807 -0.19183,-0.7296 -0.51907,-1.76319 -0.72218,-2.31039 -0.20312,-0.54719 -0.55293,-1.36191 -0.76733,-1.81183 -0.2821,-0.55935 -0.48521,-0.82687 -0.65447,-0.81471 -0.13541,0.0243 -1.29768,0.40128 -2.59535,0.85119 z m -33.40097,11.36954 c -1.2074,0.17024 -3.38523,0.52288 -4.8296,0.7904 -1.44437,0.25535 -3.81403,0.74175 -5.2584,1.05791 -1.44436,0.32832 -3.32881,0.76608 -4.19769,0.99711 -0.85759,0.21888 -1.62491,0.46208 -1.7039,0.52288 -0.0903,0.0851 -0.079,0.4256 0.0451,1.00927 0.10156,0.48641 0.41751,1.56864 0.68833,2.40767 0.27082,0.83904 0.73347,1.98207 1.01557,2.54143 0.2821,0.55936 0.54164,1.02144 0.55292,1.02144 0.0226,0 1.10585,-0.3648 2.4148,-0.81472 1.30896,-0.43776 3.72376,-1.33759 5.37124,-1.98207 1.64748,-0.64448 4.45722,-1.86047 6.2514,-2.69951 1.79417,-0.82687 3.39651,-1.60511 3.55449,-1.70239 0.28211,-0.18239 0.28211,-0.19456 -0.12412,-1.00927 -0.22569,-0.44992 -0.48522,-1.17952 -0.57549,-1.61727 -0.15798,-0.74176 -0.19183,-0.7904 -0.58678,-0.81472 -0.23696,-0.0122 -1.41051,0.10944 -2.61791,0.29184 z m 19.41996,-0.1824 c -0.0339,0.0973 -0.13541,0.49856 -0.2144,0.89984 -0.0903,0.40127 -0.33853,1.08223 -0.56421,1.51999 l -0.40623,0.79039 c 0.90273,0.4864 2.55022,1.26464 4.23155,2.04287 1.68133,0.7904 3.92687,1.77536 4.97629,2.21311 1.04942,0.43776 2.979,1.16736 4.26539,1.64159 1.28639,0.47424 2.80975,1.00928 3.37395,1.20384 l 1.02686,0.34047 c 0.74475,-1.48351 1.15098,-2.41982 1.38795,-3.02782 0.23696,-0.62016 0.57548,-1.67807 0.74475,-2.37119 0.18054,-0.69312 0.29338,-1.33759 0.24825,-1.44703 -0.0451,-0.1216 -0.93659,-0.42559 -2.47122,-0.81471 -1.32025,-0.34048 -3.03543,-0.76608 -3.82532,-0.94848 -0.7786,-0.1824 -2.67433,-0.55935 -4.19769,-0.85119 -1.52335,-0.29184 -3.85917,-0.68096 -5.19069,-0.86336 -1.33153,-0.1824 -2.61791,-0.37696 -2.87745,-0.41344 -0.29338,-0.0608 -0.46265,-0.0243 -0.50778,0.0851 z m -17.3324,6.73661 c -1.50079,1.39839 -3.67862,3.5507 -4.84089,4.77885 -1.16226,1.22815 -2.73075,2.95487 -3.48678,3.81822 -0.75604,0.87551 -1.50079,1.75103 -1.64749,1.94559 l -0.2821,0.3648 c 0.55292,0.53503 1.35409,1.15519 2.1327,1.73887 0.7786,0.57151 2.05371,1.41055 2.82103,1.86047 0.81245,0.47424 1.44436,0.75392 1.4895,0.68096 0.0564,-0.073 0.83502,-1.16736 1.73776,-2.44415 0.90272,-1.26464 2.25681,-3.25886 3.00157,-4.41406 0.74475,-1.15519 1.86188,-3.0035 2.49378,-4.08574 0.63192,-1.09439 1.44437,-2.54143 1.80547,-3.23454 0.36108,-0.69312 0.65447,-1.32543 0.65447,-1.42271 0,-0.0973 -0.37237,-0.35264 -0.82374,-0.58368 -0.45136,-0.23104 -1.10584,-0.6688 -1.45565,-0.98495 -0.34981,-0.31616 -0.68833,-0.57152 -0.75603,-0.57152 -0.0677,0.0122 -1.34281,1.15519 -2.8436,2.55359 z m 14.60164,-1.90911 c -0.39494,0.34047 -1.07199,0.79039 -1.4895,1.00927 -0.4288,0.20672 -0.78989,0.40128 -0.81246,0.4256 -0.0226,0.0243 0.60934,1.25247 1.39923,2.71166 0.78989,1.47136 1.8506,3.35615 2.35838,4.18302 0.50779,0.82687 1.34281,2.16447 1.85059,2.96702 0.50779,0.80256 1.62492,2.44415 2.47123,3.66015 0.8463,1.21599 1.62491,2.20095 1.71518,2.20095 0.10156,0 0.68833,-0.29184 1.32024,-0.64448 0.62063,-0.35264 1.68133,-1.02144 2.3471,-1.48351 0.66576,-0.46208 1.54592,-1.13088 1.96343,-1.49568 l 0.75604,-0.65664 c -1.80546,-2.14014 -2.97901,-3.47774 -3.76889,-4.35325 -0.78989,-0.87552 -2.00858,-2.17663 -2.70819,-2.90622 -0.69962,-0.7296 -2.45994,-2.43199 -3.91559,-3.7939 -1.44436,-1.36192 -2.66305,-2.46847 -2.70818,-2.46847 -0.0226,0.0122 -0.38367,0.304 -0.77861,0.64448 z m -7.66191,3.1251 c -0.13541,0.65664 -0.38366,2.14015 -0.57549,3.29534 -0.19183,1.15519 -0.47393,3.27102 -0.63191,4.68158 -0.15798,1.41055 -0.37238,3.95197 -0.46265,5.63005 -0.10155,1.67807 -0.14669,3.08862 -0.11284,3.1251 0.0339,0.0365 0.90273,0.13376 1.9183,0.20672 1.01557,0.073 2.35838,0.10944 2.99029,0.0608 0.63191,-0.0486 1.5572,-0.10944 2.06499,-0.14592 l 0.9253,-0.073 c -0.16926,-3.80606 -0.31596,-5.95837 -0.4288,-7.223 -0.11284,-1.26464 -0.33852,-3.25886 -0.4965,-4.41406 -0.15798,-1.15519 -0.45137,-3.0643 -0.65448,-4.2195 l -0.37237,-2.10367 h -3.92687 z"
         style="fill:#f49f5c;fill-opacity:1;stroke-width:0.117138" />
    </g>
  </g>
</svg>
