<?xml version="1.0" encoding="UTF-8"?> <svg xmlns="http://www.w3.org/2000/svg" viewBox="0 0 2778 870" width="500" height="157"><style> tspan { white-space:pre } .shp0 { fill: #ffffff } .shp1 { fill: #f7e300 } .shp2 { fill: #536c18 } .shp3 { fill: #f4b5ca } .shp4 { fill: #f49f5c } .shp5 { fill: #757577 } </style><g id="Background"><path id="Path 0" class="shp0" d="M-190 435.5L-190 1026L3117 1026L3117 -155L-190 -155L-190 435.5Z"></path><path id="Path 1" class="shp1" d="M196 54.6C194.07 54.82 190.48 55.27 188 55.6L183.5 56.18C184.71 76.58 185.75 89.47 186.59 98C187.43 106.52 188.78 118 189.57 123.5C190.37 129 192.2 139.8 193.65 147.5L196.28 161.5L215.95 161.5C218.21 151.43 219.78 143.32 220.91 137C222.03 130.68 223.85 118.52 224.95 110C226.05 101.48 227.41 89.1 227.96 82.5C228.52 75.9 228.99 67.35 229.01 63.5C229.05 56.67 228.98 56.48 226.27 55.81C224.75 55.43 218.1 54.91 211.5 54.65C204.9 54.39 197.93 54.37 196 54.6Z"></path><path id="Path 2" class="shp2" d="M716.27 58.75C715.9 59.71 675.97 189.43 627.53 347L539.46 633.5C642.03 633.88 667.7 633.6 668 633.04C668.27 632.53 675.7 603.51 684.5 568.55L700.5 504.99L880 505C883.04 517.01 890.35 546.05 898.21 577.28L912.5 634.06L1043 634C1042.09 629.74 1003.15 502.05 955.88 347.5C908.6 192.95 869.27 64.36 868.46 61.75L867 57C721.45 57 716.91 57.1 716.27 58.75ZM1106 345.5L1106 634L1230 634L1230 437C1298.59 437 1323.45 436.54 1329.5 435.97C1335.55 435.4 1345 434.27 1350.5 433.45C1356 432.63 1365.67 430.81 1372 429.39C1378.33 427.98 1389.58 424.8 1397 422.33C1404.42 419.86 1415.45 415.48 1421.5 412.6C1427.55 409.71 1436.33 404.97 1441 402.06C1445.67 399.15 1452.2 394.68 1455.5 392.14C1458.8 389.59 1464.82 384.36 1468.89 380.5C1472.95 376.65 1478.83 370.35 1481.96 366.5C1485.09 362.65 1489.45 356.8 1491.65 353.5C1493.85 350.2 1497.48 344.13 1499.72 340C1501.95 335.88 1505.38 328.45 1507.33 323.5C1509.28 318.55 1512.06 310.45 1513.49 305.5C1514.93 300.55 1516.95 291.55 1518 285.5C1519.04 279.45 1520.4 267.3 1521.01 258.5C1521.8 247.01 1521.82 238.27 1521.05 227.5C1520.47 219.25 1519.36 208.9 1518.58 204.5C1517.81 200.1 1516.26 192.9 1515.14 188.5C1514.03 184.1 1511.91 177.13 1510.44 173C1508.97 168.88 1505.25 160.55 1502.15 154.5C1499.06 148.45 1494.1 140.13 1491.13 136C1488.16 131.88 1483.2 125.63 1480.11 122.13C1477.03 118.62 1470.9 112.72 1466.5 109C1462.1 105.29 1454.67 99.68 1450 96.55C1445.33 93.41 1435.65 87.97 1428.5 84.45C1421.35 80.93 1408.75 75.84 1400.5 73.13C1392.25 70.42 1380.33 67.06 1374 65.66C1367.67 64.25 1356.2 62.2 1348.5 61.1C1340.8 60 1328.42 58.62 1321 58.04C1312.82 57.41 1267.79 57 1206.75 57L1106 57L1106 345.5ZM1703.59 58.75C1703.31 59.71 1663.67 188.75 1615.51 345.5C1567.35 502.25 1527.73 631.29 1527.47 632.25C1527.03 633.9 1530.54 634 1591.25 633.99L1655.5 633.99C1679.41 539.06 1686.72 510.04 1687.17 508.25L1688 505L1867.5 505L1899.62 633.5C2017.49 633.95 2030.92 633.74 2030.63 632.75C2030.43 632.06 1990.71 502.24 1942.38 344.25L1854.5 57C1708.55 57 1704.08 57.1 1703.59 58.75ZM2125.74 316.25C2125.46 561.22 2125.34 576.08 2123.63 586C2122.63 591.77 2120.71 600.33 2119.37 605C2118.02 609.67 2115.45 616.65 2113.65 620.5C2111.85 624.35 2108.87 629.75 2107.01 632.5C2105.15 635.25 2101.58 639.92 2099.07 642.88C2096.56 645.84 2091.13 650.96 2087 654.26C2082.88 657.56 2075.22 662.77 2070 665.83C2064.78 668.89 2055.55 673.56 2049.5 676.21C2042.95 679.07 2038.62 681.52 2038.81 682.26C2038.97 682.94 2046.11 702.4 2054.66 725.5C2063.21 748.6 2070.6 767.95 2071.09 768.5C2071.65 769.15 2076.8 767.79 2085.73 764.62C2093.3 761.94 2105.8 757.08 2113.5 753.82C2121.2 750.57 2132.68 745.19 2139 741.87C2145.32 738.55 2155.45 732.58 2161.5 728.6C2167.55 724.62 2176.55 717.99 2181.5 713.87C2186.45 709.75 2194.23 702.35 2198.79 697.44C2203.35 692.52 2209.97 684.45 2213.5 679.5C2217.04 674.55 2222.39 665.77 2225.4 660C2228.41 654.23 2232.52 645.23 2234.54 640C2236.55 634.77 2239.69 624.65 2241.52 617.5C2243.34 610.35 2245.55 599.55 2246.43 593.5C2247.31 587.45 2248.46 575.75 2248.99 567.5C2249.57 558.56 2249.97 452.48 2249.98 304.75L2250 57L2126.05 57L2125.74 316.25ZM2366 348.5L2366 634L2417 634L2417 355L2689 355L2689 634L2740 634L2740 63L2689 63L2689 312L2417 312L2417 63L2366 63L2366 348.5Z"></path><path id="Path 3" class="shp1" d="M101.57 99.21C97.33 103.77 91.19 111.44 87.93 116.25C84.67 121.06 82.01 125.56 82.01 126.25C82.02 126.94 86.86 130.94 92.76 135.15C98.67 139.35 109.35 146.61 116.5 151.26C123.65 155.92 136.25 163.56 144.5 168.24C152.75 172.92 162.31 178.15 165.75 179.87C169.19 181.59 172.15 182.89 172.32 182.75C172.5 182.61 173.7 180.93 174.98 179C176.26 177.07 178.93 173.83 180.91 171.8L184.5 168.09C180.47 162.98 176.03 157.68 172.04 153C168.05 148.32 158.87 138.23 151.64 130.58C144.41 122.92 132.28 110.99 124.68 104.08C117.07 97.16 110.5 91.37 110.07 91.21C109.64 91.05 105.81 94.65 101.57 99.21ZM298.5 95.66C296.3 97.65 288.08 105.18 280.22 112.39C272.37 119.6 259.93 132.02 252.58 140C245.23 147.98 236.69 157.54 233.61 161.25L228 168C234.2 174.98 236.68 178.35 237.5 180C238.32 181.65 239.56 182.99 240.25 182.98C240.94 182.97 247.13 179.99 254 176.36C260.88 172.73 271.23 167.06 277 163.76C282.77 160.46 296.5 151.75 307.5 144.4C318.5 137.05 328.4 130.37 329.5 129.55C330.94 128.47 331.26 127.55 330.66 126.28C330.19 125.3 327.98 121.8 325.75 118.5C323.52 115.2 319.66 110.02 317.17 107C314.69 103.98 310.6 99.36 308.08 96.74C305.56 94.12 303.27 91.99 303 92.01C302.73 92.04 300.7 93.68 298.5 95.66Z"></path><path id="Path 4" class="shp0" d="M1230 246.75L1230 347.5C1287.74 346.44 1307.88 345.61 1312 344.98C1316.13 344.34 1323.78 342.73 1329 341.4C1334.22 340.06 1342.55 336.99 1347.5 334.56C1352.45 332.13 1359.18 327.98 1362.45 325.32C1365.73 322.67 1370.59 317.8 1373.27 314.5C1375.94 311.2 1380.13 304.45 1382.58 299.5C1385.03 294.55 1388.12 286.23 1389.44 281C1390.76 275.77 1392.33 266.77 1392.93 261C1393.53 255.23 1394.01 247.13 1394 243C1394 238.88 1393.5 231.45 1392.89 226.5C1392.28 221.55 1390.93 214.13 1389.88 210C1388.84 205.88 1386.25 198.9 1384.13 194.5C1382.02 190.1 1378.08 183.6 1375.39 180.05C1372.7 176.5 1367.13 170.94 1363 167.69C1358.88 164.43 1351.9 160.04 1347.5 157.93C1343.1 155.82 1335.45 152.96 1330.5 151.58C1325.55 150.19 1316.78 148.37 1311 147.54C1303.19 146.41 1291.47 146.02 1265.25 146.01L1230 146L1230 246.75ZM757.08 280.73C739.25 352.1 724.51 411.29 724.33 412.25C724.02 413.9 727.68 414 790 414C833.33 414 856 413.66 856 413C856 412.45 841.36 354.06 823.46 283.25C805.57 212.44 790.61 153.7 790.21 152.73C789.77 151.64 777.09 200.62 757.08 280.73ZM1776.18 154.5C1775.58 156.7 1760.78 215.97 1743.3 286.22L1711.5 413.94C1840.36 414 1843.98 413.9 1843.55 412.25C1843.3 411.29 1828.43 352.45 1810.5 281.5C1792.57 210.55 1777.76 152.05 1777.59 151.5C1777.41 150.95 1776.78 152.3 1776.18 154.5Z"></path><path id="Path 5" class="shp1" d="M138.5 197.09C130.8 197.53 117.52 198.62 109 199.53C100.48 200.44 86.86 202.26 78.75 203.59C70.64 204.92 63.78 206 63.5 206C63.22 206 63 207.46 62.99 209.25C62.99 211.04 63.71 216.77 64.6 222C65.48 227.23 67.56 235.77 69.21 241C70.87 246.23 72.29 250.62 72.36 250.76C72.44 250.91 81.16 248.55 91.75 245.51C102.34 242.48 118.31 237.33 127.25 234.06C136.19 230.8 148.68 225.9 155 223.19C161.32 220.47 168.07 217.47 170 216.51L173.5 214.78C170.91 207.59 170.01 203.36 169.83 200.75L169.5 196C156.32 196.23 146.2 196.65 138.5 197.09ZM242.58 198.5C242.26 199.32 242 201.13 242 202.5C242 203.88 241.1 207.25 240 210L238 215C253.89 222.51 264.8 227.21 272.5 230.27C280.2 233.34 292.35 237.85 299.5 240.29C306.65 242.74 318.35 246.41 325.5 248.45C332.65 250.5 338.78 251.79 339.13 251.33C339.47 250.88 340.7 247.57 341.85 244C343.01 240.43 344.84 233.68 345.93 229C347.01 224.32 348.26 217.75 348.7 214.38C349.43 208.76 349.34 208.21 347.5 207.66C346.4 207.34 340.33 206.16 334 205.05C327.67 203.95 315.52 202.15 307 201.05C298.48 199.96 285.43 198.6 278 198.03C270.57 197.46 259.7 197 253.83 197C245.28 197 243.05 197.3 242.58 198.5ZM178.57 229.32C176.76 231.62 172.12 237.77 168.27 243C164.42 248.23 156.98 259.02 151.74 267C146.5 274.98 138.11 288.7 133.09 297.5C128.07 306.3 124.08 314.12 124.23 314.88C124.38 315.65 128.55 318.69 133.5 321.65C138.45 324.61 147.11 328.82 152.75 331.01C158.39 333.21 163.34 335.01 163.75 335.03C164.16 335.05 165.24 333.36 166.15 331.28C167.06 329.2 170.37 321.2 173.5 313.5C176.64 305.8 181.43 292.98 184.16 285C186.89 277.02 191.35 262.63 194.06 253C196.78 243.38 199 234.94 199 234.25C199 233.56 197.54 232.79 195.75 232.54C193.96 232.29 190.11 230.52 187.19 228.62L181.87 225.15L178.57 229.32ZM224 229.09C221.52 230.71 217.99 232.36 216.14 232.76C212.86 233.48 212.8 233.59 213.42 237.5C213.78 239.7 216.13 248.93 218.65 258C221.17 267.07 225.71 281.7 228.73 290.5C231.76 299.3 236.8 312.8 239.92 320.5C243.09 328.31 246.24 334.64 247.05 334.82C247.85 335 253.68 333.09 260 330.57C266.32 328.05 275 323.86 279.27 321.25C283.54 318.64 287.03 316.05 287.03 315.5C287.03 314.95 282.47 306.4 276.9 296.5C271.33 286.6 262.5 271.98 257.28 264C252.05 256.02 243.89 244.2 239.14 237.72C234.39 231.25 230.05 225.99 229.5 226.05C228.95 226.11 226.48 227.48 224 229.09Z"></path><path id="Path 6" class="shp3" d="M422.51 261.69C421.35 261.96 420.62 262.85 420.76 263.82C420.89 264.75 421.68 271.35 422.52 278.5C423.36 285.65 425.11 296.68 426.42 303C427.73 309.32 429.52 317.09 430.4 320.25L432 326L441 326C443.25 317.86 444.79 311.45 445.88 306.5C446.97 301.55 448.53 292.77 449.35 287C450.16 281.23 451.12 273.35 451.48 269.5C452.1 262.8 452.03 262.47 449.81 261.76C448.54 261.36 442.33 261.07 436 261.13C429.67 261.19 423.6 261.44 422.51 261.69ZM366.57 305.25C365.28 308.14 363.53 312.98 362.69 316C361.85 319.02 360.9 323.19 360.58 325.25C360.01 328.9 360.1 329.02 363.75 329.95C365.81 330.47 372.23 331.81 378 332.92C383.77 334.03 392.1 335.38 396.5 335.92C400.9 336.47 409 337.21 414.5 337.56L424.5 338.21C426.86 330.47 426.8 329.83 425.25 328.55C424.29 327.75 417.65 323.59 410.5 319.32C403.35 315.04 391.76 308.94 384.75 305.77C377.74 302.6 371.31 300 370.46 300C369.56 300 367.93 302.2 366.57 305.25ZM488 305.8C481.13 308.96 469.65 315.04 462.5 319.32C455.35 323.59 448.71 327.75 447.75 328.55C446.2 329.83 446.14 330.47 447.25 334.11L448.5 338.22C463.23 337.21 471.33 336.48 476 335.94C480.67 335.4 489.23 334.04 495 332.93C500.77 331.81 507.19 330.47 509.25 329.95C512.9 329.02 512.99 328.9 512.42 325.25C512.1 323.19 511.15 319.02 510.31 316C509.47 312.98 507.7 308.14 506.39 305.25C504.81 301.79 503.4 300.01 502.25 300.03C501.29 300.05 494.88 302.65 488 305.8ZM418.32 350.25C414.02 353.69 405.32 361.67 398.99 368C392.66 374.32 385.69 381.7 383.49 384.39L379.5 389.28C388.94 397.98 394.57 402.03 398.09 403.9L404.5 407.29C407.6 403.26 411.2 397.23 414.5 391.29C417.79 385.36 422.8 375.1 425.61 368.5C428.43 361.9 431.36 354.86 432.12 352.87C433.46 349.33 433.42 349.16 430.5 346.65C428.85 345.23 427.19 344.05 426.82 344.03C426.44 344.01 422.62 346.81 418.32 350.25ZM442.5 346.65L439.5 349.23C442.47 357.19 445.74 364.9 448.67 371.5C451.61 378.1 457.05 388.79 460.76 395.25C464.47 401.71 467.95 406.98 468.5 406.97C469.05 406.95 472.16 405.49 475.41 403.72C478.66 401.95 484.06 397.97 487.41 394.89L493.5 389.27C485.81 380.15 479.06 373 473.53 367.5C468.01 362 459.78 354.46 455.24 350.75C450.71 347.04 446.66 344.01 446.25 344.03C445.84 344.05 444.15 345.23 442.5 346.65Z"></path><path id="Path 7" class="shp4" d="M202 374.61C200.07 374.85 197.47 375.28 196.21 375.58L193.92 376.12C194.79 404.31 195.71 420.38 196.53 430C197.35 439.63 198.93 454.7 200.03 463.5C201.13 472.3 203.19 486.7 204.6 495.5C206.02 504.3 207.48 511.82 207.84 512.21C208.2 512.6 211.43 512.5 215 512C218.9 511.45 224.1 511.44 228 511.99C231.57 512.48 234.57 512.8 234.65 512.69C234.74 512.59 236.19 504.4 237.87 494.5C239.56 484.6 241.85 469.3 242.96 460.5C244.06 451.7 245.64 436.63 246.46 427C247.28 417.38 248.27 402.08 248.65 393C249.31 377.33 249.24 376.46 247.42 375.65C246.36 375.18 236.5 374.66 225.5 374.49C214.5 374.32 203.93 374.38 202 374.61ZM122.5 400.31C118.65 402.65 112.57 406.57 109 409.01C105.43 411.45 98.56 416.72 93.75 420.72C86.54 426.72 85.16 428.31 85.92 429.75C86.43 430.71 91.68 437.58 97.59 445C103.5 452.42 113.81 464.8 120.51 472.5C127.2 480.2 138.93 493.05 146.59 501.06C154.24 509.07 164.21 519.08 168.75 523.31L177 531C186.69 523.04 191.64 519.67 194.25 518.37C198.48 516.26 198.9 515.75 198.13 513.75C197.64 512.51 193.76 504.52 189.49 496C185.22 487.48 178.11 473.98 173.69 466C169.27 458.02 162.54 446.33 158.73 440C154.92 433.67 147.01 421.19 141.15 412.26C135.29 403.33 130.27 396.03 130 396.04C129.73 396.04 126.35 397.96 122.5 400.31ZM303.23 410.25C298.33 417.54 290.04 430.48 284.81 439C279.58 447.52 271.7 461.02 267.29 469C262.88 476.98 255.84 490.36 251.64 498.75C247.44 507.14 244 514.67 244 515.5C244 516.33 244.45 517 245 517C245.55 517 248.36 518.49 251.25 520.32C254.14 522.14 258.52 525.55 261 527.89L265.5 532.15C298.87 498.32 314.39 481.8 321.53 473.62C328.66 465.43 339.57 452.38 345.76 444.62C351.95 436.85 357.03 430.05 357.04 429.5C357.04 428.95 353.55 425.43 349.28 421.68C345 417.93 335.42 410.84 328 405.92C320.57 400.99 313.97 396.98 313.32 396.98C312.67 396.99 308.13 402.96 303.23 410.25ZM44.02 485.75C43.34 487.26 41.01 493 38.85 498.5C36.69 504 33.58 513.67 31.95 520C30.31 526.33 28.97 532.51 28.98 533.75C29 535.82 30.49 536.41 47.25 540.99C57.29 543.74 71.13 547.32 78 548.95C84.88 550.57 97.25 553.27 105.5 554.93C113.75 556.6 129.05 559.32 139.5 560.98C149.95 562.63 159.74 563.99 161.25 563.99C163.64 564 164 563.61 164 561C164 559.35 164.94 555.19 166.09 551.75C167.23 548.31 169.03 544.04 170.09 542.25L172 539C160.76 532.79 148.5 526.53 137.5 521.08C126.5 515.64 109.4 507.7 99.5 503.44C89.6 499.18 73.96 492.84 64.75 489.35C55.54 485.86 47.38 483 46.63 483C45.87 483 44.7 484.24 44.02 485.75ZM377 490.39C367.92 493.84 353.98 499.4 346 502.73C338.02 506.06 324.08 512.27 315 516.51C305.93 520.76 292.47 527.45 285.11 531.37C277.74 535.29 271.55 538.84 271.36 539.25C271.16 539.66 272.18 542.59 273.62 545.75C275.07 548.91 276.87 554.42 277.63 558C278.39 561.58 279.12 564.56 279.26 564.64C279.39 564.72 286.93 563.72 296 562.4C305.07 561.09 319.93 558.64 329 556.95C338.08 555.27 353.38 552.06 363 549.83C372.63 547.6 387.02 543.96 395 541.75C402.98 539.53 410.51 537.56 411.75 537.36C413.63 537.06 413.9 536.55 413.4 534.25C413.07 532.74 411.7 527 410.35 521.5C408.99 516 406.72 508.13 405.29 504C403.87 499.88 401.42 493.69 399.85 490.25C397.9 485.97 396.45 484.02 395.25 484.06C394.29 484.09 386.08 486.94 377 490.39ZM142 576.55C133.48 577.86 118.18 580.55 108 582.52C97.82 584.49 81.18 588.12 71 590.58C60.82 593.03 47.55 596.43 41.5 598.12C35.45 599.82 30.05 601.62 29.5 602.12C28.84 602.73 28.95 605.3 29.83 609.77C30.56 613.47 32.74 621.67 34.67 628C36.6 634.33 39.82 643 41.84 647.29C43.85 651.57 45.61 655.06 45.75 655.04C45.89 655.02 53.54 652.25 62.75 648.89C71.96 645.53 88.95 638.74 100.5 633.81C112.05 628.89 131.85 619.68 144.5 613.37C157.15 607.05 168.4 601.24 169.5 600.46C171.48 599.05 171.47 598.97 168.61 592.77C167.02 589.32 165.19 583.8 164.53 580.5C163.41 574.88 163.15 574.49 160.42 574.33C158.81 574.23 150.52 575.23 142 576.55ZM278.64 575.2C278.4 575.92 277.71 578.98 277.1 582C276.48 585.02 274.7 590.2 273.13 593.5L270.27 599.5C276.65 603.15 288.18 609.08 300 615.02C311.82 620.97 327.58 628.52 335 631.8C342.42 635.08 355.92 640.69 365 644.28C374.08 647.86 384.76 651.97 388.75 653.4L396 656C401.27 644.76 404.13 637.67 405.76 633C407.39 628.33 409.77 620.23 411.03 615C412.3 609.77 413.1 604.83 412.81 604C412.47 603.03 406.26 600.82 395.39 597.79C386.1 595.19 374 591.95 368.5 590.59C363 589.22 349.73 586.32 339 584.13C328.27 581.94 311.85 578.99 302.5 577.57C293.15 576.16 284.05 574.75 282.28 574.45C280.12 574.09 278.92 574.33 278.64 575.2ZM156.69 626.27C146.14 636.87 130.8 653.19 122.61 662.52C114.42 671.86 103.37 684.9 98.06 691.5C92.75 698.1 87.52 704.75 86.45 706.28L84.5 709.06C88.38 713.12 94 717.86 99.5 722.23C105 726.59 113.93 732.94 119.35 736.33C125.1 739.93 129.47 742.08 129.86 741.5C130.23 740.95 135.74 732.63 142.1 723C148.47 713.38 157.96 698.3 163.18 689.5C168.41 680.7 176.31 666.75 180.75 658.5C185.19 650.25 190.89 639.23 193.42 634C195.96 628.77 198.02 623.94 198.02 623.25C198.01 622.56 195.41 620.57 192.25 618.83C189.09 617.09 184.48 613.73 182 611.37C179.52 609 177.14 607.05 176.69 607.03C176.25 607.02 167.25 615.67 156.69 626.27ZM259.44 611.79C256.66 614.38 251.93 617.81 248.94 619.4C245.95 621 243.39 622.46 243.25 622.65C243.11 622.84 247.56 632.11 253.12 643.25C258.69 654.39 266.17 668.67 269.74 675C273.31 681.33 279.18 691.45 282.78 697.5C286.38 703.55 294.2 716.04 300.16 725.25C306.12 734.46 311.56 741.98 312.25 741.96C312.94 741.95 317.1 739.73 321.5 737.04C325.9 734.36 333.32 729.31 337.98 725.83C342.65 722.35 348.85 717.25 351.77 714.5L357.08 709.5C344.35 693.23 336.12 683.1 330.59 676.5C325.05 669.9 316.48 660 311.54 654.5C306.59 649 294.21 636.05 284.02 625.72C273.84 615.4 265.27 606.98 265 607.01C264.73 607.05 262.22 609.2 259.44 611.79ZM205.51 635.5C204.6 640.45 202.78 651.7 201.46 660.5C200.14 669.3 198.15 685.27 197.04 696C195.93 706.73 194.45 725.93 193.76 738.67C193.07 751.42 192.73 762.09 193 762.4C193.27 762.7 199.35 763.42 206.5 764C213.65 764.57 223.1 764.79 227.5 764.49C231.9 764.19 238.43 763.68 242 763.37L248.5 762.79C247.31 733.89 246.29 717.63 245.47 708C244.65 698.38 243.07 683.3 241.97 674.5C240.87 665.7 238.81 651.3 237.39 642.5L234.81 626.5L207.16 626.5L205.51 635.5Z"></path><path id="Path 8" class="shp5" d="M717.8 677.84C708.06 683.7 699.84 688.84 699.55 689.25C699.25 689.66 700.42 692.59 702.16 695.75C703.9 698.91 705.37 701.63 705.41 701.78C705.46 701.94 714.27 698.61 725 694.39C735.73 690.16 744.86 686.44 745.3 686.1C745.74 685.77 744.11 681.34 741.68 676.25C739.25 671.16 736.86 667.04 736.38 667.09C735.9 667.13 727.53 671.97 717.8 677.84ZM1054.8 677.84C1045.06 683.7 1036.84 688.84 1036.55 689.25C1036.25 689.66 1037.42 692.59 1039.16 695.75C1040.9 698.91 1042.37 701.63 1042.41 701.78C1042.46 701.94 1051.28 698.61 1062 694.39C1072.72 690.16 1081.86 686.44 1082.3 686.1C1082.74 685.77 1081.11 681.34 1078.68 676.25C1076.25 671.16 1073.86 667.04 1073.38 667.09C1072.9 667.13 1064.53 671.97 1054.8 677.84ZM1628.07 672.69C1626.19 673.69 1623.8 675.63 1622.76 677C1621.73 678.38 1620.66 681.52 1620.38 684C1620.04 687.18 1620.42 689.51 1621.7 691.93C1622.69 693.81 1624.63 696.21 1626 697.26C1627.38 698.3 1630.75 699.37 1633.5 699.63C1637.12 699.98 1639.45 699.61 1641.93 698.31C1643.81 697.31 1646.2 695.38 1647.24 694C1648.27 692.63 1649.34 689.48 1649.62 687C1649.96 683.82 1649.58 681.49 1648.3 679.07C1647.31 677.19 1645.38 674.79 1644 673.74C1642.63 672.7 1639.25 671.63 1636.5 671.37C1632.88 671.02 1630.55 671.39 1628.07 672.69ZM908 702.5L908 725C899.86 719.6 895.25 717.51 892.5 716.88C889.73 716.24 884.82 715.99 881.5 716.32C877.91 716.67 873.09 718.09 869.5 719.84C866.07 721.52 861.87 724.65 859.69 727.14C857.59 729.54 854.55 734.2 852.93 737.5C851.31 740.8 849.31 746.99 848.49 751.25C847.67 755.51 847 761.81 847 765.25C847.01 768.69 847.68 775.55 848.49 780.5C849.32 785.5 851.24 792.17 852.81 795.5C854.37 798.8 857.19 803.23 859.07 805.34C860.96 807.45 864.97 810.38 868 811.84C872.71 814.12 874.8 814.5 882.5 814.5C890.05 814.5 892.31 814.1 896.5 812.03C899.25 810.68 903.41 807.64 905.75 805.28C909.55 801.46 910 801.24 909.99 803.25C909.98 804.49 910.32 806.97 910.74 808.77L911.5 812.05L933 812C933 696.58 932.74 682.99 931.75 682.97C931.06 682.95 925.78 682.29 920 681.5C914.22 680.71 909.16 680.05 908.75 680.03C908.34 680.01 908 690.13 908 702.5ZM539 751.5L539 812L565 812L565 763L601 763L601 744L565 744L565 710L606.5 710.02C608.45 697.99 609.01 693.71 609.01 692.75C609 691.12 606.66 691 574 691L539 691L539 751.5ZM1499.5 697.38L1490.5 698.5L1490 719L1476 719L1476 737L1490 737C1489.99 782.59 1490.34 789.88 1491.52 794.5C1492.36 797.8 1494.3 802.3 1495.83 804.5C1497.62 807.08 1500.68 809.56 1504.48 811.5C1509.66 814.14 1511.37 814.5 1518.93 814.5C1524.5 814.5 1529.42 813.87 1533 812.69C1536.03 811.7 1539.51 810.12 1540.75 809.19L1543 807.5L1535 792C1529.58 794.33 1526.42 795 1524.5 795C1522.58 795 1520.1 794.55 1519 794C1517.9 793.45 1516.54 791.54 1515.98 789.75C1515.41 787.91 1514.97 775.77 1514.98 761.75L1515 737L1534 737C1535.55 725.38 1536 721.33 1536 720.5C1536 719.26 1534.17 719 1525.5 719L1515 719L1515 696C1509.96 696.2 1504.45 696.77 1499.5 697.38ZM712 717.55C708.98 718.4 704.7 720.15 702.5 721.43C700.3 722.72 696.59 725.85 694.25 728.38C691.91 730.92 688.92 735.14 687.6 737.75C686.29 740.36 684.39 745.2 683.39 748.5C682.09 752.8 681.57 757.75 681.57 766C681.57 774.19 682.09 779.23 683.37 783.5C684.37 786.8 686.37 791.69 687.84 794.37C689.3 797.05 692.64 801.21 695.25 803.62C697.86 806.03 702.36 809.11 705.25 810.47C708.14 811.83 712.98 813.41 716 813.98C719.02 814.55 724.2 815.01 727.5 815C730.8 814.98 736.42 814.28 740 813.43C743.58 812.58 748.98 810.55 752 808.91C755.02 807.28 758.63 805.11 760 804.08L762.5 802.22L752 788C746.19 791.81 742.48 793.62 740 794.48C737.52 795.34 732.58 796.04 729 796.04C724.12 796.04 721.38 795.46 718 793.69C714.49 791.86 712.9 790.15 710.79 785.92C709.29 782.94 707.83 778.81 707.54 776.75L707 773L765 773C766.01 768.74 766.04 763.67 765.72 759C765.4 754.33 764.3 747.8 763.28 744.5C762.27 741.2 759.88 736.06 757.97 733.08C756.06 730.1 752.48 726.14 750 724.28C747.52 722.43 743.02 719.99 740 718.87C736.7 717.65 731.1 716.67 726 716.42C720.2 716.13 715.75 716.49 712 717.55ZM1049 717.55C1045.97 718.4 1041.7 720.15 1039.5 721.43C1037.3 722.72 1033.59 725.85 1031.25 728.38C1028.91 730.92 1025.92 735.14 1024.6 737.75C1023.29 740.36 1021.39 745.2 1020.39 748.5C1019.09 752.8 1018.57 757.75 1018.57 766C1018.57 774.19 1019.09 779.23 1020.37 783.5C1021.37 786.8 1023.37 791.69 1024.84 794.37C1026.3 797.05 1029.64 801.21 1032.25 803.62C1034.86 806.03 1039.36 809.11 1042.25 810.47C1045.14 811.83 1049.97 813.41 1053 813.98C1056.03 814.55 1061.2 815.01 1064.5 815C1067.8 814.98 1073.42 814.28 1077 813.43C1080.58 812.58 1085.97 810.55 1089 808.91C1092.03 807.28 1095.63 805.11 1097 804.08L1099.5 802.22L1089 788C1083.19 791.81 1079.47 793.62 1077 794.48C1074.53 795.34 1069.58 796.04 1066 796.04C1061.12 796.04 1058.38 795.46 1055 793.69C1051.49 791.86 1049.9 790.15 1047.79 785.92C1046.29 782.94 1044.83 778.81 1044.54 776.75L1044 773L1102 773C1103.01 768.74 1103.04 763.67 1102.72 759C1102.4 754.33 1101.3 747.8 1100.28 744.5C1099.27 741.2 1096.88 736.06 1094.97 733.08C1093.06 730.1 1089.47 726.14 1087 724.28C1084.53 722.43 1080.03 719.99 1077 718.87C1073.7 717.65 1068.1 716.67 1063 716.42C1057.2 716.13 1052.75 716.49 1049 717.55ZM1228.5 717.48C1226.3 718.31 1222.59 720.9 1220.26 723.24C1217.93 725.58 1215.23 729.17 1214.26 731.21C1213.29 733.26 1212.28 734.77 1212 734.57C1211.72 734.38 1211.16 730.8 1210.75 726.61L1210 719L1188 719L1188 812L1213 812C1213 765.75 1213.22 762.3 1215 756.75C1216.1 753.31 1218.15 748.83 1219.55 746.79C1221.31 744.25 1223.58 742.55 1226.8 741.38C1230.15 740.16 1232.87 739.86 1236.25 740.33C1240.27 740.9 1241.07 740.73 1241.46 739.25C1241.71 738.29 1242.62 733.23 1243.49 728C1244.35 722.77 1244.71 718.16 1244.28 717.74C1243.85 717.32 1241.03 716.75 1238 716.47C1234.4 716.14 1231.11 716.49 1228.5 717.48ZM1348 716.6C1346.63 716.85 1341.67 717.95 1337 719.04C1332.33 720.13 1327.71 721.58 1326.75 722.26C1325.1 723.43 1325.16 723.98 1327.75 731.6L1330.5 739.69C1340.17 736.53 1346.38 735.6 1352.5 735.33C1359.54 735.03 1363.21 735.28 1364.9 736.2C1366.23 736.91 1368.25 738.78 1369.4 740.33C1370.79 742.21 1371.62 745.09 1371.86 748.83L1372.21 754.5C1350.88 755.6 1344.29 756.52 1340 757.86C1336.42 758.98 1331.47 761.42 1329 763.29C1326.45 765.22 1323.2 769.04 1321.52 772.1C1318.87 776.89 1318.53 778.45 1318.52 786C1318.51 792.97 1318.92 795.31 1320.84 799C1322.12 801.48 1324.6 804.97 1326.34 806.76C1328.08 808.55 1331.75 810.98 1334.5 812.15C1337.25 813.33 1342.42 814.51 1346 814.79C1350.87 815.16 1354.32 814.75 1359.75 813.14C1365.6 811.41 1367.93 810.08 1371.84 806.25L1376.68 801.5C1380.37 807.91 1382.52 809.7 1386.25 811.4C1389.14 812.72 1392.85 814.05 1394.5 814.34C1397.48 814.87 1397.51 814.83 1400.02 806.69L1402.54 798.5L1396.5 793.17C1395.46 739.47 1395.35 738.31 1392.97 733.08C1391.48 729.81 1388.72 726.13 1386 723.8C1383.53 721.67 1379.47 719.24 1377 718.38C1374.35 717.47 1367.97 716.69 1361.5 716.48C1355.45 716.3 1349.38 716.35 1348 716.6ZM1766.25 717.5C1763.36 718.32 1759.2 719.9 1757 721C1754.8 722.1 1751.16 724.69 1748.91 726.75C1746.66 728.81 1743.41 732.75 1741.69 735.5C1739.97 738.25 1737.69 743.2 1736.63 746.5C1735.16 751.03 1734.67 755.56 1734.61 765C1734.53 775.19 1734.92 778.79 1736.69 784.5C1737.89 788.35 1740.81 794.37 1743.18 797.89C1746.18 802.32 1749.33 805.46 1753.5 808.17C1757.61 810.84 1761.86 812.57 1767 813.67C1772.03 814.75 1776.97 815.1 1782 814.74C1786.15 814.44 1792.18 813.17 1795.5 811.9C1798.8 810.63 1803.3 808.2 1805.5 806.5C1807.7 804.79 1811.17 801.17 1813.22 798.45C1815.27 795.73 1817.89 791.02 1819.05 788C1820.21 784.98 1821.66 778.67 1822.27 774C1823.09 767.76 1823.09 763.24 1822.27 757C1821.66 752.33 1820.24 746.02 1819.11 743C1817.99 739.98 1815.59 735.3 1813.79 732.61C1811.98 729.92 1808.25 726.1 1805.5 724.13C1802.75 722.16 1798.25 719.71 1795.5 718.68C1792.37 717.5 1786.95 716.65 1781 716.4C1774.46 716.12 1769.86 716.46 1766.25 717.5ZM1950.5 717.34C1948.3 718.07 1945.15 719.37 1943.5 720.23C1941.85 721.09 1938.36 723.64 1935.75 725.9L1931 730L1930 719L1908 719L1908 812L1933 812L1932.96 747.5C1937.25 741.77 1939.85 739.08 1941.5 737.82C1943.55 736.26 1946.23 735.43 1950 735.18C1954.91 734.85 1955.77 735.09 1958 737.48L1960.5 740.16L1961 812L1986 812C1985.5 736.18 1985.46 735.41 1983.19 730.5C1981.92 727.75 1979.9 724.44 1978.69 723.15C1977.49 721.86 1974.7 719.88 1972.5 718.74C1969.9 717.4 1966.06 716.57 1961.5 716.35C1957.44 716.15 1952.82 716.57 1950.5 717.34ZM1622 765.5L1622 812L1647 812L1647 719L1622 719L1622 765.5Z"></path><path id="Path 9" class="shp0" d="M717.35 734.43C715.62 735.17 713.31 737.07 712.22 738.64C711.12 740.21 709.49 743.98 708.6 747C707.71 750.02 706.98 753.51 706.99 754.75C707 757 707.03 757 724.25 757.01L741.5 757.02C740.37 748.09 739.02 743.51 737.77 741.07C736.34 738.28 734.2 735.96 732 734.81C730.08 733.81 726.7 733.01 724.5 733.04C722.3 733.06 719.08 733.69 717.35 734.43ZM1054.35 734.43C1052.62 735.17 1050.31 737.07 1049.22 738.64C1048.12 740.21 1046.49 743.98 1045.6 747C1044.71 750.02 1043.98 753.51 1043.99 754.75C1044 757 1044.03 757 1061.25 757.01L1078.5 757.02C1077.37 748.09 1076.02 743.51 1074.77 741.07C1073.34 738.28 1071.2 735.96 1069 734.81C1067.08 733.81 1063.7 733.01 1061.5 733.04C1059.3 733.06 1056.08 733.69 1054.35 734.43ZM882.93 737.25C881.04 738.49 878.49 741.53 877.26 744C876.03 746.48 874.52 751.2 873.9 754.5C873.28 757.8 872.98 765 873.23 770.5C873.61 778.56 874.21 781.62 876.35 786.25C878.08 790.01 880.12 792.69 882.25 794C884.38 795.3 887.23 795.99 890.5 795.97C893.99 795.96 896.79 795.21 899.75 793.48C902.09 792.12 904.9 789.65 906 788C907.84 785.24 908 783.33 908 764L908 743C902.58 738.35 899.88 736.55 898.5 736C897.13 735.45 893.83 735 891.18 735C887.87 735 885.29 735.7 882.93 737.25ZM1772 735.65C1771.17 735.98 1769.03 737.65 1767.23 739.37C1765.43 741.09 1763.18 744.75 1762.23 747.5C1760.94 751.24 1760.5 755.77 1760.5 765.5C1760.5 775.23 1760.94 779.76 1762.23 783.5C1763.19 786.28 1765.55 790.06 1767.53 792C1770.97 795.36 1771.4 795.5 1778.5 795.5C1785.6 795.5 1786.03 795.36 1789.47 792C1791.45 790.06 1793.81 786.28 1794.77 783.5C1796.06 779.76 1796.5 775.23 1796.5 765.5C1796.5 755.77 1796.06 751.24 1794.77 747.5C1793.81 744.71 1791.46 740.95 1789.46 739C1786.23 735.84 1785.27 735.48 1779.69 735.28C1776.28 735.15 1772.83 735.32 1772 735.65ZM1352.58 770.79C1349.66 771.81 1346.82 773.65 1345.58 775.34C1344.27 777.14 1343.39 780.08 1343.19 783.34C1342.97 787.21 1343.4 789.31 1344.94 791.75C1346.07 793.54 1348.13 795.45 1349.5 796C1350.88 796.55 1353.58 797 1355.5 797C1357.42 797 1360.24 796.52 1361.75 795.94C1363.26 795.36 1366.19 793.22 1368.27 791.19L1372.03 787.5L1372 769C1360.62 769.07 1355.38 769.82 1352.58 770.79Z"></path></g></svg> 