<?xml version="1.0" encoding="utf-8"?>
<!-- Generator: Adobe Illustrator 25.1.0, SVG Export Plug-In . SVG Version: 6.00 Build 0)  -->
<svg version="1.1" id="Calque_1" xmlns="http://www.w3.org/2000/svg" xmlns:xlink="http://www.w3.org/1999/xlink" x="0px" y="0px"
	 viewBox="0 0 412 915" style="enable-background:new 0 0 412 915;" xml:space="preserve">
<style type="text/css">
	.st0{fill:#FFD485;}
	.st1{fill:#FDEF87;}
	.st2{fill:#FADCE6;}
	.st3{display:none;fill:#FFFFFF;}
</style>
<rect x="22" class="st0" width="14" height="915"/>
<rect x="44" class="st1" width="14" height="915"/>
<rect x="66" class="st2" width="14" height="900"/>
<g>
	<g id="Background_2_">
		<path class="st3" d="M565,1083.9c1.2-0.9,2.4-1.8,3.5-2.8c1.9-2.8,3.6-5.7,5.2-8.7c5.9-14.1,10.2-28.6,14.5-43.2
			c2.3-7.6,4.6-15.1,7.2-22.5c3.4-9.6,8.1-18.8,12.7-28c9.9-22,17.7-44.8,24.2-67.9c12.3-43.7,20.2-88.3,31.7-132.2
			c11.1-42,25.5-83.3,32.8-126c0.9-7.3,1.5-14.6,2.5-21.8c1.2-8.7,2.6-17.4,4-26c0.9-6.8,1.6-13.6,1.4-20.3
			c-2.4-3.5-4.2-7.3-5.5-11.3c-0.4-2.7-0.8-5.5-1.2-8.2c-0.5-0.7-1-1.5-1.4-2.3c-5.9-10.6-8.5-21.3-8.7-33.3
			c-0.1-7.7,1-15.1,0.6-22.7c-2.3-10.3-5.9-20.3-9.2-30.4c-1.9-6.1-3.7-12.2-4.9-18.5c-1.9-9.7-3.6-19.6-3.2-29.5
			c0.2-4.3,0.9-8.4,2.2-12.3H275v681.7h279.9C556.9,1092.5,560.3,1087.9,565,1083.9z"/>
		<path id="Path_1_2_" class="st1" d="M255.4,304.1c-0.9,0.1-2.6,0.3-3.8,0.5l-2.2,0.3c0.6,10.1,1.1,16.5,1.5,20.7
			c0.4,4.2,1.1,9.9,1.4,12.6c0.4,2.7,1.2,8.1,1.9,11.9l1.2,6.9h9.4c1.1-5,1.8-9,2.4-12.2c0.5-3.2,1.4-9.1,1.9-13.4
			c0.5-4.2,1.2-10.4,1.4-13.6c0.3-3.3,0.5-7.5,0.5-9.4c0-3.4,0-3.5-1.3-3.8c-0.7-0.2-3.9-0.5-7-0.6C259.6,304,256.3,304,255.4,304.1
			z"/>
		<path id="Path_3_2_" class="st1" d="M210.5,326.2c-2,2.2-4.9,6.1-6.5,8.5c-1.5,2.4-2.8,4.6-2.8,4.9c0,0.4,2.3,2.3,5.1,4.4
			c2.8,2.1,7.9,5.7,11.3,8c3.4,2.3,9.4,6.1,13.3,8.4s8.5,4.9,10.1,5.8c1.7,0.8,3.1,1.5,3.1,1.4c0.1,0,0.6-0.9,1.2-1.9
			c0.6-1,1.9-2.6,2.8-3.6l1.7-1.8c-1.9-2.5-4-5.2-5.9-7.5c-1.9-2.3-6.3-7.3-9.7-11.1c-3.4-3.8-9.2-9.7-12.8-13.1
			c-3.6-3.4-6.8-6.3-6.9-6.4C214.3,322.2,212.5,323.9,210.5,326.2z M304.1,324.4c-1.1,1-4.9,4.7-8.7,8.3c-3.7,3.6-9.7,9.7-13.1,13.7
			s-7.5,8.7-9,10.5l-2.7,3.3c2.9,3.5,4.1,5.1,4.5,5.9s1,1.5,1.3,1.5s3.3-1.5,6.5-3.3c3.3-1.8,8.2-4.6,10.9-6.3
			c2.8-1.6,9.3-5.9,14.5-9.6c5.2-3.7,9.9-6.9,10.5-7.4c0.7-0.5,0.8-1,0.6-1.6c-0.2-0.5-1.3-2.2-2.3-3.8c-1.1-1.6-2.9-4.2-4.1-5.7
			c-1.2-1.5-3.1-3.8-4.3-5.1c-1.2-1.3-2.3-2.3-2.4-2.3C306.2,322.7,305.2,323.4,304.1,324.4z"/>
		<path id="Path_5_2_" class="st1" d="M228.1,374.7c-3.7,0.2-10,0.8-14,1.2c-4,0.5-10.5,1.4-14.4,2c-3.8,0.6-7.1,1.2-7.2,1.2
			s-0.2,0.7-0.2,1.6s0.3,3.7,0.8,6.3c0.4,2.6,1.4,6.8,2.2,9.4c0.8,2.6,1.5,4.8,1.5,4.8c0,0.1,4.2-1.1,9.2-2.6s12.6-4.1,16.9-5.7
			c4.3-1.6,10.2-4.1,13.2-5.4c3-1.4,6.2-2.8,7.1-3.3l1.7-0.9c-1.2-3.6-1.7-5.7-1.7-6.9l-0.2-2.3
			C236.5,374.3,231.7,374.5,228.1,374.7z M277.6,375.4c-0.2,0.4-0.3,1.3-0.3,2c0,0.7-0.4,2.3-0.9,3.7l-0.9,2.5
			c7.5,3.7,12.8,6,16.4,7.6c3.7,1.5,9.4,3.7,12.8,5c3.4,1.2,9,3,12.4,4.1c3.4,1,6.3,1.6,6.5,1.4c0.2-0.2,0.8-1.9,1.3-3.7
			c0.6-1.8,1.4-5.1,1.9-7.5c0.5-2.3,1.1-5.6,1.3-7.3c0.3-2.8,0.3-3.1-0.6-3.3c-0.5-0.2-3.4-0.7-6.4-1.3c-3-0.5-8.8-1.4-12.8-2
			c-4-0.5-10.3-1.2-13.8-1.5c-3.5-0.3-8.7-0.5-11.5-0.5C278.8,374.7,277.8,374.8,277.6,375.4z M247.1,390.7
			c-0.9,1.1-3.1,4.2-4.9,6.8c-1.8,2.6-5.4,8-7.9,11.9c-2.5,3.9-6.5,10.7-8.9,15.1c-2.4,4.3-4.3,8.2-4.2,8.6c0.1,0.4,2,1.9,4.4,3.3
			c2.3,1.5,6.5,3.6,9.2,4.6c2.7,1.1,5,2,5.2,2c0.2,0,0.7-0.8,1.1-1.9c0.5-1.1,2-5,3.5-8.8c1.5-3.8,3.8-10.2,5.1-14.1
			c1.3-3.9,3.4-11.1,4.7-15.9c1.3-4.8,2.3-9,2.3-9.3c0-0.3-0.7-0.7-1.5-0.9c-0.9-0.1-2.7-1-4.1-2l-2.5-1.7L247.1,390.7z
			 M268.7,390.6c-1.2,0.8-2.9,1.6-3.7,1.8c-1.5,0.4-1.6,0.4-1.3,2.3c0.2,1.1,1.3,5.7,2.5,10.1c1.2,4.5,3.4,11.7,4.8,16.1
			c1.4,4.3,3.8,11.1,5.3,14.9c1.5,3.9,3,7,3.4,7.1s3.1-0.9,6.2-2.1s7.1-3.3,9.2-4.6c2-1.3,3.7-2.6,3.7-2.8c0-0.3-2.2-4.5-4.8-9.4
			s-6.8-12.2-9.3-16.1s-6.4-9.8-8.6-13c-2.3-3.2-4.3-5.8-4.6-5.8C271.1,389.1,269.9,389.8,268.7,390.6z"/>
		<path id="Path_6_2_" class="st2" d="M363.1,406.7c-0.6,0.1-0.9,0.6-0.8,1.1c0.1,0.5,0.5,3.7,0.8,7.3c0.4,3.6,1.2,9,1.8,12.2
			c0.6,3.2,1.5,7,1.9,8.5l0.8,2.8h4.3c1.1-4,1.8-7.2,2.3-9.6c0.5-2.4,1.2-6.8,1.7-9.6c0.4-2.9,0.8-6.8,1-8.7
			c0.3-3.3,0.3-3.5-0.8-3.8c-0.6-0.2-3.5-0.4-6.6-0.3C366.5,406.5,363.6,406.6,363.1,406.7z M336.5,428.3c-0.6,1.4-1.4,3.8-1.8,5.3
			c-0.4,1.5-0.9,3.6-1,4.6c-0.3,1.8-0.2,1.9,1.5,2.3c1,0.3,4,0.9,6.8,1.5c2.8,0.5,6.7,1.2,8.8,1.5c2.1,0.3,6,0.6,8.6,0.8l4.8,0.3
			c1.1-3.8,1.1-4.2,0.3-4.8c-0.5-0.4-3.6-2.5-7-4.6c-3.4-2.1-8.9-5.2-12.2-6.7c-3.3-1.6-6.4-2.9-6.8-2.9
			C337.9,425.7,337.2,426.8,336.5,428.3z M394.3,428.6c-3.3,1.6-8.7,4.6-12.1,6.7c-3.4,2.1-6.6,4.2-7,4.6c-0.7,0.6-0.8,1-0.2,2.7
			l0.6,2.1c7-0.5,10.9-0.9,13.1-1.1c2.2-0.3,6.3-1,9-1.5c2.8-0.5,5.8-1.2,6.8-1.5c1.7-0.5,1.8-0.5,1.5-2.3c-0.2-1-0.6-3.1-1-4.6
			c-0.4-1.5-1.2-3.9-1.8-5.3c-0.8-1.7-1.4-2.6-2-2.6C400.6,425.7,397.5,427,394.3,428.6z M361.1,450.6c-2,1.7-6.2,5.7-9.2,8.8
			c-3,3.1-6.3,6.8-7.4,8.1l-1.9,2.4c4.5,4.3,7.2,6.3,8.8,7.2l3.1,1.7c1.5-2,3.2-5,4.8-7.9c1.6-2.9,4-8,5.3-11.3
			c1.4-3.3,2.7-6.8,3.1-7.8c0.6-1.7,0.6-1.8-0.8-3.1c-0.8-0.7-1.6-1.3-1.7-1.3C365,447.5,363.2,448.9,361.1,450.6z M372.6,448.9
			l-1.4,1.3c1.4,3.9,3,7.8,4.4,11.1c1.4,3.3,4,8.6,5.7,11.8c1.8,3.2,3.4,5.8,3.7,5.8c0.3,0,1.7-0.7,3.3-1.6s4.1-2.8,5.7-4.4l2.9-2.8
			c-3.7-4.5-6.9-8-9.5-10.8c-2.6-2.7-6.5-6.4-8.7-8.3c-2.2-1.8-4.1-3.3-4.3-3.3C374.2,447.5,373.4,448.1,372.6,448.9z"/>
		<path id="Path_7_2_" class="st0" d="M258.3,462.7c-0.9,0.1-2.2,0.3-2.8,0.5l-1.1,0.3c0.4,14,0.9,21.9,1.2,26.7
			c0.4,4.8,1.1,12.2,1.7,16.6s1.5,11.5,2.2,15.9s1.4,8.1,1.5,8.3c0.2,0.2,1.7,0.1,3.4-0.1c1.8-0.3,4.3-0.3,6.2,0
			c1.7,0.2,3.1,0.4,3.2,0.4c0,0,0.7-4.1,1.5-9c0.8-4.9,1.9-12.5,2.4-16.9c0.5-4.3,1.3-11.8,1.7-16.6c0.4-4.8,0.9-12.3,1.1-16.9
			c0.3-7.8,0.3-8.2-0.6-8.6c-0.5-0.2-5.2-0.5-10.4-0.6C264.2,462.6,259.2,462.6,258.3,462.7z M220.5,475.4c-1.8,1.1-4.7,3.1-6.4,4.3
			c-1.7,1.2-5,3.8-7.2,5.8c-3.4,3-4.1,3.7-3.7,4.5c0.2,0.5,2.8,3.9,5.5,7.5c2.8,3.7,7.7,9.8,10.9,13.6c3.2,3.8,8.8,10.2,12.4,14.2
			c3.6,4,8.4,8.9,10.5,11l3.9,3.8c4.6-3.9,6.9-5.6,8.2-6.3c2-1.1,2.2-1.3,1.8-2.3c-0.2-0.6-2.1-4.6-4.1-8.8
			c-2-4.3-5.4-10.9-7.5-14.9c-2.1-4-5.3-9.7-7.1-12.9c-1.8-3.2-5.6-9.3-8.4-13.8c-2.8-4.4-5.2-8-5.3-8
			C223.9,473.3,222.3,474.3,220.5,475.4z M306.4,480.4c-2.3,3.6-6.3,10-8.8,14.3c-2.5,4.3-6.2,10.9-8.3,14.9
			c-2.1,4-5.4,10.6-7.4,14.8c-2,4.2-3.6,7.9-3.6,8.3c0,0.4,0.2,0.7,0.5,0.7c0.3,0,1.6,0.7,3,1.6c1.4,0.9,3.5,2.6,4.6,3.7l2.2,2.1
			c15.9-16.8,23.2-25,26.6-29c3.4-4.1,8.6-10.5,11.5-14.4c2.9-3.8,5.4-7.2,5.4-7.5c0-0.3-1.7-2-3.7-3.9c-2-1.9-6.6-5.4-10.1-7.8
			c-3.5-2.4-6.7-4.4-7-4.4C310.9,473.8,308.7,476.7,306.4,480.4z M183.1,517.8c-0.3,0.7-1.4,3.6-2.5,6.3c-1,2.7-2.5,7.5-3.3,10.6
			c-0.8,3.2-1.4,6.2-1.4,6.8c0,1,0.7,1.3,8.7,3.6c4.8,1.4,11.4,3.2,14.6,3.9c3.3,0.8,9.2,2.1,13.1,3c3.9,0.8,11.2,2.2,16.2,3
			c5,0.8,9.6,1.5,10.3,1.5c1.1,0,1.3-0.2,1.3-1.5c0-0.8,0.5-2.9,1-4.6c0.5-1.7,1.4-3.8,1.9-4.7l0.9-1.6c-5.4-3.1-11.2-6.2-16.4-8.9
			c-5.2-2.7-13.4-6.6-18.1-8.7c-4.7-2.1-12.2-5.3-16.5-7c-4.4-1.7-8.3-3.2-8.6-3.2C184,516.4,183.5,517.1,183.1,517.8z M341.5,520.1
			c-4.3,1.7-10.9,4.5-14.8,6.1c-3.8,1.6-10.4,4.7-14.8,6.8c-4.3,2.1-10.7,5.4-14.2,7.4c-3.5,2-6.5,3.7-6.5,3.9
			c-0.1,0.2,0.4,1.6,1.1,3.2c0.7,1.6,1.5,4.3,1.9,6.1c0.4,1.8,0.7,3.2,0.8,3.3s3.7-0.5,8-1.1s11.4-1.9,15.7-2.7s11.6-2.4,16.2-3.5
			c4.6-1.1,11.4-2.9,15.2-4c3.8-1.1,7.4-2.1,8-2.2c0.9-0.1,1-0.4,0.8-1.6c-0.2-0.7-0.8-3.6-1.4-6.3c-0.6-2.7-1.7-6.6-2.4-8.7
			c-0.7-2.1-1.8-5.1-2.6-6.8c-0.9-2.1-1.6-3.1-2.2-3.1C349.7,517,345.8,518.4,341.5,520.1z M229.7,562.8c-4,0.6-11.3,2-16.2,3
			c-4.8,1-12.8,2.8-17.6,4c-4.8,1.2-11.1,2.9-14,3.7c-2.9,0.8-5.4,1.7-5.7,2c-0.3,0.3-0.3,1.6,0.2,3.8c0.3,1.8,1.4,5.9,2.3,9
			c0.9,3.2,2.5,7.5,3.4,9.6s1.8,3.8,1.8,3.8c0.1,0,3.7-1.4,8.1-3.1c4.4-1.6,12.5-5,18-7.5c5.5-2.4,14.9-7,20.9-10.1
			c6-3.1,11.4-6,11.9-6.4c0.9-0.7,0.9-0.7-0.4-3.8c-0.8-1.7-1.6-4.4-1.9-6.1c-0.5-2.8-0.6-3-2-3.1
			C237.7,561.7,233.8,562.1,229.7,562.8z M294.7,562.1c-0.1,0.4-0.5,1.9-0.7,3.4c-0.3,1.5-1.1,4.1-1.9,5.7l-1.4,3
			c3,1.8,8.5,4.8,14.2,7.7c5.6,3,13.1,6.7,16.6,8.3c3.5,1.6,10,4.4,14.3,6.2c4.3,1.8,9.4,3.8,11.3,4.5l3.4,1.3
			c2.5-5.6,3.8-9.1,4.6-11.4c0.8-2.3,1.9-6.3,2.5-8.9c0.6-2.6,1-5,0.8-5.4c-0.2-0.5-3.1-1.6-8.3-3.1c-4.4-1.3-10.2-2.9-12.8-3.6
			c-2.6-0.7-8.9-2.1-14-3.2c-5.1-1.1-12.9-2.6-17.4-3.2c-4.5-0.7-8.8-1.4-9.6-1.6C295.4,561.6,294.8,561.7,294.7,562.1z
			 M236.7,587.4c-5,5.3-12.3,13.3-16.2,18c-3.9,4.6-9.1,11.1-11.7,14.4c-2.5,3.3-5,6.6-5.5,7.3l-0.9,1.4c1.8,2,4.5,4.3,7.1,6.5
			c2.6,2.1,6.9,5.3,9.4,7c2.7,1.8,4.8,2.8,5,2.6c0.2-0.3,2.8-4.4,5.8-9.2c3-4.8,7.5-12.2,10-16.6s6.2-11.3,8.3-15.4
			c2.1-4.1,4.8-9.6,6-12.2c1.2-2.6,2.2-5,2.2-5.3s-1.2-1.3-2.8-2.2c-1.5-0.9-3.7-2.5-4.9-3.7c-1.2-1.2-2.3-2.1-2.5-2.1
			C246,577.9,241.7,582.2,236.7,587.4z M285.6,580.3c-1.3,1.3-3.6,3-5,3.8c-1.4,0.8-2.6,1.5-2.7,1.6c-0.1,0.1,2,4.7,4.7,10.2
			c2.6,5.5,6.2,12.6,7.9,15.7c1.7,3.1,4.5,8.1,6.2,11.2s5.4,9.2,8.3,13.8s5.4,8.3,5.7,8.3c0.3,0,2.3-1.1,4.4-2.4
			c2.1-1.3,5.6-3.8,7.9-5.6c2.2-1.7,5.2-4.3,6.6-5.6l2.5-2.5c-6-8-10-13.1-12.6-16.4c-2.6-3.3-6.7-8.2-9.1-10.9
			c-2.3-2.7-8.2-9.1-13.1-14.3c-4.8-5.1-8.9-9.3-9.1-9.3C288.1,577.9,286.9,579,285.6,580.3z M259.9,592c-0.5,2.5-1.3,8-1.9,12.4
			c-0.6,4.3-1.6,12.3-2.1,17.6c-0.5,5.3-1.2,14.9-1.5,21.2c-0.3,6.3-0.5,11.6-0.4,11.7c0.1,0.1,3,0.5,6.4,0.8
			c3.4,0.3,7.9,0.4,10,0.2s5.2-0.4,6.9-0.5l3.1-0.3c-0.6-14.3-1.1-22.4-1.4-27.2s-1.1-12.2-1.7-16.6c-0.5-4.3-1.5-11.5-2.2-15.9
			l-1.2-7.9h-13.1L259.9,592z"/>
	</g>
</g>
</svg>
